<svg width="320" height="361" viewBox="0 0 320 361" fill="none" xmlns="http://www.w3.org/2000/svg">
<g clip-path="url(#clip0_164_11)">
<path fill-rule="evenodd" clip-rule="evenodd" d="M206.705 254.159C208.533 246.483 214.495 240.334 218.567 238.298C223.552 235.805 227.998 234.299 238.935 237.727C232.444 229.635 226.907 222.614 225.412 220.453C223.168 217.202 222.368 213.484 221.517 209.547C220.914 206.742 220.291 203.865 219.117 200.884C215.523 200.24 211.691 201.393 207.993 204.25C202.727 208.311 198.385 215.395 197.118 221.637C196.744 223.486 196.744 224.182 196.868 225.979C197.139 230.009 197.502 232.512 197.938 233.115C198.136 233.395 198.364 233.748 198.624 234.185C199.289 231.276 200.172 228.576 201.262 226.135C201.376 225.875 201.688 225.761 201.948 225.875C202.207 225.989 202.322 226.301 202.207 226.561C201.002 229.24 200.057 232.253 199.393 235.525C201.47 239.264 204.513 245.745 205.967 250.866C206.258 251.884 206.497 252.995 206.695 254.159H206.705ZM83.6407 340.131C83.4122 340.131 83.2045 339.975 83.1421 339.747C83.1006 339.581 83.1421 339.414 83.2356 339.279C84.7209 337.192 86.9853 334.927 89.8209 332.684C89.9352 325.122 91.6802 316.854 94.225 308.721C87.2034 305.563 81.823 300.619 78.1564 293.93C74.2509 292.206 71.9243 288.581 72.454 286.431C72.589 285.87 73.1291 284.613 75.3727 284.696C76.2972 283.72 77.4086 283.481 78.3745 284.063C80.1507 285.143 80.9817 288.789 79.112 293.484C82.6436 299.892 87.8162 304.639 94.5574 307.714C95.461 304.909 96.4478 302.136 97.4968 299.414C92.6462 292.32 89.8832 283.367 88.803 270.549C85.2299 266.561 84.4197 261.024 86.1232 258.885C86.6737 258.189 87.9409 257.244 90.3403 258.49C91.9087 257.836 93.2902 258.126 94.0692 259.279C95.5337 261.45 94.5366 266.104 89.8521 270.539C90.8804 282.712 93.4771 291.333 97.9747 298.199C101.984 287.989 106.71 278.661 110.294 272.128L110.647 271.484C111.561 269.781 111.955 265.927 112.361 261.845C112.496 260.474 112.641 259.082 112.797 257.721C112.277 248.861 105.443 241.435 100.976 239.202C95.8349 236.636 91.5867 235.244 79.8806 239.181C69.3171 252.331 56.8217 267.641 55.1806 269.562C53.9861 270.954 51.0881 273.052 48.024 275.275C44.9702 277.488 41.8022 279.783 40.6389 281.185C38.2603 284.063 24.9131 293.234 24.3522 293.629C24.2899 293.67 24.2172 293.702 24.1341 293.712L13.9653 295.291H10.3506C7.97202 295.291 5.66613 294.616 3.67184 293.328C3.60952 293.286 3.55758 293.234 3.51604 293.162L1.3971 289.755C0.867371 289.36 0.618085 288.726 0.732341 288.062C0.856984 287.366 1.36594 286.836 2.06187 286.68L6.3205 285.735C6.38282 285.724 12.293 284.343 14.1834 283.138C14.2249 283.107 17.4968 279.96 18.816 277.322C18.2135 277.436 17.6111 277.571 17.0398 277.706C16.6035 278.184 15.8661 278.703 14.7755 279.274C13.581 279.908 11.6074 280.749 9.61316 280.749C8.79259 280.749 7.97202 280.604 7.20339 280.261C6.6425 280.001 6.39321 279.399 6.34128 278.963C6.29973 278.537 6.42437 278.184 6.69443 277.997C8.33556 276.823 9.64432 275.39 10.683 273.603C11.3893 272.388 12.5007 271.463 13.7887 270.985C15.5233 270.341 17.4241 269.386 19.0133 268.347C20.561 267.34 22.4514 266.955 24.3314 267.257C25.6817 267.475 30.3247 268.119 33.9809 267.485C39.891 261.232 47.5462 251.739 54.8066 238.526C44.3158 238.526 25.3078 228.783 22.9084 203.782C22.1502 195.93 23.1265 189.199 25.796 183.756C33.046 168.976 48.3564 167.168 60.9037 167.241C63.0642 167.251 65.2247 167.314 67.3229 167.366L68.2785 167.386C69.5145 167.012 70.7817 166.576 71.945 166.015C75.4766 164.333 78.333 161.663 80.1507 158.308C82.1761 154.569 82.6436 150.373 81.4802 146.509C80.3792 142.863 76.2972 136.953 72.3501 131.23C69.0575 126.462 65.9414 121.944 64.5392 118.765C64.321 118.464 64.1237 118.173 63.9471 117.872C61.0284 113.125 60.509 105.886 62.628 99.4249C64.186 94.6884 66.9697 90.8141 70.6674 88.1447C73.1499 86.3477 76.2764 85.039 79.2782 84.4262C83.5057 83.564 88.5122 83.7095 93.7679 84.9351C98.5979 86.0569 101.932 85.7661 103.667 84.0834C105.1 82.6915 105.495 80.261 104.84 76.8749C102.846 73.7172 101.797 70.2169 101.797 65.0546C101.797 49.6923 114.552 39.1392 124.804 31.3179C125.49 25.4389 129.52 17.7006 135.118 11.5204C141.475 4.49887 150.564 0.46875 160.026 0.46875C169.489 0.46875 178.577 4.49887 184.934 11.5204C190.532 17.7006 194.563 25.4389 195.248 31.3179C205.51 39.1392 218.255 49.6923 218.255 65.0546C218.255 70.2065 217.206 73.7172 215.212 76.8749C214.547 80.261 214.942 82.6915 216.386 84.0834C218.131 85.7765 221.454 86.0673 226.284 84.9351C231.54 83.7095 236.547 83.564 240.774 84.4262C243.776 85.039 246.902 86.3477 249.385 88.1447C253.082 90.8141 255.877 94.6884 257.424 99.4249C259.543 105.886 259.024 113.125 256.105 117.872C255.918 118.173 255.721 118.464 255.513 118.765C254.111 121.944 250.995 126.452 247.702 131.23C243.755 136.942 239.673 142.863 238.572 146.509C237.398 150.373 237.876 154.559 239.901 158.308C241.719 161.663 244.576 164.333 248.107 166.015C249.27 166.566 250.527 167.012 251.774 167.386L252.729 167.366C254.838 167.314 256.988 167.251 259.148 167.241C271.696 167.168 287.006 168.976 294.256 183.756C296.926 189.199 297.892 195.93 297.144 203.782C294.734 228.794 275.726 238.526 265.266 238.526C272.506 251.728 280.161 261.232 286.071 267.485C289.728 268.119 294.37 267.485 295.721 267.257C297.611 266.955 299.502 267.34 301.039 268.347C302.628 269.386 304.529 270.341 306.263 270.985C307.562 271.463 308.663 272.388 309.38 273.603C310.418 275.379 311.727 276.813 313.368 277.997C313.628 278.184 313.763 278.537 313.721 278.963C313.68 279.399 313.43 280.001 312.859 280.261C312.08 280.614 311.26 280.749 310.449 280.749C308.445 280.749 306.482 279.908 305.287 279.274C304.196 278.693 303.449 278.184 303.023 277.706C302.451 277.571 301.849 277.436 301.247 277.322C302.566 279.97 305.838 283.107 305.879 283.138C307.759 284.343 313.68 285.724 313.742 285.735L318.001 286.68C318.697 286.836 319.206 287.366 319.33 288.062C319.444 288.716 319.195 289.36 318.665 289.755L316.547 293.162C316.505 293.224 316.453 293.286 316.391 293.328C314.396 294.616 312.091 295.291 309.712 295.291H306.097L295.928 293.712C295.856 293.702 295.783 293.67 295.71 293.629C295.149 293.245 281.802 284.073 279.424 281.185C278.26 279.773 275.092 277.488 272.039 275.275C268.974 273.052 266.077 270.954 264.882 269.562C263.231 267.641 250.735 252.331 240.182 239.181C228.486 235.244 224.228 236.636 219.086 239.202C214.62 241.435 207.785 248.851 207.266 257.721C207.432 259.082 207.567 260.474 207.702 261.845C208.107 265.927 208.502 269.77 209.416 271.484L209.769 272.128C213.342 278.661 218.079 287.989 222.088 298.199C226.585 291.333 229.182 282.712 230.21 270.539C225.516 266.104 224.529 261.44 225.993 259.279C226.772 258.126 228.154 257.836 229.722 258.49C232.122 257.244 233.389 258.189 233.939 258.885C235.643 261.035 234.833 266.561 231.26 270.549C230.179 283.356 227.416 292.32 222.566 299.414C223.615 302.136 224.602 304.92 225.505 307.714C232.246 304.649 237.419 299.892 240.951 293.484C239.071 288.789 239.912 285.143 241.688 284.063C242.654 283.481 243.755 283.709 244.69 284.696C246.923 284.613 247.463 285.87 247.609 286.431C248.138 288.581 245.812 292.206 241.906 293.93C238.229 300.619 232.859 305.553 225.838 308.721C228.382 316.844 230.127 325.112 230.242 332.673C233.067 334.917 235.342 337.181 236.827 339.269C236.931 339.404 236.972 339.57 236.92 339.736C236.858 339.965 236.65 340.121 236.422 340.121C236.38 340.121 236.328 340.121 236.287 340.1C234.729 339.674 232.506 339.051 229.764 338.303C225.723 339.82 216.209 340.9 206.476 340.9C199.766 340.9 192.963 340.38 187.78 339.144C183.989 344.12 180.935 349.583 178.66 355.431L178.349 356.241C177.944 357.301 176.988 358.007 175.856 358.09C175.326 358.132 174.838 358.038 174.391 357.83C174.35 358.319 174.183 358.807 173.882 359.243C173.332 360.043 172.449 360.5 171.493 360.5C171.337 360.5 171.171 360.489 171.015 360.458C169.219 360.167 167.39 359.939 165.562 359.794C163.807 359.648 161.937 359.575 160.078 359.575C158.208 359.575 156.349 359.648 154.594 359.794C152.766 359.939 150.938 360.157 149.141 360.458C148.974 360.489 148.819 360.5 148.663 360.5C147.718 360.5 146.824 360.043 146.274 359.243C145.973 358.817 145.806 358.329 145.765 357.83C145.318 358.038 144.83 358.132 144.3 358.09C143.168 358.007 142.223 357.29 141.807 356.241L141.496 355.431C139.231 349.583 136.167 344.12 132.376 339.144C127.193 340.38 120.39 340.9 113.68 340.9C103.947 340.9 94.4327 339.82 90.3922 338.303C87.6501 339.051 85.4169 339.674 83.8692 340.1C83.8173 340.11 83.7757 340.121 83.7342 340.121L83.6407 340.131ZM90.8804 331.874C98.7433 325.943 110.314 320.313 121.189 318.537C117.668 316.605 114.459 314.704 111.561 312.762C105.391 312.346 99.9274 311.141 95.1806 309.147C92.7812 316.854 91.0985 324.675 90.8804 331.874ZM95.4922 308.15C99.6989 309.926 104.487 311.069 109.847 311.578C105.121 308.223 101.267 304.66 98.1928 300.443C97.2268 302.977 96.3231 305.553 95.4922 308.139V308.15ZM98.6498 299.259C102.69 288.841 107.531 279.295 111.166 272.647L111.519 271.993C112.537 270.103 112.911 266.332 113.347 261.97C113.732 258.158 114.126 254.211 114.988 251.146C116.817 244.686 121.189 236.075 122.872 233.717C124.461 231.484 124.7 213.348 124.7 202.733C124.7 200.884 124.305 198.267 123.797 194.964C123.038 189.999 122.114 183.891 122 177.098C123.859 178.947 126.175 180.557 128.938 181.907C131.556 183.185 134.183 183.683 136.687 183.683C141.942 183.683 146.648 181.502 149.494 179.83C149.743 179.685 149.826 179.363 149.681 179.124C149.535 178.874 149.213 178.791 148.974 178.937C144.061 181.835 136.687 184.546 129.405 180.983C123.755 178.22 120.078 174.366 118.468 169.526C116.546 163.772 117.627 156.428 121.501 148.867C121.615 148.648 121.553 148.389 121.376 148.233C120.951 147.88 120.369 147.194 119.735 146.301C119.569 146.062 119.247 146.01 119.008 146.176C118.769 146.343 118.717 146.665 118.884 146.903C119.444 147.693 119.964 148.316 120.4 148.752C117.419 154.694 116.121 160.521 116.598 165.6C114.521 171.427 109.566 181.128 105.567 188.939C103.708 192.585 101.942 196.023 100.748 198.558C98.9614 202.318 98.1824 205.891 97.4345 209.35C96.6036 213.182 95.8246 216.797 93.6952 219.882C89.7378 225.626 57.0814 265.74 54.3496 268.929C53.2382 270.227 50.2572 272.388 47.3696 274.475C44.2639 276.729 41.044 279.056 39.7975 280.573C37.6059 283.211 25.0481 291.894 23.8121 292.746L13.8406 294.304H10.3091C8.16937 294.304 6.09199 293.702 4.29505 292.559L2.18651 289.163C2.14496 289.1 2.09303 289.038 2.03071 288.996C1.66716 288.768 1.70871 288.394 1.72949 288.29C1.75026 288.186 1.84374 287.833 2.25922 287.74L6.51785 286.794C6.76714 286.732 12.6773 285.361 14.7858 284C15.0247 283.782 18.8367 280.136 20.0001 277.176C21.1738 277.031 22.2956 277.051 23.1785 277.415C25.7752 279.752 29.7638 279.949 32.2255 278.931C32.4851 278.817 32.6202 278.516 32.5059 278.256C32.402 277.997 32.0904 277.862 31.8308 277.976C29.6495 278.88 26.0972 278.703 23.8121 276.594C23.7705 276.553 23.7186 276.522 23.6667 276.501C21.662 275.618 18.8887 276.252 16.6659 276.771C16.5516 276.802 16.375 276.875 16.3023 276.968C16.0842 277.238 15.5545 277.706 14.2457 278.412C12.7292 279.212 9.86244 280.406 7.58771 279.368C7.40074 279.285 7.31765 278.983 7.32803 278.838C9.05226 277.581 10.4337 276.065 11.5347 274.185C12.1268 273.177 13.0408 272.408 14.1107 272.014C15.918 271.349 17.8915 270.352 19.543 269.272C20.8726 268.399 22.5033 268.067 24.1341 268.337C25.5467 268.565 30.4701 269.24 34.3029 268.534C34.4067 268.513 34.5106 268.461 34.5833 268.378C43.059 259.446 55.1286 243.855 64.5288 220.329C65.5363 217.825 68.133 214.439 70.8856 210.856C74.012 206.784 77.2528 202.577 78.8523 198.88C81.9165 191.816 90.4338 165.725 93.446 153.385C93.4563 153.333 93.4667 153.281 93.4563 153.229C92.6669 139.144 98.172 121.549 100.717 117.893C105.183 111.463 112.433 110.31 114.812 109.926C118.25 109.376 123.537 106.841 129.655 103.902C131.961 102.801 134.339 101.658 136.739 100.567C145.692 96.4957 146.887 87.6565 146.991 79.3677C150.761 83.7095 155.819 88.1862 159.985 88.1862C164.15 88.1862 169.198 83.7095 172.979 79.3677C173.082 87.6669 174.277 96.4957 183.23 100.567C185.63 101.658 188.008 102.801 190.314 103.902C196.432 106.841 201.709 109.376 205.157 109.926C207.536 110.31 214.786 111.463 219.252 117.893C221.787 121.549 227.302 139.144 226.513 153.229C226.513 153.281 226.513 153.333 226.523 153.385C229.546 165.725 238.053 191.816 241.117 198.88C242.727 202.577 245.957 206.784 249.084 210.856C251.836 214.439 254.443 217.825 255.44 220.329C264.84 243.855 276.92 259.446 285.386 268.378C285.458 268.461 285.562 268.513 285.666 268.534C289.509 269.251 294.422 268.565 295.835 268.337C297.466 268.077 299.097 268.41 300.426 269.272C302.078 270.352 304.051 271.349 305.858 272.014C306.928 272.408 307.842 273.177 308.434 274.185C309.535 276.065 310.906 277.581 312.641 278.838C312.641 278.983 312.568 279.285 312.381 279.368C310.107 280.396 307.229 279.212 305.713 278.412C304.394 277.716 303.864 277.249 303.656 276.968C303.584 276.875 303.407 276.792 303.293 276.771C301.06 276.262 298.297 275.618 296.292 276.501C296.24 276.522 296.188 276.553 296.147 276.594C293.862 278.703 290.309 278.869 288.128 277.976C287.868 277.862 287.557 277.997 287.453 278.256C287.339 278.526 287.474 278.828 287.733 278.931C290.195 279.949 294.183 279.752 296.78 277.415C297.663 277.051 298.795 277.041 299.959 277.176C301.122 280.136 304.924 283.782 305.173 284C307.281 285.361 313.181 286.742 313.441 286.794L317.699 287.74C318.115 287.833 318.208 288.186 318.229 288.29C318.25 288.394 318.281 288.757 317.928 288.996C317.866 289.038 317.814 289.09 317.772 289.163L315.664 292.559C313.856 293.702 311.779 294.294 309.65 294.294H306.118L296.147 292.746C294.911 291.894 282.353 283.211 280.161 280.573C278.915 279.056 275.695 276.729 272.589 274.475C269.702 272.388 266.721 270.227 265.609 268.929C262.877 265.74 230.221 225.626 226.263 219.882C224.134 216.797 223.355 213.172 222.524 209.35C221.776 205.891 221.008 202.318 219.211 198.558C218.006 196.023 216.25 192.585 214.391 188.939C210.403 181.128 205.438 171.427 203.36 165.6C203.838 160.521 202.54 154.704 199.559 148.752C200.369 147.953 201.428 146.509 202.509 144.691C202.654 144.442 202.571 144.13 202.332 143.974C202.083 143.829 201.771 143.902 201.615 144.151C200.462 146.083 199.33 147.61 198.582 148.233C198.395 148.389 198.343 148.648 198.447 148.867C202.322 156.428 203.402 163.761 201.48 169.526C199.87 174.366 196.193 178.22 190.543 180.983C188.279 182.094 185.827 182.655 183.262 182.666C182.971 182.666 182.742 182.904 182.742 183.185C182.742 183.476 182.971 183.704 183.262 183.704C185.983 183.704 188.59 183.091 191 181.918C193.763 180.567 196.079 178.957 197.938 177.109C197.824 183.902 196.9 190.009 196.141 194.974C195.643 198.287 195.238 200.895 195.238 202.743C195.238 213.359 195.477 231.494 197.066 233.728C198.738 236.085 203.111 244.696 204.95 251.157C205.822 254.221 206.217 258.158 206.591 261.98C207.027 266.343 207.411 270.113 208.419 272.003L208.772 272.658C212.407 279.305 217.248 288.851 221.299 299.269C215.918 306.924 208.014 312.388 197.055 318.298C195.342 318.08 193.649 317.965 192.007 317.976C196.505 312.377 203.298 302.51 203.911 293.473C205.832 292.009 207.027 291.198 207.068 291.167C207.255 291.043 207.338 290.814 207.276 290.596C207.214 290.378 207.027 290.222 206.798 290.212C206.663 290.212 206.528 290.212 206.393 290.212C198.634 290.212 183.355 299.425 177.663 309.168C177.175 308.586 176.469 308.212 175.669 308.15C175.149 308.108 174.64 308.212 174.194 308.42C174.152 307.932 173.986 307.444 173.685 307.018C173.041 306.083 171.961 305.615 170.839 305.782L169.977 305.917C166.611 306.436 163.277 306.696 159.953 306.696C156.63 306.696 153.295 306.436 149.93 305.917L149.068 305.782C147.946 305.615 146.855 306.083 146.222 307.018C145.931 307.444 145.754 307.932 145.713 308.42C145.266 308.212 144.757 308.108 144.238 308.15C143.449 308.212 142.742 308.586 142.244 309.168C136.552 299.425 121.273 290.212 113.513 290.212C113.378 290.212 113.243 290.212 113.108 290.212C112.88 290.212 112.693 290.378 112.631 290.596C112.568 290.814 112.651 291.043 112.838 291.167C112.88 291.198 114.085 292.009 115.996 293.473C116.609 302.52 123.402 312.377 127.899 317.976C126.248 317.976 124.565 318.09 122.851 318.298C111.893 312.377 103.989 306.924 98.6082 299.259H98.6498ZM221.776 300.453C218.702 304.67 214.848 308.233 210.122 311.578C215.482 311.069 220.27 309.926 224.477 308.15C223.646 305.553 222.732 302.977 221.776 300.453ZM224.799 309.157C220.052 311.141 214.589 312.357 208.419 312.772C205.521 314.725 202.322 316.615 198.79 318.547C209.665 320.323 221.236 325.953 229.089 331.884C228.871 324.686 227.188 316.864 224.789 309.157H224.799ZM159.985 307.714C156.609 307.714 153.223 307.444 149.805 306.914L148.943 306.779C148.216 306.665 147.531 306.966 147.105 307.568C146.689 308.181 146.658 308.929 147.032 309.562L152.226 318.558C152.371 318.807 152.288 319.129 152.039 319.264C151.789 319.409 151.467 319.326 151.332 319.077L146.139 310.082C145.765 309.438 145.1 309.095 144.363 309.147C143.625 309.209 143.023 309.656 142.763 310.352C140.229 317.041 136.676 323.252 132.189 328.83L131.639 329.505C131.171 330.077 131.088 330.824 131.41 331.489C131.732 332.154 132.366 332.559 133.103 332.559H151.166C151.239 331.375 151.54 330.253 152.028 329.235L144.944 325.216C144.695 325.07 144.612 324.759 144.747 324.509C144.892 324.26 145.204 324.166 145.453 324.312L152.527 328.332C153.202 327.283 154.085 326.379 155.134 325.693L153.732 323.263C153.586 323.014 153.669 322.692 153.919 322.556C154.168 322.411 154.479 322.494 154.625 322.743L156.027 325.174C157.066 324.655 158.229 324.333 159.444 324.26V316.075C159.444 315.784 159.673 315.556 159.964 315.556C160.255 315.556 160.483 315.784 160.483 316.075V324.26C161.709 324.333 162.862 324.655 163.9 325.174L165.303 322.743C165.448 322.494 165.76 322.411 166.009 322.556C166.258 322.702 166.341 323.014 166.196 323.263L164.794 325.693C165.832 326.379 166.726 327.283 167.401 328.332L174.474 324.312C174.724 324.166 175.046 324.26 175.181 324.509C175.326 324.759 175.233 325.081 174.983 325.216L167.899 329.235C168.388 330.253 168.699 331.375 168.761 332.559H186.824C187.562 332.559 188.195 332.164 188.517 331.489C188.839 330.824 188.746 330.077 188.289 329.505L187.738 328.83C183.251 323.263 179.699 317.041 177.165 310.352C176.905 309.656 176.302 309.209 175.565 309.147C174.827 309.085 174.163 309.438 173.789 310.082L168.595 319.077C168.45 319.326 168.138 319.409 167.889 319.264C167.64 319.118 167.557 318.807 167.702 318.558L172.895 309.562C173.269 308.918 173.238 308.171 172.823 307.568C172.407 306.955 171.711 306.654 170.984 306.779L170.122 306.914C166.705 307.444 163.319 307.714 159.943 307.714H159.985ZM159.985 325.299C155.684 325.299 152.194 328.799 152.194 333.089C152.194 337.379 155.695 340.879 159.985 340.879C164.274 340.879 167.775 337.379 167.775 333.089C167.775 328.799 164.274 325.299 159.985 325.299ZM159.985 341.928C158.551 341.928 157.201 341.585 156.006 340.983L153.295 345.678C153.202 345.844 153.025 345.937 152.849 345.937C152.766 345.937 152.672 345.917 152.589 345.865C152.34 345.719 152.257 345.408 152.402 345.158L155.113 340.464C154.521 340.069 153.971 339.601 153.493 339.082L146.544 345.73C146.44 345.823 146.315 345.875 146.18 345.875C146.045 345.875 145.91 345.823 145.806 345.719C145.609 345.512 145.619 345.179 145.827 344.982L152.838 338.272C151.883 336.953 151.28 335.353 151.176 333.629H133.114C132.376 333.629 131.743 334.034 131.421 334.699C131.099 335.374 131.192 336.111 131.659 336.693C136.188 342.229 139.792 348.41 142.379 355.088L142.69 355.898C142.96 356.584 143.563 357.031 144.29 357.093C145.007 357.155 145.64 356.833 146.014 356.241C146.045 356.189 146.076 356.137 146.118 356.085C146.274 355.898 146.554 355.847 146.772 355.971C147.022 356.117 147.105 356.428 146.959 356.677C146.585 357.321 146.617 358.069 147.042 358.682C147.468 359.295 148.154 359.586 148.891 359.472C150.688 359.181 152.506 358.952 154.334 358.807C156.235 358.651 158.115 358.578 160.005 358.589C161.885 358.589 163.776 358.651 165.677 358.807C167.505 358.952 169.322 359.181 171.119 359.472C171.857 359.586 172.542 359.295 172.968 358.682C173.394 358.069 173.425 357.321 173.051 356.677C172.906 356.428 172.989 356.106 173.238 355.971C173.456 355.847 173.737 355.898 173.893 356.085C173.934 356.137 173.965 356.189 173.997 356.241C174.37 356.833 175.004 357.155 175.721 357.093C176.458 357.041 177.061 356.594 177.32 355.898L177.632 355.088C180.218 348.42 183.823 342.229 188.351 336.693C188.819 336.122 188.912 335.374 188.59 334.699C188.268 334.024 187.635 333.629 186.897 333.629H168.834C168.73 335.353 168.128 336.953 167.172 338.272L174.183 344.982C174.391 345.179 174.402 345.512 174.204 345.719C174.1 345.823 173.965 345.875 173.83 345.875C173.706 345.875 173.571 345.823 173.467 345.73L166.518 339.082C166.04 339.601 165.49 340.069 164.898 340.464L167.609 345.158C167.754 345.408 167.671 345.719 167.422 345.865C167.338 345.917 167.245 345.937 167.162 345.937C166.985 345.937 166.809 345.844 166.715 345.678L164.004 340.983C162.81 341.585 161.459 341.928 160.026 341.928H159.985ZM159.985 354.351C160.275 354.351 160.504 354.122 160.504 353.831V345.148C160.504 344.857 160.275 344.629 159.985 344.629C159.694 344.629 159.465 344.857 159.465 345.148V353.831C159.465 354.122 159.694 354.351 159.985 354.351ZM188.538 333.089C188.943 333.369 189.276 333.764 189.504 334.231C189.992 335.26 189.847 336.444 189.13 337.327C188.881 337.628 188.632 337.94 188.393 338.251C193.721 339.466 200.67 339.934 207.422 339.882C206.393 338.21 203.547 333.587 201.792 330.887C197.242 329.723 192.589 328.55 188.008 327.438C188.206 327.688 188.403 327.937 188.601 328.186L189.151 328.861C189.857 329.744 189.992 330.928 189.504 331.946C189.276 332.414 188.943 332.798 188.549 333.078L188.538 333.089ZM170.59 351.92C170.683 351.92 170.766 351.9 170.849 351.848C171.099 351.702 171.182 351.391 171.036 351.141L170.184 349.656C170.039 349.407 169.727 349.324 169.478 349.469C169.229 349.614 169.146 349.926 169.291 350.175L170.143 351.661C170.236 351.827 170.413 351.92 170.59 351.92ZM178.276 310.217C179.013 312.149 179.844 314.05 180.758 315.898C183.812 311.328 187.385 307.173 190.886 303.6C191.26 300.993 191.104 298.667 190.969 297.503C185.692 301.035 180.769 305.647 178.266 310.227L178.276 310.217ZM181.288 316.958C181.735 317.82 182.192 318.672 182.68 319.513C185.142 318.589 187.832 318.101 190.667 317.986C193.285 314.787 195.539 311.598 197.367 308.503C195.425 308.42 190.532 308.347 187.011 309.365C184.996 311.733 183.054 314.278 181.299 316.958H181.288ZM183.21 320.427C184.373 322.39 185.64 324.291 187.001 326.13C189.39 326.711 191.81 327.303 194.23 327.906C196.578 325.652 199.071 323.533 199.091 323.512C199.309 323.325 199.642 323.356 199.829 323.574C200.016 323.793 199.985 324.125 199.766 324.301C199.746 324.322 197.596 326.15 195.425 328.207C200.909 329.578 206.373 330.991 211.483 332.341C214.454 331.146 219.605 329.215 221.807 328.384C209.987 321.518 194.054 316.459 183.21 320.427ZM244.825 285.745C244.69 285.745 244.555 285.745 244.43 285.766C244.274 285.776 244.098 285.714 243.994 285.579C243.63 285.153 242.914 284.509 242.155 284.966C241.013 285.662 240.14 288.622 241.74 292.84C245.136 291.198 246.871 288.124 246.518 286.69C246.331 285.932 245.562 285.745 244.825 285.745ZM231.779 258.937C231.156 258.937 230.481 259.217 229.93 259.529C229.785 259.612 229.608 259.622 229.452 259.549C228.756 259.217 227.489 258.833 226.783 259.871C225.775 261.357 226.357 265.428 230.647 269.604C233.638 266.062 234.428 261.294 233.046 259.549C232.703 259.113 232.246 258.947 231.779 258.947V258.937ZM191.935 296.859C192.049 297.669 192.288 299.799 192.059 302.406C197.523 296.994 202.633 293.078 205.053 291.313C201.46 291.759 196.619 293.868 191.935 296.859ZM188.175 308.015C192.059 307.225 196.661 307.412 197.938 307.485C200.649 302.697 202.332 298.178 202.789 294.314C199.071 297.233 193.472 302.001 188.164 308.004L188.175 308.015ZM203.256 331.271C205.303 334.45 208.159 339.124 208.616 339.861C216.365 339.736 223.688 338.937 227.821 337.804C221.35 336.039 212.594 333.67 203.256 331.271ZM222.95 329.069C221.745 329.516 216.676 331.406 213.166 332.788C222.483 335.249 230.449 337.451 234.968 338.698C232.392 335.602 228.112 332.185 222.96 329.069H222.95ZM131.421 333.089C131.015 332.808 130.683 332.424 130.465 331.957C129.977 330.939 130.112 329.755 130.818 328.872L131.369 328.197C131.566 327.947 131.763 327.698 131.961 327.449C127.38 328.56 122.727 329.734 118.177 330.897C116.411 333.587 113.565 338.21 112.547 339.892C119.299 339.944 126.248 339.477 131.576 338.261C131.337 337.95 131.088 337.649 130.839 337.337C130.122 336.454 129.977 335.27 130.465 334.242C130.693 333.774 131.026 333.38 131.431 333.099L131.421 333.089ZM149.369 351.92C149.546 351.92 149.722 351.827 149.816 351.661L150.667 350.175C150.813 349.926 150.73 349.604 150.481 349.469C150.231 349.324 149.909 349.407 149.774 349.656L148.922 351.141C148.777 351.391 148.86 351.713 149.109 351.848C149.193 351.9 149.276 351.92 149.369 351.92ZM141.683 310.217C139.19 305.636 134.256 301.024 128.98 297.493C128.845 298.656 128.689 300.983 129.063 303.59C132.563 307.163 136.136 311.318 139.19 315.888C140.104 314.039 140.925 312.149 141.672 310.206L141.683 310.217ZM138.66 316.958C136.905 314.278 134.952 311.733 132.947 309.365C129.426 308.337 124.534 308.42 122.592 308.503C124.42 311.598 126.674 314.797 129.291 317.986C132.127 318.111 134.817 318.589 137.279 319.513C137.757 318.672 138.224 317.82 138.671 316.958H138.66ZM136.739 320.427C125.895 316.459 109.961 321.518 98.1408 328.384C100.353 329.204 105.505 331.146 108.465 332.341C113.565 330.991 119.029 329.578 124.524 328.207C122.353 326.15 120.203 324.322 120.182 324.301C119.964 324.115 119.933 323.793 120.12 323.574C120.307 323.356 120.629 323.325 120.857 323.512C120.878 323.533 123.371 325.652 125.718 327.906C128.138 327.303 130.558 326.711 132.947 326.13C134.308 324.291 135.575 322.39 136.739 320.427ZM75.1234 285.745C74.386 285.745 73.6173 285.932 73.4304 286.69C73.0772 288.124 74.8118 291.198 78.2083 292.84C79.8079 288.622 78.9354 285.662 77.7929 284.966C77.0346 284.499 76.3075 285.153 75.9544 285.579C75.8505 285.704 75.6739 285.776 75.5181 285.766C75.3935 285.766 75.2585 285.745 75.1234 285.745ZM88.1694 258.937C87.6916 258.937 87.245 259.103 86.9022 259.539C85.5207 261.284 86.3101 266.052 89.3016 269.594C93.6018 265.418 94.173 261.346 93.1655 259.861C92.4592 258.822 91.192 259.217 90.4961 259.539C90.3403 259.612 90.1637 259.601 90.0183 259.518C89.4574 259.207 88.7926 258.926 88.1694 258.926V258.937ZM128.014 296.859C123.34 293.868 118.489 291.77 114.895 291.313C117.315 293.068 122.415 296.994 127.889 302.406C127.66 299.799 127.899 297.669 128.014 296.859ZM131.774 308.015C126.466 302.011 120.867 297.233 117.149 294.325C117.606 298.189 119.289 302.707 122 307.495C123.277 307.423 127.879 307.236 131.763 308.025L131.774 308.015ZM116.692 331.271C107.364 333.681 98.5979 336.039 92.1268 337.804C96.2504 338.937 103.584 339.736 111.332 339.861C111.789 339.113 114.646 334.45 116.692 331.271ZM96.9983 329.069C91.8464 332.185 87.567 335.602 84.991 338.698C89.5093 337.451 97.4761 335.26 106.793 332.788C103.272 331.406 98.2136 329.516 97.0087 329.069H96.9983ZM178.286 46.3166C178.359 46.3166 178.432 46.3062 178.504 46.2646C178.764 46.14 178.878 45.8284 178.754 45.5687C177.611 43.1382 171.182 41.2062 165.562 42.4838C165.282 42.5461 165.105 42.8266 165.168 43.107C165.23 43.3875 165.51 43.564 165.791 43.5017C171.005 42.3176 176.967 44.2288 177.809 46.0154C177.902 46.2023 178.089 46.3166 178.276 46.3166H178.286ZM159.995 153.904C173.685 153.904 184.83 142.769 184.83 129.069C184.83 127.449 184.674 125.818 184.352 124.218C184.3 123.98 184.093 123.803 183.843 123.803C183.594 123.803 183.386 123.98 183.334 124.218C181.132 135.312 171.327 143.361 159.995 143.361C148.663 143.361 138.858 135.312 136.656 124.218C136.604 123.98 136.396 123.803 136.147 123.803C135.897 123.803 135.69 123.98 135.638 124.218C135.326 125.818 135.16 127.449 135.16 129.069C135.16 142.759 146.295 153.904 159.995 153.904ZM136.292 126.992C136.23 127.688 136.199 128.373 136.199 129.069C136.199 142.188 146.876 152.866 159.995 152.866C173.114 152.866 183.791 142.188 183.791 129.069C183.791 128.373 183.76 127.688 183.698 126.992C180.499 137.223 170.922 144.411 159.995 144.411C149.068 144.411 139.491 137.233 136.292 126.992ZM145.973 78.1005C143.802 75.4622 142.202 73.0317 141.672 71.9203C139.616 67.5474 136.894 48.8614 136.084 38.2563C128.356 43.0862 120.442 48.4251 114.801 54.221C112.942 56.1218 111.883 58.168 111.374 60.7855C110.47 65.47 112.516 69.604 114.801 74.195C117.325 79.2846 120.14 84.9455 118.977 92.2267C118.541 94.9896 117.627 98.1992 115.695 100.297C112.724 103.507 107.323 105.304 100.042 105.304C99.7508 105.304 99.5223 105.075 99.5223 104.785C99.5223 104.494 99.7508 104.265 100.042 104.265C110.813 104.265 117.242 100.245 117.242 93.5043C117.242 91.3023 116.11 89.5781 114.563 87.8123C113.43 86.5139 112.277 85.4337 111.062 84.208C109.12 82.2657 107.458 80.5415 106.108 78.7861C106.315 81.497 105.734 83.5433 104.352 84.8832C102.337 86.8359 98.6913 87.2202 93.4979 86.005C84.8144 83.9795 76.8788 84.9663 72.267 88.6329C68.9224 91.2919 67.2294 95.3116 67.2294 100.609C67.2294 102.842 67.6968 104.67 68.5277 106.187C68.4758 104.359 69.0055 102.437 70.0442 100.941C71.1141 99.4145 73.1811 97.5864 76.9515 97.5864C81.3867 97.5864 85.178 99.1132 88.3771 100.536C88.6368 100.651 88.7615 100.962 88.6368 101.222C88.5226 101.481 88.2109 101.606 87.9513 101.481C84.8456 100.1 81.179 98.6251 76.9411 98.6251C73.6173 98.6251 71.81 100.204 70.8856 101.533C69.5664 103.424 69.1821 106.062 69.9092 108.139C72.7033 111.235 77.3359 112.803 82.1346 114.424C87.9201 116.376 93.8822 118.381 97.2476 123.211C98.2239 120.406 99.1691 118.308 99.8858 117.28C104.602 110.487 112.184 109.282 114.666 108.877C117.959 108.347 123.433 105.73 129.218 102.946C131.119 102.032 133.072 101.097 135.046 100.183C137.123 97.8772 138.099 95.5402 138.099 92.8396C138.099 89.1314 135.129 87.1164 131.68 84.7793C127.12 81.684 121.948 78.1732 121.948 69.7494C121.948 69.4586 122.176 69.2301 122.467 69.2301C122.758 69.2301 122.986 69.4586 122.986 69.7494C122.986 77.6227 127.92 80.9673 132.262 83.9172C135.793 86.3166 139.138 88.5809 139.138 92.8396C139.138 95.1143 138.484 97.2124 137.144 99.1963C144.425 95.4467 145.952 88.3109 145.973 78.1213V78.1005ZM137.081 37.6331C137.808 47.8227 140.603 67.1943 142.607 71.4737C144.186 74.8183 153.617 87.106 159.985 87.106C166.352 87.106 175.793 74.8287 177.372 71.4737C179.387 67.1943 182.171 47.8227 182.898 37.6331C181.153 36.5529 179.429 35.4934 177.746 34.4651C169.634 29.5002 162.55 25.1688 159.985 21.5957C157.409 25.1792 150.335 29.5106 142.223 34.4651C140.54 35.4934 138.816 36.5529 137.071 37.6331H137.081ZM183.906 38.2563C183.781 39.8559 183.615 41.6425 183.417 43.5433C184.093 43.3667 184.778 43.4602 185.422 43.8341C186.897 44.7066 187.832 46.8879 187.645 49.0276C187.541 50.2324 187.25 51.884 186.72 53.629C188.559 54.5949 190.21 55.6856 191.633 56.8905C191.852 57.0774 191.883 57.3994 191.696 57.6175C191.592 57.7422 191.447 57.8045 191.301 57.8045C191.187 57.8045 191.062 57.763 190.969 57.6799C189.65 56.5581 188.112 55.5298 186.398 54.6261C185.339 57.6383 183.552 60.7544 180.758 62.2605C179.948 66.6853 179.086 70.2792 178.328 71.8995C177.798 73.0213 176.199 75.4415 174.028 78.0798C174.048 88.2693 175.575 95.4051 182.857 99.1548C181.517 97.1709 180.862 95.0727 180.862 92.798C180.862 88.5394 184.196 86.275 187.738 83.8756C192.091 80.9258 197.014 77.5812 197.014 69.7079C197.014 69.4171 197.242 69.1886 197.533 69.1886C197.824 69.1886 198.053 69.4171 198.053 69.7079C198.053 78.1317 192.88 81.6425 188.32 84.7378C184.872 87.0748 181.901 89.0899 181.901 92.798C181.901 95.4986 182.867 97.8357 184.955 100.142C186.928 101.056 188.881 101.99 190.782 102.904C196.578 105.688 202.041 108.316 205.334 108.835C207.827 109.23 215.399 110.445 220.114 117.238C220.831 118.267 221.776 120.365 222.753 123.169C226.108 118.339 232.08 116.335 237.866 114.382C242.664 112.762 247.297 111.204 250.091 108.098C250.808 106.01 250.423 103.372 249.115 101.492C248.19 100.162 246.383 98.5835 243.059 98.5835C238.821 98.5835 235.155 100.058 232.049 101.44C231.789 101.554 231.478 101.44 231.363 101.18C231.249 100.921 231.363 100.609 231.623 100.495C234.822 99.0717 238.614 97.5448 243.049 97.5448C246.83 97.5448 248.886 99.3729 249.956 100.9C250.995 102.396 251.524 104.317 251.473 106.145C252.293 104.629 252.771 102.801 252.771 100.567C252.771 95.2701 251.078 91.24 247.733 88.5913C243.121 84.9247 235.186 83.9484 226.502 85.9634C221.309 87.1683 217.653 86.7944 215.648 84.8416C214.267 83.5017 213.685 81.4659 213.893 78.7445C212.532 80.4999 210.88 82.2241 208.938 84.1665C207.712 85.3921 206.559 86.4724 205.438 87.7707C203.9 89.5365 202.758 91.2711 202.758 93.4628C202.758 100.204 209.187 104.224 219.959 104.224C220.249 104.224 220.478 104.452 220.478 104.743C220.478 105.034 220.249 105.262 219.959 105.262C212.677 105.262 207.276 103.476 204.306 100.256C202.374 98.1577 201.46 94.9481 201.023 92.1852C199.87 84.9039 202.675 79.2535 205.199 74.1535C207.484 69.5521 209.53 65.4181 208.626 60.744C208.118 58.1265 207.058 56.0803 205.199 54.1795C199.559 48.394 191.644 43.0551 183.916 38.2148L183.906 38.2563ZM113.285 254.148C113.482 252.985 113.721 251.874 114.012 250.856C115.466 245.735 118.51 239.253 120.587 235.514C119.922 232.242 118.977 229.23 117.772 226.55C117.658 226.291 117.772 225.979 118.032 225.865C118.291 225.75 118.603 225.865 118.717 226.124C119.808 228.565 120.701 231.266 121.356 234.174C121.615 233.748 121.844 233.385 122.041 233.104C122.477 232.492 122.841 229.999 123.111 225.969C123.236 224.182 123.236 223.476 122.862 221.627C121.594 215.384 117.253 208.311 111.987 204.239C108.299 201.393 104.456 200.23 100.862 200.874C99.6885 203.844 99.0653 206.732 98.4628 209.537C97.6111 213.473 96.8113 217.181 94.5677 220.443C93.0824 222.603 87.5358 229.625 81.044 237.716C91.9814 234.289 96.427 235.795 101.413 238.287C105.484 240.323 111.446 246.472 113.275 254.148H113.285ZM128.699 57.8149C128.813 57.8149 128.938 57.7733 129.032 57.6902C130.496 56.4542 132.21 55.3324 134.142 54.356C134.402 54.2314 134.267 54.0652 134.142 53.8055C134.017 53.5459 133.934 53.307 133.674 53.4316C131.67 54.4391 129.883 55.6129 128.356 56.9008C128.138 57.0878 128.107 57.4098 128.294 57.6279C128.398 57.7526 128.543 57.8149 128.689 57.8149H128.699ZM124.285 63.1745C124.472 63.1745 124.648 63.0707 124.742 62.9045C124.96 62.4994 125.188 62.1047 125.448 61.71C125.604 61.4711 125.542 61.1491 125.292 60.9933C125.053 60.8375 124.731 60.9102 124.576 61.1491C124.305 61.5749 124.046 62.0008 123.817 62.4267C123.682 62.676 123.776 62.998 124.025 63.133C124.108 63.1745 124.191 63.1953 124.274 63.1953L124.285 63.1745ZM203.069 167.688C205.427 173.629 209.852 182.292 213.477 189.386C215.336 193.021 217.092 196.459 218.286 198.983C218.411 199.243 218.525 199.503 218.639 199.762C214.952 199.305 211.067 200.562 207.349 203.429C202.415 207.241 198.26 213.619 196.546 219.601C196.38 214.938 196.297 209.235 196.297 202.733C196.297 200.967 196.692 198.381 197.19 195.119C197.99 189.843 198.987 183.289 199.008 175.966C200.577 174.138 201.74 172.092 202.488 169.848C202.716 169.152 202.914 168.435 203.059 167.698L203.069 167.688ZM120.982 175.956C119.413 174.128 118.25 172.081 117.502 169.838C117.274 169.142 117.076 168.425 116.931 167.688C114.573 173.629 110.148 182.292 106.523 189.386C104.664 193.021 102.908 196.459 101.714 198.983C101.589 199.243 101.475 199.503 101.361 199.762C105.048 199.305 108.933 200.562 112.651 203.429C117.585 207.241 121.74 213.619 123.454 219.601C123.62 214.938 123.703 209.235 123.703 202.733C123.703 200.967 123.308 198.381 122.81 195.119C122.01 189.843 121.013 183.289 120.992 175.966L120.982 175.956ZM159.995 20.1416C160.172 20.1416 160.358 20.2247 160.452 20.3908C162.405 23.8705 169.779 28.3784 178.307 33.5926C194.282 43.3667 214.163 55.5298 214.163 69.8741C214.163 73.8627 213.29 76.9164 212.023 79.4093C215.388 75.4519 217.196 71.6606 217.196 65.1065C217.196 49.2976 203.049 38.5887 192.714 30.7674C188.04 27.2254 184.342 24.4314 182.992 21.9489C182.857 21.6996 182.95 21.3776 183.199 21.2426C183.449 21.1075 183.76 21.201 183.906 21.4503C185.142 23.7354 188.943 26.6022 193.337 29.9364L194.033 30.4662C193.046 24.9299 189.276 17.9395 184.134 12.2579C177.964 5.45447 169.167 1.54899 159.995 1.54899C150.823 1.54899 142.026 5.45447 135.856 12.2579C130.714 17.9291 126.933 24.9299 125.957 30.4662L126.653 29.9364C131.047 26.6022 134.848 23.7354 136.084 21.4503C136.219 21.201 136.541 21.1075 136.791 21.2426C137.04 21.3776 137.133 21.6996 136.998 21.9489C135.658 24.4314 131.961 27.2254 127.276 30.7674C116.941 38.5887 102.794 49.2976 102.794 65.1065C102.794 71.6606 104.591 75.4519 107.967 79.4093C106.7 76.9268 105.827 73.8627 105.827 69.8741C105.827 55.5402 125.708 43.3771 141.683 33.5926C150.21 28.368 157.585 23.8601 159.538 20.3908C159.631 20.2247 159.808 20.1416 159.995 20.1416ZM115.155 221.481C115.258 221.481 115.373 221.45 115.466 221.378C115.695 221.211 115.747 220.879 115.58 220.65C112.703 216.735 109.099 214.252 105.152 213.473C104.882 213.421 104.602 213.598 104.539 213.878C104.487 214.159 104.664 214.429 104.944 214.491C108.632 215.218 112.018 217.555 114.739 221.263C114.843 221.398 114.999 221.471 115.155 221.471V221.481ZM56.7282 227.236C49.6236 227.236 42.9032 224.141 39.0912 218.833C38.925 218.604 38.977 218.272 39.2055 218.106C39.4444 217.94 39.7664 217.991 39.9326 218.22C44.3262 224.327 52.7916 227.35 61.0907 225.782C61.9424 223.86 62.7838 221.876 63.594 219.83C64.3003 218.075 65.7544 215.914 67.489 213.567C66.5231 213.65 65.5779 213.691 64.643 213.691C63.7913 213.691 62.95 213.66 62.1398 213.587C61.849 213.567 61.6412 213.317 61.662 213.027C61.6828 212.736 61.9632 212.528 62.2229 212.549C64.1549 212.705 66.2115 212.673 68.3304 212.434C68.8913 211.697 69.473 210.939 70.065 210.17C71.4569 208.352 72.8695 206.514 74.1471 204.717C73.1291 204.862 72.0385 204.935 70.9167 204.935C65.8895 204.935 60.1767 203.46 56.7698 200.084C54.6093 197.955 53.7264 195.306 54.1938 192.419C51.6386 192.284 49.1042 192.232 46.6737 192.429C44.0977 197.124 45.3545 203.232 49.8417 207.47C50.0494 207.667 50.0598 207.999 49.8625 208.207C49.7586 208.311 49.6236 208.373 49.4885 208.373C49.3639 208.373 49.2289 208.332 49.1354 208.228C44.5028 203.844 43.0798 197.571 45.4584 192.554C43.8796 192.741 42.3423 193.052 40.8882 193.52C31.675 196.501 27.7279 204.987 27.489 213.13C27.4371 214.886 27.5617 216.579 27.8422 218.313C34.5314 232.284 47.6916 237.799 55.3571 237.498C57.1437 234.205 58.8887 230.684 60.5921 226.924C59.3042 227.132 58.0162 227.225 56.7386 227.225L56.7282 227.236ZM56.2089 212.362C56.427 212.362 56.6243 212.227 56.697 212.009C56.7905 211.739 56.6451 211.437 56.3751 211.344C55.7103 211.115 55.0663 210.856 54.4535 210.565C54.1938 210.44 53.8822 210.565 53.7576 210.814C53.6329 211.074 53.7576 211.385 54.0068 211.5C54.6508 211.801 55.3364 212.081 56.0323 212.32C56.0842 212.341 56.1465 212.351 56.1985 212.351L56.2089 212.362ZM74.978 203.543C76.1829 201.767 77.2112 200.043 77.9071 198.433C78.6758 196.657 79.7872 193.686 81.0751 190.02C78.2499 191.931 74.334 192.969 69.1925 193.167C65.9518 193.291 62.4099 193.021 58.9822 192.751C57.7461 192.658 56.4893 192.564 55.2429 192.481C54.7859 195.099 55.5545 197.415 57.5072 199.347C61.5374 203.336 69.4937 204.592 74.978 203.533V203.543ZM39.1432 183.694C39.2366 183.694 39.3301 183.673 39.4236 183.611C39.7768 183.393 40.1299 183.175 40.4831 182.977C40.7324 182.842 40.8258 182.52 40.6804 182.271C40.5454 182.022 40.2234 181.928 39.9741 182.074C39.6106 182.281 39.2366 182.499 38.8731 182.728C38.6342 182.884 38.5615 183.206 38.7069 183.445C38.8108 183.6 38.977 183.683 39.1432 183.683V183.694ZM46.4763 180.64C46.2478 180.64 46.0297 180.484 45.9777 180.256C45.905 179.975 46.0712 179.695 46.3517 179.622C51.836 178.199 57.9019 178.48 63.7809 178.739C71.8723 179.103 79.5275 179.456 85.8427 175.769C86.9853 172.196 88.1071 168.571 89.125 165.132C84.8767 168.903 76.6295 168.685 67.2709 168.425C65.1728 168.373 63.0227 168.311 60.8726 168.3C48.616 168.28 33.7004 169.973 26.6996 184.234C24.1133 189.5 23.1785 196.044 23.9159 203.699C24.321 207.927 25.2143 211.697 26.4607 215.052C26.0868 205.984 30.1065 195.909 40.5662 192.533C46.1647 190.726 52.7189 191.224 59.0653 191.713C62.6176 191.983 65.9829 192.242 69.1613 192.118C74.9053 191.889 79.0185 190.612 81.7087 188.212C82.8617 184.878 84.1185 181.087 85.3753 177.192C78.977 180.453 71.2283 180.1 63.729 179.757C57.9331 179.498 51.9398 179.217 46.6114 180.609C46.5698 180.619 46.5283 180.63 46.4763 180.63V180.64ZM95.4506 104.546C95.6688 104.546 95.8765 104.4 95.9492 104.182C96.0323 103.912 95.8765 103.621 95.6064 103.538C95.0248 103.361 94.4535 103.154 93.8822 102.936C93.6121 102.832 93.3109 102.967 93.2071 103.237C93.1032 103.507 93.2382 103.808 93.5083 103.912C94.1107 104.141 94.7028 104.348 95.3052 104.535C95.3571 104.556 95.4091 104.556 95.461 104.556L95.4506 104.546ZM96.8217 124.457C93.768 119.43 87.6916 117.384 81.8022 115.4C74.1263 112.814 66.1803 110.134 66.1803 100.599C66.1803 97.067 66.897 94.0652 68.32 91.6035C66.2218 93.8471 64.6015 96.6204 63.5628 99.7988C61.9632 104.67 61.9217 109.988 63.3239 114.216C64.0198 116.293 64.965 117.893 66.388 119.544C68.2785 121.726 70.9375 124 73.9082 126.524C80.6389 132.268 88.8446 139.269 92.3657 149.23C92.5423 140.432 94.6924 130.928 96.8113 124.457H96.8217ZM92.428 153.219C89.9248 141.554 80.6804 133.66 73.2434 127.324C71.1349 125.527 69.1821 123.855 67.5306 122.245C69.0679 124.759 71.0725 127.667 73.1603 130.679C77.1489 136.465 81.2725 142.447 82.4254 146.249C83.6823 150.383 83.1733 154.849 81.0232 158.838C79.0912 162.411 76.0583 165.236 72.3086 167.012C71.9554 167.179 71.5919 167.345 71.218 167.49C79.9326 167.646 87.1411 167.241 89.8625 162.629C90.8908 159.087 91.784 155.847 92.428 153.219ZM118.042 91.5931C118.967 84.9143 116.38 79.7209 113.877 74.6728C111.353 69.5936 108.954 64.743 110.761 59.0613C108.33 62.5305 106.876 66.1452 106.876 69.8845C106.876 78.0174 110.584 81.9748 113.846 85.4752C115.736 87.5007 117.419 89.308 118.042 91.5931ZM195.705 63.1953C195.788 63.1953 195.871 63.1745 195.954 63.133C196.204 62.998 196.308 62.6863 196.162 62.4267C195.934 62.0008 195.684 61.5749 195.404 61.1491C195.248 60.9102 194.926 60.8375 194.687 60.9933C194.448 61.1491 194.376 61.4711 194.531 61.71C194.791 62.1047 195.03 62.4994 195.238 62.9045C195.331 63.0811 195.508 63.1745 195.695 63.1745L195.705 63.1953ZM204.835 221.492C204.731 221.492 204.617 221.461 204.524 221.388C204.295 221.222 204.243 220.889 204.409 220.661C207.287 216.745 210.891 214.263 214.838 213.484C215.108 213.432 215.388 213.608 215.451 213.889C215.503 214.169 215.326 214.439 215.046 214.501C211.358 215.229 207.972 217.566 205.251 221.274C205.147 221.409 204.991 221.481 204.835 221.481V221.492ZM263.262 227.246C261.984 227.246 260.696 227.142 259.408 226.945C261.101 230.695 262.857 234.216 264.643 237.519C272.309 237.81 285.469 232.305 292.158 218.334C292.438 216.61 292.563 214.907 292.511 213.151C292.272 205.018 288.325 196.522 279.112 193.541C277.658 193.073 276.121 192.762 274.542 192.575C276.92 197.592 275.497 203.865 270.865 208.249C270.761 208.342 270.636 208.394 270.512 208.394C270.377 208.394 270.242 208.342 270.138 208.228C269.94 208.02 269.951 207.688 270.159 207.49C274.646 203.263 275.903 197.145 273.327 192.45C270.896 192.253 268.362 192.294 265.806 192.44C266.274 195.327 265.381 197.976 263.23 200.105C259.813 203.481 254.111 204.956 249.084 204.956C247.962 204.956 246.881 204.883 245.853 204.738C247.131 206.545 248.543 208.384 249.935 210.191C250.527 210.96 251.109 211.707 251.67 212.455C253.789 212.684 255.835 212.725 257.777 212.569C258.037 212.549 258.317 212.756 258.338 213.047C258.359 213.328 258.151 213.587 257.86 213.608C257.05 213.681 256.209 213.712 255.357 213.712C254.433 213.712 253.477 213.67 252.511 213.587C254.256 215.935 255.71 218.095 256.406 219.851C257.227 221.897 258.058 223.881 258.91 225.802C267.209 227.371 275.674 224.359 280.068 218.241C280.234 218.012 280.556 217.95 280.795 218.126C281.023 218.293 281.086 218.615 280.909 218.854C277.097 224.161 270.387 227.257 263.272 227.257L263.262 227.246ZM263.781 212.372C263.833 212.372 263.895 212.372 263.947 212.341C264.643 212.102 265.318 211.822 265.973 211.52C266.232 211.396 266.347 211.095 266.222 210.835C266.097 210.575 265.786 210.461 265.526 210.586C264.913 210.876 264.269 211.136 263.604 211.365C263.334 211.458 263.189 211.759 263.282 212.029C263.355 212.247 263.563 212.383 263.771 212.383L263.781 212.372ZM245.012 203.554C243.807 201.777 242.779 200.053 242.083 198.443C241.314 196.667 240.203 193.696 238.915 190.03C241.74 191.941 245.656 192.98 250.797 193.177C254.038 193.302 257.58 193.032 261.008 192.762C262.244 192.668 263.501 192.575 264.747 192.492C265.204 195.109 264.435 197.425 262.483 199.357C258.453 203.346 250.496 204.603 245.012 203.543V203.554ZM280.847 183.704C281.023 183.704 281.189 183.621 281.283 183.465C281.439 183.226 281.366 182.904 281.117 182.749C280.743 182.52 280.379 182.302 280.016 182.094C279.766 181.949 279.444 182.042 279.309 182.292C279.164 182.541 279.257 182.863 279.507 182.998C279.86 183.195 280.213 183.403 280.566 183.632C280.649 183.683 280.743 183.715 280.847 183.715V183.704ZM273.514 180.651C273.742 180.651 273.96 180.495 274.012 180.266C274.085 179.986 273.919 179.705 273.638 179.633C268.154 178.21 262.088 178.49 256.209 178.75C248.118 179.113 240.462 179.466 234.147 175.779C233.005 172.206 231.883 168.581 230.865 165.143C235.113 168.913 243.36 168.695 252.719 168.435C254.817 168.384 256.967 168.321 259.117 168.311C271.374 168.29 286.289 169.983 293.29 184.244C295.877 189.511 296.811 196.054 296.074 203.709C295.669 207.937 294.776 211.707 293.529 215.062C293.903 205.995 289.883 195.919 279.424 192.544C273.825 190.736 267.271 191.235 260.925 191.723C257.372 191.993 254.007 192.253 250.829 192.128C245.085 191.9 240.971 190.622 238.281 188.223C237.128 184.888 235.871 181.097 234.615 177.202C241.013 180.464 248.762 180.11 256.261 179.768C262.057 179.508 268.05 179.228 273.378 180.619C273.42 180.63 273.462 180.64 273.514 180.64V180.651ZM224.539 104.556C224.539 104.556 224.643 104.556 224.695 104.535C225.297 104.348 225.89 104.141 226.492 103.912C226.762 103.808 226.897 103.507 226.793 103.237C226.689 102.967 226.388 102.832 226.118 102.936C225.547 103.154 224.965 103.361 224.394 103.538C224.124 103.621 223.968 103.912 224.051 104.182C224.124 104.4 224.321 104.546 224.55 104.546L224.539 104.556ZM223.168 124.468C225.287 130.939 227.437 140.443 227.614 149.24C231.135 139.279 239.33 132.279 246.071 126.535C249.042 124 251.701 121.736 253.591 119.555C255.014 117.903 255.97 116.314 256.656 114.226C258.058 109.988 258.016 104.67 256.417 99.8092C255.378 96.6308 253.758 93.8679 251.659 91.6139C253.082 94.0756 253.799 97.0774 253.799 100.609C253.799 110.144 245.864 112.814 238.177 115.41C232.298 117.394 226.212 119.44 223.158 124.468H223.168ZM227.562 153.229C228.206 155.857 229.099 159.098 230.127 162.64C232.849 167.251 240.047 167.656 248.772 167.501C248.398 167.355 248.034 167.189 247.681 167.023C243.932 165.247 240.899 162.421 238.967 158.848C236.806 154.86 236.308 150.383 237.564 146.259C238.717 142.458 242.841 136.475 246.83 130.689C248.907 127.677 250.922 124.769 252.459 122.255C250.808 123.865 248.855 125.538 246.746 127.334C239.309 133.681 230.065 141.565 227.562 153.229ZM201.948 91.6035C202.571 89.308 204.254 87.5111 206.144 85.4856C209.416 81.9852 213.114 78.0174 213.114 69.8949C213.114 66.1556 211.659 62.5409 209.229 59.0717C211.036 64.7637 208.626 69.6144 206.113 74.6832C203.61 79.7313 201.034 84.9247 201.948 91.6035ZM163.755 248.924C163.755 248.924 163.848 248.924 163.89 248.903C164.17 248.83 164.326 248.539 164.254 248.269C164.181 247.989 164.035 247.636 163.828 247.283C163.62 246.919 163.35 246.545 162.997 246.213C162.654 245.87 162.228 245.569 161.73 245.351C160.649 244.883 159.299 244.883 158.219 245.351C157.72 245.569 157.305 245.87 156.962 246.213C156.619 246.545 156.349 246.919 156.141 247.283C155.934 247.646 155.799 247.989 155.726 248.269C155.653 248.55 155.809 248.83 156.089 248.903C156.131 248.913 156.183 248.924 156.224 248.924C156.453 248.924 156.661 248.778 156.723 248.539C156.754 248.435 157.45 246.036 159.985 246.036C162.519 246.036 163.215 248.446 163.246 248.539C163.308 248.768 163.516 248.913 163.745 248.913L163.755 248.924ZM178.452 201.892C178.567 201.892 178.691 201.85 178.785 201.767C179.003 201.58 179.034 201.258 178.858 201.04C178.484 200.583 178.068 200.136 177.622 199.721C177.414 199.524 177.081 199.534 176.884 199.742C176.687 199.949 176.697 200.282 176.905 200.479C177.32 200.874 177.705 201.289 178.058 201.715C178.162 201.84 178.307 201.902 178.452 201.902V201.892ZM283.111 213.338C283.34 213.338 283.558 213.182 283.62 212.943C283.765 212.341 283.89 211.718 283.973 211.084C284.015 210.804 283.817 210.534 283.527 210.502C283.246 210.471 282.976 210.658 282.945 210.949C282.862 211.552 282.748 212.144 282.602 212.705C282.529 212.985 282.706 213.265 282.976 213.338C283.018 213.349 283.059 213.349 283.101 213.349L283.111 213.338ZM204.596 139.986C204.794 139.986 204.991 139.871 205.074 139.674C205.386 138.937 205.677 138.22 205.915 137.524C206.009 137.254 205.874 136.953 205.604 136.859C205.334 136.766 205.033 136.901 204.939 137.171C204.7 137.836 204.43 138.542 204.119 139.259C204.004 139.518 204.119 139.83 204.389 139.944C204.451 139.975 204.524 139.986 204.596 139.986ZM176.957 182.707C177.175 182.707 177.383 182.562 177.455 182.344C177.538 182.074 177.383 181.783 177.113 181.7C171.431 179.944 167.287 176.381 167.245 176.34C167.027 176.153 166.705 176.174 166.508 176.392C166.321 176.61 166.341 176.932 166.559 177.119C166.736 177.275 170.901 180.858 176.801 182.686C176.853 182.707 176.905 182.707 176.957 182.707ZM177.113 115.078C177.673 115.036 178.203 114.995 178.743 114.953C179.034 114.933 179.242 114.683 179.221 114.392C179.2 114.112 178.941 113.904 178.66 113.915C178.13 113.956 177.601 113.998 177.081 114.039C176.791 114.06 176.583 114.309 176.604 114.59C176.624 114.86 176.853 115.068 177.123 115.068L177.113 115.078ZM183.158 114.579C183.158 114.579 183.189 114.579 183.21 114.579C186.648 114.237 189.421 113.821 191.436 113.354C191.717 113.291 191.893 113.011 191.831 112.73C191.769 112.45 191.488 112.273 191.208 112.336C189.234 112.793 186.502 113.198 183.106 113.541C182.815 113.572 182.607 113.821 182.638 114.112C182.67 114.382 182.888 114.579 183.158 114.579ZM237.004 206.992C236.91 206.992 236.817 206.971 236.733 206.919C233.192 204.8 229.4 200.001 229.244 199.794C229.068 199.565 229.109 199.243 229.338 199.066C229.556 198.89 229.888 198.931 230.065 199.16C230.107 199.212 233.898 204.011 237.274 206.036C237.523 206.182 237.596 206.504 237.45 206.753C237.357 206.919 237.18 207.002 237.004 207.002V206.992ZM183.293 44.717C182.711 49.952 181.891 55.8621 180.997 60.9102C184.955 58.1161 186.388 51.4581 186.606 48.9549C186.752 47.2514 186.004 45.4025 184.892 44.7378C184.373 44.4262 183.833 44.4262 183.293 44.7066V44.717ZM141.537 201.871C141.683 201.871 141.839 201.809 141.932 201.684C142.888 200.541 144.051 199.503 145.412 198.589C145.651 198.433 145.713 198.111 145.557 197.872C145.391 197.633 145.069 197.571 144.84 197.727C143.407 198.693 142.161 199.804 141.143 201.019C140.956 201.237 140.987 201.57 141.205 201.746C141.298 201.829 141.423 201.871 141.537 201.871ZM149.639 196.345C149.701 196.345 149.764 196.335 149.826 196.314C153.628 194.829 157.575 194.299 159.995 194.299C162.862 194.299 167.733 195.036 172.013 197.114C172.085 197.155 172.168 197.166 172.241 197.166C172.428 197.166 172.615 197.062 172.709 196.875C172.833 196.615 172.729 196.304 172.47 196.179C168.034 194.018 162.976 193.26 159.995 193.26C157.481 193.26 153.389 193.811 149.442 195.348C149.172 195.452 149.047 195.753 149.151 196.023C149.234 196.231 149.431 196.356 149.639 196.356V196.345ZM116.474 142.624C116.557 142.624 116.64 142.603 116.723 142.562C116.972 142.427 117.066 142.115 116.931 141.855C116.214 140.515 115.871 139.55 115.404 138.199L115.04 137.15C114.947 136.88 114.646 136.735 114.376 136.839C114.106 136.932 113.96 137.233 114.064 137.503L114.428 138.542C114.895 139.882 115.258 140.941 116.017 142.354C116.11 142.531 116.287 142.624 116.474 142.624ZM152.267 177.877C152.381 177.877 152.485 177.846 152.579 177.773C153.119 177.358 153.42 177.098 153.42 177.098C153.638 176.911 153.659 176.579 153.472 176.361C153.285 176.143 152.953 176.122 152.745 176.309C152.745 176.309 152.464 176.558 151.955 176.932C151.727 177.109 151.685 177.431 151.852 177.659C151.955 177.794 152.111 177.867 152.267 177.867V177.877ZM159.995 118.776C161.532 118.776 162.841 117.903 164.098 117.062C165.344 116.231 166.518 115.452 167.868 115.452C168.346 115.452 169.094 115.441 170.039 115.41C170.33 115.41 170.548 115.161 170.548 114.881C170.548 114.59 170.299 114.403 170.018 114.372C169.083 114.403 168.346 114.413 167.879 114.413C166.206 114.413 164.846 115.327 163.526 116.2C162.342 116.989 161.221 117.737 159.995 117.737C158.769 117.737 157.658 116.989 156.463 116.2C155.144 115.317 153.784 114.413 152.111 114.413C149.38 114.413 140.073 114.039 133.228 113.104C132.947 113.052 132.677 113.26 132.646 113.551C132.605 113.831 132.802 114.102 133.093 114.133C139.99 115.078 149.369 115.452 152.122 115.452C153.472 115.452 154.646 116.231 155.892 117.062C157.149 117.903 158.458 118.776 159.995 118.776ZM129.686 113.572C129.925 113.572 130.143 113.406 130.195 113.156C130.247 112.876 130.07 112.606 129.79 112.544C129.437 112.471 129.104 112.398 128.782 112.325C128.502 112.263 128.221 112.44 128.159 112.72C128.097 113.001 128.273 113.281 128.554 113.343C128.886 113.416 129.229 113.489 129.592 113.561C129.624 113.561 129.665 113.561 129.696 113.561L129.686 113.572ZM159.995 77.5189C161.522 77.5189 162.903 77.0099 163.921 76.6464C164.389 76.4802 164.877 76.2932 165.074 76.2932C165.365 76.2932 165.593 76.0647 165.593 75.7739C165.593 75.483 165.365 75.2545 165.074 75.2545C164.69 75.2545 164.222 75.4311 163.568 75.67C162.633 76.0128 161.345 76.4802 160.005 76.4802C158.665 76.4802 157.377 76.0128 156.443 75.67C155.788 75.4311 155.321 75.2545 154.937 75.2545C154.646 75.2545 154.417 75.483 154.417 75.7739C154.417 76.0647 154.646 76.2932 154.937 76.2932C155.134 76.2932 155.622 76.4698 156.089 76.6464C157.097 77.0203 158.489 77.5189 160.016 77.5189H159.995ZM165.521 72.6889C165.905 72.6889 166.321 72.6162 166.757 72.4293C167.016 72.315 167.141 72.0138 167.037 71.7437C166.923 71.4737 166.622 71.3594 166.352 71.4633C165.417 71.858 164.711 71.536 163.88 71.1621C163.308 70.9024 162.716 70.6427 162.062 70.6427C161.927 70.6427 161.792 70.6947 161.698 70.7985C161.501 70.9959 160.701 71.3283 159.995 71.5464C159.299 71.3179 158.489 70.9855 158.291 70.7985C158.198 70.705 158.063 70.6427 157.928 70.6427C157.263 70.6427 156.671 70.9128 156.11 71.1621C155.29 71.536 154.573 71.858 153.638 71.4633C153.378 71.3594 153.067 71.4737 152.953 71.7437C152.838 72.0034 152.963 72.315 153.233 72.4293C154.573 73.0006 155.664 72.5124 156.536 72.1177C156.962 71.9203 157.367 71.7437 157.762 71.6918C158.375 72.1281 159.59 72.5124 159.85 72.5851C159.943 72.6162 160.057 72.6162 160.151 72.5851C160.41 72.502 161.626 72.1177 162.239 71.6918C162.623 71.7334 163.038 71.9203 163.464 72.1177C164.046 72.3773 164.731 72.6889 165.531 72.6889H165.521ZM159.995 65.7713C160.899 65.7713 161.501 65.4493 162.031 65.1584C162.498 64.9091 162.903 64.691 163.495 64.691C163.786 64.691 164.015 64.4625 164.015 64.1717C164.015 63.8808 163.786 63.6523 163.495 63.6523C162.644 63.6523 162.052 63.9639 161.543 64.2444C161.054 64.5041 160.639 64.7326 159.995 64.7326C159.351 64.7326 158.935 64.5041 158.447 64.2444C157.928 63.9639 157.346 63.6523 156.495 63.6523C156.204 63.6523 155.975 63.8808 155.975 64.1717C155.975 64.4625 156.204 64.691 156.495 64.691C157.087 64.691 157.492 64.9091 157.959 65.1584C158.489 65.4493 159.091 65.7713 159.995 65.7713ZM169.966 53.5563C171.587 53.5563 173.321 53.2446 174.672 52.5383C174.931 52.4033 175.025 52.0917 174.89 51.8424C174.755 51.5827 174.443 51.4893 174.194 51.6243C171.431 53.0577 166.933 52.6007 166.092 51.5308C165.915 51.3023 165.583 51.2711 165.365 51.4477C165.136 51.6243 165.105 51.9567 165.282 52.1748C165.967 53.0473 167.879 53.5666 169.966 53.5666V53.5563ZM141.704 46.327C141.901 46.327 142.088 46.2127 142.171 46.0257C143.012 44.2392 148.974 42.328 154.189 43.5121C154.469 43.5744 154.75 43.3979 154.812 43.1174C154.874 42.837 154.698 42.5565 154.417 42.4942C148.808 41.2166 142.368 43.1486 141.226 45.5791C141.101 45.8388 141.226 46.1504 141.475 46.275C141.548 46.3062 141.62 46.327 141.693 46.327H141.704ZM150.023 53.5563C152.122 53.5563 154.022 53.0369 154.708 52.1644C154.885 51.9359 154.843 51.6139 154.625 51.4373C154.396 51.2607 154.074 51.3023 153.898 51.5204C153.056 52.5903 148.559 53.0473 145.796 51.6139C145.547 51.4893 145.225 51.5827 145.1 51.832C144.965 52.0917 145.069 52.4033 145.318 52.5279C146.679 53.2343 148.403 53.5459 150.023 53.5459V53.5563Z" fill="#6F1240"/>
<path fill-rule="evenodd" clip-rule="evenodd" d="M85.8844 314.756C85.8013 314.756 85.7182 314.735 85.6351 314.694C84.9807 314.33 84.3264 313.967 83.672 313.603C83.4227 313.458 83.3292 313.146 83.4746 312.897C83.6201 312.648 83.9317 312.554 84.1809 312.7C84.8249 313.063 85.4793 313.427 86.1337 313.78C86.383 313.915 86.4765 314.237 86.3414 314.486C86.2479 314.663 86.0714 314.756 85.8844 314.756ZM234.345 314.611C234.158 314.611 233.981 314.517 233.888 314.341C233.753 314.091 233.846 313.769 234.095 313.634C234.469 313.427 234.843 313.219 235.207 313.022C235.456 312.887 235.778 312.97 235.913 313.219C236.048 313.468 235.965 313.79 235.716 313.925C235.342 314.133 234.968 314.341 234.594 314.548C234.511 314.59 234.428 314.611 234.345 314.611ZM239.268 311.786C239.091 311.786 238.915 311.692 238.821 311.536C238.676 311.287 238.759 310.965 238.998 310.82C249.229 304.712 258.764 297.4 267.344 289.08C267.552 288.882 267.874 288.882 268.081 289.09C268.279 289.298 268.279 289.62 268.071 289.828C259.439 298.199 249.831 305.553 239.538 311.713C239.455 311.765 239.361 311.786 239.268 311.786ZM78.9148 310.705C78.8213 310.705 78.7278 310.685 78.6447 310.633C69.1719 304.795 60.291 297.919 52.2516 290.181C52.0438 289.983 52.0438 289.651 52.2412 289.443C52.4385 289.236 52.7709 289.236 52.9787 289.433C60.9558 297.119 69.7743 303.954 79.1952 309.739C79.4445 309.885 79.5172 310.207 79.3614 310.456C79.2679 310.612 79.0914 310.705 78.9148 310.705ZM48.6889 286.41C48.5538 286.41 48.4188 286.358 48.3149 286.254C48.0137 285.953 47.7229 285.642 47.432 285.33C47.2347 285.122 47.2451 284.79 47.4528 284.593C47.6606 284.395 47.9929 284.406 48.1903 284.613C48.4811 284.915 48.772 285.226 49.0628 285.527C49.2601 285.735 49.2601 286.057 49.0524 286.265C48.9485 286.358 48.8239 286.41 48.6889 286.41ZM271.727 285.932C271.602 285.932 271.467 285.881 271.364 285.787C271.156 285.59 271.156 285.257 271.353 285.05C271.717 284.665 272.08 284.281 272.444 283.897C272.641 283.689 272.973 283.679 273.181 283.876C273.389 284.073 273.399 284.406 273.202 284.613C272.838 284.998 272.475 285.392 272.101 285.777C271.997 285.881 271.862 285.932 271.727 285.932ZM291.161 261.035C291.067 261.035 290.974 261.014 290.881 260.952C290.642 260.796 290.569 260.474 290.714 260.235C292.376 257.587 293.986 254.844 295.492 252.082C295.627 251.832 295.949 251.739 296.199 251.874C296.448 252.009 296.541 252.331 296.406 252.58C294.89 255.353 293.27 258.116 291.597 260.786C291.493 260.942 291.327 261.025 291.161 261.025V261.035ZM27.6242 259.165C27.4476 259.165 27.2814 259.072 27.1776 258.916C26.8867 258.438 26.6063 257.971 26.3258 257.493C26.1804 257.244 26.2635 256.932 26.5024 256.776C26.7413 256.631 27.0633 256.704 27.2191 256.953C27.4996 257.431 27.78 257.898 28.0708 258.366C28.2163 258.615 28.1435 258.927 27.8943 259.082C27.8112 259.134 27.7177 259.155 27.6242 259.155V259.165ZM23.324 251.635C23.1371 251.635 22.9605 251.531 22.867 251.365C10.9324 229.023 4.61719 203.741 4.61719 178.251C4.61719 167.117 5.8013 156.003 8.13835 145.221C8.20067 144.941 8.48112 144.764 8.75118 144.826C9.03163 144.889 9.2082 145.159 9.14588 145.439C6.8296 156.148 5.65588 167.189 5.65588 178.251C5.65588 203.575 11.9192 228.69 23.781 250.877C23.9161 251.126 23.8226 251.448 23.5629 251.583C23.4798 251.625 23.3967 251.645 23.3136 251.645L23.324 251.635ZM300.457 248.031C297.518 248.031 295.129 245.642 295.129 242.702C295.129 239.763 297.518 237.374 300.457 237.374C303.397 237.374 305.786 239.763 305.786 242.702C305.786 245.642 303.397 248.031 300.457 248.031ZM300.457 238.402C298.089 238.402 296.167 240.324 296.167 242.692C296.167 245.06 298.089 246.982 300.457 246.982C302.825 246.982 304.747 245.06 304.747 242.692C304.747 240.324 302.825 238.402 300.457 238.402ZM305.131 232.762C305.069 232.762 305.007 232.762 304.955 232.731C304.685 232.627 304.55 232.336 304.643 232.066C304.965 231.204 305.277 230.331 305.588 229.459C305.682 229.189 305.983 229.043 306.253 229.137C306.523 229.23 306.669 229.532 306.575 229.802C306.264 230.685 305.952 231.557 305.63 232.419C305.547 232.627 305.349 232.762 305.142 232.762H305.131ZM307.998 224.307C307.998 224.307 307.894 224.307 307.842 224.286C307.572 224.203 307.417 223.912 307.5 223.642C311.997 208.997 314.282 193.728 314.282 178.251C314.282 173.567 314.075 168.82 313.649 164.177C313.628 163.886 313.836 163.637 314.116 163.616C314.386 163.595 314.656 163.803 314.677 164.084C315.103 168.768 315.311 173.536 315.311 178.251C315.311 193.821 313.015 209.194 308.486 223.943C308.414 224.172 308.216 224.307 307.988 224.307H307.998ZM313.514 158.693C313.254 158.693 313.036 158.506 312.994 158.236C312.922 157.706 312.859 157.166 312.776 156.636C312.735 156.356 312.932 156.086 313.223 156.055C313.493 156.013 313.773 156.21 313.804 156.501C313.877 157.031 313.95 157.571 314.023 158.111C314.064 158.392 313.856 158.662 313.576 158.693C313.555 158.693 313.534 158.693 313.503 158.693H313.514ZM310.179 150.165C305.318 150.165 301.371 146.218 301.371 141.357C301.371 136.496 305.318 132.549 310.179 132.549C315.04 132.549 318.988 136.496 318.988 141.357C318.988 146.218 315.04 150.165 310.179 150.165ZM310.179 133.588C305.89 133.588 302.41 137.078 302.41 141.357C302.41 145.636 305.9 149.126 310.179 149.126C314.459 149.126 317.949 145.636 317.949 141.357C317.949 137.078 314.459 133.588 310.179 133.588ZM9.95606 140.35C9.95606 140.35 9.87297 140.35 9.83142 140.329C9.55097 140.256 9.38478 139.976 9.45749 139.695L9.75871 138.521C9.83142 138.241 10.1223 138.075 10.3923 138.148C10.6728 138.22 10.8389 138.501 10.7662 138.781L10.465 139.955C10.4027 140.194 10.195 140.35 9.96645 140.35H9.95606ZM13.7888 133.224C9.96645 133.224 6.85037 130.108 6.85037 126.286C6.85037 122.463 9.96645 119.347 13.7888 119.347C17.6112 119.347 20.7273 122.463 20.7273 126.286C20.7273 130.108 17.6112 133.224 13.7888 133.224ZM13.7888 120.386C10.5377 120.386 7.88907 123.035 7.88907 126.286C7.88907 129.537 10.5377 132.185 13.7888 132.185C17.0399 132.185 19.6886 129.537 19.6886 126.286C19.6886 123.035 17.0399 120.386 13.7888 120.386ZM305.973 127.085C305.755 127.085 305.557 126.95 305.485 126.743C305.35 126.369 305.214 125.995 305.079 125.621C304.986 125.351 305.121 125.05 305.391 124.956C305.661 124.863 305.962 124.998 306.056 125.268C306.191 125.642 306.326 126.026 306.461 126.4C306.554 126.67 306.419 126.971 306.139 127.065C306.087 127.085 306.025 127.096 305.962 127.096L305.973 127.085ZM302.732 118.724C302.524 118.724 302.337 118.61 302.254 118.402C284.929 77.2698 250.725 45.6624 208.408 31.6816C208.138 31.5881 207.993 31.2973 208.076 31.0273C208.17 30.7572 208.45 30.6014 208.73 30.6949C251.338 44.7691 285.77 76.5843 303.21 117.997C303.324 118.257 303.199 118.568 302.929 118.682C302.867 118.714 302.794 118.724 302.732 118.724ZM18.9719 114.715C18.8992 114.715 18.8265 114.704 18.7538 114.673C18.4941 114.548 18.3798 114.247 18.4941 113.988C18.7434 113.437 19.0031 112.887 19.2524 112.336C19.377 112.076 19.6886 111.962 19.9379 112.087C20.1976 112.211 20.3118 112.523 20.1872 112.783C19.9275 113.323 19.6782 113.873 19.4289 114.424C19.3458 114.611 19.1485 114.725 18.9615 114.725L18.9719 114.715ZM22.2126 108.015C22.1295 108.015 22.0464 107.994 21.9737 107.953C21.714 107.818 21.6206 107.506 21.7452 107.257C31.4985 88.3111 44.8042 71.8167 61.309 58.241C61.5271 58.054 61.8595 58.0852 62.0361 58.3137C62.223 58.5318 62.1919 58.8642 61.9633 59.0408C45.5728 72.5334 32.3502 88.9135 22.6696 107.735C22.5762 107.911 22.3996 108.015 22.2126 108.015ZM68.0189 54.1797C67.8631 54.1797 67.7073 54.107 67.6034 53.9719C67.4372 53.7434 67.4788 53.4214 67.7177 53.2449C68.2059 52.8813 68.6941 52.5282 69.1926 52.1646C69.4211 51.9984 69.7535 52.0504 69.9197 52.2789C70.0859 52.5074 70.034 52.8398 69.8055 53.006C69.3173 53.3591 68.8291 53.7123 68.3409 54.0758C68.2474 54.1485 68.1436 54.1797 68.0293 54.1797H68.0189ZM79.4757 52.4555C75.7987 52.4555 72.8073 49.464 72.8073 45.7871C72.8073 42.1101 75.7987 39.1187 79.4757 39.1187C83.1526 39.1187 86.1441 42.1101 86.1441 45.7871C86.1441 49.464 83.1526 52.4555 79.4757 52.4555ZM79.4757 40.1574C76.37 40.1574 73.846 42.6814 73.846 45.7871C73.846 48.8927 76.37 51.4168 79.4757 51.4168C82.5814 51.4168 85.1054 48.8927 85.1054 45.7871C85.1054 42.6814 82.5814 40.1574 79.4757 40.1574ZM89.6964 40.7598C89.5094 40.7598 89.3225 40.6559 89.229 40.4793C89.094 40.2197 89.1978 39.9081 89.4575 39.7834C96.3856 36.2519 103.625 33.2189 110.99 30.778C111.26 30.6845 111.561 30.8403 111.644 31.1103C111.737 31.3804 111.592 31.6712 111.312 31.7647C103.999 34.1953 96.8011 37.2075 89.9249 40.7079C89.8522 40.7494 89.7691 40.7598 89.686 40.7598H89.6964ZM203.09 30.0197C203.09 30.0197 202.997 30.0197 202.945 29.9989C202.478 29.8639 202.02 29.7289 201.553 29.6042C201.273 29.5315 201.117 29.2407 201.19 28.9603C201.262 28.6902 201.553 28.524 201.834 28.5967C202.301 28.7317 202.768 28.8564 203.236 28.9914C203.516 29.0745 203.672 29.355 203.589 29.6354C203.527 29.8639 203.319 30.0093 203.09 30.0093V30.0197ZM117.637 29.7912C117.409 29.7912 117.201 29.6458 117.139 29.4173C117.056 29.1368 117.222 28.8564 117.492 28.7733L118.769 28.4201C119.05 28.3474 119.33 28.5032 119.413 28.7837C119.486 29.0641 119.33 29.3446 119.05 29.4277L117.783 29.7808C117.783 29.7808 117.689 29.8016 117.637 29.8016V29.7912Z" fill="#6F1240"/>
<path fill-rule="evenodd" clip-rule="evenodd" d="M48.0136 153.728C47.6605 153.728 47.3697 153.479 47.3177 153.126C46.5595 148.233 45.5104 144.712 44.5029 143.705C43.4953 142.697 39.9742 141.648 35.0819 140.89C34.7392 140.838 34.4795 140.547 34.4795 140.194C34.4795 139.841 34.7288 139.55 35.0819 139.498C39.9742 138.74 43.4953 137.691 44.5029 136.683C45.5104 135.676 46.5595 132.154 47.3177 127.262C47.3697 126.919 47.6605 126.66 48.0136 126.66C48.3668 126.66 48.6576 126.909 48.7096 127.262C49.4678 132.154 50.5169 135.676 51.5244 136.683C52.5319 137.691 56.0531 138.74 60.9453 139.498C61.2985 139.55 61.5478 139.851 61.5478 140.194C61.5478 140.547 61.2985 140.838 60.9453 140.89C56.0531 141.648 52.5319 142.697 51.5244 143.705C50.5169 144.712 49.4678 148.233 48.7096 153.126C48.6576 153.468 48.3668 153.728 48.0136 153.728ZM37.1697 140.194C40.1715 140.744 43.9316 141.669 45.23 142.978C46.5283 144.276 47.4631 148.036 48.0136 151.038C48.5642 148.036 49.4886 144.286 50.7973 142.978C52.1061 141.669 55.8558 140.744 58.8576 140.194C55.8558 139.643 52.0957 138.719 50.7973 137.41C49.4886 136.101 48.5642 132.352 48.0136 129.35C47.4631 132.352 46.5387 136.112 45.23 137.41C43.9316 138.708 40.1715 139.633 37.1697 140.194Z" fill="#6F1240"/>
<path fill-rule="evenodd" clip-rule="evenodd" d="M236.36 74.7561C236.038 74.7561 235.778 74.5276 235.726 74.216C235.258 71.183 234.583 68.929 233.981 68.3266C233.378 67.7242 231.114 67.0594 228.081 66.5816C227.77 66.5297 227.541 66.27 227.541 65.948C227.541 65.626 227.77 65.3663 228.081 65.3144C231.114 64.847 233.368 64.1822 233.971 63.5694C234.573 62.9566 235.248 60.7026 235.716 57.68C235.767 57.3684 236.027 57.1399 236.349 57.1399C236.671 57.1399 236.931 57.3684 236.983 57.68C237.45 60.713 238.115 62.9773 238.728 63.5798C239.33 64.1822 241.595 64.8574 244.627 65.3248C244.939 65.3767 245.168 65.6364 245.168 65.9584C245.168 66.2804 244.939 66.54 244.627 66.592C241.595 67.0594 239.341 67.7242 238.728 68.337C238.125 68.9394 237.461 71.2038 236.983 74.2367C236.931 74.5484 236.671 74.7769 236.349 74.7769L236.36 74.7561ZM230.429 65.948C232.246 66.3323 234.002 66.8724 234.718 67.5891C235.435 68.3058 235.975 70.0612 236.36 71.8789C236.744 70.0612 237.284 68.3058 238.001 67.5891C238.717 66.8724 240.473 66.3323 242.29 65.948C240.473 65.5637 238.717 65.0236 238.001 64.3069C237.284 63.5902 236.744 61.8348 236.36 60.0171C235.975 61.8348 235.435 63.5902 234.718 64.3069C234.002 65.0236 232.246 65.5637 230.429 65.948Z" fill="#6F1240"/>
<path fill-rule="evenodd" clip-rule="evenodd" d="M84.2536 75.6183C83.9524 75.6183 83.7031 75.4002 83.6512 75.1094C83.3188 72.9593 82.8514 71.3805 82.4463 70.965C82.0308 70.5495 80.452 70.0925 78.3019 69.7601C78.0111 69.7186 77.793 69.4693 77.793 69.1577C77.793 68.8461 78.0111 68.6072 78.3123 68.5552C80.452 68.2229 82.0412 67.7554 82.4567 67.3504C82.8722 66.9349 83.3292 65.3457 83.6616 63.206C83.7031 62.9048 83.9628 62.697 84.264 62.697C84.5652 62.697 84.8145 62.9151 84.8665 63.206C85.1884 65.3145 85.6662 66.9453 86.0713 67.3504C86.4868 67.7658 88.076 68.2229 90.2157 68.5552C90.5066 68.5968 90.7247 68.8461 90.7247 69.1577C90.7247 69.4693 90.5065 69.7082 90.2053 69.7601C88.0656 70.0925 86.4764 70.5599 86.061 70.965C85.6559 71.3701 85.1781 73.0008 84.8561 75.1094C84.8041 75.4106 84.5548 75.6183 84.2536 75.6183ZM80.6598 69.1577C81.7504 69.4277 82.7371 69.7809 83.1838 70.2275C83.6304 70.6742 83.9836 71.6609 84.2536 72.7516C84.5237 71.6609 84.8768 70.6846 85.3235 70.2275C85.7701 69.7809 86.7569 69.4277 87.8475 69.1577C86.7569 68.8876 85.7805 68.5345 85.3235 68.0878C84.8768 67.6412 84.5237 66.6544 84.2536 65.5638C83.9836 66.6544 83.6304 67.6308 83.1838 68.0878C82.7371 68.5345 81.7504 68.8876 80.6598 69.1577Z" fill="#6F1240"/>
<path fill-rule="evenodd" clip-rule="evenodd" d="M275.04 152.118C274.718 152.118 274.448 151.889 274.396 151.567C273.877 148.212 273.171 145.813 272.496 145.138C271.82 144.463 269.421 143.746 266.066 143.237C265.744 143.185 265.516 142.915 265.516 142.593C265.516 142.271 265.744 142.001 266.066 141.949C269.421 141.43 271.82 140.713 272.496 140.048C273.171 139.373 273.877 136.974 274.396 133.619C274.448 133.297 274.718 133.068 275.04 133.068C275.362 133.068 275.632 133.297 275.684 133.619C276.204 136.974 276.92 139.373 277.585 140.048C278.26 140.724 280.66 141.43 284.015 141.949C284.326 142.001 284.565 142.261 284.565 142.593C284.565 142.915 284.337 143.185 284.015 143.237C280.66 143.756 278.26 144.463 277.585 145.138C276.91 145.813 276.204 148.212 275.684 151.567C275.632 151.879 275.362 152.118 275.04 152.118ZM268.382 142.593C270.418 143.009 272.423 143.601 273.223 144.411C274.023 145.211 274.615 147.215 275.03 149.251C275.446 147.215 276.048 145.2 276.837 144.411C277.637 143.611 279.642 143.019 281.678 142.593C279.642 142.178 277.627 141.575 276.837 140.786C276.038 139.986 275.446 137.981 275.03 135.946C274.615 137.981 274.023 139.986 273.223 140.786C272.423 141.586 270.418 142.178 268.382 142.593Z" fill="#6F1240"/>
</g>
<defs>
<clipPath id="clip0_164_11">
<rect width="318.619" height="360" fill="white" transform="translate(0.690918 0.5)"/>
</clipPath>
</defs>
</svg>
