<svg width="250" height="251" viewBox="0 0 250 251" fill="none" xmlns="http://www.w3.org/2000/svg">
<g clip-path="url(#clip0_164_46)">
<path fill-rule="evenodd" clip-rule="evenodd" d="M129.133 94.0215C130.751 94.0215 132.393 94.1516 134.147 94.4243C134.147 96.1037 134.531 98.7251 135.603 101.185C135.721 101.458 135.994 101.638 136.291 101.638C136.39 101.638 136.496 101.619 136.595 101.576C136.781 101.495 136.923 101.347 136.991 101.161C137.066 100.975 137.06 100.77 136.979 100.584C135.857 98.0001 135.678 95.5894 135.653 94.697C140.703 95.7133 144.304 97.6282 145.624 98.4153C145.971 98.6198 146.454 98.4958 146.659 98.155C146.87 97.7956 146.752 97.337 146.392 97.1263C141.459 94.2012 135.163 92.528 129.133 92.528C128.718 92.528 128.383 92.8688 128.383 93.284C128.383 93.6992 128.718 94.0401 129.133 94.0401V94.0215ZM134.37 89.5843C136.043 89.5471 138.503 90.1173 141.112 91.1522C141.199 91.1894 141.298 91.208 141.391 91.208C141.701 91.208 141.98 91.0221 142.092 90.7308C142.247 90.3466 142.054 89.9066 141.67 89.7578C140.09 89.1319 137.035 88.0784 134.351 88.0784C134.153 88.0784 133.961 88.1652 133.825 88.3077C133.682 88.4502 133.608 88.6423 133.614 88.8407C133.614 89.2559 133.955 89.5843 134.376 89.5843H134.37ZM61.3735 161.93C61.2867 161.521 60.8901 161.267 60.4811 161.348C60.2828 161.391 60.1155 161.502 60.0039 161.676C59.8924 161.843 59.8552 162.048 59.8986 162.24L60.1217 163.281C60.196 163.622 60.5059 163.87 60.8591 163.87C60.9087 163.87 60.9645 163.864 61.0202 163.851C61.4293 163.764 61.6833 163.355 61.5966 162.953L61.3735 161.924V161.93ZM144.583 92.8316C144.409 92.7263 144.292 92.559 144.248 92.3668C144.205 92.1747 144.236 91.9702 144.341 91.8029C144.447 91.6294 144.614 91.5116 144.812 91.4621C145.01 91.4187 145.209 91.4497 145.382 91.555C145.729 91.7657 146.039 91.9888 146.281 92.1871C146.597 92.4536 146.634 92.9308 146.368 93.2468C146.225 93.4142 146.014 93.5133 145.791 93.5133C145.612 93.5133 145.438 93.4513 145.302 93.3336C145.134 93.1911 144.899 93.0237 144.589 92.8316H144.583ZM120.321 147.063C119.156 146.344 117.805 145.278 116.38 144.144L116.305 144.082C113.647 141.975 110.641 139.589 107.759 138.585C107.573 138.511 107.375 138.517 107.195 138.598C107.009 138.684 106.867 138.846 106.799 139.044C106.731 139.236 106.743 139.441 106.83 139.62C106.916 139.8 107.071 139.936 107.257 139.998C109.916 140.928 112.822 143.233 115.388 145.272L115.419 145.297C116.429 146.096 117.39 146.859 118.301 147.509C116.844 147.949 114.626 148.389 113.114 148.389C112.698 148.389 112.364 148.73 112.364 149.145C112.364 149.561 112.698 149.901 113.114 149.901C115.19 149.901 118.734 149.152 120.271 148.383C120.513 148.259 120.674 148.011 120.687 147.745C120.699 147.472 120.563 147.212 120.333 147.069L120.321 147.063ZM162.053 86.8947C162.189 87.1612 162.449 87.3161 162.728 87.3161C162.846 87.3161 162.964 87.2852 163.075 87.2356C163.447 87.0435 163.59 86.5911 163.397 86.2193C163.292 86.0209 163.193 85.8226 163.081 85.6243C162.883 85.2587 162.425 85.1285 162.059 85.3269C161.699 85.5314 161.563 85.99 161.761 86.3494C161.861 86.5291 161.954 86.7088 162.046 86.8947H162.053ZM108.639 122.299C110.734 121.766 111.577 122.411 112.754 123.309C113.752 124.072 114.88 124.939 116.863 124.939C117.278 124.939 117.613 124.598 117.613 124.183C117.613 123.768 117.278 123.427 116.863 123.427C115.388 123.427 114.551 122.783 113.665 122.107C112.451 121.177 111.075 120.124 108.267 120.837C108.075 120.886 107.908 121.01 107.803 121.184C107.704 121.357 107.673 121.562 107.722 121.754C107.778 121.958 107.908 122.132 108.088 122.231C108.261 122.324 108.453 122.349 108.639 122.293V122.299ZM151.517 122.113C159.041 122.113 165.157 128.23 165.157 135.753C165.157 143.277 159.035 149.393 151.517 149.393C144 149.393 137.878 143.277 137.878 135.753C137.878 133.212 138.578 130.734 139.91 128.583C140.016 128.41 140.053 128.211 140.003 128.013C139.96 127.815 139.836 127.654 139.662 127.548C139.309 127.331 138.844 127.443 138.627 127.796C137.152 130.182 136.372 132.934 136.372 135.753C136.372 144.107 143.164 150.905 151.517 150.905C159.871 150.905 166.663 144.107 166.663 135.753C166.663 127.399 159.871 120.607 151.517 120.607C151.102 120.607 150.768 120.948 150.768 121.363C150.768 121.779 151.102 122.119 151.517 122.119V122.113ZM149.373 101.285C149.516 101.439 149.72 101.532 149.931 101.532C150.123 101.532 150.303 101.458 150.439 101.334C150.588 101.198 150.675 101.012 150.681 100.814C150.687 100.615 150.619 100.417 150.483 100.274C150.284 100.058 150.055 99.8344 149.801 99.5989C149.652 99.4626 149.46 99.3882 149.256 99.4006C149.057 99.4068 148.871 99.4998 148.735 99.6423C148.599 99.791 148.53 99.9832 148.537 100.181C148.543 100.38 148.63 100.566 148.778 100.702C149.02 100.925 149.206 101.111 149.367 101.285H149.373ZM142.649 125.168C142.42 125.168 142.197 125.057 142.054 124.877C141.8 124.549 141.856 124.078 142.185 123.817C142.389 123.663 142.594 123.508 142.804 123.353C143.145 123.117 143.616 123.198 143.852 123.532C144.093 123.873 144.013 124.344 143.672 124.586C143.48 124.722 143.288 124.865 143.108 125.007C142.972 125.113 142.81 125.168 142.643 125.168H142.649ZM118.815 51.0255C118.654 50.9078 118.499 50.79 118.338 50.6723C118.009 50.4244 117.532 50.4864 117.284 50.8148C117.16 50.9759 117.111 51.1743 117.136 51.3726C117.16 51.5709 117.266 51.7506 117.427 51.8745C117.594 52.0047 117.768 52.1286 117.935 52.2526C118.065 52.3455 118.22 52.3951 118.375 52.3951C118.611 52.3951 118.84 52.2773 118.982 52.0852C119.1 51.9241 119.15 51.7196 119.113 51.5213C119.082 51.323 118.97 51.1495 118.809 51.0317L118.815 51.0255ZM220.461 107.637C220.046 107.637 219.711 107.978 219.711 108.393C219.711 108.653 219.711 108.907 219.699 109.161C219.68 109.583 220.009 109.923 220.449 109.948C220.851 109.948 221.186 109.632 221.198 109.223C221.211 108.95 221.217 108.672 221.217 108.393C221.217 107.978 220.882 107.637 220.467 107.637H220.461ZM186.135 180.013L184.679 180.026C184.48 180.026 184.288 180.106 184.146 180.249C184.003 180.391 183.929 180.584 183.929 180.782C183.929 181.197 184.27 181.532 184.679 181.532L186.141 181.519C186.339 181.519 186.531 181.439 186.674 181.296C186.817 181.154 186.891 180.962 186.891 180.763C186.891 180.348 186.55 180.013 186.135 180.013ZM222.952 85.7359C222.735 85.3888 222.271 85.2835 221.917 85.4942C221.744 85.5995 221.626 85.7669 221.583 85.9652C221.539 86.1635 221.57 86.3618 221.682 86.5353C221.893 86.8761 222.103 87.217 222.308 87.5516C222.444 87.7747 222.692 87.9173 222.952 87.9173C223.095 87.9173 223.225 87.8801 223.343 87.8057C223.516 87.7004 223.634 87.5392 223.684 87.3409C223.733 87.1426 223.702 86.9443 223.597 86.7708C223.386 86.4238 223.175 86.0767 222.958 85.7297L222.952 85.7359ZM56.298 79.3776L57.7729 79.9229C63.8586 82.1828 67.6037 87.0084 69.0084 94.3995C69.4918 96.9651 70.1611 100.479 71.0968 104.792C71.1712 105.139 71.4811 105.387 71.8343 105.387C72.1875 105.387 72.4974 105.139 72.5718 104.792C73.4951 100.547 74.1397 97.1511 74.6664 94.3995C76.0711 87.0084 79.8163 82.1828 85.9019 79.9229L87.3768 79.3776C87.6743 79.266 87.8664 78.9872 87.8664 78.6711C87.8664 78.355 87.6743 78.0762 87.3768 77.9646L85.9081 77.4193C79.8225 75.1594 76.0752 70.3214 74.6664 62.9055C74.1459 60.1787 73.5013 56.7827 72.578 52.55C72.4974 52.1844 72.1504 52.0171 71.8405 52.0171C71.5306 52.0171 71.1836 52.1844 71.103 52.55C70.1673 56.8571 69.498 60.3709 69.0146 62.9427C67.6099 70.338 63.8648 75.1635 57.7791 77.4193L56.3104 77.9646C56.0129 78.0762 55.8208 78.355 55.8208 78.6711C55.8208 78.9872 56.0129 79.266 56.3104 79.3776H56.298ZM70.4833 63.2216L70.5143 63.0728C70.8861 61.1269 71.3014 58.9393 71.8343 56.3427C72.3983 59.088 72.8506 61.4554 73.1791 63.2216C75.3977 74.897 75.5278 75.1759 84.9413 78.6711C75.5278 82.1663 75.3915 82.4452 73.1791 94.1206C72.8444 95.8806 72.3983 98.248 71.8343 100.999C71.3014 98.4029 70.8861 96.2153 70.5143 94.2694L70.4833 94.1206C68.2709 82.4452 68.1346 82.1663 58.7211 78.6711C68.1346 75.1697 68.2709 74.897 70.4833 63.2216ZM143.808 206.32C143.641 206.215 143.436 206.184 143.244 206.227C142.86 206.314 142.501 206.407 142.154 206.512C141.961 206.568 141.807 206.698 141.707 206.872C141.608 207.052 141.59 207.256 141.645 207.448C141.738 207.764 142.036 207.981 142.364 207.981C142.439 207.981 142.513 207.969 142.581 207.95C142.922 207.851 143.244 207.764 143.567 207.69C143.969 207.603 144.23 207.2 144.137 206.791C144.093 206.593 143.976 206.426 143.802 206.314L143.808 206.32ZM125 0.5C193.925 0.5 249.997 56.572 249.997 125.503C249.997 194.434 193.925 250.506 125 250.506C56.0749 250.506 0.00292969 194.428 0.00292969 125.503C0.00292969 93.0857 12.4097 62.3354 34.9426 38.9225C57.4011 15.5715 87.5193 1.97493 119.745 0.636338C121.486 0.549577 123.252 0.5 125 0.5ZM119.819 2.13605C121.455 2.06788 123.215 2.00591 125 2.00591C128.377 2.00591 131.804 2.15464 135.436 2.4645C127.063 4.16872 118.573 9.21322 111.998 16.4081C104.171 24.9788 100.49 35.0182 101.897 43.9484C103.545 54.3782 111.471 60.8914 125.452 63.3269C125.39 66.9956 125.539 70.4103 125.7 73.6018C125.936 78.355 126.115 82.1043 125.341 84.6328C124.87 86.1697 120.209 99.9088 102.547 109.359C100.155 110.636 98.73 113.22 98.9159 115.935C99.139 119.114 100.676 122.15 103.142 124.276C104.475 125.429 106.303 127.003 106.6 127.833C107.003 128.967 104.27 135.103 100.756 137.408C100.571 137.532 100.447 137.73 100.422 137.953C99.9571 142.105 100.874 145.309 103.211 147.745C101.835 149.53 101.382 151.661 101.159 153.118C100.893 154.865 101.94 156.563 103.601 157.071C104.438 157.332 105.355 157.704 106.328 158.181C107.518 160.709 107.133 163.473 106.718 166.392C106.055 171.12 105.299 176.481 110.808 182.3C113.554 185.2 118.66 186.669 125.998 186.669C132.164 186.669 138.435 185.628 141.807 185.07L141.893 185.058C140.753 187.778 139.83 190.561 139.154 193.331C135.888 197.31 133.329 200.749 131.463 203.315C129.232 203.457 127.057 203.532 124.994 203.532C116.435 203.532 107.914 202.447 99.6658 200.303C100.862 191.453 93.6483 180.794 84.4579 177.882C84.2162 177.813 83.956 177.863 83.7639 178.012C83.5655 178.173 83.4664 178.415 83.485 178.662C84.2596 187.4 87.414 193.988 92.8613 198.245C83.5965 195.122 74.8399 190.654 66.8208 184.959C65.6681 177.77 66.0276 172.465 66.3746 167.334C66.7031 162.444 67.0501 157.381 66.1205 150.757C65.2157 144.293 62.7555 139.614 60.3819 135.084C58.8574 132.184 57.4197 129.445 56.4839 126.358C56.4343 124.121 56.4405 122.305 56.5025 120.663C56.5211 120.279 56.2422 119.944 55.8704 119.895C55.4986 119.808 55.1267 120.05 55.0214 120.452L54.7983 121.32C52.7036 129.414 50.7268 137.079 50.6648 145.012C48.4214 138.48 45.3972 133.479 42.7076 129.029C39.5409 123.793 36.5476 118.841 35.3206 112.433C35.2586 112.092 34.9736 111.845 34.6327 111.826C34.515 111.795 34.3848 111.814 34.2547 111.882C34.0688 111.981 33.92 112.167 33.8581 112.365C31.1189 121.76 32.2654 139.577 39.578 156.117C29.5324 140.097 24.2339 121.692 24.2339 102.766C24.2339 49.0672 66.2197 4.86281 119.825 2.13605H119.819ZM127.206 73.5274C127.187 73.168 127.175 72.7838 127.156 72.3996C127.144 72.1269 127.132 71.8542 127.125 71.5815C134.785 70.6272 149.968 72.5669 158.526 81.8502C158.799 82.1415 159.301 82.1601 159.586 81.8936C159.735 81.7573 159.822 81.5714 159.828 81.3731C159.834 81.1748 159.766 80.9826 159.63 80.8277C150.768 71.2159 135.027 69.1398 127.063 70.0818C126.971 67.6835 126.94 65.6075 126.964 63.581C130.8 64.1511 135.027 64.4424 139.526 64.4424C144.391 64.4424 150.334 63.5252 156.63 62.5523L156.729 62.5399C159.654 62.0875 162.672 61.6227 165.734 61.2199C182.355 71.6931 181.103 82.4762 179.77 93.8975C178.89 101.464 177.979 109.285 182.925 116.895C179.529 118.476 177.062 120.744 175.401 123.824C171.869 130.355 173.784 135.561 175.631 140.593C177.409 145.433 179.082 150.007 175.569 155.547C174.026 155.844 172.675 156.198 171.429 156.619C159.016 160.802 148.518 170.575 142.625 183.428L141.571 183.602C135.076 184.68 117.836 187.537 111.911 181.284C106.898 175.991 107.567 171.226 108.218 166.615C108.676 163.368 109.104 160.3 107.567 157.288C107.493 157.146 107.381 157.028 107.233 156.96C106.799 156.743 105.485 156.092 104.047 155.646C103.099 155.355 102.498 154.37 102.653 153.359C102.963 151.321 103.539 149.827 104.456 148.656C105.745 149.232 107.313 149.573 107.499 149.598C107.852 149.598 108.156 149.356 108.236 149.009C108.28 148.811 108.243 148.612 108.137 148.445C108.032 148.278 107.865 148.16 107.654 148.11C107.208 148.005 105.683 147.621 104.704 147.1C102.436 144.993 101.537 142.254 101.891 138.474C105.553 135.834 108.763 129.42 108.026 127.344C107.623 126.222 106.154 124.89 104.115 123.13C101.971 121.277 100.62 118.581 100.422 115.73C100.286 113.673 101.401 111.696 103.266 110.698C121.461 100.962 126.295 86.684 126.785 85.0852C127.64 82.3088 127.454 78.4356 127.212 73.5398L127.206 73.5274ZM98.2404 199.807C99.1018 192.135 93.0286 182.839 85.1086 179.716C86.2613 189.6 90.6799 196.362 98.2404 199.807ZM64.5526 175.688C63.9329 173.116 63.276 170.389 62.6067 167.477C62.5633 167.278 62.4332 167.105 62.2597 166.999C62.0862 166.894 61.8879 166.863 61.7019 166.913C61.2991 167.006 61.045 167.408 61.138 167.817C61.8817 171.052 62.6191 174.126 63.369 177.218C61.2867 172.781 59.5887 169.794 58.2005 167.346C55.7465 163.021 54.1228 160.17 52.9391 153.812C51.1296 144.113 52.8152 135.462 54.978 126.761C55.2011 135.437 56.4963 145.545 58.9318 157.617C59.0124 158.02 59.4028 158.28 59.818 158.206C60.0163 158.168 60.1836 158.057 60.2952 157.89C60.4067 157.722 60.4501 157.518 60.4067 157.319C58.3741 147.237 57.1532 138.567 56.676 130.845C57.3825 132.475 58.1634 134.099 59.0557 135.803C61.3735 140.215 63.7656 144.776 64.6394 150.98C65.5442 157.45 65.2095 162.426 64.8873 167.253C64.689 170.135 64.5278 172.794 64.5588 175.688H64.5526ZM64.3791 183.211C57.8969 178.309 51.991 172.602 46.8225 166.249C35.8969 149.951 32.4079 128.304 34.6079 115.854C36.1324 121.06 38.7104 125.323 41.4372 129.829C45.2918 136.199 49.2766 142.793 51.3093 153.217C51.3155 153.254 51.3341 153.285 51.3527 153.304C51.3713 153.415 51.3837 153.527 51.396 153.632C51.4146 153.781 51.4332 153.923 51.458 154.078C52.6851 160.684 54.3583 163.628 56.8929 168.09C58.7025 171.282 61.1752 175.626 64.3729 183.205L64.3791 183.211ZM144.354 247.463C140.071 248.089 135.386 246.806 132.127 244.123C129.784 242.196 128.495 239.754 128.495 237.244C128.495 233.086 130.212 229.981 133.601 228.01C135.925 226.659 138.497 226.133 141.001 225.618C143.56 225.098 146.207 224.565 148.512 223.109C153.687 219.849 156.265 215.089 155.081 210.981C154.145 207.746 151.115 205.812 146.975 205.812C146.56 205.812 146.225 206.153 146.225 206.568C146.225 206.983 146.56 207.324 146.975 207.324C150.408 207.324 152.899 208.849 153.637 211.402C154.393 214.023 153.296 218.331 147.712 221.844C145.649 223.146 143.244 223.635 140.703 224.156C138.094 224.689 135.399 225.234 132.845 226.721C129.016 228.946 126.989 232.59 126.989 237.257C126.989 240.225 128.47 243.082 131.166 245.301C132.845 246.676 134.946 247.736 137.283 248.387C133.168 248.796 129.04 249 125 249C75.912 249 31.9245 220.233 12.075 175.446C20.3668 190.499 28.231 196.894 41.2327 199.491C41.5859 199.491 41.902 199.237 41.9702 198.884C42.0073 198.685 41.9702 198.487 41.8586 198.314C41.7471 198.146 41.5797 198.035 41.3814 197.998C26.0868 194.924 18.0305 186.415 6.89418 161.583C3.31841 149.901 1.50264 137.761 1.50264 125.503C1.50884 73.0936 35.6738 25.5985 85.0591 8.64928C67.4405 16.1417 52.3566 28.3501 41.2637 44.1405C29.142 61.3934 22.7341 81.6643 22.7341 102.772C22.7341 159.166 68.6118 205.044 125.006 205.044C126.816 205.044 128.638 204.963 130.354 204.87C129.697 205.781 129.059 206.674 128.445 207.535C119.931 219.458 116.039 224.9 101.525 224.9C87.0112 224.9 75.4782 217.674 69.7149 203.996C66.0895 195.382 64.2924 195.413 58.6095 196.857C56.9239 197.291 54.8293 197.824 52.0963 198.171C51.6873 198.221 51.3898 198.599 51.4456 199.014C51.4952 199.417 51.867 199.702 52.2884 199.665C55.1082 199.305 57.2586 198.754 58.9876 198.314C64.0011 197.037 65.0484 196.771 68.3329 204.573C74.3442 218.851 85.8213 226.399 101.525 226.399C120.085 226.399 127.46 219.632 133.378 214.197C134.37 213.286 135.498 212.251 136.595 211.352C136.75 211.229 136.849 211.043 136.867 210.844C136.886 210.646 136.83 210.448 136.7 210.287C136.434 209.971 135.963 209.921 135.64 210.181C134.556 211.067 133.509 212.022 132.405 213.038L132.356 213.082C128.514 216.608 124.176 220.592 116.454 222.929C120.984 220.177 124.405 215.715 128.346 210.231C139.005 195.004 153.507 190.524 173.988 196.138C177.973 197.229 182.342 197.855 186.916 197.855C201.665 197.855 218.49 191.348 230.971 172.93C235.446 170.191 239.462 166.59 242.907 162.221C229.001 206.76 190.392 240.182 144.354 247.457V247.463ZM191.954 179.92C191.539 179.933 191.204 180.274 191.217 180.689C191.223 181.098 191.564 181.426 191.973 181.426C203.313 181.216 216.34 180.497 227.767 174.715C211.897 195.853 189.828 198.915 174.397 194.694C158.452 190.332 145.804 192.092 135.77 200.08C137.4 197.936 138.9 196.033 140.443 194.162C145.048 188.566 151.208 185.114 159.822 183.298C160.225 183.211 160.491 182.808 160.404 182.406C160.33 182.046 160.026 181.811 159.667 181.811C159.617 181.811 159.561 181.811 159.512 181.823C151.778 183.453 146.033 186.316 141.472 190.815C146.231 175.099 157.585 162.86 171.925 158.026C178.382 155.844 184.809 156.204 191.024 156.551H191.086C198.387 156.972 205.941 157.4 213.557 153.719C228.951 146.27 234.126 122.77 231.82 109.378C230.624 102.425 228.486 95.9302 225.468 90.0863C225.375 89.9066 225.214 89.7702 225.022 89.7083C224.83 89.6463 224.632 89.6711 224.458 89.764C224.093 89.9561 223.944 90.4085 224.136 90.7804C227.086 96.488 229.174 102.828 230.345 109.632C232.57 122.572 227.644 145.229 212.907 152.362C209.015 154.246 204.962 155.15 199.8 155.293C203.295 149.152 202.148 140.866 199.26 136.125C198.337 134.613 198.157 133.064 198.746 131.768C199.341 130.467 200.655 129.525 202.272 129.259C210.862 127.808 217.734 122.25 220.213 114.757C220.343 114.367 220.133 113.939 219.73 113.803C219.321 113.691 218.912 113.896 218.788 114.286C216.482 121.252 210.056 126.42 202.024 127.771C199.917 128.131 198.182 129.389 197.383 131.149C196.577 132.909 196.794 134.954 197.978 136.906C200.884 141.672 201.708 149.839 198.095 155.299C195.765 155.293 193.404 155.169 191.186 155.045C186.978 154.81 182.218 154.537 177.459 155.206C180.52 149.449 178.686 144.46 177.068 140.048C175.259 135.109 173.548 130.448 176.752 124.518C180.148 118.234 186.649 116.858 192.933 115.526C198.814 114.28 204.894 112.997 208.104 107.612C211.004 102.747 208.99 94.2198 202.44 83.5978C202.223 83.2446 201.752 83.1331 201.405 83.35C201.231 83.4553 201.113 83.6226 201.07 83.8147C201.027 84.0131 201.058 84.2114 201.163 84.3849C207.404 94.5111 209.411 102.487 206.821 106.843C203.952 111.659 198.455 112.824 192.636 114.057C189.742 114.67 186.934 115.303 184.344 116.313C179.566 109.037 180.415 101.756 181.307 94.0525C182.59 83.0463 183.91 71.6683 168.052 60.9348C172.662 60.3894 176.443 60.1354 179.932 60.1292C181.822 61.5669 183.817 63.3207 185.868 65.3224C186.16 65.6013 186.655 65.5951 186.934 65.31C187.077 65.1675 187.151 64.9754 187.151 64.777C187.151 64.5787 187.071 64.3866 186.922 64.2441C185.503 62.8559 184.015 61.5297 182.398 60.1973C186.463 60.3337 189.959 60.7985 193.051 61.6165C195.071 62.5275 197.036 63.5562 198.889 64.6903C202.477 66.8717 205.811 69.2638 208.817 71.7922C209.12 72.0525 209.622 72.0091 209.876 71.7055C210.006 71.5505 210.068 71.3584 210.05 71.1539C210.031 70.9556 209.938 70.7759 209.783 70.6458C206.728 68.0677 203.326 65.6323 199.663 63.4075C183.334 53.461 166.403 54.5827 151.468 55.5742C140.332 56.3117 129.815 57.0058 121.672 52.7483C121.492 52.6554 121.288 52.6368 121.096 52.6926C120.903 52.7545 120.749 52.8847 120.649 53.0644C120.457 53.43 120.6 53.8886 120.965 54.0807C129.474 58.5303 140.195 57.8176 151.555 57.0678C162.046 56.3737 173.889 55.5928 185.583 58.9021C175.798 58.0407 165.139 59.6892 156.494 61.0278L156.432 61.0401C150.191 62.0007 144.298 62.9117 139.545 62.9117C117.576 62.9117 105.417 56.448 103.403 43.7005C102.064 35.2289 105.609 25.6481 113.126 17.4121C114.099 16.3462 115.177 15.2926 116.466 14.1462C111.62 21.1242 109.209 29.2611 109.823 36.6481C109.854 37.0385 110.182 37.3422 110.579 37.3422C110.808 37.3236 111.013 37.2244 111.149 37.0633C111.273 36.9146 111.335 36.7225 111.323 36.5241C110.573 27.5506 114.403 17.6848 121.548 10.1614C128.551 5.38337 136.006 2.92929 142.538 3.25154C145.55 3.67915 148.661 4.24929 151.796 4.94957C140.939 7.36646 132.876 15.9248 129.933 22.9833C127.64 28.4802 128.012 33.5991 130.955 37.0261C132.684 39.0402 135.306 39.976 139.21 39.976C139.755 39.976 140.276 39.9574 140.803 39.9264C141.001 39.914 141.187 39.8272 141.323 39.6785C141.459 39.5298 141.521 39.3377 141.515 39.1332C141.503 38.9163 141.404 38.7117 141.243 38.5816C141.094 38.4577 140.908 38.4019 140.716 38.4267C136.446 38.6746 133.707 37.9123 132.102 36.047C129.505 33.0289 129.232 28.5918 131.333 23.5659C134.723 15.4414 144.186 6.75294 155.732 5.85435C158.936 6.67858 162.152 7.65773 165.535 8.84139C157.107 9.4859 148.475 12.4543 142.872 16.6498C142.711 16.7676 142.606 16.9473 142.575 17.1456C142.544 17.3439 142.6 17.5422 142.718 17.7033C142.959 18.0256 143.461 18.0938 143.771 17.8521C149.671 13.4335 160.026 10.242 168.963 10.0994C185.236 16.3214 200.326 26.1687 212.665 38.6188C197.321 29.1929 180.248 30.8104 167.01 33.3078C166.601 33.3822 166.335 33.7788 166.409 34.1878C166.484 34.5906 166.862 34.8509 167.289 34.7889C182.417 31.9382 201.845 30.4323 217.914 44.2644C237.64 66.7973 248.497 95.6451 248.497 125.485C248.497 136.497 247.01 147.497 244.072 158.181C231.046 177.572 211.184 179.549 191.954 179.908V179.92ZM47.5166 198.661C47.3741 198.543 47.2068 198.5 47.0518 198.524H46.2958C45.8806 198.524 45.5459 198.865 45.5459 199.28C45.5459 199.696 45.8806 200.036 46.302 200.036H47.089C47.5042 200.024 47.8389 199.683 47.8327 199.268C47.8327 199.039 47.7149 198.803 47.5228 198.654L47.5166 198.661ZM166.397 180.757C165.988 180.8 165.591 180.844 165.201 180.893C165.003 180.918 164.823 181.017 164.699 181.178C164.575 181.34 164.519 181.532 164.544 181.73C164.587 182.108 164.91 182.393 165.288 182.393C165.319 182.393 165.35 182.393 165.381 182.387C165.765 182.337 166.149 182.294 166.533 182.257C166.942 182.213 167.246 181.842 167.203 181.433C167.159 181.042 166.8 180.745 166.385 180.757H166.397ZM147.291 37.5467C146.925 37.6148 146.566 37.683 146.207 37.745C145.798 37.8194 145.519 38.2098 145.593 38.6188C145.655 38.9782 145.965 39.2447 146.349 39.2447C146.473 39.2261 146.585 39.2137 146.696 39.1951C147.025 39.1517 147.334 39.1084 147.694 39.0092C147.874 38.9596 148.022 38.8357 148.109 38.656C148.208 38.4639 148.214 38.2346 148.14 38.0301C148.01 37.6892 147.644 37.4847 147.285 37.5529L147.291 37.5467ZM213.619 74.1596C213.322 73.8745 212.851 73.8807 212.553 74.1719C212.262 74.4694 212.275 74.9466 212.572 75.2379C212.77 75.43 212.962 75.6283 213.161 75.8204C213.303 75.9691 213.495 76.0497 213.7 76.0497C213.904 76.0497 214.084 75.9753 214.227 75.8328C214.518 75.5415 214.524 75.0643 214.239 74.7669C214.035 74.5562 213.83 74.3579 213.626 74.1534L213.619 74.1596ZM140.189 19.3146C139.991 19.327 139.805 19.42 139.675 19.5687C139.421 19.86 139.167 20.1698 138.925 20.4983C138.807 20.6594 138.751 20.8577 138.782 21.056C138.813 21.2543 138.919 21.434 139.08 21.5518C139.21 21.6509 139.365 21.7005 139.532 21.7005C139.768 21.7005 139.997 21.589 140.133 21.3969C140.338 21.1242 140.555 20.8515 140.809 20.5602C140.939 20.4115 141.007 20.2194 140.995 20.0149C140.982 19.8166 140.889 19.6307 140.741 19.4943C140.592 19.3642 140.394 19.296 140.195 19.3084L140.189 19.3146ZM111.967 40.5027C111.918 40.292 111.781 40.1185 111.595 40.0132C111.428 39.9202 111.23 39.8954 111.056 39.9512C110.653 40.0503 110.405 40.4593 110.505 40.8622C110.573 41.1224 110.641 41.3827 110.715 41.6368C110.808 41.9591 111.106 42.1822 111.44 42.1822C111.509 42.1822 111.577 42.1698 111.645 42.1512C111.837 42.0954 111.998 41.9653 112.097 41.7917C112.196 41.6182 112.215 41.4137 112.159 41.2216C112.091 40.9799 112.023 40.7444 111.967 40.5027ZM198.944 78.4046C198.833 78.2373 198.659 78.1319 198.461 78.0948C198.263 78.0576 198.058 78.101 197.891 78.2187C197.73 78.3365 197.618 78.51 197.581 78.7083C197.544 78.9066 197.593 79.1049 197.705 79.2722L198.188 79.9601C198.331 80.1646 198.56 80.2824 198.802 80.2824C198.957 80.2824 199.106 80.2328 199.236 80.146C199.397 80.0283 199.508 79.861 199.546 79.6626C199.583 79.4643 199.533 79.266 199.422 79.0987L198.938 78.4108L198.944 78.4046ZM162.877 34.1444L161.836 34.3675C161.433 34.4543 161.173 34.8571 161.259 35.2661C161.334 35.6132 161.644 35.861 161.997 35.861C162.046 35.861 162.102 35.8549 162.158 35.8425L163.181 35.6256C163.379 35.5884 163.546 35.4706 163.658 35.3033C163.769 35.136 163.806 34.9315 163.763 34.7394C163.683 34.3365 163.292 34.0825 162.877 34.1506V34.1444ZM190.268 67.7393C190.132 67.5906 189.952 67.5038 189.754 67.4976C189.55 67.4852 189.357 67.5596 189.209 67.6959C189.06 67.8322 188.973 68.0182 188.967 68.2165C188.961 68.4148 189.029 68.6069 189.165 68.7556L189.605 69.2328C189.748 69.3877 189.946 69.4807 190.157 69.4807C190.349 69.4807 190.529 69.4125 190.665 69.2824C190.814 69.146 190.9 68.9601 190.907 68.7618C190.913 68.5573 190.845 68.3714 190.708 68.2227L190.268 67.7393Z" fill="#6F1240"/>
</g>
<defs>
<clipPath id="clip0_164_46">
<rect width="249.994" height="250" fill="white" transform="translate(0.00292969 0.5)"/>
</clipPath>
</defs>
</svg>
