<svg width="234" height="261" viewBox="0 0 234 261" fill="none" xmlns="http://www.w3.org/2000/svg">
<g clip-path="url(#clip0_164_52)">
<path fill-rule="evenodd" clip-rule="evenodd" d="M64.7012 65.5702C64.4604 65.5702 64.2129 65.4766 64.0257 65.2893L45.566 46.8297C45.1915 46.4551 45.1915 45.8532 45.566 45.4787C45.9406 45.1041 46.5425 45.1041 46.9171 45.4787L65.3767 63.9383C65.7512 64.3128 65.7512 64.9148 65.3767 65.2893C65.1894 65.4766 64.942 65.5702 64.7012 65.5702ZM79.6361 27.6678C79.2616 27.6678 78.9071 27.4471 78.7532 27.0792L71.9245 10.5926C71.7239 10.1044 71.9513 9.54924 72.4395 9.34859C72.9211 9.14794 73.4829 9.37534 73.6835 9.86359L80.5123 26.3502C80.7129 26.8384 80.4855 27.3936 79.9973 27.5942C79.8769 27.641 79.7565 27.6678 79.6294 27.6678H79.6361ZM154.364 27.6611C154.244 27.6611 154.117 27.6343 153.996 27.5875C153.508 27.3869 153.281 26.8251 153.481 26.3435L160.31 9.86359C160.511 9.37534 161.072 9.14125 161.554 9.34859C162.042 9.54924 162.27 10.1111 162.069 10.5993L155.24 27.0792C155.086 27.4471 154.732 27.6678 154.357 27.6678L154.364 27.6611ZM174.984 93.8483C174.61 93.8483 174.255 93.6275 174.101 93.2597C173.901 92.7714 174.128 92.2163 174.616 92.0157L223.32 71.8438C223.802 71.6432 224.364 71.8706 224.564 72.3588C224.765 72.8471 224.538 73.4022 224.049 73.6029L175.345 93.7747C175.225 93.8215 175.104 93.8483 174.977 93.8483H174.984ZM223.688 162.062C223.568 162.062 223.441 162.042 223.32 161.988L176.027 142.398C175.539 142.198 175.312 141.636 175.512 141.154C175.713 140.666 176.275 140.439 176.756 140.639L224.049 160.229C224.538 160.43 224.772 160.992 224.564 161.473C224.41 161.841 224.056 162.062 223.681 162.062H223.688ZM161.193 224.557C160.818 224.557 160.464 224.337 160.31 223.969L157.32 216.745C157.12 216.257 157.347 215.702 157.835 215.501C158.31 215.301 158.879 215.528 159.079 216.016L162.069 223.24C162.27 223.728 162.042 224.283 161.554 224.484C161.434 224.537 161.313 224.557 161.186 224.557H161.193ZM72.8074 224.557C72.687 224.557 72.5599 224.537 72.4395 224.484C71.9513 224.283 71.7239 223.721 71.9245 223.24L74.9142 216.016C75.1148 215.528 75.6766 215.301 76.1582 215.501C76.6464 215.702 76.8738 216.264 76.6732 216.745L73.6835 223.969C73.5297 224.337 73.1752 224.557 72.8007 224.557H72.8074ZM10.3122 162.055C9.93761 162.055 9.58313 161.835 9.4293 161.467C9.22865 160.978 9.45605 160.423 9.9443 160.223L57.2371 140.633C57.7186 140.432 58.2804 140.659 58.4811 141.148C58.6817 141.636 58.4543 142.191 57.9661 142.392L10.6733 161.982C10.5529 162.029 10.4325 162.055 10.3055 162.055H10.3122ZM59.0162 93.8416C58.8958 93.8416 58.7687 93.8215 58.6483 93.768L9.9443 73.6029C9.45605 73.4022 9.22865 72.8404 9.4293 72.3588C9.62995 71.8706 10.1918 71.6432 10.6733 71.8438L59.3773 92.0157C59.8656 92.2163 60.093 92.7781 59.8923 93.2597C59.7385 93.6275 59.384 93.8483 59.0095 93.8483L59.0162 93.8416ZM64.962 39.9742C64.6544 39.9742 64.3534 39.8271 64.1661 39.5528L57.6451 29.7946C57.3508 29.3532 57.4712 28.7647 57.9059 28.4704C58.3406 28.1761 58.9359 28.2965 59.2302 28.7312L65.7512 38.4894C66.0455 38.9308 65.9251 39.5194 65.4904 39.8137C65.3299 39.9207 65.1426 39.9742 64.962 39.9742ZM54.3946 24.1631C54.0869 24.1631 53.7859 24.016 53.5987 23.7351L52.0603 21.4276C51.7661 20.9862 51.8865 20.3976 52.3212 20.1033C52.7559 19.8091 53.3512 19.9294 53.6455 20.3642L55.1838 22.6716C55.4781 23.1131 55.3577 23.7016 54.9229 23.9959C54.7624 24.1029 54.5751 24.1564 54.3946 24.1564V24.1631ZM97.1661 18.1437C96.7179 18.1437 96.3233 17.8293 96.2297 17.3745L95.5007 13.7027C95.4004 13.1877 95.7348 12.686 96.2498 12.579C96.7514 12.4787 97.2664 12.8131 97.3734 13.3281L98.1024 17C98.2027 17.515 97.8683 18.0166 97.3533 18.1236C97.2931 18.137 97.2262 18.1437 97.1661 18.1437ZM95.0124 7.32873C94.5643 7.32873 94.1697 7.01438 94.0761 6.55958L93.5343 3.83745C93.434 3.32245 93.7684 2.82083 94.2834 2.71382C94.785 2.61349 95.3 2.94791 95.407 3.46291L95.9488 6.18503C96.0491 6.70003 95.7147 7.20165 95.1997 7.30866C95.1395 7.32204 95.0726 7.32873 95.0124 7.32873ZM136.834 18.1437C136.774 18.1437 136.707 18.1437 136.647 18.1236C136.132 18.0233 135.798 17.515 135.898 17L136.627 13.3281C136.727 12.8131 137.235 12.472 137.75 12.579C138.265 12.6793 138.6 13.1877 138.5 13.7027L137.771 17.3745C137.677 17.8293 137.282 18.1437 136.834 18.1437ZM138.988 7.32873C138.928 7.32873 138.861 7.32873 138.801 7.30866C138.286 7.20834 137.951 6.70672 138.051 6.18503L138.593 3.46291C138.694 2.94122 139.202 2.60681 139.717 2.71382C140.232 2.81414 140.566 3.32245 140.466 3.83745L139.924 6.55958C139.831 7.01438 139.436 7.32873 138.988 7.32873ZM169.038 39.9742C168.858 39.9742 168.67 39.9207 168.51 39.8137C168.068 39.5194 167.955 38.9308 168.249 38.4894L174.77 28.7312C175.064 28.2965 175.66 28.1761 176.094 28.4704C176.536 28.7647 176.649 29.3532 176.355 29.7946L169.834 39.5528C169.654 39.8271 169.346 39.9742 169.038 39.9742ZM179.606 24.1631C179.425 24.1631 179.238 24.1096 179.077 24.0026C178.643 23.7083 178.522 23.1197 178.816 22.6783L180.355 20.3709C180.649 19.9361 181.244 19.8157 181.679 20.11C182.12 20.4043 182.234 20.9929 181.94 21.4343L180.402 23.7418C180.221 24.016 179.913 24.1698 179.606 24.1698V24.1631ZM173.573 80.0637C173.753 80.0637 173.941 80.0102 174.101 79.9032L185.418 72.3388C185.853 72.0445 185.973 71.4559 185.679 71.0145C185.384 70.5797 184.789 70.4594 184.354 70.7536L173.038 78.3181C172.603 78.6124 172.483 79.2009 172.777 79.6424C172.958 79.9166 173.265 80.0637 173.573 80.0637ZM194.888 65.8177C194.581 65.8177 194.28 65.6706 194.093 65.3896C193.798 64.9482 193.919 64.3597 194.353 64.0654L204.112 57.5443C204.546 57.25 205.142 57.3704 205.436 57.8051C205.73 58.2466 205.61 58.8351 205.175 59.1294L195.417 65.6505C195.256 65.7575 195.069 65.811 194.888 65.811V65.8177ZM210.706 55.2502C210.399 55.2502 210.098 55.1031 209.91 54.8222C209.616 54.3874 209.736 53.7922 210.171 53.4979L212.479 51.9596C212.92 51.6653 213.509 51.7857 213.803 52.2204C214.097 52.6552 213.977 53.2504 213.542 53.5447L211.235 55.083C211.074 55.19 210.887 55.2435 210.706 55.2435V55.2502ZM168.717 107.573C168.269 107.573 167.874 107.258 167.781 106.803C167.681 106.288 168.015 105.78 168.53 105.68L196.902 100.035C197.41 99.9279 197.918 100.269 198.025 100.784C198.126 101.299 197.791 101.801 197.276 101.908L168.904 107.553C168.844 107.566 168.777 107.573 168.717 107.573ZM208.887 99.5801C208.439 99.5801 208.044 99.2658 207.951 98.811C207.85 98.296 208.185 97.7943 208.7 97.6873L220.21 95.3999C220.712 95.2996 221.227 95.634 221.334 96.149C221.434 96.664 221.1 97.1723 220.585 97.2727L209.074 99.56C209.014 99.5734 208.947 99.5801 208.887 99.5801ZM227.541 95.8681C227.092 95.8681 226.698 95.5538 226.604 95.099C226.504 94.584 226.838 94.0757 227.353 93.9753L230.075 93.4336C230.584 93.3266 231.092 93.6677 231.199 94.1827C231.299 94.6977 230.965 95.206 230.45 95.3063L227.728 95.8481C227.668 95.8614 227.601 95.8681 227.541 95.8681ZM230.263 140.385C230.202 140.385 230.136 140.385 230.075 140.365L227.353 139.823C226.838 139.723 226.504 139.222 226.604 138.7C226.705 138.185 227.22 137.85 227.728 137.951L230.45 138.493C230.965 138.593 231.299 139.094 231.199 139.616C231.105 140.071 230.711 140.385 230.263 140.385ZM220.397 138.426C220.337 138.426 220.27 138.426 220.21 138.406L208.7 136.118C208.185 136.018 207.85 135.516 207.951 134.995C208.051 134.473 208.559 134.138 209.074 134.245L220.585 136.533C221.1 136.633 221.434 137.141 221.334 137.656C221.24 138.111 220.846 138.426 220.397 138.426ZM197.089 133.791C197.029 133.791 196.962 133.791 196.902 133.771L172.262 128.868C171.747 128.768 171.413 128.266 171.513 127.744C171.613 127.229 172.128 126.895 172.637 126.995L197.276 131.898C197.791 131.998 198.126 132.506 198.025 133.021C197.932 133.476 197.537 133.791 197.089 133.791ZM213.007 182.013C212.826 182.013 212.639 181.96 212.479 181.853L210.171 180.314C209.73 180.02 209.616 179.431 209.91 178.99C210.205 178.555 210.793 178.435 211.235 178.729L213.542 180.267C213.977 180.562 214.097 181.15 213.803 181.592C213.616 181.866 213.315 182.013 213.007 182.013ZM204.647 176.422C204.466 176.422 204.279 176.368 204.118 176.261L194.36 169.74C193.925 169.446 193.805 168.857 194.099 168.416C194.393 167.981 194.982 167.861 195.423 168.155L205.182 174.676C205.616 174.97 205.737 175.559 205.443 176C205.262 176.275 204.954 176.422 204.647 176.422ZM184.889 163.219C185.197 163.219 185.498 163.072 185.685 162.798C185.98 162.356 185.859 161.768 185.424 161.473L179.84 157.741C179.398 157.447 178.81 157.567 178.516 158.002C178.221 158.444 178.342 159.032 178.776 159.326L184.361 163.059C184.522 163.166 184.709 163.219 184.889 163.219ZM181.157 213.863C180.85 213.863 180.549 213.716 180.361 213.435L178.823 211.127C178.529 210.686 178.649 210.097 179.084 209.803C179.519 209.509 180.114 209.629 180.408 210.064L181.947 212.371C182.241 212.806 182.12 213.401 181.686 213.695C181.525 213.802 181.338 213.856 181.157 213.856V213.863ZM175.566 205.502C175.258 205.502 174.957 205.355 174.77 205.074L170.396 198.533C170.102 198.092 170.222 197.503 170.657 197.209C171.092 196.915 171.687 197.035 171.981 197.47L176.355 204.011C176.649 204.452 176.529 205.041 176.094 205.335C175.934 205.442 175.747 205.496 175.566 205.496V205.502ZM52.8563 213.863C52.6757 213.863 52.4884 213.809 52.3279 213.702C51.8931 213.408 51.7728 212.819 52.067 212.378L53.6053 210.07C53.8996 209.629 54.4882 209.515 54.9296 209.81C55.371 210.104 55.4847 210.692 55.1905 211.134L53.6522 213.441C53.4716 213.716 53.1639 213.869 52.8563 213.869V213.863ZM58.4476 205.502C58.2671 205.502 58.0798 205.449 57.9193 205.342C57.4845 205.048 57.3641 204.459 57.6584 204.018L62.0326 197.47C62.3268 197.035 62.9221 196.915 63.3568 197.209C63.7983 197.503 63.912 198.092 63.6177 198.533L59.2435 205.081C59.0563 205.355 58.7553 205.509 58.4476 205.509V205.502ZM21.0067 182.006C20.699 182.006 20.3981 181.859 20.2108 181.578C19.9165 181.144 20.0369 180.548 20.4716 180.254L22.7791 178.716C23.2205 178.421 23.8158 178.542 24.1034 178.977C24.3977 179.411 24.2773 180.007 23.8425 180.301L21.5351 181.839C21.3746 181.946 21.1873 182 21.0067 182V182.006ZM29.3737 176.415C29.0661 176.415 28.7651 176.268 28.5778 175.987C28.2835 175.546 28.4039 174.957 28.8387 174.663L38.5969 168.142C39.0383 167.847 39.6268 167.968 39.9211 168.402C40.2154 168.837 40.095 169.432 39.6603 169.727L29.9021 176.248C29.7416 176.355 29.5543 176.408 29.3737 176.408V176.415ZM49.1309 163.212C49.3115 163.212 49.4987 163.159 49.6593 163.052L55.244 159.32C55.6854 159.026 55.7991 158.437 55.5048 157.996C55.2105 157.561 54.6153 157.44 54.1805 157.735L48.5958 161.467C48.1611 161.761 48.0407 162.35 48.335 162.791C48.5222 163.065 48.8232 163.212 49.1309 163.212ZM3.74427 140.392C3.29615 140.392 2.90154 140.078 2.80791 139.623C2.70758 139.108 3.042 138.606 3.557 138.499L6.27912 137.957C6.78743 137.85 7.29574 138.192 7.40275 138.707C7.50308 139.222 7.16866 139.723 6.65367 139.83L3.93154 140.372C3.87134 140.385 3.80446 140.392 3.74427 140.392ZM13.6095 138.426C13.1614 138.426 12.7667 138.111 12.6731 137.656C12.5728 137.141 12.9072 136.64 13.4222 136.533L24.9327 134.245C25.441 134.138 25.956 134.48 26.0563 134.995C26.1567 135.51 25.8223 136.018 25.3073 136.118L13.7967 138.406C13.7365 138.419 13.6697 138.426 13.6095 138.426ZM36.9181 133.791C36.47 133.791 36.0754 133.476 35.9817 133.021C35.8814 132.506 36.2158 131.998 36.7308 131.898L61.3704 126.995C61.872 126.895 62.387 127.229 62.494 127.744C62.5944 128.259 62.26 128.768 61.745 128.868L37.1054 133.771C37.0452 133.784 36.9783 133.791 36.9181 133.791ZM65.2897 107.573C65.2296 107.573 65.1627 107.573 65.1025 107.553L36.7308 101.908C36.2158 101.807 35.8814 101.299 35.9817 100.784C36.0888 100.269 36.5971 99.9279 37.1054 100.035L65.477 105.68C65.992 105.78 66.3264 106.288 66.2261 106.803C66.1325 107.258 65.7379 107.573 65.2897 107.573ZM25.1267 99.5801C25.0665 99.5801 24.9996 99.5801 24.9394 99.56L13.4289 97.2727C12.9139 97.1723 12.5795 96.664 12.6798 96.149C12.7801 95.634 13.2884 95.2996 13.8034 95.3999L25.3139 97.6873C25.8289 97.7877 26.1634 98.296 26.063 98.811C25.9694 99.2658 25.5748 99.5801 25.1267 99.5801ZM6.47308 95.8681C6.41289 95.8681 6.34601 95.8681 6.28581 95.8481L3.56368 95.3063C3.04869 95.206 2.71427 94.6977 2.8146 94.1827C2.92161 93.6677 3.42323 93.3333 3.93823 93.4336L6.66035 93.9753C7.17535 94.0757 7.50976 94.584 7.40944 95.099C7.3158 95.5538 6.9212 95.8681 6.47308 95.8681ZM60.4341 80.057C60.7417 80.057 61.0427 79.9099 61.23 79.629C61.5243 79.1876 61.4039 78.599 60.9691 78.3047L49.6526 70.7403C49.2178 70.446 48.6226 70.5664 48.3283 71.0011C48.034 71.4359 48.1544 72.0311 48.5891 72.3254L59.9057 79.8898C60.0662 79.9968 60.2535 80.0503 60.4341 80.0503V80.057ZM39.1185 65.811C38.938 65.811 38.7507 65.7575 38.5902 65.6505L28.832 59.1294C28.3906 58.8351 28.2769 58.2466 28.5711 57.8051C28.8654 57.3637 29.4607 57.25 29.8954 57.5443L39.6536 64.0654C40.095 64.3597 40.2087 64.9482 39.9144 65.3896C39.7339 65.6639 39.4262 65.8177 39.1185 65.8177V65.811ZM23.3075 55.2435C23.1269 55.2435 22.9396 55.19 22.7791 55.083L20.4716 53.5447C20.0369 53.2504 19.9165 52.6619 20.2108 52.2204C20.5051 51.7857 21.0936 51.6586 21.5351 51.9596L23.8425 53.4979C24.2773 53.7922 24.3977 54.3807 24.1034 54.8222C23.9161 55.0964 23.6151 55.2502 23.3075 55.2502V55.2435ZM116.997 6.43919C116.468 6.43919 116.04 6.01114 116.04 5.48276V1.45642C116.04 0.92805 116.468 0.5 116.997 0.5C117.525 0.5 117.953 0.92805 117.953 1.45642V5.48945C117.953 6.01783 117.525 6.44588 116.997 6.44588V6.43919ZM169.292 65.5702C169.052 65.5702 168.804 65.4766 168.617 65.2893C168.242 64.9148 168.242 64.3128 168.617 63.9383L187.083 45.472C187.458 45.0974 188.06 45.0974 188.434 45.472C188.809 45.8465 188.809 46.4485 188.434 46.823L169.968 65.2893C169.781 65.4766 169.54 65.5702 169.292 65.5702ZM194.193 40.6698C193.952 40.6698 193.705 40.5761 193.517 40.3889C193.143 40.0143 193.143 39.4124 193.517 39.0378L197.958 34.5968C198.333 34.2223 198.935 34.2223 199.309 34.5968C199.684 34.9714 199.684 35.5733 199.309 35.9479L194.868 40.3889C194.681 40.5761 194.434 40.6698 194.193 40.6698ZM232.45 117.866H226.169C225.641 117.866 225.213 117.438 225.213 116.909C225.213 116.381 225.641 115.953 226.169 115.953H232.45C232.978 115.953 233.406 116.381 233.406 116.909C233.406 117.438 232.978 117.866 232.45 117.866ZM217.06 117.866H188.133C187.605 117.866 187.177 117.438 187.177 116.909C187.177 116.381 187.605 115.953 188.133 115.953H217.06C217.588 115.953 218.016 116.381 218.016 116.909C218.016 117.438 217.588 117.866 217.06 117.866ZM176.596 117.866H169.48C168.951 117.866 168.523 117.438 168.523 116.909C168.523 116.381 168.951 115.953 169.48 115.953H176.596C177.124 115.953 177.552 116.381 177.552 116.909C177.552 117.438 177.124 117.866 176.596 117.866ZM198.627 199.503C198.386 199.503 198.139 199.409 197.952 199.222L193.511 194.781C193.136 194.406 193.136 193.805 193.511 193.43C193.885 193.055 194.487 193.055 194.862 193.43L199.303 197.871C199.677 198.246 199.677 198.847 199.303 199.222C199.115 199.409 198.875 199.503 198.627 199.503ZM187.745 188.621C187.505 188.621 187.257 188.527 187.07 188.34L177.432 178.702C177.057 178.328 177.057 177.726 177.432 177.351C177.807 176.977 178.408 176.977 178.783 177.351L188.421 186.989C188.795 187.364 188.795 187.966 188.421 188.34C188.234 188.527 187.993 188.621 187.745 188.621ZM35.3464 199.503C35.1056 199.503 34.8581 199.409 34.6708 199.222C34.2963 198.847 34.2963 198.246 34.6708 197.871L39.1119 193.43C39.4864 193.055 40.0883 193.055 40.4629 193.43C40.8374 193.805 40.8374 194.406 40.4629 194.781L36.0219 199.222C35.8346 199.409 35.5871 199.503 35.3464 199.503ZM46.2282 188.621C45.9874 188.621 45.7399 188.527 45.5527 188.34C45.1781 187.966 45.1781 187.364 45.5527 186.989L55.1905 177.351C55.565 176.977 56.1669 176.977 56.5415 177.351C56.916 177.726 56.916 178.328 56.5415 178.702L46.9037 188.34C46.7164 188.527 46.4756 188.621 46.2282 188.621ZM64.4938 117.859H57.3775C56.8492 117.859 56.4211 117.431 56.4211 116.903C56.4211 116.374 56.8492 115.946 57.3775 115.946H64.4938C65.0222 115.946 65.4503 116.374 65.4503 116.903C65.4503 117.431 65.0222 117.859 64.4938 117.859ZM45.8469 117.859H16.9269C16.3985 117.859 15.9704 117.431 15.9704 116.903C15.9704 116.374 16.3985 115.946 16.9269 115.946H45.8536C46.382 115.946 46.8101 116.374 46.8101 116.903C46.8101 117.431 46.382 117.859 45.8536 117.859H45.8469ZM7.81074 117.859H1.54383C1.01545 117.859 0.587402 117.431 0.587402 116.903C0.587402 116.374 1.01545 115.946 1.54383 115.946H7.82411C8.35249 115.946 8.78054 116.374 8.78054 116.903C8.78054 117.431 8.35249 117.859 7.82411 117.859H7.81074ZM39.8007 40.6698C39.56 40.6698 39.3125 40.5761 39.1252 40.3889L34.6842 35.9479C34.3097 35.5733 34.3097 34.9714 34.6842 34.5968C35.0588 34.2223 35.6607 34.2223 36.0352 34.5968L40.4763 39.0378C40.8508 39.4124 40.8508 40.0143 40.4763 40.3889C40.289 40.5761 40.0415 40.6698 39.8007 40.6698Z" fill="#6F1240"/>
<path fill-rule="evenodd" clip-rule="evenodd" d="M135.182 67.4095C135.022 67.4095 134.854 67.3694 134.707 67.2825C134.253 67.0216 134.092 66.433 134.36 65.9782L136.058 63.0354C136.319 62.5806 136.908 62.4201 137.363 62.6876C137.817 62.9485 137.978 63.537 137.71 63.9918L136.012 66.9347C135.838 67.2423 135.517 67.4095 135.182 67.4095ZM116.997 97.8412C113.338 97.8412 109.687 97.0051 106.168 95.3331C107.366 100.637 111.606 108.188 116.997 108.188C122.388 108.188 126.628 100.637 127.825 95.3331C124.307 97.0051 120.655 97.8412 116.997 97.8412ZM116.997 252.568H159.126C159.655 252.568 160.083 252.14 160.083 251.611C160.083 251.083 159.655 250.655 159.126 250.655H117.947V241.619C117.947 234.389 120.1 228.477 124.922 222.457C127.116 219.722 129.818 216.946 132.407 214.511C133.905 213.1 135.383 211.789 136.828 210.512C140.54 207.228 144.044 204.125 147.562 199.657C157.28 187.337 161.434 173.934 160.25 158.691C159.688 151.454 157.655 144.726 155.294 136.948C154.404 134.005 153.481 130.968 152.578 127.698C148.947 114.535 146.893 100.677 156.404 88.5177C156.678 88.1632 156.672 87.6616 156.384 87.3138C156.09 86.966 155.602 86.8724 155.2 87.0864C134.226 98.316 125.083 123.183 132.46 148.96C133.49 152.558 134.587 155.889 135.65 159.112C139.309 170.222 142.472 179.813 140.419 193.356C139.73 197.878 138.473 201.83 136.567 205.449C135.289 207.87 133.804 209.883 132.106 211.829C129.283 215.073 126.133 217.896 123.424 221.273C120.97 224.33 119.157 227.433 117.94 230.684V110.047C124.635 109.205 129.223 99.647 129.959 94.2161C136.232 90.6379 141.456 85.4411 145.088 79.1408C151.067 68.7873 152.217 56.3672 148.238 45.0707C148.084 44.6293 147.622 44.3617 147.161 44.4487C141.516 45.5054 136.239 47.7126 131.611 50.8694C130.393 40.6899 125.457 31.4601 117.599 24.725C117.418 24.5711 117.197 24.4976 116.977 24.4976C116.756 24.4976 116.535 24.5711 116.355 24.725C108.503 31.4601 103.567 40.6966 102.343 50.8694C97.7145 47.7126 92.4375 45.5054 86.7925 44.4487C86.3311 44.3617 85.8696 44.6293 85.7157 45.0707C81.7362 56.3672 82.8866 68.7873 88.8659 79.1408C92.5043 85.4411 97.7212 90.6312 103.995 94.2161C104.73 99.647 109.319 109.205 116.014 110.047V230.684C114.796 227.433 112.977 224.33 110.529 221.273C107.814 217.896 104.67 215.073 101.848 211.829C100.156 209.883 98.6642 207.87 97.3868 205.449C95.4806 201.83 94.2232 197.878 93.5343 193.356C91.481 179.813 94.6446 170.222 98.3031 159.112C99.3665 155.889 100.463 152.558 101.493 148.96C108.871 123.183 99.7277 98.316 78.7532 87.0864C78.3519 86.8724 77.8637 86.966 77.5694 87.3138C77.2818 87.6616 77.2684 88.1632 77.5494 88.5177C87.0601 100.677 85.0068 114.535 81.375 127.698C80.4721 130.968 79.5491 134.011 78.6596 136.948C76.3053 144.733 74.2654 151.454 73.7036 158.691C72.5265 173.934 76.6732 187.337 86.3912 199.657C89.916 204.125 93.4206 207.228 97.1259 210.512C98.5706 211.789 100.049 213.1 101.547 214.511C104.135 216.946 106.837 219.728 109.031 222.457C113.853 228.477 116.007 234.382 116.007 241.619V250.655H74.8272C74.2989 250.655 73.8708 251.083 73.8708 251.611C73.8708 252.14 74.2989 252.568 74.8272 252.568H116.957H116.997ZM116.997 26.7047C124.394 33.3127 128.935 42.3017 129.845 52.1469C125.598 55.3907 121.986 59.4705 119.251 64.2058C118.789 65.0017 118.361 65.811 117.953 66.6337V49.9799C117.953 49.4515 117.525 49.0235 116.997 49.0235C116.468 49.0235 116.04 49.4515 116.04 49.9799V66.6337C115.632 65.811 115.204 65.0017 114.743 64.2058C112.007 59.4639 108.389 55.3907 104.149 52.1469C105.058 42.3017 109.6 33.3127 116.997 26.7047ZM116.997 72.3053C116.589 72.3053 116.234 72.0512 116.094 71.67C115.298 69.4227 114.288 67.2356 113.091 65.1623C107.526 55.5245 98.1492 48.7492 87.2741 46.4752C83.8029 57.036 84.98 68.5398 90.5447 78.1776C94.1764 84.4646 99.4535 89.5945 105.814 93.0122C109.419 94.9518 113.211 95.9216 116.997 95.9216C120.782 95.9216 124.575 94.9518 128.18 93.0122C134.54 89.5945 139.817 84.4579 143.449 78.1776C149.014 68.5398 150.191 57.036 146.719 46.4752C135.844 48.7492 126.467 55.5245 120.903 65.1623C119.706 67.2356 118.696 69.4294 117.9 71.67C117.766 72.0512 117.405 72.3053 116.997 72.3053ZM123.605 87.4677C123.444 87.4677 123.277 87.4275 123.13 87.3406C122.675 87.0797 122.515 86.4912 122.782 86.0364L130.38 72.8805C130.641 72.4257 131.229 72.2652 131.684 72.5327C132.139 72.7936 132.3 73.3822 132.032 73.837L124.434 86.9928C124.26 87.3005 123.939 87.4677 123.605 87.4677ZM142.325 131.577C141.85 131.577 141.442 131.222 141.382 130.741C140.941 127.27 140.854 123.731 141.101 119.919C141.135 119.391 141.603 118.983 142.118 119.03C142.646 119.063 143.041 119.518 143.007 120.046C142.76 123.738 142.847 127.156 143.275 130.5C143.342 131.022 142.974 131.503 142.446 131.57C142.406 131.57 142.365 131.577 142.325 131.577ZM149.769 164.557C149.274 164.557 148.86 164.175 148.82 163.674C148.438 158.785 147.576 154.163 146.265 149.929L145.99 149.04C145.315 146.866 144.686 144.84 144.118 142.913C143.971 142.405 144.258 141.877 144.767 141.73C145.268 141.582 145.803 141.87 145.95 142.378C146.512 144.298 147.141 146.311 147.81 148.478L148.084 149.368C149.442 153.735 150.324 158.504 150.719 163.533C150.759 164.062 150.365 164.517 149.843 164.557C149.816 164.557 149.789 164.557 149.769 164.557ZM141.737 203.362C146.88 195.577 150.09 185.357 150.799 174.054C150.833 173.526 150.431 173.078 149.91 173.044C149.375 173.011 148.927 173.412 148.9 173.94C148.204 185.023 145.047 195.002 140.004 202.533C141.075 199.784 141.837 196.841 142.325 193.637C144.445 179.645 141.222 169.847 137.483 158.511C136.426 155.307 135.336 151.996 134.313 148.431C128.715 128.868 132.373 104.155 152.418 90.9656C145.295 102.837 147.341 115.826 150.759 128.199C151.669 131.497 152.592 134.546 153.488 137.496C155.816 145.174 157.822 151.802 158.364 158.838C159.507 173.579 155.488 186.548 146.077 198.473C144.639 200.299 143.195 201.891 141.737 203.369V203.362ZM117.003 44.0206C116.475 44.0206 116.047 43.5926 116.047 43.0642V41.7667C116.047 41.2383 116.475 40.8103 117.003 40.8103C117.532 40.8103 117.96 41.2383 117.96 41.7667V43.0642C117.96 43.5926 117.532 44.0206 117.003 44.0206ZM171.306 252.561C170.777 252.561 170.349 252.133 170.349 251.605C170.349 251.076 170.777 250.648 171.306 250.648H176.328C176.857 250.648 177.285 251.076 177.285 251.605C177.285 252.133 176.857 252.561 176.328 252.561H171.306ZM117.003 258.587H200.941C201.47 258.587 201.898 259.015 201.898 259.544C201.898 260.072 201.47 260.5 200.941 260.5H33.059C32.5306 260.5 32.1025 260.072 32.1025 259.544C32.1025 259.015 32.5306 258.587 33.059 258.587H116.997H117.003ZM62.7014 252.561H57.6785C57.1501 252.561 56.7221 252.133 56.7221 251.605C56.7221 251.076 57.1501 250.648 57.6785 250.648H62.7014C63.2298 250.648 63.6578 251.076 63.6578 251.605C63.6578 252.133 63.2298 252.561 62.7014 252.561ZM92.2702 203.362C90.8122 201.884 89.3675 200.292 87.9296 198.466C78.5192 186.541 74.4995 173.573 75.6432 158.832C76.185 151.802 78.1981 145.167 80.5189 137.489C81.4152 134.54 82.3382 131.49 83.2478 128.193C86.6655 115.819 88.7054 102.837 81.5891 90.9589C101.641 104.148 105.292 128.855 99.6942 148.425C98.6776 151.989 97.5807 155.3 96.5307 158.504C92.7919 169.84 89.5682 179.639 91.6884 193.631C92.1766 196.841 92.9391 199.784 94.0092 202.526C88.9662 195.002 85.8094 185.016 85.1138 173.934C85.0803 173.405 84.6389 173.011 84.1039 173.037C83.5755 173.071 83.1809 173.526 83.2143 174.047C83.9233 185.351 87.1336 195.57 92.2769 203.355L92.2702 203.362ZM84.2376 164.557C84.2376 164.557 84.1841 164.557 84.1641 164.557C83.6357 164.517 83.2478 164.055 83.2879 163.533C83.6825 158.504 84.572 153.742 85.9231 149.368L86.1973 148.478C86.8728 146.311 87.4948 144.298 88.0566 142.378C88.2038 141.87 88.7388 141.582 89.2405 141.73C89.7488 141.877 90.0364 142.405 89.8892 142.913C89.3207 144.84 88.692 146.866 88.0165 149.04L87.7423 149.929C86.4314 154.163 85.5686 158.785 85.1874 163.674C85.1472 164.175 84.7326 164.557 84.2376 164.557ZM91.6817 131.577C91.6415 131.577 91.6014 131.577 91.5613 131.57C91.0396 131.503 90.6651 131.028 90.7319 130.5C91.16 127.156 91.2469 123.738 90.9995 120.046C90.966 119.518 91.3606 119.063 91.889 119.03C92.404 118.983 92.8722 119.391 92.9056 119.919C93.1598 123.731 93.0662 127.27 92.6247 130.741C92.5645 131.222 92.1565 131.577 91.6817 131.577ZM110.402 87.4677C110.074 87.4677 109.753 87.2938 109.573 86.9928L101.975 73.837C101.714 73.3822 101.868 72.7936 102.323 72.5327C102.778 72.2652 103.366 72.4257 103.627 72.8805L111.225 86.0364C111.486 86.4912 111.332 87.0797 110.877 87.3406C110.73 87.4275 110.563 87.4677 110.402 87.4677ZM98.8181 67.4095C98.4903 67.4095 98.1693 67.2356 97.9887 66.9347L96.2899 63.9918C96.0291 63.537 96.1829 62.9485 96.6377 62.6876C97.0925 62.4201 97.6744 62.5806 97.9419 63.0354L99.6407 65.9782C99.9016 66.433 99.7477 67.0216 99.2929 67.2825C99.1458 67.3694 98.9786 67.4095 98.8181 67.4095Z" fill="#6F1240"/>
</g>
<defs>
<clipPath id="clip0_164_52">
<rect width="232.826" height="260" fill="white" transform="translate(0.587402 0.5)"/>
</clipPath>
</defs>
</svg>
