<svg width="140" height="221" viewBox="0 0 140 221" fill="none" xmlns="http://www.w3.org/2000/svg">
<g clip-path="url(#clip0_30_22472)">
<path fill-rule="evenodd" clip-rule="evenodd" d="M70.0001 1.63531C72.1147 1.63531 74.0293 2.49293 75.4122 3.87845C76.795 5.26397 77.6532 7.18266 77.6532 9.30128C77.6532 11.4199 76.795 13.3368 75.4122 14.7241C74.0276 16.1096 72.1147 16.9673 70.0001 16.9673C67.8854 16.9673 65.955 16.1096 64.5687 14.7241C63.1805 13.3386 62.3224 11.4199 62.3224 9.30128C62.3224 7.18266 63.1805 5.26397 64.5669 3.87845C65.955 2.49468 67.8749 1.63531 70.0001 1.63531ZM71.1021 111.835C73.1799 103.634 76.7108 97.4802 81.1384 92.9097C85.6309 88.2726 91.0553 85.2525 96.8254 83.3671C95.9883 85.3858 95.5163 87.4395 95.0354 89.5353C94.1053 93.5762 93.1401 97.7766 89.3425 102.037L89.3145 102.072C86.175 105.562 82.0123 107.046 78.2604 108.382C75.5052 109.364 72.9606 110.273 71.1021 111.837V111.835ZM68.6593 78.374C64.9951 71.0009 57.9457 68.2597 51.7228 65.8411C45.614 63.4682 40.3423 61.4197 40.3423 55.4269C40.3423 53.859 40.7793 52.5997 41.4988 51.6404C42.306 50.5618 43.4818 49.8392 44.8032 49.4622C46.1475 49.0798 47.6392 49.057 49.0501 49.378C50.6172 49.734 52.0826 50.518 53.1355 51.7053C53.032 52.27 52.9758 52.8839 52.9758 53.5486C52.9758 57.7648 56.0241 60.9024 59.5268 64.51C63.0419 68.1281 67.036 72.2409 68.6593 78.374ZM9.3666 80.7136C13.7872 75.4907 19.9995 71.1921 27.8632 68.7595C26.9963 70.1801 26.4207 71.9655 25.796 73.9087C24.7465 77.1744 23.5462 80.9065 20.5611 83.86C17.648 86.7432 14.3365 86.6012 11.2882 86.4696C8.96824 86.3697 6.78515 86.275 4.93899 87.3518C6.12355 85.0315 7.60292 82.7971 9.3666 80.7118V80.7136ZM9.4719 121.999L10.9074 121.839C14.2663 121.467 17.5339 121.125 20.7085 120.806C21.0349 120.774 21.2736 120.483 21.242 120.157C21.2104 119.831 20.9191 119.592 20.5927 119.624C17.3338 119.952 14.0417 120.294 10.7775 120.657C7.73455 120.995 4.61785 121.36 1.43271 121.764V103.852C1.43271 102.266 1.40113 100.695 1.53274 99.113C1.55556 98.8271 1.58363 98.5395 1.61697 98.2518C4.96532 98.4991 8.34701 98.764 11.7655 99.0428C15.4701 99.3462 19.0659 99.6567 22.5248 99.9759L24.6711 100.165C27.8088 100.43 31.0659 100.704 34.0212 101.444C46.7635 104.634 52.7319 114.954 59.2408 126.206L59.6146 126.855L60.557 128.435C61.8275 130.535 62.1171 131.013 62.712 134.51L62.7172 134.533C62.8524 135.386 62.991 136.229 63.1454 137.043C63.3086 137.89 63.4964 138.753 63.7281 139.639C63.8404 140.075 63.9983 140.519 64.1598 140.973C64.702 142.503 65.2969 144.183 63.7035 144.897C62.7629 145.318 61.3993 145.186 60.0551 144.511C58.8354 143.899 57.6438 142.839 56.7892 141.333C55.3537 137.659 53.862 134.007 52.3598 130.361L51.8632 129.179C50.9436 127.022 50.2785 125.459 50.4733 122.734C50.4961 122.407 50.2487 122.121 49.9223 122.099C49.5959 122.076 49.3098 122.323 49.287 122.649C49.0729 125.657 49.7854 127.332 50.7699 129.644L51.2613 130.812C53.9357 137.31 56.5839 143.823 58.9372 150.486C61.2852 157.128 63.335 163.903 64.8179 170.93L64.8389 171.03C65.1723 172.598 65.6058 174.627 64.7617 175.887C64.2019 176.722 62.9401 177.288 62.0539 176.587C61.5625 176.199 61.1677 175.534 60.8307 174.864C59.5584 172.272 58.3002 169.627 57.0437 166.986C54.8114 162.291 52.5757 157.594 50.0995 152.859C49.2431 151.202 48.4657 149.807 47.5181 148.517C46.5634 147.217 45.4438 146.033 43.91 144.809C43.6538 144.605 43.2782 144.648 43.0747 144.905C42.8711 145.161 42.9132 145.537 43.1712 145.74C44.6172 146.892 45.6684 148.003 46.5616 149.218C47.4619 150.444 48.2113 151.793 49.0466 153.404C51.4912 158.077 53.7322 162.784 55.9714 167.493C57.2156 170.106 58.4599 172.721 59.769 175.39C59.9831 175.815 60.22 176.243 60.4973 176.629C60.7061 177.165 60.7991 177.693 60.7974 178.186C60.7939 178.737 60.6693 179.249 60.4569 179.686C60.3007 180.008 60.1042 180.257 59.8831 180.433C59.6146 180.647 59.3022 180.762 58.9811 180.783C58.6459 180.806 58.2879 180.729 57.9474 180.564C57.5859 180.389 57.242 180.113 56.9506 179.749C56.6786 179.408 56.4224 179.033 56.1908 178.665C55.9609 178.304 55.7398 177.918 55.5467 177.581C50.7401 169.575 46.423 160.674 41.4637 152.868C39.9018 150.411 38.34 147.954 35.8217 145.996C35.5619 145.795 35.1864 145.842 34.9864 146.101C34.7845 146.361 34.8319 146.736 35.0916 146.936C37.4467 148.767 38.9542 151.137 40.4599 153.506L40.5862 153.703L51.0928 172.158L51.1139 172.205C51.5473 173.121 51.5807 174.007 51.3543 174.705C51.2595 174.996 51.1191 175.254 50.9454 175.464C50.7804 175.664 50.5821 175.824 50.3645 175.927L50.3417 175.939C50.0241 176.081 49.6503 176.109 49.2607 175.983C48.22 175.641 47.6111 174.582 47.0478 173.603L46.9653 173.463C44.1206 168.601 41.1759 163.656 38.0837 158.834C34.9828 153.999 31.724 149.271 28.2511 144.844C28.0492 144.586 27.6754 144.541 27.4175 144.742C27.1595 144.944 27.1139 145.318 27.3157 145.575C30.757 149.962 33.9983 154.664 37.0834 159.476C38.0171 160.934 38.9384 162.4 39.8439 163.87C39.9492 164.098 39.9264 164.387 39.8141 164.629C39.7193 164.831 39.5438 165.02 39.3104 165.036C39.0682 165.053 38.7488 164.911 38.3663 164.518C36.4587 162.558 34.2072 159.629 31.8977 156.332C29.59 153.038 27.2086 149.346 25.0484 145.872C24.1814 144.479 23.0759 142.447 21.8158 140.133C18.2587 133.595 13.5082 124.863 9.47891 122.002L9.4719 121.999ZM27.4877 189.931C30.736 190.401 33.9211 190.864 36.5184 192.673C38.9823 194.384 40.8109 196.696 42.7412 199.137C45.1068 202.127 47.6286 205.312 51.6491 207.931C50.4365 207.592 49.2361 207.221 48.0498 206.817C45.3508 205.9 42.7184 204.813 40.1738 203.573C39.879 203.429 39.521 203.552 39.3771 203.846C39.2332 204.141 39.356 204.499 39.6509 204.642C42.2306 205.9 44.9085 207.005 47.6672 207.943C48.4394 208.206 49.2168 208.455 50.0012 208.69C47.9568 208.662 45.9983 208.715 44.1223 208.764C37.8925 208.929 32.6225 209.069 28.4283 206.096C23.4549 202.573 22.0124 198.409 20.3698 193.674C19.8416 192.146 19.2906 190.559 18.6009 188.916C21.614 192.203 24.9343 195.203 28.516 197.867C28.7793 198.062 29.1513 198.006 29.3461 197.745C29.5409 197.482 29.4847 197.11 29.2215 196.915C25.6205 194.235 22.2879 191.213 19.273 187.895C21.8895 189.123 24.7079 189.531 27.4824 189.935L27.4877 189.931ZM16.4037 184.521C13.4573 180.831 10.8828 176.836 8.73659 172.59C4.55643 164.317 2.00656 155.093 1.51694 145.351C2.78047 153.326 4.88109 159.248 7.33619 163.657C11.4111 170.971 16.4792 174.145 20.3926 175.594C24.3166 177.044 27.2455 176.211 29.025 174.459C29.7708 173.724 30.3131 172.825 30.636 171.865C30.9589 170.908 31.0677 169.887 30.9518 168.905C30.6868 166.66 29.2706 164.596 26.5979 163.857C26.2821 163.77 25.9539 163.955 25.8679 164.271C25.7802 164.587 25.9662 164.915 26.2821 165.001C28.423 165.592 29.5584 167.244 29.7708 169.038C29.8656 169.852 29.7761 170.697 29.5111 171.486C29.2461 172.274 28.8021 173.009 28.1931 173.61C26.7138 175.068 24.2183 175.739 20.8015 174.477C17.0882 173.102 12.2727 170.078 8.37333 163.079C4.52835 156.175 1.57837 145.428 1.43447 128.637C1.42745 127.802 1.4292 126.969 1.4292 126.136V122.962C3.3473 122.718 5.28822 122.483 7.24142 122.256C11.0039 122.762 16.6915 133.213 20.7647 140.7C22.0422 143.05 23.1671 145.116 24.0288 146.5C26.182 149.96 28.5687 153.659 30.9167 157.01C33.2613 160.358 35.5532 163.338 37.5064 165.346C38.168 166.027 38.8226 166.263 39.3859 166.223C39.972 166.181 40.4511 165.844 40.7529 165.366C42.5236 168.27 44.2469 171.183 45.9316 174.063L46.0053 174.193C46.6775 175.364 47.404 176.629 48.8834 177.114C49.5748 177.339 50.2452 177.285 50.8261 177.021L50.8682 177.002C51.242 176.825 51.5771 176.557 51.8527 176.223C52.1212 175.901 52.3353 175.508 52.4757 175.075C52.509 174.973 52.5371 174.868 52.5634 174.761L54.5061 178.174C54.6974 178.505 54.9185 178.889 55.1782 179.3C55.4327 179.705 55.7152 180.119 56.0118 180.491C56.4172 180.999 56.9033 181.387 57.4192 181.636C57.9457 181.892 58.5072 182.008 59.0513 181.971C59.6093 181.934 60.1498 181.736 60.6131 181.366C60.9711 181.082 61.2817 180.696 61.5186 180.208C61.8029 179.622 61.9697 178.935 61.9749 178.195C61.9749 178.104 61.9749 178.011 61.9679 177.918C63.1191 178.412 64.5353 177.883 65.3899 177.043C66.9939 175.461 66.4288 172.807 65.9989 170.788L65.9761 170.688C64.4792 163.599 62.4154 156.775 60.0551 150.095C59.4093 148.267 58.7406 146.451 58.0562 144.639C58.5301 145.016 59.0214 145.328 59.5198 145.577C61.1835 146.412 62.9261 146.547 64.1843 145.986C66.7816 144.825 65.9954 142.603 65.2794 140.582C65.125 140.145 64.9723 139.716 64.8758 139.344C64.6564 138.506 64.4739 137.664 64.3124 136.824C64.151 135.97 64.0159 135.159 63.8913 134.363L63.886 134.318C63.2525 130.591 62.9419 130.077 61.5766 127.825L60.2709 125.615C53.6304 114.135 47.5409 103.606 34.3107 100.295C31.2484 99.5286 27.9492 99.2515 24.7693 98.9832L22.6319 98.799C18.8957 98.4553 15.3104 98.1431 11.8586 97.8607C8.51723 97.5872 5.1531 97.3258 1.77316 97.075C2.11361 94.8529 2.70676 92.6361 3.54385 90.4701C5.3707 87.4062 8.16976 87.5254 11.2373 87.6587C14.533 87.8008 18.1165 87.9551 21.3982 84.7053C24.5868 81.5502 25.8363 77.6707 26.9261 74.2753C27.7474 71.72 28.4774 69.4523 29.8673 68.1229C30.0252 67.9791 30.1025 67.7528 30.0446 67.5318C29.9621 67.2144 29.6357 67.025 29.318 67.1074C20.3663 69.4856 13.352 74.1648 8.45932 79.9489C5.09693 83.9231 2.73484 88.4199 1.43096 93.0482V81.2713C1.43096 69.7785 4.30197 58.924 9.36134 49.3867C13.08 42.3767 17.9814 36.0787 23.7936 30.7593C21.5737 33.69 19.7416 36.9381 18.4745 40.2055C16.1774 46.1334 15.7299 52.156 18.1727 56.5318C19.8591 59.5502 22.6775 60.7603 25.2572 60.5726C26.2891 60.4972 27.2841 60.1973 28.1545 59.6992C29.032 59.1976 29.7848 58.4926 30.3253 57.6122C31.5836 55.562 31.6784 52.584 29.4725 49.0447C29.2987 48.7659 28.932 48.6817 28.6529 48.8536C28.3739 49.0272 28.2897 49.3938 28.4616 49.6726C30.3885 52.7646 30.3517 55.2954 29.3093 56.9931C28.8793 57.6946 28.2721 58.2611 27.5631 58.6662C26.8471 59.0749 26.0241 59.3239 25.173 59.3853C23.0109 59.5431 20.6418 58.5154 19.2116 55.9548C16.9548 51.9123 17.4058 46.2526 19.5836 40.6334C21.9124 34.6213 26.2119 28.6828 31.2976 24.7998C31.4257 24.7034 31.5678 24.6139 31.6415 24.4684C31.738 24.2807 31.731 24.0475 31.6047 23.8598C31.4204 23.5897 31.0484 23.5196 30.7781 23.7037C21.4087 30.1174 13.6573 38.7515 8.31016 48.8325C3.16129 58.5382 0.239384 69.582 0.239384 81.2713V141.91C0.239384 153.11 2.92262 163.719 7.67664 173.126C9.86149 177.449 12.4833 181.518 15.4842 185.273C17.2829 188.383 18.3008 191.319 19.2519 194.062C20.9612 198.992 22.4634 203.325 27.7421 207.065C32.261 210.265 37.7117 210.121 44.1539 209.951C47.8094 209.855 51.7948 209.75 56.1013 210.256C56.3575 210.286 56.612 210.148 56.7172 209.899C56.8454 209.597 56.705 209.248 56.4031 209.12C49.9732 206.366 46.695 202.222 43.6731 198.404C41.6813 195.886 39.7965 193.502 37.1975 191.697C34.3721 189.73 31.0448 189.247 27.6544 188.756C23.6988 188.183 19.645 187.594 16.4037 184.521ZM70.0001 219.252C68.0153 219.252 66.213 218.443 64.9073 217.142C63.607 215.842 62.798 214.045 62.798 212.059C62.798 208.233 64.2773 204.927 66.0866 200.884C67.3572 198.045 68.7892 194.847 69.9983 190.857C71.2074 194.847 72.6394 198.045 73.91 200.884C75.7193 204.927 77.1987 208.233 77.1987 212.059C77.1987 214.045 76.3896 215.842 75.0893 217.142C73.7854 218.445 71.9813 219.252 69.9966 219.252H70.0001ZM70.0001 188.086C69.9509 188.086 69.9 188.093 69.8491 188.106C69.635 188.162 69.4789 188.33 69.4262 188.53C68.1346 193.407 66.4622 197.143 65.0056 200.4L64.6283 201.244C64.5634 199.839 64.2914 198.46 63.8685 197.169C62.7541 193.769 60.5727 190.943 58.3528 189.812C56.8366 189.037 55.2414 188.933 53.8866 189.325C52.9934 189.581 52.2001 190.052 51.5947 190.684C50.9805 191.326 50.5576 192.136 50.4172 193.06C50.2382 194.251 50.5277 195.623 51.4824 197.054C51.6649 197.327 52.0352 197.401 52.3072 197.219C52.581 197.036 52.6547 196.666 52.4721 196.394C51.6982 195.233 51.4561 194.151 51.5947 193.237C51.6965 192.564 52.0053 191.973 52.4564 191.503C52.9161 191.022 53.5251 190.663 54.213 190.468C55.301 190.156 56.5856 190.242 57.8158 190.871C59.7743 191.871 61.7205 194.428 62.74 197.538C63.3034 199.256 63.5754 201.137 63.4069 203.008C63.2683 204.537 62.8348 205.476 62.4154 206.889C61.9153 208.564 61.6117 210.248 61.6117 212.059C61.6117 214.369 62.5558 216.465 64.0755 217.984C65.597 219.503 67.6976 220.444 70.0053 220.444C72.313 220.444 74.4154 219.503 75.9351 217.984C77.4549 216.465 78.399 214.369 78.399 212.059C78.399 210.248 78.0954 208.566 77.5953 206.889C77.1758 205.476 76.7424 204.537 76.6037 203.008C76.4335 201.137 76.7073 199.255 77.2706 197.538C78.2884 194.428 80.2346 191.871 82.1948 190.871C83.4233 190.24 84.7096 190.156 85.7976 190.468C86.4856 190.664 87.0945 191.024 87.5543 191.503C88.0036 191.973 88.3142 192.564 88.416 193.237C88.5528 194.151 88.3124 195.233 87.5385 196.394C87.356 196.668 87.4297 197.038 87.7035 197.219C87.9772 197.401 88.3475 197.327 88.5283 197.054C89.4829 195.623 89.7725 194.251 89.5935 193.06C89.4531 192.136 89.0302 191.326 88.416 190.684C87.8105 190.052 87.0173 189.582 86.1241 189.325C84.7693 188.933 83.1741 189.037 81.6578 189.812C79.4361 190.943 77.2566 193.769 76.1422 197.169C75.7193 198.46 75.449 199.839 75.3823 201.244L75.005 200.4C73.5467 197.143 71.8743 193.407 70.5844 188.53C70.53 188.33 70.3756 188.162 70.1615 188.106C70.1106 188.092 70.0597 188.086 70.0106 188.086H70.0001ZM47.8743 48.003C46.7196 47.91 45.5561 48.0135 44.4768 48.3204C42.9202 48.7624 41.5233 49.6288 40.5494 50.9301C39.6789 52.0929 39.1507 53.5889 39.1507 55.4287C39.1507 62.2318 44.7769 64.417 51.2946 66.9496C58.6353 69.803 67.1729 73.1213 69.4052 84.337V103.296C67.9767 96.9154 65.3338 90.991 61.8784 86.1732C56.6207 78.8405 49.4695 74.049 41.8182 74.049C36.7342 74.049 33.521 75.5994 31.6643 77.7636C30.5693 79.0387 29.9498 80.5259 29.7023 82.0325C29.4549 83.525 29.5725 85.042 29.948 86.396C30.5816 88.6865 31.9714 90.5403 33.6158 91.105C33.9264 91.2102 34.2651 91.0454 34.3721 90.735C34.4774 90.4245 34.3125 90.086 34.0018 89.9791C32.7295 89.5441 31.6257 88.006 31.0922 86.0803C30.7606 84.8824 30.657 83.5425 30.8746 82.2236C31.0905 80.9205 31.624 79.6367 32.5663 78.5371C34.2124 76.6184 37.1308 75.2416 41.8164 75.2416C49.0589 75.2416 55.8679 79.8367 60.9097 86.8678C65.06 92.6571 68.0083 100.092 69.0191 107.984C66.8325 101.311 63.6105 96.1104 59.7129 92.0854C54.7395 86.9502 48.6693 83.7407 42.2481 81.836C41.934 81.7448 41.6023 81.9237 41.5111 82.2377C41.4672 82.3885 41.4847 82.5411 41.5479 82.6709C42.6956 84.9666 43.2449 87.3571 43.8065 89.8019C44.7699 93.9918 45.7702 98.3448 49.7678 102.829L49.8047 102.868C53.1495 106.586 57.4596 108.122 61.3432 109.506C64.7389 110.716 67.7959 111.807 69.4034 114.135V124.593C69.4034 124.921 69.6701 125.189 70.0001 125.189C70.33 125.189 70.5967 124.922 70.5967 124.593V114.135C72.2042 111.807 75.2612 110.716 78.657 109.506C82.5423 108.122 86.8506 106.586 90.1954 102.868L90.2323 102.829C94.2299 98.3448 95.2302 93.9918 96.1937 89.8019C96.7552 87.3571 97.3045 84.9684 98.4522 82.6709C98.5154 82.5411 98.5329 82.3885 98.4891 82.2377C98.3978 81.9237 98.0661 81.7431 97.7503 81.836C91.3291 83.7389 85.2589 86.9502 80.2855 92.0854C76.3861 96.1104 73.1641 101.312 70.9793 107.984C71.9901 100.092 74.9383 92.6589 79.0887 86.8678C84.1305 79.8367 90.9395 75.2416 98.182 75.2416C102.869 75.2416 105.786 76.6184 107.432 78.5371C108.374 79.6367 108.91 80.9205 109.124 82.2236C109.341 83.5425 109.238 84.8824 108.906 86.0803C108.373 88.006 107.269 89.5441 105.997 89.9791C105.686 90.0843 105.521 90.4245 105.626 90.735C105.732 91.0454 106.072 91.2102 106.383 91.105C108.025 90.542 109.417 88.6865 110.05 86.396C110.424 85.042 110.542 83.525 110.296 82.0325C110.047 80.5259 109.427 79.0404 108.334 77.7636C106.477 75.5994 103.264 74.049 98.1802 74.049C90.5271 74.049 83.3776 78.8405 78.12 86.1732C74.6663 90.991 72.0235 96.9154 70.5932 103.296V84.337C72.8254 73.1213 81.363 69.803 88.7038 66.9496C95.2232 64.417 100.848 62.2318 100.848 55.4287C100.848 53.5889 100.318 52.0929 99.449 50.9301C98.475 49.6288 97.0781 48.7624 95.5215 48.3204C94.4405 48.0135 93.277 47.9083 92.1241 48.003C90.8763 43.7622 88.2931 41.1525 85.301 39.9056C83.4935 39.1532 81.5368 38.9024 79.638 39.0918C77.7427 39.2812 75.8983 39.9143 74.3101 40.9263C72.3692 42.1645 70.8091 43.9727 69.9983 46.2386C69.1875 43.9727 67.6274 42.1645 65.6865 40.9263C64.0983 39.9126 62.2539 39.2812 60.3587 39.0918C58.4599 38.9006 56.5031 39.1532 54.6956 39.9056C51.7017 41.1525 49.1185 43.7622 47.8726 48.003H47.8743ZM70.0001 78.8072C71.5514 71.9936 75.8526 67.5616 79.6222 63.6822C82.9424 60.264 85.8327 57.2895 85.8327 53.5503C85.8327 51.323 85.1343 49.7919 84.1568 48.7659C82.7634 47.2997 80.7874 46.8262 79.4642 46.8262C77.2513 46.8262 75.342 47.7662 73.6976 48.5747C72.3428 49.2429 71.1495 49.8287 70.0001 49.8287C68.8506 49.8287 67.6573 49.2429 66.3025 48.5747C64.6582 47.7662 62.7488 46.8262 60.5359 46.8262C59.2127 46.8262 57.2384 47.2997 55.8433 48.7659C54.8676 49.7919 54.1674 51.3247 54.1674 53.5503C54.1674 57.2895 57.0577 60.264 60.378 63.6822C64.1475 67.5616 68.4487 71.9936 70.0001 78.8072ZM69.3402 48.5537C68.9594 45.6371 67.2905 43.3571 65.0513 41.926C63.6228 41.014 61.9574 40.444 60.2446 40.2739C58.5353 40.102 56.7769 40.3282 55.1536 41.0034C52.509 42.1049 50.2153 44.4164 49.0641 48.1696L49.3098 48.2222C50.8594 48.5747 52.33 49.2973 53.4917 50.3741C53.8497 49.3885 54.3709 48.5887 54.9834 47.9451C56.647 46.1965 58.9775 45.6318 60.5359 45.6318C63.0191 45.6318 65.067 46.6402 66.829 47.5066C67.7591 47.9644 68.6032 48.38 69.3402 48.5519V48.5537ZM68.898 111.835C66.8202 103.634 63.2893 97.4802 58.8617 92.9097C54.3692 88.2726 48.9448 85.2525 43.1747 83.3671C44.0118 85.3858 44.4839 87.4395 44.9647 89.5353C45.8948 93.5762 46.86 97.7766 50.6576 102.037L50.6857 102.072C53.8252 105.562 57.9878 107.046 61.7398 108.382C64.4949 109.364 67.0396 110.273 68.898 111.837V111.835ZM70.6599 48.5537C71.0407 45.6371 72.7096 43.3571 74.9489 41.926C76.3774 41.014 78.0428 40.444 79.7555 40.2739C81.4648 40.102 83.2232 40.3282 84.8465 41.0034C87.4911 42.1049 89.7848 44.4164 90.936 48.1696L90.6903 48.2222C89.139 48.5747 87.6701 49.2973 86.5084 50.3741C86.1504 49.3885 85.6292 48.5887 85.0167 47.9451C83.3531 46.1965 81.0226 45.6318 79.4642 45.6318C76.981 45.6318 74.9331 46.6402 73.1712 47.5066C72.2411 47.9644 71.3987 48.38 70.6581 48.5519L70.6599 48.5537ZM123.596 184.523C120.355 187.595 116.301 188.185 112.346 188.758C108.954 189.249 105.628 189.731 102.803 191.699C100.205 193.504 98.3206 195.887 96.327 198.406C93.3069 202.224 90.0269 206.368 83.597 209.122C83.2952 209.25 83.1548 209.599 83.2829 209.9C83.3882 210.148 83.6444 210.288 83.8988 210.258C88.2054 209.75 92.1907 209.857 95.8462 209.953C102.288 210.123 107.739 210.267 112.258 207.066C117.537 203.327 119.039 198.992 120.748 194.063C121.699 191.32 122.717 188.384 124.516 185.275C127.517 181.518 130.139 177.451 132.323 173.128C137.078 163.719 139.761 153.108 139.761 141.908V81.2696C139.761 69.5803 136.839 58.5365 131.69 48.8308C126.343 38.7498 118.591 30.1157 109.222 23.702C108.952 23.5178 108.58 23.588 108.395 23.858C108.269 24.0439 108.262 24.279 108.359 24.4666C108.432 24.6139 108.574 24.7016 108.703 24.7981C113.788 28.6811 118.088 34.6213 120.417 40.6316C122.594 46.2509 123.045 51.9105 120.789 55.9531C119.357 58.5137 116.987 59.5414 114.827 59.3835C113.974 59.3222 113.153 59.0731 112.437 58.6645C111.728 58.2593 111.121 57.6929 110.691 56.9913C109.648 55.2936 109.612 52.7629 111.538 49.6709C111.712 49.392 111.626 49.0255 111.347 48.8518C111.068 48.6782 110.701 48.7641 110.528 49.043C108.322 52.5822 108.417 55.5602 109.675 57.6104C110.215 58.4909 110.968 59.1959 111.846 59.6975C112.716 60.1956 113.711 60.4955 114.743 60.5709C117.323 60.7585 120.139 59.5484 121.827 56.5301C124.27 52.1543 123.823 46.1316 121.526 40.2037C120.259 36.9363 118.426 33.6882 116.207 30.7576C122.019 36.0769 126.92 42.3749 130.639 49.385C135.696 58.9205 138.569 69.7767 138.569 81.2696V93.0465C137.265 88.4181 134.903 83.9213 131.541 79.9472C126.648 74.1648 119.634 69.4838 110.682 67.1056C110.364 67.0232 110.038 67.2126 109.956 67.5301C109.898 67.7511 109.973 67.9773 110.133 68.1211C111.523 69.4505 112.253 71.7182 113.074 74.2735C114.166 77.6689 115.413 81.5484 118.602 84.7035C121.885 87.9551 125.467 87.799 128.763 87.657C131.83 87.5254 134.629 87.4044 136.456 90.4684C137.295 92.6343 137.888 94.8512 138.227 97.0733C134.847 97.3241 131.483 97.5854 128.142 97.859C124.69 98.1414 121.104 98.4535 117.368 98.7973L115.231 98.9814C112.051 99.248 108.75 99.5269 105.689 100.293C92.4592 103.605 86.3697 114.133 79.7292 125.613L78.4236 127.823C77.0583 130.075 76.7476 130.589 76.1141 134.316L76.1089 134.361C75.9843 135.158 75.8491 135.968 75.6877 136.822C75.5262 137.662 75.3437 138.504 75.1244 139.342C75.0278 139.714 74.8752 140.144 74.7207 140.58C74.0047 142.601 73.2185 144.823 75.8158 145.984C77.0723 146.545 78.8149 146.41 80.4803 145.575C80.9787 145.326 81.4701 145.012 81.9439 144.637C81.2595 146.449 80.5891 148.267 79.9451 150.093C77.583 156.774 75.521 163.598 74.024 170.687L74.0012 170.787C73.5713 172.804 73.0062 175.459 74.6102 177.041C75.4648 177.883 76.881 178.412 78.0322 177.916C78.027 178.009 78.0252 178.102 78.027 178.193C78.0322 178.933 78.1989 179.621 78.4832 180.206C78.7201 180.696 79.0308 181.08 79.3888 181.364C79.8521 181.734 80.3926 181.932 80.9506 181.969C81.4946 182.006 82.0562 181.89 82.5827 181.634C83.0986 181.383 83.5847 180.997 83.9901 180.489C84.2884 180.117 84.5692 179.703 84.8237 179.298C85.0834 178.888 85.3045 178.503 85.4958 178.172L87.4385 174.759C87.463 174.866 87.4929 174.971 87.5262 175.073C87.6666 175.508 87.8825 175.899 88.1492 176.222C88.4247 176.555 88.7599 176.823 89.1337 177L89.1758 177.02C89.7567 177.283 90.4271 177.337 91.1185 177.113C92.5979 176.627 93.3244 175.362 93.9965 174.191L94.0702 174.061C95.7567 171.181 97.4782 168.268 99.2489 165.364C99.5508 165.843 100.032 166.178 100.616 166.221C101.181 166.262 101.834 166.025 102.495 165.344C104.449 163.336 106.741 160.357 109.085 157.009C111.431 153.657 113.82 149.958 115.973 146.498C116.835 145.114 117.96 143.048 119.237 140.698C123.31 133.211 128.996 122.76 132.76 122.255C134.714 122.481 136.655 122.718 138.573 122.96V126.134C138.573 126.969 138.573 127.802 138.567 128.635C138.424 145.428 135.474 156.174 131.629 163.077C127.729 170.076 122.914 173.1 119.2 174.475C115.785 175.738 113.29 175.066 111.81 173.609C111.202 173.009 110.758 172.272 110.493 171.485C110.228 170.695 110.138 169.85 110.233 169.036C110.445 167.24 111.579 165.59 113.722 164.999C114.037 164.911 114.223 164.583 114.136 164.269C114.048 163.954 113.72 163.768 113.406 163.855C110.733 164.594 109.317 166.658 109.052 168.903C108.938 169.885 109.045 170.906 109.368 171.863C109.691 172.823 110.233 173.723 110.979 174.457C112.758 176.211 115.687 177.042 119.611 175.592C123.526 174.143 128.593 170.969 132.667 163.656C135.123 159.246 137.223 153.324 138.487 145.349C137.997 155.092 135.447 164.315 131.267 172.588C129.121 176.834 126.546 180.829 123.6 184.519L123.596 184.523ZM112.512 189.933C115.287 189.532 118.105 189.123 120.722 187.893C117.707 191.212 114.374 194.234 110.773 196.913C110.51 197.108 110.456 197.482 110.649 197.743C110.844 198.006 111.216 198.06 111.479 197.866C115.061 195.2 118.381 192.201 121.394 188.914C120.704 190.559 120.153 192.145 119.625 193.672C117.982 198.408 116.54 202.571 111.567 206.095C107.371 209.067 102.101 208.927 95.8725 208.762C93.9983 208.711 92.0381 208.66 89.9936 208.689C90.778 208.452 91.5555 208.203 92.3276 207.941C95.0863 207.003 97.7643 205.898 100.344 204.641C100.639 204.497 100.762 204.141 100.618 203.844C100.474 203.55 100.118 203.427 99.821 203.571C97.2764 204.811 94.6441 205.898 91.9451 206.815C90.7587 207.219 89.5584 207.591 88.3458 207.929C92.3662 205.311 94.888 202.127 97.2536 199.135C99.1858 196.694 101.013 194.383 103.476 192.671C106.074 190.863 109.259 190.4 112.507 189.93L112.512 189.933ZM130.528 122L129.093 121.841C125.734 121.469 122.466 121.127 119.292 120.808C118.965 120.776 118.727 120.485 118.758 120.159C118.79 119.833 119.081 119.594 119.407 119.626C122.666 119.954 125.958 120.296 129.223 120.659C132.266 120.997 135.382 121.362 138.567 121.765V103.854C138.567 102.268 138.599 100.697 138.467 99.1147C138.445 98.8289 138.416 98.5412 138.383 98.2536C135.035 98.5009 131.653 98.7657 128.235 99.0446C124.53 99.348 120.934 99.6584 117.475 99.9776L115.329 100.167C112.191 100.432 108.934 100.705 105.979 101.446C93.2367 104.636 87.2683 114.955 80.7593 126.208L80.3855 126.857L79.4432 128.437C78.1726 130.536 77.8831 131.015 77.2882 134.512L77.2829 134.535C77.1478 135.387 77.0091 136.231 76.8547 137.045C76.6932 137.892 76.5037 138.755 76.2721 139.64C76.1598 140.077 76.0018 140.521 75.8404 140.975C75.2981 142.504 74.7032 144.185 76.2966 144.898C77.2373 145.319 78.5991 145.188 79.9451 144.513C81.1647 143.9 82.3563 142.841 83.2109 141.335C84.6464 137.66 86.1381 134.009 87.6403 130.363L88.1369 129.181C89.0565 127.023 89.7216 125.461 89.5268 122.735C89.504 122.409 89.7514 122.123 90.0778 122.1C90.4043 122.078 90.6903 122.325 90.7131 122.651C90.9272 125.659 90.2147 127.334 89.2302 129.645L88.7389 130.813C86.0644 137.311 83.4162 143.825 81.0629 150.488C78.7149 157.13 76.6652 163.905 75.1823 170.932L75.1612 171.032C74.8278 172.6 74.3943 174.629 75.2384 175.888C75.7982 176.723 77.06 177.29 77.9462 176.588C78.4376 176.201 78.8325 175.536 79.1694 174.866C80.4417 172.274 81.7 169.629 82.9565 166.988C85.1887 162.293 87.4244 157.596 89.9006 152.861C90.757 151.203 91.5344 149.809 92.4821 148.518C93.4367 147.219 94.5563 146.035 96.0901 144.811C96.3463 144.607 96.7219 144.649 96.9255 144.907C97.129 145.165 97.0869 145.539 96.8289 145.742C95.3829 146.894 94.3317 148.004 93.4385 149.22C92.5382 150.446 91.7889 151.794 90.9535 153.406C88.509 158.078 86.268 162.786 84.0287 167.495C82.7845 170.108 81.5403 172.723 80.2311 175.392C80.017 175.817 79.7801 176.245 79.5028 176.63C79.294 177.167 79.201 177.695 79.2027 178.188C79.2063 178.738 79.3308 179.251 79.5432 179.687C79.6994 180.01 79.8959 180.259 80.117 180.434C80.3838 180.648 80.6979 180.764 81.0191 180.785C81.3542 180.808 81.7122 180.731 82.0527 180.566C82.4142 180.391 82.7582 180.115 83.0495 179.75C83.3215 179.41 83.5777 179.035 83.8094 178.667C84.0392 178.305 84.2604 177.919 84.4534 177.583C89.2601 169.576 93.5771 160.676 98.5364 152.87C100.098 150.412 101.66 147.955 104.178 145.998C104.438 145.796 104.814 145.844 105.014 146.103C105.216 146.363 105.168 146.738 104.908 146.938C102.553 148.769 101.046 151.138 99.5402 153.508L99.4139 153.704L88.9073 172.16L88.8863 172.207C88.4528 173.123 88.4195 174.008 88.6458 174.706C88.7406 174.998 88.881 175.255 89.0547 175.466C89.2197 175.666 89.418 175.825 89.6356 175.929L89.6584 175.941C89.9761 176.083 90.3499 176.111 90.7394 175.985C91.7801 175.643 92.389 174.584 92.9524 173.605L93.0348 173.465C95.8778 168.603 98.8243 163.657 101.916 158.836C105.017 154.001 108.276 149.272 111.749 144.846C111.951 144.588 112.325 144.542 112.583 144.744C112.841 144.946 112.886 145.319 112.684 145.577C109.243 149.963 106.002 154.665 102.917 159.478C101.983 160.935 101.062 162.402 100.156 163.871C100.051 164.099 100.074 164.389 100.186 164.631C100.281 164.832 100.456 165.022 100.69 165.038C100.932 165.055 101.251 164.913 101.634 164.52C103.541 162.559 105.793 159.631 108.102 156.333C110.41 153.04 112.791 149.348 114.952 145.874C115.819 144.481 116.924 142.448 118.184 140.135C121.741 133.597 126.492 124.864 130.521 122.004L130.528 122ZM130.634 80.7153C132.397 82.8006 133.877 85.0333 135.061 87.3553C133.215 86.2785 131.032 86.3732 128.71 86.4732C125.664 86.6047 122.35 86.7468 119.437 83.8635C116.452 80.91 115.252 77.1779 114.202 73.9122C113.578 71.9708 113.004 70.1854 112.135 68.763C119.999 71.1938 126.211 75.4924 130.632 80.7171L130.634 80.7153ZM71.3408 78.3757C72.9641 72.2426 76.9582 68.1299 80.4733 64.5117C83.9761 60.9059 87.0243 57.7683 87.0243 53.5503C87.0243 52.8856 86.9682 52.2735 86.8646 51.7071C87.9176 50.5197 89.3829 49.7357 90.95 49.3797C92.361 49.0588 93.8526 49.0816 95.1969 49.4639C96.5183 49.8392 97.6941 50.5636 98.5013 51.6422C99.2191 52.6033 99.6561 53.8608 99.6561 55.4287C99.6561 61.4197 94.3844 63.4682 88.2756 65.8429C82.0527 68.2614 75.0033 71.0027 71.339 78.3757H71.3408ZM42.6746 43.6061L42.7447 43.336C42.8272 43.0186 43.1536 42.8292 43.4713 42.9134C43.7889 42.9958 43.9784 43.322 43.8942 43.6394L43.824 43.9095C43.7415 44.227 43.4151 44.4164 43.0975 44.3322C42.7798 44.2498 42.5903 43.9236 42.6746 43.6061ZM45.4613 37.4449C48.0094 33.2235 51.6228 29.7158 55.931 27.285C60.0884 24.9402 64.8898 23.602 70.0018 23.602C70.33 23.602 70.5985 23.8686 70.5985 24.1983C70.5985 24.528 70.3317 24.7946 70.0018 24.7946C65.0916 24.7946 60.4903 26.0749 56.5119 28.3198C52.3897 30.6453 48.9273 34.0109 46.4809 38.0623C46.3107 38.3429 45.9457 38.4341 45.6631 38.264C45.3824 38.0939 45.2911 37.7291 45.4613 37.4467V37.4449ZM80.6102 25.6347L81.5157 26.0188C81.8158 26.1485 81.9544 26.4993 81.8228 26.7992C81.6929 27.0991 81.342 27.2377 81.0419 27.1061L80.1785 26.7413C79.8731 26.6221 79.7222 26.2766 79.8398 25.9714C79.9591 25.6662 80.3048 25.5154 80.6102 25.6329V25.6347ZM87.7017 29.7316C89.8585 31.4311 91.7713 33.4357 93.3665 35.6771C94.9372 37.8834 96.2042 40.323 97.0992 42.9344C97.2045 43.2448 97.0378 43.5833 96.7271 43.6868C96.4165 43.792 96.0778 43.6254 95.9743 43.315C95.1179 40.8158 93.9053 38.4779 92.4013 36.3646C90.8728 34.2179 89.0389 32.2957 86.9699 30.6646C86.7119 30.4612 86.6663 30.0876 86.8699 29.8298C87.0735 29.572 87.4473 29.5264 87.7052 29.7299L87.7017 29.7316ZM48.7588 10.1449C47.2496 10.1449 45.8772 10.7587 44.884 11.7514C43.8907 12.7423 43.2747 14.112 43.2747 15.6238C43.2747 17.1356 43.8907 18.5019 44.884 19.4928C45.8755 20.4854 47.2478 21.101 48.7588 21.101C50.2698 21.101 51.6421 20.4854 52.6354 19.4945L52.6652 19.463C53.6392 18.4738 54.2428 17.1163 54.2428 15.6238C54.2428 14.1313 53.6269 12.744 52.6354 11.7514L52.6038 11.7233C51.614 10.7499 50.254 10.1466 48.7588 10.1466V10.1449ZM45.7246 12.5915C46.5002 11.8163 47.5742 11.3357 48.7588 11.3357C49.9433 11.3357 50.998 11.8075 51.7702 12.5669L51.793 12.5915C52.5687 13.3667 53.0495 14.4382 53.0495 15.6221C53.0495 16.8059 52.5774 17.8564 51.8158 18.6281L51.7912 18.6509C51.0156 19.4261 49.9416 19.9067 48.757 19.9067C47.5725 19.9067 46.4985 19.4261 45.7228 18.6509C44.9471 17.8775 44.4645 16.8059 44.4645 15.6221C44.4645 14.4382 44.9471 13.3667 45.7211 12.5915H45.7246ZM91.2185 11.3357C92.4031 11.3357 93.4788 11.8163 94.2545 12.5915C95.0284 13.3649 95.5092 14.4382 95.5092 15.6221C95.5092 16.8059 95.0284 17.8775 94.2545 18.6509C93.4788 19.4261 92.4031 19.9067 91.2185 19.9067C90.034 19.9067 88.9582 19.4261 88.1826 18.6509C87.4086 17.8775 86.9278 16.8059 86.9278 15.6221C86.9278 14.4382 87.4086 13.3649 88.1826 12.5915C88.9582 11.8163 90.034 11.3357 91.2185 11.3357ZM95.0933 11.7496C94.1001 10.7587 92.7295 10.1431 91.2185 10.1431C89.7076 10.1431 88.337 10.757 87.3437 11.7496C86.3504 12.7423 85.7345 14.112 85.7345 15.6221C85.7345 17.1321 86.3504 18.5001 87.3437 19.4928C88.337 20.4837 89.7093 21.0993 91.2185 21.0993C92.7277 21.0993 94.1001 20.4837 95.0933 19.4928C96.0866 18.5001 96.7026 17.1304 96.7026 15.6221C96.7026 14.1138 96.0866 12.7423 95.0933 11.7496ZM37.6187 19.5629C37.3327 19.7225 37.2309 20.0856 37.3906 20.3714C37.5502 20.6573 37.9135 20.759 38.1996 20.5994L38.9261 20.2136C39.2156 20.061 39.328 19.7015 39.1753 19.4121C39.0226 19.1227 38.6629 19.0105 38.3733 19.163L37.6204 19.5612L37.6187 19.5629ZM101.774 20.5977C102.059 20.759 102.422 20.6591 102.583 20.3749C102.745 20.0908 102.645 19.7278 102.36 19.5664L101.606 19.1648C101.316 19.0122 100.956 19.1227 100.804 19.4138C100.651 19.7032 100.762 20.0628 101.053 20.2153L101.776 20.5977H101.774ZM76.2545 3.04188C74.6523 1.43712 72.4394 0.444458 70.0001 0.444458C67.5608 0.444458 65.332 1.43537 63.7298 3.03661C62.1241 4.64136 61.1308 6.8582 61.1308 9.30128C61.1308 11.7444 62.1241 13.9612 63.7316 15.5659C65.3355 17.1672 67.552 18.1581 70.0018 18.1581C72.4517 18.1581 74.6541 17.1654 76.2563 15.5607C77.8567 13.9577 78.8483 11.7426 78.8483 9.30128C78.8483 6.85996 77.8567 4.64312 76.258 3.04012L76.2545 3.04188Z" fill="#6F1240"/>
</g>
<defs>
<clipPath id="clip0_30_22472">
<rect width="139.521" height="220" fill="white" transform="matrix(-1 0 0 1 139.761 0.444458)"/>
</clipPath>
</defs>
</svg>
