<svg width="40" height="41" viewBox="0 0 40 41" fill="none" xmlns="http://www.w3.org/2000/svg">
<g clip-path="url(#clip0_30_22344)">
<path fill-rule="evenodd" clip-rule="evenodd" d="M17.478 15.8742C17.3893 15.8742 17.3064 15.826 17.2659 15.7411C16.381 13.9153 15.9318 11.9738 15.9318 9.97452C15.9318 6.54077 17.3161 3.18221 19.8263 0.5158C19.915 0.421328 20.0808 0.421328 20.1695 0.5158C22.6817 3.18221 24.064 6.54077 24.064 9.97452C24.064 11.9738 23.6148 13.9134 22.7299 15.7411C22.6739 15.8587 22.5332 15.9089 22.4156 15.851C22.298 15.7951 22.2498 15.6524 22.3057 15.5368C23.1598 13.7746 23.5917 11.9044 23.5917 9.97645C23.5917 6.74321 22.3173 3.57359 19.996 1.02672C17.6747 3.57552 16.4003 6.74321 16.4003 9.97645C16.4003 11.9044 16.8321 13.7746 17.6862 15.5368C17.7421 15.6544 17.6939 15.7951 17.5763 15.851C17.5436 15.8665 17.5089 15.8742 17.4742 15.8742H17.478ZM4.95957 25.5662C4.85932 25.5662 4.76677 25.5025 4.73593 25.4023C4.69544 25.2789 4.76292 25.1459 4.88824 25.1054L11.0597 23.1003C11.1831 23.0598 11.3162 23.1273 11.3566 23.2526C11.3971 23.376 11.3297 23.509 11.2043 23.5495L5.03284 25.5546C5.00777 25.5623 4.98464 25.5662 4.95957 25.5662ZM7.25581 28.1863C7.34257 28.1863 7.4274 28.1863 7.51223 28.1844C7.64334 28.1825 7.74552 28.0745 7.74359 27.9434C7.74166 27.8142 7.63562 27.712 7.50838 27.712C5.51291 27.7506 3.45574 27.3129 1.53161 26.4434C2.57851 24.608 3.98787 23.0424 5.61895 21.9068C5.72499 21.8317 5.75198 21.6851 5.67679 21.5791C5.60352 21.473 5.45507 21.4461 5.34903 21.5212C3.59456 22.7436 2.0888 24.4441 0.995627 26.4376C0.964779 26.4955 0.957067 26.5629 0.978275 26.6246C0.997555 26.6863 1.04383 26.7365 1.10167 26.7654C3.07593 27.6985 5.19864 28.1882 7.25774 28.1882L7.25581 28.1863ZM14.5185 13.1345C14.4453 13.1345 14.3739 13.0998 14.3277 13.0381L10.5141 7.78818C10.437 7.68214 10.4601 7.53561 10.5662 7.45849C10.6722 7.38137 10.8187 7.40451 10.8959 7.51055L14.7113 12.7605C14.7885 12.8665 14.7653 13.013 14.6593 13.0901C14.6169 13.121 14.5687 13.1345 14.5205 13.1345H14.5185ZM9.00257 11.1178C9.02763 11.1178 9.05462 11.114 9.07969 11.1043C9.20308 11.0619 9.26863 10.9269 9.22429 10.8036C8.57263 8.92569 8.35284 6.83189 8.58419 4.73039C10.6529 5.1584 12.5771 6.01443 14.1619 7.21556C14.266 7.29461 14.4144 7.2734 14.4916 7.16929C14.5706 7.06518 14.5494 6.91673 14.4453 6.83961C12.739 5.54785 10.6568 4.6417 8.42224 4.21754C8.35862 4.20597 8.29307 4.21947 8.23908 4.25803C8.18703 4.29659 8.15232 4.35443 8.14268 4.41805C7.85541 6.6738 8.07328 8.93533 8.77506 10.9559C8.80977 11.0542 8.90038 11.114 8.99871 11.114L9.00257 11.1178ZM25.4811 13.1345C25.4329 13.1345 25.3847 13.1191 25.3423 13.0901C25.2362 13.013 25.2131 12.8665 25.2902 12.7605L29.1057 7.51055C29.1828 7.40451 29.3294 7.38137 29.4354 7.45849C29.5414 7.53561 29.5646 7.68214 29.4875 7.78818L25.672 13.0381C25.6257 13.1017 25.5544 13.1345 25.4811 13.1345ZM30.9971 11.1178C31.0954 11.1178 31.186 11.0561 31.2207 10.9597C31.9225 8.93919 32.1404 6.67958 31.8531 4.42191C31.8454 4.35828 31.8107 4.29852 31.7586 4.26188C31.7066 4.22332 31.6391 4.20983 31.5755 4.2214C29.3409 4.64363 27.2587 5.54978 25.5524 6.84346C25.4483 6.92251 25.429 7.06904 25.5062 7.17315C25.5852 7.27726 25.7337 7.29847 25.8358 7.21942C27.4207 6.01828 29.3448 5.16226 31.4135 4.73424C31.6449 6.83382 31.4251 8.92762 30.7734 10.8055C30.731 10.9289 30.7966 11.0619 30.918 11.1062C30.9431 11.1159 30.9701 11.1197 30.9951 11.1197L30.9971 11.1178ZM35.0401 25.5662C35.015 25.5662 34.9919 25.5623 34.9668 25.5546L28.7953 23.5495C28.6719 23.509 28.6044 23.376 28.643 23.2526C28.6835 23.1292 28.8165 23.0598 28.9399 23.1003L35.1114 25.1054C35.2348 25.1459 35.3023 25.2789 35.2637 25.4023C35.2309 25.5025 35.1384 25.5662 35.0401 25.5662ZM32.7438 28.1863C34.8029 28.1863 36.9256 27.6966 38.898 26.7654C38.9558 26.7384 39.0021 26.6863 39.0214 26.6246C39.0406 26.5629 39.0349 26.4955 39.004 26.4376C37.9108 24.4422 36.4051 22.7417 34.6506 21.5193C34.5426 21.4461 34.3961 21.4711 34.3229 21.5791C34.2477 21.6851 34.2747 21.8336 34.3807 21.9068C36.0118 23.0424 37.4211 24.608 38.468 26.4434C36.542 27.3129 34.481 27.7487 32.4951 27.712C32.3621 27.712 32.258 27.8142 32.2541 27.9434C32.2522 28.0745 32.3544 28.1805 32.4855 28.1844C32.5703 28.1844 32.6571 28.1863 32.7438 28.1863ZM19.9979 36.494C19.8687 36.494 19.7627 36.388 19.7627 36.2588V29.7692C19.7627 29.6381 19.8687 29.534 19.9979 29.534C20.1271 29.534 20.2331 29.64 20.2331 29.7692V36.2588C20.2331 36.3899 20.1271 36.494 19.9979 36.494ZM19.9979 40.4464C20.0634 40.4464 20.1251 40.4194 20.1695 40.3731C21.7292 38.717 22.8802 36.7601 23.5011 34.7126C23.5396 34.5872 23.4683 34.4561 23.343 34.4195C23.2157 34.3809 23.0865 34.4523 23.048 34.5776C22.4715 36.4805 21.4188 38.3044 19.996 39.8661C18.5731 38.3044 17.5224 36.4805 16.944 34.5776C16.9073 34.4523 16.7762 34.3809 16.649 34.4195C16.5237 34.4581 16.4542 34.5892 16.4909 34.7145C17.1117 36.762 18.2627 38.7189 19.8224 40.3751C19.8668 40.4233 19.9285 40.4483 19.994 40.4483L19.9979 40.4464ZM19.9979 23.482C18.3225 23.482 16.9613 22.1189 16.9613 20.4454C16.9613 18.7719 18.3244 17.4088 19.9979 17.4088C21.6714 17.4088 23.0345 18.7719 23.0345 20.4454C23.0345 22.1189 21.6714 23.482 19.9979 23.482ZM19.9979 17.8793C18.5827 17.8793 17.4317 19.0303 17.4317 20.4454C17.4317 21.8606 18.5827 23.0116 19.9979 23.0116C21.413 23.0116 22.564 21.8606 22.564 20.4454C22.564 19.0303 21.413 17.8793 19.9979 17.8793ZM14.5031 18.8953C14.4781 18.8953 14.4549 18.8915 14.4299 18.8838L4.88438 15.7816C4.76099 15.7411 4.69351 15.6081 4.73207 15.4847C4.77256 15.3613 4.90559 15.2938 5.02898 15.3324L14.5745 18.4345C14.6978 18.475 14.7653 18.6081 14.7268 18.7314C14.694 18.8317 14.6015 18.8953 14.5031 18.8953ZM19.9979 14.9025C20.1271 14.9025 20.2331 14.7964 20.2331 14.6672V4.6282C20.2331 4.4971 20.1271 4.39299 19.9979 4.39299C19.8687 4.39299 19.7627 4.49903 19.7627 4.6282V14.6634C19.7627 14.7945 19.8687 14.8986 19.9979 14.8986V14.9025ZM25.4946 18.8953C25.3963 18.8953 25.3018 18.8317 25.2709 18.7314C25.2305 18.6081 25.2979 18.475 25.4233 18.4345L34.9687 15.3343C35.0921 15.2938 35.2252 15.3613 35.2656 15.4866C35.3061 15.61 35.2387 15.7431 35.1133 15.7835L25.5679 18.8857C25.5428 18.8934 25.5197 18.8973 25.4946 18.8973V18.8953ZM29.2947 33.4748C29.3429 33.4748 29.3911 33.4594 29.4335 33.4304C29.5395 33.3533 29.5626 33.2068 29.4855 33.1008L23.5859 24.982C23.5088 24.8759 23.3622 24.8528 23.2562 24.9299C23.1502 25.0071 23.127 25.1536 23.2041 25.2596L29.1038 33.3784C29.1501 33.442 29.2214 33.4748 29.2947 33.4748ZM10.7031 33.4748C10.7763 33.4748 10.8477 33.4401 10.8939 33.3784L16.7936 25.2596C16.8707 25.1536 16.8476 25.0071 16.7415 24.9299C16.6355 24.8528 16.489 24.8759 16.4118 24.982L10.5122 33.1008C10.4351 33.2068 10.4582 33.3533 10.5642 33.4304C10.6067 33.4613 10.6549 33.4748 10.7031 33.4748ZM27.1662 21.7198C28.5427 21.7198 29.8962 21.5058 31.2111 21.0778C34.4771 20.0174 37.2438 17.6633 39.004 14.4494C39.0349 14.3915 39.0406 14.326 39.0214 14.2624C39.0021 14.2007 38.9558 14.1505 38.898 14.1216C35.5857 12.5561 31.963 12.2785 28.6989 13.3408C26.796 13.9597 25.0897 14.9854 23.6244 16.3928C23.53 16.4834 23.528 16.6319 23.6187 16.7263C23.7093 16.8208 23.8577 16.8227 23.9522 16.7321C25.3635 15.3748 27.01 14.3858 28.8454 13.79C31.9206 12.7913 35.3273 13.0246 38.468 14.4436C36.7618 17.4378 34.1416 19.6299 31.0665 20.6286C29.233 21.2243 27.3204 21.3901 25.3828 21.1241C25.2517 21.1048 25.1341 21.1973 25.1167 21.3265C25.0994 21.4557 25.19 21.5752 25.3191 21.5926C25.938 21.6774 26.555 21.7198 27.1681 21.7198H27.1662ZM31.6179 36.6714C31.668 36.6714 31.7162 36.656 31.7567 36.627C31.8088 36.5885 31.8435 36.5306 31.8512 36.467C32.3158 32.8328 31.4598 29.3026 29.4431 26.5244C28.267 24.9068 26.7632 23.6015 24.976 22.6433C24.8603 22.5816 24.7176 22.626 24.6559 22.7397C24.5942 22.8554 24.6386 22.9981 24.7523 23.0598C26.4779 23.9833 27.9277 25.2423 29.0614 26.802C30.9624 29.4183 31.7933 32.7306 31.4135 36.1566C28.0395 35.4587 25.1456 33.6444 23.2446 31.0301C22.111 29.4703 21.3629 27.7024 21.0178 25.7763C20.9947 25.6471 20.8713 25.5642 20.744 25.5854C20.6148 25.6086 20.53 25.7301 20.5532 25.8592C20.9118 27.8566 21.6887 29.6882 22.8629 31.3058C24.8815 34.084 27.9759 35.987 31.5735 36.6675C31.587 36.6695 31.6025 36.6714 31.6179 36.6714ZM8.38176 36.6714C8.39718 36.6714 8.41068 36.6714 8.4261 36.6675C12.0257 35.987 15.1201 34.0821 17.1368 31.3039C18.3109 29.6863 19.0898 27.8547 19.4465 25.8573C19.4696 25.73 19.3848 25.6067 19.2556 25.5835C19.1264 25.5623 19.005 25.6452 18.9818 25.7744C18.6367 27.7005 17.8867 29.4684 16.7531 31.0282C14.8521 33.6444 11.9582 35.4587 8.58419 36.1547C8.20438 32.7287 9.03534 29.4164 10.9363 26.8001C12.07 25.2403 13.5179 23.9814 15.2454 23.0579C15.3592 22.9962 15.4035 22.8535 15.3418 22.7397C15.2801 22.6241 15.1374 22.5816 15.0218 22.6433C13.2326 23.6015 11.7287 24.9068 10.5546 26.5244C8.53792 29.3026 7.68189 32.8328 8.14654 36.467C8.15425 36.5306 8.18896 36.5904 8.24101 36.627C8.2815 36.656 8.3297 36.6714 8.37983 36.6714H8.38176ZM12.8335 21.7198C13.4466 21.7198 14.0616 21.6774 14.6824 21.5926C14.8116 21.5752 14.9022 21.4557 14.8849 21.3265C14.8675 21.1973 14.748 21.1048 14.6188 21.1241C12.6812 21.3901 10.7686 21.2243 8.93509 20.6286C5.85994 19.6299 3.23981 17.4378 1.53354 14.4436C4.67423 13.0246 8.08099 12.7913 11.1561 13.79C12.9897 14.3858 14.6362 15.3767 16.0494 16.7321C16.1438 16.8227 16.2923 16.8189 16.3829 16.7263C16.4735 16.6319 16.4697 16.4834 16.3752 16.3928C14.9099 14.9854 13.2037 13.9597 11.3027 13.3408C8.03664 12.2804 4.41588 12.558 1.10359 14.1236C1.04575 14.1505 0.999483 14.2026 0.980203 14.2643C0.960923 14.326 0.966707 14.3935 0.997555 14.4513C2.75781 17.6633 5.52447 20.0174 8.79049 21.0778C10.1073 21.5058 11.4608 21.7198 12.8373 21.7198H12.8335Z" fill="#6F1240"/>
</g>
<defs>
<clipPath id="clip0_30_22344">
<rect width="38.0701" height="40" fill="white" transform="translate(0.964844 0.444458)"/>
</clipPath>
</defs>
</svg>
