<svg width="70" height="45" viewBox="0 0 70 45" fill="none" xmlns="http://www.w3.org/2000/svg">
<path fill-rule="evenodd" clip-rule="evenodd" d="M1.3643 1.68086C2.55347 3.11012 3.08141 4.92869 3.59628 6.69501C4.69136 10.4706 5.72894 14.0399 12.5477 14.7715C12.9293 11.7353 12.2132 8.93687 10.4673 6.66104C8.47842 4.06905 5.27158 2.32364 1.3643 1.68086ZM56.6359 13.1959C56.6359 10.6091 57.4252 8.22877 58.9672 6.22207C61.2489 3.2486 65.0255 1.33074 69.5992 0.821223C69.756 0.802933 69.9076 0.891773 69.9703 1.03548C70.0331 1.1818 69.9938 1.34902 69.8762 1.45354C68.2898 2.82008 67.7148 4.80066 67.1059 6.89882C66.0291 10.6065 64.8085 14.8081 57.2527 15.5214C55.7186 17.0682 54.1269 18.4452 52.4856 19.6471C56.0165 18.7483 58.5804 19.8117 60.8908 20.7681C63.0392 21.6591 65.0699 22.5004 67.6103 21.6512C67.754 21.6042 67.9108 21.6512 68.0049 21.7662C68.099 21.8838 68.1121 22.0484 68.0337 22.1764C64.8216 27.5538 59.7722 28.8968 54.5268 25.7744C54.174 25.5653 53.8237 25.3485 53.4761 25.1316C51.8531 24.1282 50.2954 23.1641 48.6437 22.9498C47.512 22.8035 46.9213 22.9812 45.9255 23.4045C44.7129 23.9192 43.4792 24.3503 42.2352 24.69C43.9053 25.1342 45.2068 26.1898 46.4796 27.2193C47.8465 28.3246 49.135 29.3697 50.8181 29.6415C50.9593 29.665 51.0743 29.7695 51.1109 29.908C51.1474 30.0465 51.0952 30.1954 50.9828 30.2816C47.086 33.3047 43.0376 33.2786 39.8751 30.2058C39.2662 29.6153 38.7252 28.9673 38.2025 28.3402C37.272 27.2245 36.386 26.1637 35.3641 25.777L35.3641 31.2823C35.8241 31.3398 36.2763 31.5097 36.6683 31.7892C36.9767 32.0087 37.2433 32.2909 37.4445 32.6123C37.7294 33.0643 37.881 33.5895 37.881 34.1382C37.881 34.41 37.8444 34.6765 37.7712 34.9326C38.7435 34.6556 39.8359 34.8986 40.5991 35.6642C41.1427 36.2077 41.4433 36.9314 41.4433 37.6996C41.4433 38.4678 41.1427 39.1916 40.5991 39.7351C40.0555 40.2785 39.3315 40.579 38.5631 40.579C38.2913 40.579 38.0247 40.5424 37.7686 40.4693C38.0457 41.4413 37.8026 42.5335 37.0368 43.2964C36.4749 43.8582 35.7379 44.1378 35.0008 44.1378C34.2638 44.1378 33.5268 43.8582 32.9649 43.2964C32.2017 42.5335 31.956 41.4413 32.2331 40.4693C31.977 40.5424 31.7104 40.579 31.4386 40.579C30.6702 40.579 29.9462 40.2785 29.4026 39.7351C28.859 39.1916 28.5584 38.4678 28.5584 37.6996C28.5584 36.9314 28.859 36.2077 29.4026 35.6642C30.1684 34.8986 31.2582 34.6556 32.2305 34.9326C32.1573 34.6765 32.1207 34.41 32.1207 34.1382C32.1207 33.5895 32.2723 33.067 32.5572 32.6123C32.7584 32.2909 33.025 32.0087 33.3334 31.7892C33.728 31.5097 34.1776 31.3398 34.6376 31.2823L34.6376 25.777C33.6131 26.1637 32.7297 27.2245 31.7992 28.3402C31.2765 28.9673 30.7355 29.6153 30.1266 30.2058C26.9641 33.276 22.9157 33.3047 19.0189 30.2816C18.9065 30.1928 18.8543 30.0465 18.8908 29.908C18.9274 29.7695 19.0398 29.665 19.1836 29.6414C20.8667 29.3671 22.1578 28.3246 23.5221 27.2193C24.7949 26.1898 26.0991 25.1342 27.7665 24.69C26.5198 24.3503 25.2889 23.9192 24.0762 23.4045C23.083 22.9812 22.4897 22.8061 21.3581 22.9498C19.7063 23.1615 18.1486 24.1256 16.5256 25.1316C16.1754 25.3485 15.8278 25.5627 15.4749 25.7744C10.2295 28.8968 5.18011 27.5511 1.96803 22.1764C1.88962 22.0484 1.90269 21.8838 1.99678 21.7662C2.09087 21.6486 2.2503 21.6016 2.39143 21.6512C4.93442 22.5004 6.96255 21.6591 9.1109 20.7681C11.4187 19.8117 13.9852 18.7483 17.5161 19.6471C15.8748 18.4452 14.2831 17.0682 12.749 15.5214C5.19317 14.8107 3.97263 10.6091 2.89584 6.89882C2.28689 4.80066 1.7119 2.82008 0.125465 1.45354C0.00524137 1.35163 -0.0339585 1.1818 0.0313797 1.03548C0.0941086 0.89177 0.245689 0.80293 0.402504 0.82122C4.97624 1.33073 8.75023 3.2486 11.0345 6.22207C12.5739 8.22877 13.3658 10.6091 13.3658 13.1959C13.3658 13.7838 13.324 14.3821 13.2429 14.991L13.2639 15.0119C15.3861 17.157 17.6285 18.9704 19.9598 20.4336C17.8559 17.8808 17.8768 14.9491 17.8951 12.2971C17.9108 10.1989 17.9238 8.2131 16.9464 6.58265C16.868 6.45201 16.881 6.28478 16.9777 6.1672C17.0744 6.04962 17.2365 6.00521 17.3802 6.05746C20.4302 7.17317 22.7824 9.57703 23.8383 12.6498C24.2408 13.8204 24.4368 15.0328 24.4368 16.2425C24.4368 18.2466 23.8932 20.2455 22.8321 22.0379C26.1356 23.6658 29.5882 24.6221 33.1112 24.8755C31.5849 23.8199 31.1485 22.0823 30.6885 20.2716C30.3017 18.7431 29.9044 17.1649 28.8668 15.6834C28.7989 15.5841 28.7832 15.4613 28.825 15.3489C28.8668 15.2366 28.9609 15.1529 29.0785 15.1268C30.3931 14.8107 31.9508 15.1111 33.1426 15.9107C33.6287 16.2373 34.1906 16.7364 34.6376 17.4784L34.6376 13.2795C34.0051 13.2011 33.4196 12.9163 32.9623 12.4591C31.8384 11.3355 31.8411 9.51171 32.9623 8.38816C33.5242 7.82639 34.2612 7.54681 34.9982 7.54681C35.7353 7.54681 36.4723 7.82639 37.0342 8.38816C38.1554 9.51171 38.158 11.3355 37.0342 12.4591C36.5768 12.9163 35.9914 13.2011 35.3589 13.2795L35.3589 17.4784C35.8058 16.7364 36.3677 16.2347 36.8539 15.9107C38.0483 15.1111 39.606 14.8107 40.918 15.1268C41.033 15.1556 41.1297 15.2392 41.1715 15.3489C41.2133 15.4613 41.1976 15.5867 41.1297 15.6834C40.0947 17.1649 39.6948 18.7457 39.308 20.2716C38.8506 22.085 38.4116 23.8199 36.8852 24.8755C40.4083 24.6221 43.8608 23.6658 47.1644 22.0379C46.1033 20.2429 45.5596 18.244 45.5596 16.2425C45.5596 15.0328 45.7583 13.8204 46.1582 12.6498C47.2114 9.57442 49.5662 7.17317 52.6163 6.05747C52.76 6.00521 52.9221 6.04962 53.0188 6.1672C53.1155 6.28478 53.1285 6.45201 53.0501 6.58265C52.0726 8.21571 52.0883 10.1989 52.1014 12.2971C52.1171 14.9491 52.138 17.8808 50.0367 20.4336C52.368 18.9704 54.6078 17.157 56.7326 15.0119L56.7535 14.991C56.6725 14.3848 56.6307 13.7864 56.6307 13.1959L56.6359 13.1959ZM35.0035 43.4166C35.5549 43.4166 36.109 43.2076 36.5298 42.7869C36.9349 42.3819 37.1597 41.8358 37.1597 41.261C37.1597 40.6862 36.9506 40.1557 36.5298 39.7351C36.109 39.3144 35.5575 39.1054 35.0035 39.1054C34.4494 39.1054 33.8979 39.3144 33.4771 39.7351C33.0564 40.1557 32.8473 40.7071 32.8473 41.261C32.8473 41.8149 33.072 42.3793 33.4771 42.7869C33.8979 43.2076 34.4494 43.4166 35.0035 43.4166ZM35.0035 38.3842C35.2701 38.3842 35.5392 38.4208 35.798 38.4939C35.7248 38.2353 35.6856 37.9661 35.6856 37.6996C35.6856 37.4331 35.7222 37.164 35.7954 36.9053C35.5366 36.9785 35.2674 37.015 35.0008 37.015C34.7343 37.015 34.4651 36.9785 34.2063 36.9053C34.2795 37.164 34.3161 37.4331 34.3161 37.6996C34.3161 37.9661 34.2795 38.2353 34.2037 38.4939C34.4625 38.4208 34.7317 38.3842 34.9982 38.3842L35.0035 38.3842ZM35.0035 36.2965C35.5549 36.2965 36.109 36.0875 36.5298 35.6668C36.9375 35.2592 37.1623 34.7183 37.1623 34.1409C37.1623 33.7463 37.0577 33.3701 36.8617 33.0408C36.7049 32.7795 36.4932 32.5496 36.2423 32.3745C35.8738 32.1159 35.4399 31.9852 35.0061 31.9852C34.5722 31.9852 34.1384 32.1159 33.7699 32.3745C33.5216 32.5496 33.3073 32.7795 33.1504 33.0408C32.9544 33.3701 32.8499 33.7489 32.8499 34.1409C32.8499 34.7157 33.0747 35.2592 33.4824 35.6668C33.9032 36.0875 34.4546 36.2965 35.0087 36.2965L35.0035 36.2965ZM35.0035 24.9356C37.5595 24.272 38.0274 22.4272 38.6154 20.0965C38.9604 18.73 39.3472 17.1988 40.2358 15.7435C39.2401 15.652 38.1241 15.9316 37.2616 16.509C36.2292 17.2015 35.5706 18.2806 35.3615 19.6288C35.3354 19.8039 35.1838 19.9345 35.0061 19.9345C34.8284 19.9345 34.6768 19.8039 34.6506 19.6288C34.4416 18.2806 33.7829 17.2015 32.7506 16.509C31.8881 15.9316 30.7721 15.652 29.7763 15.7435C30.6623 17.1962 31.0491 18.73 31.3968 20.0965C31.9848 22.4272 32.4526 24.272 35.0087 24.9356L35.0035 24.9356ZM35.0035 12.5819C35.5785 12.5819 36.1221 12.3572 36.5298 11.9495C36.9349 11.5445 37.1597 10.9984 37.1597 10.4236C37.1597 9.84877 36.9506 9.31836 36.5298 8.89768C36.109 8.477 35.5575 8.26797 35.0035 8.26797C34.4494 8.26797 33.8979 8.477 33.4771 8.89768C33.0564 9.31836 32.8473 9.86968 32.8473 10.4236C32.8473 10.9775 33.072 11.5419 33.4771 11.9495C33.8849 12.3572 34.4259 12.5819 35.0035 12.5819ZM18.0075 7.10523C18.6582 8.73306 18.6295 10.5804 18.6164 12.3049C18.5929 15.5606 18.5694 18.9207 22.2597 21.5911C23.8122 18.9129 24.1389 15.7644 23.1536 12.8876C22.2728 10.3217 20.4224 8.25752 18.0049 7.10523L18.0075 7.10523ZM20.2996 21.4866C19.7246 21.2123 19.1522 20.9457 18.5537 20.7236C14.6151 19.2683 11.9649 20.3683 9.39316 21.4343C7.37288 22.2731 5.45191 23.0674 3.08664 22.584C6.10269 26.9894 10.4412 27.9352 15.109 25.1551C15.4566 24.9487 15.8042 24.7344 16.1492 24.5202C17.8742 23.4541 19.6409 22.3593 21.575 22.2078C21.1464 21.9778 20.7203 21.7374 20.2969 21.4866L20.2996 21.4866ZM30.6362 25.3171C30.022 25.2178 29.5594 25.163 28.9243 25.2204C26.9276 25.4007 25.4875 26.5635 23.9795 27.7863C22.8007 28.74 21.588 29.7225 20.0931 30.1771C22.3225 31.7004 26.0494 33.1715 29.6274 29.6989C30.2076 29.1345 30.7381 28.4996 31.2478 27.8882C31.9665 27.0259 32.6617 26.195 33.4432 25.628C32.5023 25.5732 31.564 25.4713 30.6336 25.3197L30.6362 25.3171ZM29.285 37.7048C29.285 38.2797 29.5098 38.8232 29.9175 39.2308C30.3252 39.6384 30.8662 39.8631 31.4438 39.8631C32.0214 39.8631 32.5624 39.6384 32.9701 39.2308C33.8117 38.3894 33.8117 37.0203 32.9701 36.1815C32.1285 35.3402 30.7617 35.3402 29.9201 36.1815C29.5124 36.5891 29.2876 37.13 29.2876 37.7075L29.285 37.7048ZM40.7219 37.7048C40.7219 37.13 40.4972 36.5865 40.0895 36.1789C39.2479 35.3376 37.8784 35.3376 37.0394 36.1789C36.1979 37.0203 36.1979 38.3868 37.0394 39.2282C37.4471 39.6358 37.9882 39.8605 38.5658 39.8605C39.1434 39.8605 39.6844 39.6358 40.0921 39.2282C40.4998 38.8205 40.7246 38.2797 40.7246 37.7022L40.7219 37.7048ZM39.3707 25.3171C38.4403 25.4687 37.5046 25.5706 36.5611 25.6254C37.3426 26.1898 38.0378 27.0233 38.7565 27.8856C39.2688 28.4996 39.7967 29.1319 40.377 29.6963C43.9549 33.1689 47.6819 31.6978 49.9112 30.1745C48.4137 29.7198 47.201 28.7374 46.0249 27.7837C44.5168 26.5635 43.0794 25.3981 41.08 25.2178C40.4423 25.1603 39.9823 25.2178 39.3681 25.3145L39.3707 25.3171ZM49.7074 21.4866C49.284 21.7374 48.858 21.9778 48.4293 22.2078C50.3634 22.3593 52.1301 23.4541 53.8551 24.5202C54.2001 24.7344 54.5477 24.9487 54.8953 25.1551C59.5631 27.9326 63.9016 26.9894 66.9177 22.584C64.555 23.07 62.6341 22.2731 60.6112 21.4343C58.0394 20.3683 55.3893 19.2683 51.4506 20.7236C50.8521 20.9457 50.2797 21.2123 49.7048 21.4866L49.7074 21.4866ZM51.9995 7.10523C49.5819 8.25752 47.7315 10.3217 46.8507 12.8876C45.8654 15.7644 46.1921 18.9129 47.7446 21.5911C51.4349 18.9207 51.4114 15.5606 51.3879 12.3049C51.3774 10.5804 51.3461 8.73306 51.9969 7.10523L51.9995 7.10523ZM68.6426 1.68348C64.7354 2.32625 61.5285 4.07427 59.5396 6.66365C57.7937 8.93948 57.0776 11.7379 57.4592 14.7741C64.278 14.0425 65.3156 10.4733 66.4107 6.69762C66.9229 4.92869 67.4509 3.11273 68.6426 1.68348Z" fill="#6F1240"/>
</svg>
