<svg width="58" height="120" viewBox="0 0 58 120" fill="none" xmlns="http://www.w3.org/2000/svg">
<path fill-rule="evenodd" clip-rule="evenodd" d="M17.7889 119.999C17.5581 119.999 17.3273 119.893 17.1734 119.696C16.909 119.354 16.9715 118.864 17.3129 118.599C22.6407 114.479 27.3337 109.031 31.1612 102.736C30.9449 101.515 30.3198 99.8368 29.536 97.7499C27.3049 91.7826 23.9341 82.7619 25.1747 71.1543C25.2132 70.7744 25.5209 70.4811 25.9008 70.4571C26.2758 70.4138 26.6221 70.6879 26.7086 71.0581C27.151 72.943 28.0309 75.0203 29.0455 77.4293C31.4305 83.0937 34.3204 89.9458 33.4741 98.6202C36.8016 92.2154 39.2683 85.1229 40.658 77.7707C39.0327 73.8038 35.2244 69.9185 30.8246 65.437C24.8045 59.3014 17.9861 52.3484 14.6682 42.9575C14.5528 42.6257 14.6682 42.2602 14.9567 42.0583C15.2404 41.8611 15.6299 41.8708 15.8992 42.0919C17.0821 43.0584 18.5583 44.1259 20.1306 45.2559C27.5501 50.6029 38.3547 58.3926 41.485 72.3756C43.1487 57.8685 40.5233 42.794 32.022 30.3641C30.916 31.345 29.5552 31.9028 28.0117 32.023C25.8768 34.3167 23.3331 35.1918 20.6692 35.1918C15.1539 35.1918 9.0904 31.4604 4.90704 28.8831C3.07983 27.7579 1.34877 26.6952 0.709248 26.6327C0.449591 26.6087 0.218785 26.4548 0.093765 26.224C-0.031255 25.9932 -0.031255 25.7143 0.093765 25.4883C1.8777 22.1609 7.43148 20.1894 11.6581 20.4202C9.64818 16.9148 8.26335 12.8084 7.96522 8.38462C7.9508 8.15862 8.03253 7.93743 8.19602 7.77875C8.3547 7.62007 8.5807 7.54314 8.80189 7.55276C13.5815 7.90377 18.1976 9.37516 22.1598 11.4332C21.4241 6.61991 23.5735 1.57584 27.2568 0.0563629C27.4972 -0.0446149 27.7713 -0.0157641 27.9877 0.12849C28.204 0.272744 28.3339 0.517975 28.3339 0.777632C28.3339 2.41732 29.8341 5.11967 31.4257 7.9759C34.5079 13.5249 38.3307 20.401 34.2964 25.0219C34.3829 26.5318 33.979 27.931 33.1039 29.1668C37.5373 35.5524 40.4416 42.6353 42.0236 49.9874C42.8699 37.923 45.4953 31.3306 47.6735 25.849C48.5823 23.5601 49.443 21.4011 50.0922 19.0835C50.1979 18.7036 50.5682 18.468 50.9577 18.5209C51.3472 18.5786 51.6309 18.92 51.6213 19.3143C51.5972 20.3048 51.578 21.353 51.5588 22.4349C51.3135 35.3072 50.9817 52.8725 43.2882 58.8062C43.9902 67.9903 42.8362 77.338 40.2108 86.075C46.0915 79.0979 50.6067 77.7755 54.6554 76.5975C55.1362 76.458 55.6171 76.3186 56.0835 76.1695C56.4153 76.0637 56.7807 76.1936 56.9683 76.4869C57.1606 76.7802 57.1318 77.1649 56.9058 77.4245C56.2759 78.1458 55.6123 78.9729 54.9006 79.8528C51.1356 84.5266 46.0194 90.8786 38.7394 90.8786H38.5951C34.1954 102.683 27.0837 113.031 18.2794 119.84C18.1351 119.951 17.9716 120.003 17.8033 120.003L17.7889 119.999ZM25.9489 27.9166H25.9729C26.9779 27.8829 27.9396 27.4358 28.6224 26.676C29.2908 25.9115 29.6225 24.9017 29.536 23.9063C29.5023 23.4784 29.1321 23.1562 28.6897 23.1947C28.2617 23.2332 27.9444 23.6082 27.978 24.041C28.0261 24.6084 27.8242 25.2094 27.4491 25.6422C27.0644 26.0701 26.4922 26.3346 25.92 26.3538C25.4873 26.3683 25.1507 26.7289 25.1651 27.1569C25.1795 27.58 25.5257 27.9118 25.9441 27.9118L25.9489 27.9166ZM54.0591 78.391C50.097 79.5883 45.5963 81.3915 39.6386 89.2774C45.6972 88.7773 50.0874 83.3197 53.6745 78.8719C53.8043 78.7084 53.9341 78.5497 54.064 78.391H54.0591ZM26.4778 75.304C26.3095 84.6565 29.084 92.0807 30.9978 97.2065C31.2959 97.9999 31.57 98.7404 31.8104 99.4232C32.9308 90.667 30.0072 83.7332 27.6078 78.04C27.2039 77.0831 26.8192 76.1743 26.4778 75.3088V75.304ZM49.9479 24.2958C49.6786 24.9979 49.3949 25.7047 49.1112 26.426C46.4762 33.052 43.4998 40.534 43.3026 56.6904C49.1209 50.7328 49.7219 35.4803 49.9527 24.2958H49.9479ZM17.1782 45.0443C20.65 52.8389 26.6124 58.9168 31.9354 64.3407C35.1763 67.6393 38.0999 70.6254 40.1387 73.6162C37.3882 59.6236 26.5788 51.8291 19.2074 46.5205C18.5054 46.0157 17.8226 45.5252 17.1734 45.0443H17.1782ZM25.8094 31.9172C25.2228 31.8211 24.6217 31.672 24.0015 31.4701C20.0104 30.1621 15.8078 26.7818 12.6919 22.1176C9.35005 21.4925 4.13768 22.9158 2.00753 25.4354C2.88267 25.8249 4.04632 26.5318 5.71486 27.5608C11.1628 30.9123 20.0248 36.3699 25.8094 31.922V31.9172ZM23.9534 12.443C28.6464 15.2319 32.1806 18.8046 33.5655 22.1032C33.6761 22.3628 33.7722 22.6273 33.8588 22.8821C35.787 19.069 32.7577 13.6162 30.0457 8.73564C28.6128 6.1583 27.3385 3.86947 26.9106 2.00379C24.2082 3.86467 22.8426 8.45675 23.9534 12.4382V12.443ZM9.59049 9.19725C10.6676 19.396 18.0341 27.8685 24.4871 29.9842C27.4732 30.9604 29.9639 30.4843 31.5219 28.6379C32.8923 27.0126 33.0991 25.0219 32.1278 22.709C29.7139 16.9629 20.1787 10.308 9.59049 9.19725Z" fill="#6F1240"/>
</svg>
