<svg width="58" height="120" viewBox="0 0 58 120" fill="none" xmlns="http://www.w3.org/2000/svg">
<path fill-rule="evenodd" clip-rule="evenodd" d="M40.2111 119.999C40.4419 119.999 40.6728 119.893 40.8266 119.696C41.0911 119.354 41.0286 118.864 40.6872 118.599C35.3594 114.479 30.6663 109.031 26.8388 102.736C27.0552 101.515 27.6803 99.8368 28.4641 97.7499C30.6952 91.7826 34.0659 82.7619 32.8253 71.1543C32.7869 70.7744 32.4791 70.4811 32.0993 70.4571C31.7242 70.4138 31.378 70.6879 31.2914 71.0581C30.8491 72.943 29.9691 75.0203 28.9545 77.4293C26.5695 83.0937 23.6796 89.9458 24.5259 98.6202C21.1985 92.2154 18.7317 85.1229 17.3421 77.7707C18.9674 73.8038 22.7757 69.9185 27.1754 65.437C33.1956 59.3014 40.014 52.3484 43.3318 42.9575C43.4472 42.6257 43.3318 42.2602 43.0433 42.0583C42.7596 41.8611 42.375 41.8708 42.1009 42.0919C40.918 43.0584 39.4418 44.1259 37.8694 45.2559C30.45 50.6029 19.6453 58.3926 16.515 72.3756C14.8513 57.8685 17.4767 42.794 25.9781 30.3641C27.084 31.345 28.4448 31.9028 29.9883 32.023C32.1233 34.3167 34.667 35.1918 37.3309 35.1918C42.8462 35.1918 48.9097 31.4604 53.093 28.8831C54.9202 27.7579 56.6513 26.6952 57.2908 26.6327C57.5505 26.6087 57.7813 26.4548 57.9063 26.224C58.0313 25.9932 58.0313 25.7143 57.9063 25.4883C56.1223 22.1609 50.5686 20.1894 46.3419 20.4202C48.3519 16.9148 49.7367 12.8084 50.0348 8.38462C50.0493 8.15862 49.9675 7.93743 49.804 7.77875C49.6453 7.62007 49.4193 7.54314 49.1982 7.55276C44.4185 7.90377 39.8024 9.37516 35.8402 11.4332C36.5759 6.61991 34.4266 1.57584 30.7433 0.0563629C30.5029 -0.0446149 30.2288 -0.0157641 30.0124 0.12849C29.796 0.272744 29.6662 0.517975 29.6662 0.777632C29.6662 2.41732 28.1659 5.11967 26.5743 7.9759C23.4921 13.5249 19.6694 20.401 23.7037 25.0219C23.6171 26.5318 24.021 27.931 24.8962 29.1668C20.4628 35.5524 17.5585 42.6353 15.9765 49.9874C15.1302 37.923 12.5048 31.3306 10.3265 25.849C9.41774 23.5601 8.55703 21.4011 7.90789 19.0835C7.8021 18.7036 7.43185 18.468 7.04236 18.5209C6.65288 18.5786 6.36918 18.92 6.3788 19.3143C6.40284 20.3048 6.42207 21.353 6.44131 22.4349C6.68654 35.3072 7.01832 52.8725 14.7119 58.8062C14.0098 67.9903 15.1639 77.338 17.7893 86.075C11.9085 79.0979 7.39338 77.7755 3.34466 76.5975C2.86381 76.458 2.38296 76.3186 1.91654 76.1695C1.58476 76.0637 1.21931 76.1936 1.03178 76.4869C0.839446 76.7802 0.868297 77.1649 1.09429 77.4245C1.7242 78.1458 2.38777 78.9729 3.09942 79.8528C6.86445 84.5266 11.9807 90.8786 19.2607 90.8786H19.4049C23.8047 102.683 30.9164 113.031 39.7207 119.84C39.8649 119.951 40.0332 120.003 40.1967 120.003L40.2111 119.999ZM32.0512 27.9166H32.0271C31.0222 27.8829 30.0605 27.4358 29.3777 26.676C28.7093 25.9115 28.3775 24.9017 28.4641 23.9063C28.4977 23.4784 28.868 23.1562 29.3104 23.1947C29.7383 23.2332 30.0557 23.6082 30.022 24.041C29.9739 24.6084 30.1759 25.2094 30.5509 25.6422C30.9356 26.0701 31.5078 26.3346 32.08 26.3538C32.5128 26.3683 32.8494 26.7289 32.835 27.1569C32.8205 27.58 32.4743 27.9118 32.056 27.9118L32.0512 27.9166ZM3.9409 78.391C7.90308 79.5883 12.4038 81.3915 18.3615 89.2774C12.3028 88.7773 7.9127 83.3197 4.32558 78.8719C4.19575 78.7084 4.06593 78.5497 3.9361 78.391H3.9409ZM31.5222 75.304C31.6905 84.6565 28.9161 92.0807 27.0023 97.2065C26.7042 97.9999 26.4301 98.7404 26.1897 99.4232C25.0693 90.667 27.9928 83.7332 30.3923 78.04C30.7962 77.0831 31.1808 76.1743 31.5222 75.3088V75.304ZM8.05214 24.2958C8.32141 24.9979 8.60511 25.7047 8.88881 26.426C11.5239 33.052 14.5003 40.534 14.6974 56.6904C8.8792 50.7328 8.27814 35.4803 8.04733 24.2958H8.05214ZM40.8218 45.0443C37.3501 52.8389 31.3876 58.9168 26.0646 64.3407C22.8237 67.6393 19.9002 70.6254 17.8614 73.6162C20.6118 59.6236 31.4213 51.8291 38.7926 46.5205C39.4947 46.0157 40.1775 45.5252 40.8266 45.0443H40.8218ZM32.1906 31.9172C32.7773 31.8211 33.3783 31.672 33.9986 31.4701C37.9896 30.1621 42.1922 26.7818 45.3081 22.1176C48.65 21.4925 53.8624 22.9158 55.9925 25.4354C55.1174 25.8249 53.9537 26.5318 52.2852 27.5608C46.8372 30.9123 37.9752 36.3699 32.1906 31.922V31.9172ZM34.0467 12.443C29.3536 15.2319 25.8194 18.8046 24.4346 22.1032C24.324 22.3628 24.2278 22.6273 24.1413 22.8821C22.2131 19.069 25.2424 13.6162 27.9544 8.73564C29.3873 6.1583 30.6615 3.86947 31.0895 2.00379C33.7918 3.86467 35.1574 8.45675 34.0467 12.4382V12.443ZM48.4096 9.19725C47.3325 19.396 39.9659 27.8685 33.513 29.9842C30.5269 30.9604 28.0361 30.4843 26.4782 28.6379C25.1078 27.0126 24.901 25.0219 25.8723 22.709C28.2862 16.9629 37.8213 10.308 48.4096 9.19725Z" fill="#6F1240"/>
</svg>
