<svg width="200" height="272" viewBox="0 0 200 272" fill="none" xmlns="http://www.w3.org/2000/svg">
<g clip-path="url(#clip0_30_22509)">
<path fill-rule="evenodd" clip-rule="evenodd" d="M83.5882 237.347C83.1661 234.548 82.9382 231.794 82.7193 229.118C82.1721 222.509 81.6673 216.388 78.3726 211.528C74.9216 206.446 68.6696 202.153 63.5858 198.664C62.116 197.657 60.7445 196.714 59.554 195.832C60.816 198.374 61.944 201.141 63.1234 204.038C65.0309 208.722 67.0814 213.75 70.041 218.658C72.5405 222.792 74.763 225.54 76.981 228.285C79.1053 230.912 81.2272 233.536 83.5905 237.349L83.5882 237.347ZM166.721 142.407C166.982 138.865 167.402 135.778 167.793 132.914C168.673 126.448 169.397 121.125 167.733 114.296C165.966 107.024 161.579 101.256 157.321 95.661C155.421 93.1638 153.547 90.7001 151.929 88.1381C152.756 92.9695 153.004 97.9528 153.245 102.804C153.52 108.326 153.788 113.676 154.896 118.377C156.332 124.486 159.39 129.519 162.215 134.163L162.233 134.196C163.944 137.013 165.573 139.693 166.721 142.405V142.407ZM168.941 133.068C168.454 136.642 167.92 140.567 167.712 145.277C167.717 145.534 167.549 145.771 167.29 145.845C166.982 145.932 166.66 145.753 166.573 145.445C165.566 141.916 163.477 138.476 161.242 134.797L161.221 134.766C158.349 130.044 155.24 124.929 153.763 118.639C152.633 113.843 152.365 108.438 152.086 102.856C151.789 96.8784 151.48 90.6934 150.087 84.9059C150.013 84.6468 150.129 84.3609 150.379 84.2314C150.663 84.084 151.016 84.1979 151.161 84.4816C153.037 88.109 155.617 91.4997 158.246 94.953C162.575 100.642 167.038 106.505 168.863 114.02C170.578 121.06 169.841 126.479 168.945 133.066L168.941 133.068ZM141.328 213.934C150.643 201.289 126.238 178.628 126.169 178.563L124.645 176.98C116.075 168.047 107.191 158.789 97.1689 151.938L97.1376 151.916C95.985 151.125 95.0313 150.672 94.0552 150.602C93.0746 150.533 92.0181 150.848 90.66 151.594L77.5774 159.137C76.8336 159.651 76.3132 160.145 75.9491 160.652C75.5939 161.148 75.3862 161.661 75.2611 162.224C75.0713 163.069 74.8926 166.178 74.8278 169.09C74.7697 171.626 74.7898 173.976 74.9551 174.465V174.471C75.0489 174.748 75.1695 174.983 75.3125 175.186C75.4554 175.389 75.6252 175.566 75.8084 175.722C77.0816 176.797 80.6085 177.983 83.4185 178.928L85.1629 179.522C85.3394 179.578 85.5159 179.598 85.6812 179.582H85.6923C85.8487 179.564 86.0073 179.508 86.1569 179.417C86.3155 179.321 86.4406 179.202 86.5322 179.068C86.6238 178.93 86.6863 178.769 86.7176 178.584C86.7399 178.452 86.7488 178.32 86.7466 178.193V178.179C86.7444 178.045 86.7265 177.905 86.6997 177.764V177.748C86.349 175.952 84.8837 174.907 83.4296 173.871L82.9539 173.544C82.3262 173.127 81.6673 172.689 81.4238 172.032C81.397 171.959 81.3858 171.885 81.3881 171.811C81.359 170.786 81.3881 169.803 81.4506 168.836C81.5154 167.873 81.6204 166.901 81.7499 165.914C81.7834 165.655 81.9822 165.456 82.2302 165.416C83.854 165.141 85.5516 164.721 87.075 164.051C88.5626 163.397 89.8871 162.499 90.8096 161.261C91.0017 161.005 91.3658 160.951 91.6227 161.143C91.8796 161.335 91.9332 161.699 91.7411 161.956C90.6846 163.372 89.1992 164.384 87.5418 165.115C87.1777 165.275 86.8047 165.423 86.425 165.557C86.7712 165.811 87.1263 166.019 87.4949 166.193C88.1449 166.499 88.844 166.712 89.5968 166.888C89.9095 166.96 90.1038 167.275 90.0301 167.585C89.9564 167.898 89.6437 168.092 89.3332 168.018C88.5112 167.824 87.7384 167.592 86.999 167.241C86.3356 166.928 85.708 166.522 85.1049 165.97C84.3544 166.178 83.5949 166.345 82.8466 166.484C82.7484 167.286 82.6657 168.09 82.6099 168.912C82.5473 169.83 82.5205 170.755 82.5451 171.697C82.697 171.979 83.1571 172.285 83.5949 172.575L84.102 172.923C84.819 173.433 85.536 173.944 86.1525 174.545C89.4181 174.141 92.7373 174.63 92.7462 174.63C93.0634 174.67 93.2868 174.963 93.2466 175.28C93.2064 175.597 92.9138 175.821 92.5966 175.78C92.5876 175.78 89.905 175.385 87.0571 175.619C87.4189 176.165 87.6915 176.79 87.8366 177.529V177.543C87.8791 177.744 87.9014 177.956 87.9059 178.166C87.9104 178.378 87.8947 178.581 87.8634 178.773C87.8031 179.122 87.6803 179.439 87.4949 179.712C87.3073 179.986 87.0593 180.221 86.7578 180.404C86.4607 180.585 86.1458 180.692 85.8263 180.73H85.8085C85.4779 180.768 85.1361 180.73 84.8033 180.623L83.0499 180.024C82.3753 179.796 81.6583 179.555 80.9391 179.305C81.0709 179.602 81.1759 179.91 81.254 180.225C81.4662 181.101 81.4551 182.023 81.1669 182.886C80.9614 183.495 80.5571 183.971 79.9764 184.25C79.6882 184.389 79.3889 184.467 79.0874 184.483C78.3101 184.523 76.3042 183.743 75.6252 183.536C72.8041 182.671 69.6948 181.72 68.2765 180.489C67.9124 180.169 67.593 179.796 67.3182 179.314C67.2624 179.216 67.2088 179.113 67.1552 179.003L66.0406 178.791C64.4569 178.499 62.6811 178.17 61.3588 177.643L61.3387 177.636C59.1274 176.77 58.7186 175.217 58.2272 173.301L57.8765 172.068C56.8959 172.095 55.8684 172.251 54.899 172.512C53.6393 172.852 52.4822 173.366 51.6468 173.996C50.8874 174.567 50.4071 175.224 50.396 175.901C50.396 176.039 50.4138 176.187 50.4541 176.341C50.6015 176.884 52.0467 177.261 54.1039 177.795C57.1416 178.586 61.3856 179.689 65.2543 182.642C67.6644 184.487 70.5928 186.585 75.9156 190.4L78.4642 192.227C84.2069 196.339 89.6928 196.536 95.2167 196.734C97.7764 196.826 100.347 196.917 102.983 197.391C105.793 197.896 107.966 198.327 110.015 199.039C112.081 199.759 114.008 200.759 116.305 202.401C118.934 204.271 122.253 207.375 124.987 210.873C127.207 213.712 129.054 216.824 129.856 219.763C129.941 220.072 129.758 220.391 129.45 220.476C129.142 220.561 128.822 220.378 128.737 220.069C127.98 217.293 126.209 214.32 124.071 211.588C121.409 208.182 118.181 205.162 115.628 203.346C113.428 201.773 111.592 200.817 109.628 200.136C107.649 199.448 105.525 199.028 102.775 198.532C100.227 198.077 97.6938 197.985 95.172 197.896C89.4694 197.693 83.8049 197.489 77.7829 193.174L75.2343 191.347C69.9271 187.543 67.01 185.452 64.544 183.567C60.8607 180.757 56.7485 179.687 53.8068 178.921C51.3632 178.286 49.6477 177.84 49.3238 176.643C49.2568 176.392 49.2278 176.138 49.23 175.885C49.2479 174.811 49.9046 173.85 50.941 173.071C51.8992 172.349 53.197 171.769 54.593 171.391C55.549 171.134 56.5609 170.969 57.5504 170.922C56.5654 167.386 55.5446 163.486 54.8253 160.133C54.5126 158.717 54.5528 157.502 54.9504 156.441C55.3502 155.367 56.1052 154.467 57.2086 153.689C58.1177 153.055 62.3394 151.395 67.1283 149.658C64.9059 146.381 63.0474 143.437 61.2963 140.386C59.4468 137.16 57.7135 133.799 55.788 129.782C53.7688 126.24 52.5381 123.142 51.8568 120.616C50.9276 117.162 51.0259 114.701 51.553 113.591C51.8144 113.048 52.1539 112.673 52.5291 112.44C52.8351 112.25 53.1657 112.157 53.4896 112.148C53.809 112.139 54.1284 112.21 54.4166 112.349C54.8008 112.532 55.1425 112.838 55.3904 113.229L55.4083 113.258C59.0023 119.184 62.7772 124.813 66.896 130.171C70.9434 135.436 75.3259 140.437 80.1975 145.201C81.1446 144.909 81.9241 144.685 82.4669 144.549L82.5004 144.54C83.3313 144.341 84.2203 144.31 85.0714 144.471C85.766 144.605 86.4339 144.866 87.0236 145.275L87.2269 145.219C90.0011 144.511 91.0777 145.521 92.9339 147.265C93.8005 148.081 94.857 149.075 96.396 150.122L96.4206 150.14C96.8584 150.366 97.3118 150.643 97.7898 150.971L97.8144 150.987C107.931 157.902 116.859 167.205 125.474 176.182L126.975 177.746C127.815 178.532 151.983 201.324 142.282 214.59L142.273 214.604L142.264 214.617L142.255 214.628L100.459 271.392C100.269 271.651 99.9051 271.707 99.6483 271.517C99.5969 271.479 99.5522 271.435 99.5165 271.386L0.111739 136.387C-0.0423842 136.175 -0.0334496 135.894 0.116206 135.695L36.449 86.3422C37.3357 85.1181 38.5531 83.1592 40.0139 80.8027C42.6608 76.5364 46.1118 70.9723 49.8554 66.1186C53.2841 61.6892 57.6196 58.207 61.1064 55.4059C62.1495 54.5683 63.1189 53.7888 63.9632 53.0651C64.2067 52.8573 64.573 52.8864 64.7808 53.1276C64.9215 53.2907 64.9528 53.5096 64.8857 53.6994C64.104 55.884 63.4517 58.0015 62.8196 60.0542C61.2985 64.9973 59.8846 69.583 57.2779 73.3021C54.9638 76.6079 49.6589 79.6278 44.8096 82.3886C41.8745 84.0594 39.107 85.6364 37.338 87.0882L12.7118 120.537C13.5383 119.713 14.2575 119.039 14.8629 118.498L14.8897 118.476C16.6855 116.879 18.8678 114.341 21.2779 111.536C25.2829 106.878 29.92 101.484 34.6531 98.2208C45.1156 90.9971 53.3913 89.9205 58.8191 89.2147C60.443 89.0025 61.81 88.826 62.8755 88.5245C63.1837 88.4374 63.5053 88.6183 63.5925 88.9265C63.6639 89.1856 63.55 89.4537 63.3289 89.5832C58.4952 92.4513 55.5155 96.081 52.4912 99.762C49.5449 103.349 46.5563 106.986 41.7919 110.082C36.5875 113.461 30.9743 114.658 26.0267 115.715C21.8028 116.615 18.0726 117.41 15.6335 119.369C14.0744 120.754 11.7603 123.048 8.79399 126.508C7.48059 128.04 6.03988 129.803 4.48302 131.806C3.39746 133.207 2.34317 134.623 1.29111 136.048L32.2452 178.079C28.83 170.815 27.2753 163.638 27.0497 157.085C26.6186 144.585 31.039 134.317 36.6143 129.979C36.8667 129.782 37.233 129.827 37.4296 130.082C37.5457 130.231 37.577 130.419 37.5323 130.591C36.7505 134.906 37.95 138.925 39.1495 142.948C40.2462 146.622 41.3474 150.303 41.0124 154.306C40.6728 158.398 38.4302 161.844 36.2837 165.144C34.0232 168.621 31.87 171.934 32.3658 175.519C33.4648 178.123 34.805 180.746 36.4088 183.364C37.6887 185.454 39.0802 187.371 40.5299 189.339L93.1662 260.809C91.0755 256.65 89.2103 252.292 87.3452 247.934C86.3133 245.522 85.2813 243.107 84.1958 240.697C81.2004 235.377 78.6295 232.198 76.0608 229.02C73.8137 226.239 71.5622 223.456 69.0292 219.267C66.0227 214.284 63.9543 209.209 62.0311 204.485C60.4609 200.634 58.9866 197.014 57.1885 193.902C57.0657 193.69 57.088 193.413 57.26 193.223C57.4745 192.986 57.8408 192.968 58.0775 193.183C59.5183 194.487 61.7318 196.006 64.2246 197.717C69.3866 201.26 75.7369 205.62 79.3152 210.891C82.7841 216.009 83.3023 222.272 83.863 229.035C84.1623 232.674 84.4772 236.462 85.2679 240.253C86.3312 242.614 87.372 245.051 88.4129 247.483C90.7248 252.889 93.0388 258.299 95.7795 263.3C95.4065 262.062 95.1072 260.802 94.8772 259.525C94.1021 255.205 94.1378 250.671 94.9442 246.134L94.9687 246.004C95.0558 245.529 95.1474 245.069 95.2457 244.626C96.0722 240.146 96.1347 236.049 96.1905 232.437C96.2598 227.956 96.3179 224.204 97.7697 221.293C100.359 216.118 104.328 214.751 108.373 213.357C110.406 212.658 112.461 211.948 114.321 210.73C114.522 210.599 114.792 210.603 114.994 210.757C115.246 210.952 115.293 211.318 115.099 211.57C112.921 214.398 111.71 217.449 110.506 220.485C109.376 223.337 108.248 226.181 106.331 228.872C105.25 230.396 104.116 231.622 102.999 232.83C100.37 235.672 97.8211 238.43 96.4005 244.774C96.3089 245.281 96.2062 245.792 96.0945 246.308L96.0878 246.331C95.3038 250.735 95.2703 255.136 96.0208 259.319C96.7021 263.112 98.0289 266.731 100.028 270.023L141.317 213.947L141.328 213.934ZM97.1309 238.944C98.556 235.926 100.338 233.999 102.157 232.031C103.251 230.845 104.361 229.643 105.398 228.184C107.236 225.602 108.335 222.828 109.441 220.043C110.392 217.639 111.348 215.227 112.782 212.895C111.462 213.511 110.109 213.978 108.762 214.443C104.94 215.758 101.194 217.052 98.8196 221.798C97.4816 224.483 97.4258 228.108 97.3588 232.437C97.3275 234.461 97.294 236.634 97.1309 238.942V238.944ZM22.1669 112.291C20.8669 113.803 19.634 115.237 18.4814 116.499C20.619 115.679 23.1095 115.148 25.7944 114.578C30.6459 113.544 36.1474 112.369 41.1687 109.108C45.7857 106.108 48.7163 102.541 51.6044 99.0249C54.1597 95.9134 56.686 92.8377 60.3134 90.1863L58.9777 90.365C53.6594 91.0575 45.5534 92.1117 35.321 99.1768C30.7152 102.353 26.1272 107.687 22.1669 112.291ZM28.2179 157.042C28.3877 161.992 29.3348 167.306 31.2981 172.747C31.8119 169.901 33.5363 167.252 35.3232 164.503C37.3916 161.324 39.5493 158.005 39.8665 154.201C40.1814 150.413 39.1137 146.836 38.0483 143.269C36.9449 139.577 35.8437 135.887 36.201 131.882C31.4299 136.479 27.8337 145.807 28.2202 157.042H28.2179ZM40.999 81.408C40.3244 82.4981 39.699 83.5032 39.1383 84.39C40.6527 83.4228 42.4151 82.4176 44.24 81.379C48.9798 78.6807 54.1664 75.7278 56.3308 72.6364C58.8325 69.0648 60.2196 64.564 61.7139 59.7102C62.1629 58.2539 62.6208 56.764 63.1167 55.2742L61.8346 56.3061C58.3947 59.0692 54.1195 62.5045 50.7757 66.8244C47.0566 71.6447 43.6302 77.1708 41.0012 81.408H40.999ZM99.5098 94.3834C100.455 91.6873 100.743 88.9891 100.743 88.9824C100.783 88.6652 101.076 88.4418 101.393 88.482C101.71 88.5222 101.933 88.8149 101.893 89.132C101.893 89.141 101.538 92.4758 100.323 95.527C100.745 96.2708 101.055 97.0839 101.364 97.8902L101.587 98.5C101.761 98.9937 101.944 99.5119 102.175 99.7263C103.079 99.9832 103.979 100.191 104.882 100.363C105.67 100.513 106.472 100.635 107.292 100.74C107.611 100.05 107.966 99.3577 108.357 98.6809C107.982 97.9595 107.745 97.2514 107.607 96.5344C107.453 95.7347 107.421 94.9284 107.45 94.0841C107.462 93.7647 107.732 93.5145 108.051 93.5257C108.371 93.5368 108.621 93.8071 108.61 94.1265C108.583 94.8882 108.61 95.6097 108.746 96.3177C108.822 96.7131 108.934 97.1085 109.092 97.506C109.316 97.1777 109.548 96.8583 109.794 96.5478C110.917 95.1272 112.273 93.9389 113.91 93.2688C114.207 93.1482 114.545 93.2911 114.665 93.586C114.786 93.883 114.643 94.2203 114.348 94.3409C112.916 94.9262 111.715 95.9871 110.705 97.2648C109.684 98.5581 108.858 100.077 108.192 101.562C108.105 101.815 107.85 101.98 107.576 101.949C106.608 101.833 105.646 101.69 104.67 101.504C103.707 101.321 102.74 101.096 101.752 100.812C101.694 100.796 101.638 100.769 101.587 100.736C101.009 100.343 100.745 99.599 100.495 98.8887L100.28 98.3057C99.6527 96.655 99.0094 94.9708 97.3453 94.1913L97.3275 94.1824C97.2091 94.122 97.0818 94.0707 96.95 94.0327C96.8338 93.997 96.7132 93.9746 96.5904 93.9657H96.5613C96.3759 93.9478 96.1995 93.9657 96.0454 94.0215C95.8957 94.0729 95.7572 94.16 95.6299 94.2784C95.5003 94.4146 95.4065 94.5554 95.3462 94.7006L95.3373 94.7251C95.2814 94.877 95.2591 95.0445 95.2747 95.2255L95.382 96.7823C95.583 99.7911 95.8466 103.7 96.5948 105.235C96.6976 105.442 96.8182 105.643 96.9656 105.826L96.9924 105.855C97.1443 106.039 97.3275 106.208 97.5464 106.351L97.5866 106.376C98.0222 106.66 100.249 107.263 102.684 107.837C105.543 108.511 108.648 109.134 109.526 109.17C110.104 109.179 110.651 109.101 111.216 108.882C111.795 108.659 112.402 108.279 113.09 107.692L123.665 96.9208C124.728 95.7951 125.3 94.8524 125.481 93.8875C125.659 92.9248 125.463 91.8817 124.989 90.5616L124.976 90.5281C120.817 79.0381 114.035 68.0485 107.482 57.4252L106.452 55.7499C106.423 55.6896 96.3491 34.6999 92.9785 22.4974C92.8937 22.1891 93.0746 21.8697 93.3828 21.7848C93.6911 21.7 94.0105 21.8809 94.0976 22.1891C97.3789 34.07 107.095 54.412 107.484 55.2228L108.467 56.8176C115.054 67.4923 121.869 78.5378 126.066 90.1327L126.075 90.1595C126.274 90.7135 126.43 91.2272 126.537 91.7164C127.167 93.4832 127.864 94.7564 128.433 95.7995C129.655 98.0354 130.363 99.3332 128.981 101.835L128.88 102.011C129.13 102.686 129.217 103.405 129.171 104.113C129.113 104.975 128.849 105.829 128.442 106.577C128.177 107.073 127.761 107.774 127.236 108.63C130.625 114.54 134.366 120.046 138.449 125.295C142.602 130.634 147.098 135.702 151.927 140.663L151.941 140.676C152.269 141.02 152.483 141.438 152.566 141.864L152.57 141.887C152.626 142.193 152.613 142.508 152.526 142.807C152.434 143.115 152.264 143.406 152.008 143.654C151.688 143.96 151.232 144.199 150.638 144.312C149.432 144.545 147.026 144.024 143.917 142.255C141.646 140.962 138.959 138.99 136.044 136.146C132.646 133.294 129.827 130.77 127.151 128.152C124.641 125.695 122.257 123.153 119.642 120.173C116.756 124.375 114.089 128.045 113.242 128.768C112.215 129.648 111.158 130.155 110.017 130.272C108.887 130.388 107.694 130.118 106.398 129.45C102.469 127.238 98.4979 125.027 94.5399 122.872C92.7931 121.911 91.4016 121.145 91.0978 118.762C90.9124 117.323 91.0487 115.496 91.167 113.881L91.2407 112.798C91.1492 112.72 91.0621 112.639 90.9794 112.559C90.584 112.172 90.3026 111.77 90.0859 111.335C89.2506 109.668 89.1076 106.479 88.9758 103.562C88.9334 102.597 88.8909 101.658 88.8195 100.783C88.7971 100.477 88.8284 100.182 88.9133 99.8983L88.9244 99.8626C89.016 99.5789 89.1634 99.3108 89.3645 99.0696L89.3756 99.0562C89.5878 98.8083 89.8313 98.6206 90.1038 98.4866C90.3607 98.3615 90.6399 98.2834 90.937 98.2521L90.9861 98.2476C91.8907 98.1828 92.7842 98.404 93.5772 98.8306C93.8631 98.9847 94.1378 99.1679 94.3969 99.3734C94.3254 98.509 94.2696 97.6535 94.216 96.8583L94.1088 95.3148C94.082 94.9641 94.1266 94.6335 94.2406 94.3253L94.2562 94.2851C94.3723 93.988 94.551 93.7155 94.7856 93.4698L94.8124 93.443C95.0603 93.2062 95.3418 93.032 95.6478 92.9248C95.9627 92.8131 96.2978 92.7729 96.6462 92.8019H96.6685C96.8673 92.8198 97.0639 92.8556 97.2582 92.9114C97.4526 92.965 97.6491 93.0454 97.8457 93.1459C98.5292 93.4698 99.0675 93.892 99.5053 94.3789L99.5098 94.3834ZM92.3509 63.733C94.1736 70.6306 99.1658 75.0577 103.95 79.3017C107.513 82.4601 110.96 85.5157 112.782 89.3733C112.918 89.6636 113.265 89.7865 113.555 89.6502C113.845 89.514 113.968 89.1678 113.832 88.8774C111.907 84.8077 108.373 81.6716 104.719 78.4306C100.066 74.3027 95.2077 69.9962 93.4744 63.4337C93.394 63.1233 93.0746 62.9379 92.7641 63.0205C92.4536 63.1009 92.2682 63.4203 92.3509 63.7308V63.733ZM120.323 119.193C122.992 122.239 125.411 124.828 127.969 127.33C130.611 129.916 133.412 132.423 136.803 135.268L136.834 135.297C139.682 138.078 142.293 139.997 144.494 141.25C147.339 142.87 149.432 143.368 150.422 143.176C150.781 143.106 151.04 142.979 151.206 142.818C151.308 142.718 151.378 142.601 151.413 142.481C151.449 142.36 151.454 142.228 151.431 142.097V142.083C151.387 141.869 151.27 141.652 151.096 141.469C146.227 136.463 141.701 131.366 137.536 126.01C133.553 120.89 129.888 115.518 126.546 109.747C124.907 112.353 122.581 115.88 120.325 119.188L120.323 119.193ZM92.3576 113.568L92.3308 113.97C92.2146 115.538 92.0828 117.314 92.2526 118.623C92.4827 120.417 93.6464 121.058 95.105 121.862C98.9648 123.986 103.039 126.477 106.937 128.427C108.027 128.99 109.005 129.22 109.905 129.126C110.799 129.034 111.65 128.619 112.494 127.895C113.296 127.209 116.104 123.309 119.097 118.931C122.592 113.818 126.323 108.082 127.426 106.032C127.759 105.427 127.969 104.736 128.018 104.04C128.036 103.763 128.029 103.486 127.993 103.213C127.576 103.678 127.118 104.093 126.651 104.518C121.426 109.28 116.253 114.116 111.058 118.911C110.1 119.809 109.054 120.28 107.853 120.336C106.693 120.39 105.411 120.05 103.941 119.333L92.4827 113.638L92.3598 113.568H92.3576ZM94.5801 101.25C94.1758 100.669 93.6397 100.186 93.0344 99.8603C92.4268 99.5342 91.7523 99.3667 91.0755 99.4136H91.0665C90.9035 99.4315 90.7538 99.4717 90.6243 99.5342C90.4947 99.599 90.3719 99.6928 90.2669 99.8179L90.2602 99.8246C90.1574 99.9474 90.0837 100.081 90.0368 100.222L90.0279 100.247C89.9877 100.385 89.9743 100.535 89.9854 100.696C90.0502 101.52 90.0949 102.503 90.1395 103.515C90.2646 106.313 90.4031 109.373 91.1291 110.816C91.2944 111.147 91.5043 111.449 91.7925 111.73C92.094 112.025 92.4894 112.313 93.0165 112.608L104.446 118.286C105.744 118.918 106.843 119.219 107.797 119.175C108.706 119.132 109.51 118.764 110.26 118.058C115.46 113.258 120.647 108.44 125.863 103.658C126.667 102.923 127.444 102.215 127.962 101.276C129.039 99.3287 128.442 98.2365 127.415 96.3557C127.131 95.8353 126.816 95.2612 126.497 94.6045C126.195 95.6208 125.557 96.6059 124.511 97.7138C120.975 101.25 117.468 105.15 113.861 108.558C113.064 109.242 112.34 109.688 111.634 109.963C110.915 110.242 110.22 110.341 109.492 110.327H109.479C108.525 110.287 105.328 109.653 102.416 108.967C99.8694 108.366 97.4995 107.709 96.9455 107.348L96.9053 107.319C96.5792 107.104 96.3134 106.858 96.0967 106.599L96.0655 106.559C95.8533 106.296 95.6835 106.021 95.5473 105.744C95.0737 104.774 94.7789 103.086 94.5756 101.243L94.5801 101.25ZM95.2345 164.031C98.5158 166.77 100.611 170.875 102.775 175.119C105.679 180.813 108.706 186.748 114.924 190.239C115.203 190.395 115.559 190.295 115.715 190.015C115.871 189.736 115.771 189.381 115.492 189.225C109.581 185.908 106.635 180.131 103.812 174.592C101.594 170.241 99.445 166.03 95.9806 163.14C95.7349 162.935 95.3686 162.968 95.1631 163.214C94.9576 163.459 94.9911 163.826 95.2368 164.031H95.2345ZM68.263 149.24C72.029 147.886 76.0228 146.522 78.9534 145.586C74.218 140.913 69.945 136.014 65.9869 130.87C61.8457 125.483 58.0463 119.816 54.4255 113.85L54.421 113.843C54.2937 113.638 54.1173 113.479 53.9252 113.387C53.8001 113.327 53.6616 113.296 53.5298 113.298C53.4025 113.3 53.2707 113.34 53.1456 113.419C52.9513 113.537 52.7659 113.751 52.6095 114.078C52.1784 114.987 52.136 117.142 52.987 120.307C53.646 122.755 54.8432 125.766 56.8088 129.213L56.8356 129.266C58.7387 133.238 60.4631 136.575 62.3103 139.8C64.0883 142.901 65.9802 145.892 68.2608 149.242L68.263 149.24ZM66.6973 177.73L66.657 177.576C65.7882 173.522 64.6758 169.082 64.0012 165.039C63.6818 163.444 63.6773 162.126 64.0191 161.027C64.3765 159.877 65.098 158.983 66.217 158.277C72.0714 154.516 78.1247 150.352 84.0618 146.807C84.5867 146.461 85.1026 146.124 85.6521 145.836C85.3997 145.733 85.1339 145.657 84.8636 145.606C84.1779 145.476 83.4564 145.503 82.7774 145.666L82.7573 145.671C80.4611 146.242 73.9433 148.425 68.1179 150.527C63.1725 152.311 58.7432 154.031 57.881 154.632C56.9719 155.273 56.3554 155.997 56.0427 156.837C55.7255 157.681 55.6987 158.675 55.9578 159.859C57.059 164.132 58.4327 168.729 59.3485 173.002C59.7595 174.603 60.099 175.899 61.7631 176.551L61.7988 176.567C63.0184 177.051 64.7272 177.368 66.2505 177.65L66.6995 177.735L66.6973 177.73ZM79.1656 178.657C77.4479 178.005 75.9022 177.306 75.0757 176.613L75.0556 176.598C74.8032 176.383 74.5687 176.138 74.3654 175.847C74.1599 175.555 73.9857 175.217 73.8561 174.824C73.6484 174.192 73.6104 171.699 73.6708 169.064C73.74 166.091 73.9276 162.883 74.1331 161.972C74.2939 161.255 74.5575 160.6 75.0087 159.973C75.4487 159.361 76.0652 158.771 76.9341 158.172C81.2272 155.541 85.8129 153.207 90.1038 150.576C91.444 149.839 92.5564 149.47 93.6129 149.434C93.0567 148.958 92.5809 148.51 92.1498 148.103C90.5907 146.638 89.6861 145.789 87.5284 146.338C86.4853 146.609 85.6097 147.178 84.7073 147.775C79.2281 151.701 72.6008 155.561 66.8491 159.256C65.9691 159.81 65.4062 160.5 65.1337 161.375C64.8522 162.282 64.8634 163.41 65.1404 164.806L67.794 177.324C67.9414 177.913 68.1201 178.374 68.3301 178.742C68.5311 179.097 68.7723 179.377 69.0426 179.616C70.2823 180.69 73.262 181.601 75.9647 182.43C76.7063 182.658 77.43 182.879 78.0755 183.089C78.3503 183.178 78.7434 183.341 79.0315 183.328C79.179 183.321 79.3286 183.281 79.476 183.209C79.7754 183.069 79.9652 182.834 80.0724 182.522C80.2891 181.876 80.2958 181.175 80.1327 180.505C79.9697 179.834 79.6346 179.193 79.17 178.666L79.1656 178.657Z" fill="#6F1240"/>
<path fill-rule="evenodd" clip-rule="evenodd" d="M95.7549 123.077C95.8308 122.766 96.0564 123.099 96.3691 123.173C96.6796 123.249 96.9588 123.039 96.8829 123.349C96.5925 124.542 96.0944 125.764 95.4712 126.863C94.7542 128.125 93.8652 129.242 92.9248 129.988C91.9062 130.796 90.8095 131.194 89.7597 130.939C89.5185 130.881 89.2817 130.787 89.0539 130.658C87.9772 130.041 87.975 128.268 87.975 125.742C87.975 122.699 87.9728 118.449 86.1724 114.173C84.9037 111.167 83.5255 107.586 80.9189 100.816L80.1885 98.9198C77.5483 92.0334 78.7656 86.5162 79.9941 80.9589C80.5391 78.4952 81.0842 76.0203 81.2807 73.4158C81.4907 70.626 81.6158 68.4638 81.446 66.3775C81.2785 64.3092 80.8139 62.2922 79.8467 59.7637C79.6993 59.3817 79.3776 58.754 78.9577 57.9432C76.322 52.8371 70.061 40.6971 77.383 30.7618L99.5342 0.678792C99.6727 0.493398 99.9005 0.412986 100.113 0.455426C100.256 0.482229 100.383 0.564875 100.468 0.681026L199.886 135.699C200.04 135.911 200.031 136.193 199.882 136.394L182.207 160.379C180.545 162.633 178.905 164.962 177.17 167.156C176.1 168.512 175.137 169.593 174.203 170.504C173.276 171.409 172.231 172.253 171.143 173.015C168.123 175.132 167.346 175.78 165.275 179.064C163.882 181.275 162.615 183.283 159.881 184.163C155.863 185.456 149.559 183.788 144.174 182.363C142.8 182.001 141.485 181.65 140.323 181.382C140.01 181.311 139.816 181 139.888 180.687C139.943 180.446 140.142 180.274 140.375 180.243C143.846 179.756 145.561 178.595 147.495 177.286C149.019 176.254 150.672 175.132 153.354 174.152C155.825 173.254 158.277 173.589 160.725 173.924C162.291 174.138 163.859 174.353 165.4 174.212C168.275 173.953 171.389 171.637 173.397 169.676C174.252 168.84 175.137 167.851 176.118 166.622C177.992 164.268 179.779 161.721 181.557 159.311C177.911 161.934 174.011 163.336 170.283 164.02C165.128 164.962 160.319 164.522 156.98 164.029C156.526 164.006 156.093 163.955 155.677 163.877C152.394 163.589 149.459 164.06 146.624 164.514C142.543 165.168 138.659 165.791 134.154 164.187C128.838 162.296 126.334 158.69 123.765 154.994C122.356 152.965 120.926 150.906 119.014 149.139C118.779 148.923 118.766 148.556 118.983 148.322C119.146 148.145 119.394 148.094 119.606 148.17C122.905 149.376 125.876 149.477 128.889 149.579C132.554 149.702 136.287 149.829 140.797 151.864C144.348 153.473 146.714 155.836 148.867 157.985C151.08 160.196 153.059 162.17 155.854 162.727C156.274 162.765 156.698 162.816 157.131 162.878C160.388 163.361 165.081 163.794 170.073 162.881C173.774 162.204 177.652 160.788 181.248 158.101C184.471 155.693 185.151 154.435 187.445 151.324L198.7 136.05L134.417 48.7472C135.313 50.2974 136.204 51.8922 137.093 53.5362C141.757 62.1581 146.367 72.1694 151.188 84.5484C151.304 84.8477 151.154 85.1827 150.855 85.2989C150.556 85.415 150.221 85.2654 150.104 84.9661C145.306 72.643 140.714 62.6741 136.07 54.0857C132.407 47.311 128.706 41.3918 124.846 35.8545C123.405 33.7884 121.916 31.7669 120.423 29.7388L111.806 18.0344C114.064 21.9321 115.911 25.4345 117.316 28.2712C118.281 30.2212 119.152 32.1377 120.202 34.0564C121.413 36.27 122.876 38.7203 124.344 41.1796C127.069 45.7385 129.807 50.3264 131.011 53.5161C132.758 58.1286 133.213 63.2214 133.629 67.8562C133.866 70.4964 134.089 72.9914 134.531 75.1402C134.596 75.4529 134.393 75.7611 134.08 75.8237C133.825 75.8751 133.573 75.75 133.455 75.5333C131.992 73.045 130.006 70.8471 127.969 68.5933C124.627 64.8966 121.147 61.048 119.438 55.4236C117.893 50.3398 118.085 46.2991 118.275 42.3344C118.442 38.8298 118.607 35.3832 117.515 31.3448C115.818 27.7218 113.041 22.3029 109.306 16.071C106.671 11.6751 103.557 6.87051 100.006 2.00782L78.3256 31.4542C71.428 40.811 77.4589 52.4998 79.9964 57.4161C80.4342 58.2626 80.7714 58.9171 80.939 59.3549C81.9486 61.9951 82.4333 64.1104 82.612 66.2904C82.7884 68.4526 82.6611 70.6595 82.4467 73.5051C82.2479 76.1677 81.6895 78.6939 81.1333 81.2113C79.945 86.5966 78.7634 91.944 81.2785 98.5065L82.0089 100.398C84.6245 107.189 86.0071 110.781 87.2468 113.722C89.1365 118.214 89.1387 122.601 89.1387 125.742C89.1387 127.87 89.1387 129.365 89.6346 129.648C89.7664 129.724 89.9027 129.778 90.0389 129.811C90.7045 129.972 91.4618 129.671 92.2078 129.079C93.032 128.424 93.8205 127.428 94.466 126.291C95.0379 125.281 95.4935 124.165 95.7593 123.077H95.7549ZM123.345 41.767C121.947 39.4262 120.553 37.092 119.374 34.9588C119.66 37.5543 119.546 39.9555 119.429 42.3813C119.244 46.25 119.056 50.1924 120.542 55.0797C122.175 60.4561 125.565 64.2064 128.822 67.8093C130.276 69.4175 131.706 70.999 132.952 72.6899C132.758 71.1933 132.615 69.5985 132.467 67.9478C132.061 63.3911 131.612 58.3877 129.919 53.9159C128.751 50.8156 126.039 46.2768 123.343 41.7648L123.345 41.767ZM146.439 163.363C148.391 163.05 150.39 162.731 152.526 162.644C150.92 161.672 149.53 160.285 148.045 158.8C145.963 156.723 143.676 154.44 140.314 152.916C136.01 150.973 132.396 150.85 128.847 150.732C126.407 150.649 123.993 150.569 121.391 149.923C122.641 151.342 123.685 152.843 124.714 154.326C127.176 157.868 129.575 161.322 134.536 163.088C138.769 164.594 142.508 163.995 146.439 163.363ZM164.295 178.447C164.963 177.388 165.662 176.278 166.569 175.226C164.572 175.619 162.57 175.347 160.567 175.072C158.259 174.757 155.95 174.442 153.747 175.242C151.197 176.175 149.606 177.252 148.141 178.244C146.611 179.28 145.206 180.232 143.042 180.864L144.469 181.239C149.705 182.624 155.831 184.246 159.524 183.057C161.856 182.307 163.017 180.469 164.29 178.445L164.295 178.447Z" fill="#6F1240"/>
</g>
<defs>
<clipPath id="clip0_30_22509">
<rect width="200" height="271.176" fill="white" transform="translate(0 0.444336)"/>
</clipPath>
</defs>
</svg>
