<svg width="30" height="31" viewBox="0 0 30 31" fill="none" xmlns="http://www.w3.org/2000/svg">
<g clip-path="url(#clip0_25_22319)">
<path fill-rule="evenodd" clip-rule="evenodd" d="M14.2876 26.4604C14.0511 25.5082 13.3321 22.9752 12.017 21.3039C10.6566 19.5775 8.75853 18.379 7.07747 17.3199C6.11224 16.7109 5.21502 16.1441 4.51215 15.5416C3.54368 14.7092 2.47155 13.7861 1.63588 12.5682C1.27635 12.0435 0.962161 11.4669 0.719233 10.8224C0.916815 13.0573 1.71686 15.6939 2.92826 18.1426C4.56398 21.4464 6.93819 24.3875 9.57477 25.4887C10.3716 25.8224 11.2072 26.0685 12.0591 26.2305C12.7911 26.3697 13.5394 26.4442 14.2876 26.4572V26.4604ZM18.5728 16.7887L18.3493 17.051C18.2295 17.1935 18.0157 17.2097 17.8732 17.0899C17.7307 16.97 17.7145 16.7563 17.8343 16.6138L18.0578 16.3514C18.1777 16.2089 18.3914 16.1927 18.534 16.3125C18.6765 16.4324 18.6927 16.6461 18.5728 16.7887ZM22.8354 11.0394C22.3819 11.8135 21.8928 12.5747 21.3811 13.297C20.8823 13.9998 20.3673 14.6639 19.8425 15.2663C19.7194 15.4056 19.5057 15.4218 19.3664 15.2987C19.2271 15.1756 19.2109 14.9618 19.334 14.8226C19.8458 14.2331 20.3511 13.5885 20.8304 12.9083C21.326 12.2054 21.8054 11.4637 22.2524 10.6993C22.3463 10.5373 22.5536 10.4855 22.7156 10.5794C22.8775 10.6734 22.9293 10.8807 22.8354 11.0426V11.0394ZM24.1375 8.57446L23.9496 8.96314C23.8687 9.13157 23.6646 9.19959 23.4962 9.11862C23.3277 9.03764 23.2597 8.83358 23.3407 8.66515L23.5253 8.28294C23.6063 8.11451 23.8071 8.04325 23.9755 8.12423C24.144 8.2052 24.2152 8.40603 24.1343 8.57446H24.1375ZM29.1321 7.63513C29.2714 7.82948 29.3718 8.81415 29.3912 9.06355C29.5759 11.7034 28.6754 15.2436 27.0915 18.4438C25.391 21.8804 22.8969 24.9446 20.0984 26.1171L20.0272 26.1463C19.7195 26.4442 19.3761 26.8394 19.0069 27.2637C15.3241 31.5036 14.0868 31.5036 10.404 27.2637C10.0347 26.8394 9.69462 26.4442 9.38367 26.1463L9.31241 26.1171C6.51388 24.9446 4.01982 21.8804 2.31932 18.4438C0.738667 15.2436 -0.161786 11.7034 0.0228393 9.06355C0.0390345 8.81738 0.139445 7.82948 0.281963 7.63513C0.343504 7.55092 0.443915 7.49586 0.557281 7.49586C0.641496 7.49586 0.719233 7.52825 0.777536 7.58007C0.777536 7.58007 1.66179 8.37364 2.74039 9.03116C2.64646 8.69106 2.58816 8.34772 2.56549 8.00762C2.50718 7.14604 2.66914 6.29741 3.04163 5.5751C3.41735 4.84308 4.00686 4.23738 4.79071 3.86165C5.24417 3.64464 5.75918 3.50536 6.33249 3.46649C6.48473 3.45677 6.62401 3.5507 6.67259 3.68998C7.21027 5.05362 8.40548 7.50881 9.62984 9.62067L10.0218 10.2847C9.70757 9.53321 9.41606 8.74613 9.20552 8.00762C8.95288 7.13308 8.83951 6.44641 8.88486 5.86662C8.9302 5.24796 9.14722 4.75239 9.54886 4.29244C10.1708 3.57985 11.0194 3.10048 11.8745 2.61462C12.8527 2.06074 13.8438 1.50039 14.4236 0.596697C14.4884 0.496287 14.5953 0.441223 14.7087 0.441223C14.8188 0.441223 14.9289 0.496287 14.9937 0.596697C15.5735 1.50039 16.5646 2.06074 17.5428 2.61462C18.3979 3.09724 19.2465 3.57662 19.8684 4.29244C20.2701 4.75239 20.4871 5.24796 20.5324 5.86662C20.5746 6.44641 20.4644 7.13308 20.2118 8.00762C19.998 8.74289 19.7065 9.53321 19.3955 10.2847L19.7875 9.62067C21.0118 7.50881 22.207 5.05362 22.7447 3.68998C22.7933 3.5507 22.9326 3.45677 23.0848 3.46649C23.6581 3.50536 24.1731 3.64464 24.6266 3.86165C25.4104 4.23738 25.9999 4.84308 26.3757 5.5751C26.7482 6.29741 26.9134 7.14604 26.8518 8.00762C26.8291 8.34772 26.7708 8.69106 26.6769 9.03116C27.7555 8.37364 28.6365 7.58331 28.6398 7.58007C28.6981 7.52825 28.7758 7.49586 28.86 7.49586C28.9734 7.49586 29.0738 7.55092 29.1353 7.63513H29.1321ZM18.4951 26.82L18.6765 26.6127C18.2813 26.726 17.8829 26.82 17.478 26.8977C15.7711 27.2216 13.6398 27.2216 11.9296 26.8977C11.5247 26.82 11.1263 26.726 10.7311 26.6127L10.9125 26.82C14.2584 30.6712 15.1492 30.6712 18.4951 26.82ZM14.7054 25.4337C14.3329 24.1834 13.6333 22.2626 12.5482 20.8828C12.153 20.3808 11.7158 19.9241 11.2558 19.4997C12.694 18.4632 16.7201 18.4632 18.1582 19.4997C17.6983 19.9208 17.261 20.3808 16.8659 20.8828C15.7808 22.2626 15.0811 24.1802 14.7087 25.4337H14.7054ZM18.6732 19.0495C17.031 17.715 12.3798 17.715 10.7376 19.0495C9.66871 18.1588 8.50913 17.4235 7.43377 16.7466C6.4912 16.1506 5.61342 15.5999 4.94942 15.0266C4.01334 14.2233 2.97685 13.3294 2.18976 12.186C1.52252 11.2143 1.0237 10.045 0.913576 8.56798C1.46097 9.00201 2.32904 9.63038 3.22625 10.0612C3.39468 10.1422 3.5955 10.0709 3.67648 9.90246C3.72182 9.80853 3.71859 9.70164 3.67648 9.61095C3.42059 9.07327 3.27484 8.50644 3.23597 7.9558C3.18414 7.21406 3.32342 6.49175 3.64085 5.87633C3.9518 5.27063 4.43765 4.76858 5.08222 4.46087C5.39317 4.31188 5.74623 4.20499 6.13815 4.1564C6.72118 5.57834 7.87104 7.92017 9.04681 9.95105C9.99909 11.5932 10.9773 13.0443 11.7028 13.6597C11.8453 13.7796 12.0591 13.7634 12.179 13.6209C12.2794 13.501 12.2826 13.3294 12.1952 13.2063C11.8745 12.6654 11.3433 11.6321 10.8348 10.4661C10.459 9.60123 10.0963 8.66515 9.85333 7.81652C9.62336 7.01972 9.51971 6.40754 9.55858 5.90873C9.59421 5.44554 9.75292 5.07629 10.0542 4.72971C10.6015 4.10134 11.3984 3.65111 12.2049 3.19441C13.1183 2.6794 14.0414 2.15468 14.7054 1.34492C15.3727 2.15468 16.2958 2.6794 17.206 3.19441C18.0125 3.65111 18.8093 4.10134 19.3567 4.72971C19.6579 5.07305 19.8199 5.44554 19.8523 5.90873C19.8879 6.41078 19.7875 7.02296 19.5575 7.81652C19.3113 8.66515 18.9518 9.60123 18.5761 10.4661C18.0675 11.6321 17.5363 12.6654 17.2157 13.2063C17.1282 13.3294 17.1315 13.501 17.2319 13.6209C17.3517 13.7634 17.5655 13.7796 17.708 13.6597C18.4368 13.0443 19.415 11.5965 20.364 9.95105C21.5398 7.92341 22.6896 5.57834 23.2727 4.1564C23.6646 4.20823 24.0177 4.31188 24.3286 4.46087C24.9732 4.76858 25.459 5.27063 25.77 5.87633C26.0842 6.48851 26.2234 7.21082 26.1716 7.9558C26.1328 8.50968 25.987 9.07327 25.7311 9.61095C25.689 9.70164 25.6858 9.80529 25.7311 9.90246C25.8121 10.0709 26.0129 10.1422 26.1813 10.0612C27.0786 9.63038 27.9434 8.99877 28.4908 8.56798C28.3774 10.045 27.8818 11.211 27.2146 12.186C26.4307 13.3294 25.391 14.2233 24.4549 15.0266C23.7877 15.5999 22.9131 16.1506 21.9706 16.7466C20.8952 17.4235 19.7356 18.1555 18.6668 19.0495H18.6732ZM15.1265 26.4572C15.8747 26.4442 16.6229 26.3697 17.355 26.2305C18.2068 26.0685 19.0425 25.8224 19.8393 25.4887C22.4759 24.3842 24.8501 21.4464 26.4858 18.1426C27.6972 15.6971 28.4972 13.0605 28.6948 10.8224C28.4551 11.4669 28.141 12.0435 27.7782 12.5682C26.9425 13.7861 25.8704 14.7092 24.9019 15.5416C24.2023 16.1441 23.3051 16.7109 22.3366 17.3199C20.6555 18.379 18.7542 19.5775 17.3971 21.3039C16.082 22.972 15.3629 25.5082 15.1265 26.4604V26.4572ZM5.27656 8.5777L5.46443 8.96638C5.5454 9.13481 5.74946 9.20283 5.91789 9.12185C6.08632 9.04088 6.15434 8.83682 6.07337 8.66839L5.88874 8.28618C5.80777 8.11775 5.60695 8.04649 5.43852 8.12747C5.27009 8.20844 5.19883 8.40926 5.2798 8.5777H5.27656ZM6.57866 11.0426C6.48473 10.8807 6.53979 10.6766 6.6985 10.5794C6.86046 10.4855 7.06451 10.5406 7.16169 10.6993C7.60867 11.4637 8.08805 12.2087 8.58363 12.9083C9.06624 13.5885 9.56829 14.2331 10.0801 14.8226C10.2031 14.9618 10.187 15.1756 10.0477 15.2987C9.90839 15.4218 9.69462 15.4056 9.57153 15.2663C9.04681 14.6639 8.52856 13.9998 8.03299 13.297C7.52122 12.5747 7.03212 11.8135 6.57866 11.0394V11.0426ZM10.8412 16.7919C10.7214 16.6494 10.7376 16.4356 10.8801 16.3158C11.0226 16.1959 11.2364 16.2121 11.3562 16.3546L11.5797 16.617C11.6996 16.7595 11.6834 16.9733 11.5409 17.0931C11.3984 17.213 11.1846 17.1968 11.0647 17.0543L10.8412 16.7919Z" fill="#6F1240"/>
</g>
<defs>
<clipPath id="clip0_25_22319">
<rect width="29.417" height="30" fill="white" transform="translate(0 0.444458)"/>
</clipPath>
</defs>
</svg>
