<svg width="20" height="31" viewBox="0 0 20 31" fill="none" xmlns="http://www.w3.org/2000/svg">
<g clip-path="url(#clip0_25_22339)">
<path fill-rule="evenodd" clip-rule="evenodd" d="M9.99999 30.4445C9.83417 30.4445 9.69652 30.3099 9.69652 30.141V28.8833C9.69652 28.7175 9.83105 28.5798 9.99999 28.5798C10.1689 28.5798 10.3035 28.7144 10.3035 28.8833V30.141C10.3035 30.3068 10.1689 30.4445 9.99999 30.4445ZM15.3374 10.4059C15.2591 10.4059 15.1841 10.3777 15.1246 10.3183C15.0057 10.1994 15.0057 10.0085 15.1246 9.88966L15.572 9.44227C15.6909 9.32338 15.8817 9.32338 16.0006 9.44227C16.1195 9.56115 16.1195 9.752 16.0006 9.87088L15.5532 10.3183C15.4938 10.3777 15.4156 10.4059 15.3405 10.4059H15.3374ZM6.302 19.4412C6.38022 19.4412 6.4553 19.4131 6.51475 19.3536L9.69339 16.175V26.4086C9.69339 26.5744 9.82792 26.7121 9.99686 26.7121C10.1658 26.7121 10.3003 26.5775 10.3003 26.4086V16.175L13.479 19.3536C13.5384 19.4131 13.6166 19.4412 13.6917 19.4412C13.7668 19.4412 13.845 19.4131 13.9045 19.3536C14.0233 19.2347 14.0233 19.0439 13.9045 18.925L10.7258 15.7464H16.8391C17.0049 15.7464 17.1425 15.6118 17.1425 15.4429C17.1425 15.274 17.008 15.1394 16.8391 15.1394H10.7258L13.7449 12.1203C13.8638 12.0015 13.8638 11.8106 13.7449 11.6917C13.626 11.5728 13.4352 11.5728 13.3163 11.6917L10.2972 14.7108V3.9735C10.2972 3.80769 10.1627 3.67003 9.99373 3.67003C9.82479 3.67003 9.69026 3.80456 9.69026 3.9735V14.7139L6.8714 11.8951C6.75252 11.7762 6.56167 11.7762 6.44279 11.8951C6.3239 12.014 6.3239 12.2048 6.44279 12.3237L9.26164 15.1425H3.56136C3.39555 15.1425 3.25789 15.2771 3.25789 15.446C3.25789 15.615 3.39242 15.7495 3.56136 15.7495H9.2679L6.08926 18.9281C5.97037 19.047 5.97037 19.2379 6.08926 19.3568C6.1487 19.4162 6.22692 19.4444 6.302 19.4444V19.4412ZM4.21211 21.5311C4.13389 21.5311 4.05881 21.503 3.99936 21.4435C3.88048 21.3246 3.88048 21.1338 3.99936 21.0149L4.47178 20.5425C4.59067 20.4236 4.78151 20.4236 4.9004 20.5425C5.01928 20.6614 5.01928 20.8522 4.9004 20.9711L4.42798 21.4435C4.36854 21.503 4.29032 21.5311 4.21524 21.5311H4.21211ZM4.90665 10.653C4.82844 10.653 4.75335 10.6249 4.69391 10.5654L3.99936 9.87088C3.88048 9.752 3.88048 9.56115 3.99936 9.44227C4.11825 9.32338 4.30909 9.32338 4.42798 9.44227L5.12253 10.1368C5.24141 10.2557 5.24141 10.4465 5.12253 10.5654C5.06308 10.6249 4.98487 10.653 4.90978 10.653H4.90665ZM15.7847 21.5311C15.7065 21.5311 15.6314 21.503 15.572 21.4435L14.915 20.7865C14.7961 20.6676 14.7961 20.4768 14.915 20.3579C15.0339 20.239 15.2247 20.239 15.3436 20.3579L16.0006 21.0149C16.1195 21.1338 16.1195 21.3246 16.0006 21.4435C15.9412 21.503 15.863 21.5311 15.7879 21.5311H15.7847ZM1.43392 15.7464H0.510992C0.345177 15.7464 0.20752 15.6118 0.20752 15.4429C0.20752 15.274 0.342049 15.1394 0.510992 15.1394H1.43705C1.60287 15.1394 1.74053 15.274 1.74053 15.4429C1.74053 15.6118 1.606 15.7464 1.43705 15.7464H1.43392ZM19.489 15.7464H18.6224C18.4566 15.7464 18.3189 15.6118 18.3189 15.4429C18.3189 15.274 18.4534 15.1394 18.6224 15.1394H19.489C19.6548 15.1394 19.7925 15.274 19.7925 15.4429C19.7925 15.6118 19.6579 15.7464 19.489 15.7464ZM9.99999 1.93054C9.83417 1.93054 9.69652 1.79601 9.69652 1.62706V0.747931C9.69652 0.582116 9.83105 0.444458 9.99999 0.444458C10.1689 0.444458 10.3035 0.578987 10.3035 0.747931V1.63019C10.3035 1.79601 10.1689 1.93366 9.99999 1.93366V1.93054Z" fill="#6F1240"/>
</g>
<defs>
<clipPath id="clip0_25_22339">
<rect width="19.5849" height="30" fill="white" transform="translate(0.20752 0.444458)"/>
</clipPath>
</defs>
</svg>
