<svg width="75" height="120" viewBox="0 0 75 120" fill="none" xmlns="http://www.w3.org/2000/svg">
<path fill-rule="evenodd" clip-rule="evenodd" d="M73.5246 117.661C71.0744 115.623 67.9569 114.718 64.9289 113.835C58.4564 111.958 52.3378 110.179 51.0836 98.4896C56.2885 97.8355 61.0857 99.0631 64.9871 102.056C69.4306 105.466 72.4227 110.963 73.5246 117.661ZM53.7846 22.9098C58.219 22.9098 62.2996 21.5568 65.7397 18.9133C70.8371 15.0019 74.1248 8.52778 74.9983 0.687087C75.0296 0.418263 74.8773 0.1584 74.631 0.050871C74.3801 -0.0566584 74.0935 0.0105475 73.9143 0.212165C71.5716 2.93176 68.1764 3.91745 64.5795 4.96138C58.2235 6.8073 51.0209 8.89965 49.798 21.8525C47.1463 24.4825 44.7857 27.211 42.7253 30.0247C44.2662 23.9717 42.4431 19.5764 40.8037 15.6158C39.2763 11.9329 37.834 8.45161 39.2897 4.09667C39.3703 3.85024 39.2897 3.58142 39.0926 3.42013C38.8911 3.25883 38.6089 3.23643 38.3894 3.37084C29.1711 8.87725 26.8688 17.5334 32.2215 26.5255C32.5798 27.1304 32.9516 27.7307 33.3233 28.3266C35.0434 31.109 36.6962 33.7793 37.059 36.6109C37.3099 38.5509 37.0053 39.5635 36.2797 41.2705C35.3972 43.3494 34.6582 45.4641 34.0759 47.5968C33.3144 44.7338 31.5048 42.5026 29.7399 40.3206C27.8452 37.9774 26.0535 35.7686 25.5877 32.8832C25.5474 32.6413 25.3682 32.4441 25.1308 32.3814C24.8934 32.3187 24.6381 32.4083 24.4903 32.6009C19.3078 39.2812 19.3526 46.2213 24.6202 51.6426C25.6325 52.6865 26.7433 53.614 27.8183 54.5101C29.731 56.1051 31.5496 57.6239 32.2125 59.3758H22.7747C22.6762 58.5872 22.385 57.8121 21.9057 57.14C21.5295 56.6114 21.0457 56.1544 20.4948 55.8094C19.7199 55.321 18.8195 55.0611 17.8789 55.0611C17.4131 55.0611 16.9562 55.1239 16.5172 55.2493C16.992 53.5826 16.5754 51.7098 15.263 50.4015C14.3313 49.4696 13.0906 48.9544 11.7737 48.9544C10.4568 48.9544 9.21603 49.4696 8.28435 50.4015C7.35267 51.3335 6.83755 52.5745 6.83755 53.8918C6.83755 54.3577 6.90026 54.8147 7.02568 55.2538C5.3594 54.7789 3.48707 55.1956 2.17913 56.5083C1.2161 57.4716 0.736816 58.7351 0.736816 59.9985C0.736816 61.262 1.2161 62.5255 2.17913 63.4888C3.48707 64.797 5.3594 65.2182 7.02568 64.7433C6.90026 65.1824 6.83755 65.6394 6.83755 66.1053C6.83755 67.4225 7.35267 68.6636 8.28435 69.5955C9.21603 70.5275 10.4568 71.0427 11.7737 71.0427C13.0906 71.0427 14.3313 70.5275 15.263 69.5955C16.5754 68.2828 16.992 66.4145 16.5172 64.7477C16.9562 64.8732 17.4131 64.9359 17.8789 64.9359C18.8195 64.9359 19.7154 64.6761 20.4948 64.1877C21.0457 63.8427 21.5295 63.3857 21.9057 62.857C22.385 62.1805 22.6762 61.4099 22.7747 60.6213H32.2125C31.5496 62.3776 29.731 63.892 27.8183 65.487C26.7433 66.3831 25.6325 67.3105 24.6202 68.3545C19.3571 73.7757 19.3078 80.7159 24.4903 87.3961C24.6426 87.5888 24.8934 87.6784 25.1308 87.6157C25.3682 87.553 25.5474 87.3603 25.5877 87.1139C26.058 84.2285 27.8452 82.0152 29.7399 79.6764C31.5048 77.4945 33.3144 75.2588 34.0759 72.4003C34.6582 74.5374 35.3972 76.6477 36.2797 78.7266C37.0053 80.4291 37.3054 81.4462 37.059 83.3862C36.6962 86.2178 35.0434 88.8881 33.3233 91.6704C32.9516 92.2708 32.5798 92.8667 32.2215 93.4715C26.8688 102.464 29.1756 111.12 38.3894 116.626C38.6089 116.761 38.8911 116.738 39.0926 116.577C39.2942 116.416 39.3748 116.142 39.2897 115.9C37.834 111.541 39.2763 108.064 40.8037 104.381C42.4431 100.425 44.2662 96.0254 42.7253 89.9724C44.7857 92.7861 47.1463 95.5146 49.798 98.1446C51.0164 111.097 58.219 113.19 64.5795 115.036C68.1764 116.08 71.5716 117.065 73.9143 119.785C74.089 119.991 74.3801 120.058 74.631 119.946C74.8773 119.839 75.0296 119.579 74.9983 119.31C74.1248 111.469 70.8371 105 65.7397 101.084C62.2996 98.4448 58.219 97.0872 53.7846 97.0872C52.7767 97.0872 51.751 97.1589 50.7073 97.2978L50.6715 97.262C46.994 93.6239 43.8854 89.7797 41.377 85.7832C45.7533 89.3899 50.779 89.3541 55.3254 89.3227C58.9223 89.2958 62.3265 89.2734 65.1215 90.9491C65.3455 91.0835 65.6322 91.0611 65.8337 90.8953C66.0353 90.7296 66.1114 90.4518 66.0219 90.2054C64.1092 84.9767 59.9883 80.9444 54.7207 79.1343C52.714 78.4443 50.6356 78.1083 48.5618 78.1083C45.1262 78.1083 41.6995 79.0402 38.6268 80.8592C35.8362 75.196 34.1968 69.2774 33.7623 63.2379C35.5719 65.8544 38.5506 66.6026 41.6547 67.3912C44.2751 68.0543 46.9806 68.7353 49.5203 70.514C49.6905 70.6305 49.901 70.6574 50.0937 70.5857C50.2863 70.514 50.4296 70.3527 50.4744 70.1511C51.0164 67.8975 50.5013 65.2272 49.1306 63.1841C48.5707 62.3507 47.7152 61.3875 46.4431 60.6213H53.6412C53.7756 61.7056 54.2638 62.7092 55.0477 63.4932C56.9738 65.4198 60.1003 65.4153 62.0264 63.4932C62.9894 62.53 63.4687 61.2665 63.4687 60.003C63.4687 58.7395 62.9894 57.4761 62.0264 56.5128C60.1003 54.5907 56.9738 54.5862 55.0477 56.5128C54.2638 57.2969 53.7756 58.3005 53.6412 59.3847H46.4431C47.7152 58.6186 48.5752 57.6553 49.1306 56.8219C50.5013 54.7744 51.0164 52.1041 50.4744 49.8549C50.4251 49.6578 50.2818 49.492 50.0937 49.4203C49.901 49.3486 49.686 49.3755 49.5203 49.492C46.9806 51.2662 44.2706 51.9517 41.6547 52.6148C38.5462 53.3989 35.5719 54.1516 33.7623 56.7682C34.1968 50.7286 35.8362 44.81 38.6268 39.1468C41.704 40.9658 45.1306 41.8977 48.5618 41.8977C50.6356 41.8977 52.714 41.5572 54.7207 40.8717C59.9928 39.0661 64.1092 35.0293 66.0219 29.8007C66.1114 29.5543 66.0353 29.2765 65.8337 29.1107C65.6322 28.9449 65.3455 28.9225 65.1215 29.0569C62.322 30.7326 58.9223 30.7057 55.3254 30.6833C50.779 30.6564 45.7533 30.6206 41.377 34.2228C43.8854 30.2263 46.994 26.3866 50.6715 22.7441L50.7073 22.7082C51.7465 22.8471 52.7722 22.9188 53.7846 22.9188V22.9098ZM1.97757 59.9941C1.97757 59.0487 2.33591 58.0988 3.05707 57.3775C3.75135 56.683 4.68751 56.2977 5.67295 56.2977C6.65838 56.2977 7.56767 56.6562 8.28883 57.3775C9.00999 58.0988 9.36833 59.0442 9.36833 59.9941C9.36833 60.9439 9.00999 61.8893 8.28883 62.6106C7.56767 63.332 6.62255 63.6904 5.67295 63.6904C4.72335 63.6904 3.75583 63.3051 3.05707 62.6106C2.33591 61.8893 1.97757 60.9439 1.97757 59.9941ZM10.6046 59.9941C10.6046 59.5371 10.5419 59.0756 10.4165 58.632C10.8599 58.7575 11.3213 58.8247 11.7782 58.8247C12.235 58.8247 12.6964 58.7619 13.1399 58.6365C13.0144 59.0801 12.9517 59.5415 12.9517 59.9985C12.9517 60.4555 13.0144 60.917 13.1399 61.3606C12.6964 61.2351 12.235 61.1724 11.7782 61.1724C11.3213 61.1724 10.8599 61.2351 10.4165 61.3651C10.5419 60.9215 10.6046 60.46 10.6046 60.003V59.9941ZM14.1835 59.9941C14.1835 59.0487 14.5419 58.0988 15.263 57.3775C15.9618 56.6786 16.889 56.2933 17.8789 56.2933C18.5553 56.2933 19.2003 56.4725 19.7647 56.8085C20.2126 57.0773 20.6068 57.4402 20.9069 57.8703C21.3503 58.5021 21.5743 59.2458 21.5743 59.9896C21.5743 60.7333 21.3503 61.4771 20.9069 62.1088C20.6068 62.5344 20.2126 62.9018 19.7647 63.1707C19.2003 63.5067 18.5508 63.6859 17.8789 63.6859C16.8935 63.6859 15.9618 63.3006 15.263 62.6016C14.5419 61.8803 14.1835 60.9349 14.1835 59.9851V59.9941ZM33.6593 59.9941C34.797 55.6122 37.9594 54.8102 41.9549 53.8022C44.2975 53.2107 46.9223 52.5476 49.4173 51.0243C49.5741 52.7313 49.0948 54.6445 48.1049 56.123C46.9179 57.8928 45.0679 59.0218 42.7566 59.3802C42.4565 59.425 42.2326 59.6849 42.2326 59.9896C42.2326 60.2942 42.4565 60.5541 42.7566 60.5989C45.0679 60.9573 46.9179 62.0864 48.1049 63.8562C49.0948 65.3347 49.5741 67.2478 49.4173 68.9548C46.9268 67.436 44.2975 66.7729 41.9549 66.177C37.9639 65.1689 34.797 64.3669 33.6593 59.9851V59.9941ZM54.8372 59.9941C54.8372 59.0084 55.2224 58.0764 55.9212 57.3775C56.6154 56.683 57.5516 56.2977 58.537 56.2977C59.5225 56.2977 60.4318 56.6562 61.1529 57.3775C61.8741 58.0988 62.2324 59.0442 62.2324 59.9941C62.2324 60.9439 61.8741 61.8893 61.1529 62.6106C60.4318 63.332 59.4866 63.6904 58.537 63.6904C57.5874 63.6904 56.6199 63.3051 55.9212 62.6106C55.2224 61.9117 54.8372 60.9842 54.8372 59.9941ZM64.2257 89.1301C61.4351 88.0144 58.2683 88.0637 55.312 88.0861C49.7308 88.1264 43.9705 88.1668 39.3927 81.8405C43.984 79.1791 49.3815 78.6191 54.3131 80.3082C58.7117 81.8181 62.2503 84.9902 64.2257 89.1345V89.1301ZM39.5719 85.2008C40.0422 86.1864 40.4991 87.1676 40.8798 88.1936C43.3748 94.9456 41.489 99.4887 39.6615 103.897C38.2236 107.361 36.862 110.654 37.6906 114.709C30.1386 109.538 28.5171 102.101 33.283 94.0988C33.6369 93.5029 34.0042 92.907 34.3715 92.3156C36.199 89.3586 38.0758 86.3298 38.3356 83.0143C38.7298 83.7491 39.1419 84.4794 39.5719 85.2052V85.2008ZM33.0053 67.4808C33.1755 68.5337 33.2696 69.3267 33.1711 70.4155C32.862 73.8385 30.8687 76.3072 28.7724 78.8924C27.1375 80.913 25.4533 82.9919 24.6739 85.5547C22.0625 81.7329 19.5407 75.3439 25.4936 69.2102C26.4611 68.2156 27.5496 67.3061 28.5977 66.4324C30.0759 65.2003 31.5003 64.0085 32.4723 62.6688C32.5664 64.2818 32.741 65.8903 33.0008 67.4853L33.0053 67.4808ZM11.7692 69.7972C10.7838 69.7972 9.85209 69.4118 9.15332 68.7129C8.45456 68.014 8.06935 67.0865 8.06935 66.0964C8.06935 65.1062 8.45456 64.1787 9.15332 63.4798C10.5956 62.0371 12.9428 62.0371 14.3806 63.4798C15.8229 64.9225 15.8229 67.2657 14.3806 68.7084C13.6818 69.4074 12.7546 69.7927 11.7647 69.7927L11.7692 69.7972ZM11.7692 50.191C12.7546 50.191 13.6863 50.5763 14.3851 51.2752C15.8274 52.7179 15.8274 55.0656 14.3851 56.5038C12.9428 57.9465 10.6001 57.9465 9.1578 56.5038C8.45904 55.8049 8.07383 54.8774 8.07383 53.8873C8.07383 52.8971 8.45904 51.9697 9.1578 51.2707C9.85657 50.5718 10.7838 50.1865 11.7737 50.1865L11.7692 50.191ZM33.0053 52.5073C32.7455 54.1023 32.5708 55.7063 32.4768 57.3237C31.5093 55.9841 30.0804 54.7923 28.6022 53.5602C27.5496 52.6821 26.4656 51.777 25.4981 50.7824C19.5452 44.6487 22.067 38.2597 24.6784 34.4379C25.4578 37.0052 27.142 39.0841 28.7769 41.1002C30.8687 43.6854 32.8665 46.1496 33.1755 49.5771C33.2741 50.6704 33.1755 51.4589 33.0098 52.5118L33.0053 52.5073ZM39.5719 34.7874C39.1419 35.5132 38.7298 36.2435 38.3356 36.9783C38.0758 33.6628 36.199 30.634 34.3715 27.677C34.0042 27.0856 33.6369 26.4897 33.283 25.8938C28.5216 17.8918 30.1386 10.4543 37.6906 5.28397C36.8575 9.33425 38.2236 12.6273 39.6615 16.0952C41.489 20.5039 43.3748 25.047 40.8798 31.7989C40.4991 32.825 40.0422 33.8062 39.5719 34.7918V34.7874ZM64.2257 30.8581C62.2503 35.0024 58.7117 38.1745 54.3131 39.6844C49.3815 41.3735 43.984 40.8135 39.3927 38.1521C43.9705 31.8258 49.7308 31.8661 55.312 31.9065C58.2683 31.9244 61.4351 31.9782 64.2257 30.8625V30.8581ZM73.5201 2.32691C72.4182 9.0251 69.4216 14.5225 64.9827 17.9321C61.0812 20.925 56.284 22.1527 51.0791 21.4985C52.3333 9.80917 58.4519 8.03045 64.9244 6.15317C67.9524 5.27501 71.07 4.36997 73.5201 2.32691Z" fill="#6F1240"/>
</svg>
