<svg width="71" height="115" viewBox="0 0 71 115" fill="none" xmlns="http://www.w3.org/2000/svg">
<path fill-rule="evenodd" clip-rule="evenodd" d="M1.46869 114.259C1.59223 114.226 1.70203 114.165 1.804 114.075C8.70871 107.607 14.2789 100.417 18.4807 92.6153C19.7278 90.3046 20.4597 88.7532 22.3064 86.7274C26.5781 82.0565 33.1859 78.7864 41.0537 77.6068C41.1196 77.8527 41.1972 78.0954 41.2941 78.3393C42.307 80.7784 44.9778 82.0393 47.472 81.371C47.6897 81.3126 47.9101 81.241 48.1258 81.1519C49.4141 80.6184 50.4247 79.6135 50.9569 78.3289C51.495 77.0428 51.4934 75.6252 50.9609 74.3435C49.8605 71.6956 46.7984 70.433 44.1308 71.5368C42.8425 72.0702 41.8318 73.0751 41.2996 74.3597C41.069 74.9109 40.9376 75.4795 40.9082 76.052C33.2922 77.183 26.775 80.203 22.2575 84.5444C23.1356 82.3389 23.9156 80.097 24.5961 77.8127C25.3506 75.2638 25.5412 74.2339 27.3786 72.0788C30.7517 68.1256 35.3139 67.198 40.0969 66.2239C44.163 65.3979 48.3659 64.5416 52.1634 61.8425C56.7758 58.5611 58.2379 54.9818 59.5309 51.8307C61.215 47.7151 62.67 44.1566 70.3014 41.3651C70.6626 41.2307 70.8724 40.8607 70.803 40.484C70.7336 40.1073 70.4029 39.8383 70.0206 39.8466C50.0141 40.15 35.1012 48.9208 27.3136 64.7299C28.0529 58.7593 28.1612 52.5749 27.6319 46.2226C30.0453 45.2999 31.1427 40.9713 31.4878 39.2474C39.22 36.1968 44.2364 27.411 43.7329 17.72C43.6471 16.0113 43.3812 14.3131 42.9596 12.6692C42.8592 12.2945 42.5024 12.045 42.1161 12.0858C39.4697 12.3745 36.8813 13.1622 34.4565 14.3954C32.8486 8.95956 29.4967 4.09766 24.9585 0.620321C24.6491 0.383229 24.2154 0.411606 23.933 0.675503C19.7829 4.62359 16.958 9.82289 15.923 15.3959C13.3825 14.4327 10.7252 13.9275 8.06387 13.9253C7.66659 13.9251 7.34029 14.2133 7.2842 14.5923C7.0328 16.2659 6.95043 17.9821 7.03786 19.6967C7.55307 29.5728 13.6368 37.618 21.4536 39.7777C21.9822 41.4682 23.5313 45.6963 26.0604 46.3111C26.7749 54.8601 26.31 63.0788 24.7016 70.8887C24.1855 73.3862 23.5188 75.9805 22.7595 78.4177C20.3507 86.1346 16.7516 93.386 11.9964 100.088C14.1507 93.8445 14.0959 86.769 11.5613 80.5335C13.7324 79.224 14.6893 76.4891 13.6917 74.0835C12.5897 71.4297 9.53507 70.1713 6.86159 71.2767C5.57329 71.8102 4.56264 72.8151 4.03045 74.0996C3.49237 75.3858 3.49391 76.8034 4.02647 78.085C4.55903 79.3667 5.56574 80.3706 6.85442 80.8975C7.90231 81.3257 9.03334 81.4054 10.1087 81.1361C13.4131 89.2798 12.238 98.9186 7.28788 105.905C6.12467 107.54 4.70773 109.005 3.30059 110.437C2.4676 111.281 1.61225 112.112 0.736121 112.937C0.418847 113.235 0.400018 113.73 0.698853 114.045C0.901605 114.261 1.20555 114.336 1.47615 114.263L1.46869 114.259ZM9.50209 72.4955C10.681 72.7067 11.7375 73.4965 12.2316 74.6818C12.752 75.9416 12.5124 77.3297 11.7158 78.3337C10.7079 79.6077 8.96668 80.0743 7.44897 79.4456C6.54815 79.0721 5.8446 78.3759 5.47166 77.4782C5.09871 76.5805 5.09792 75.5893 5.4752 74.6914C6.13839 73.0956 7.82554 72.1918 9.50209 72.4955ZM42.7503 74.9498C43.3723 73.4592 44.8912 72.5628 46.4768 72.7153C47.7768 72.8375 48.9725 73.6528 49.5067 74.9403C49.8796 75.838 49.8804 76.8291 49.5031 77.7271C49.1258 78.6251 48.425 79.3274 47.5226 79.7009C45.6504 80.4787 43.5142 79.5891 42.7467 77.7367C42.3738 76.839 42.3746 75.8537 42.7503 74.9498ZM29.7465 39.8081C29.0547 42.6853 27.8452 44.76 26.7385 44.8181C25.6392 44.8805 24.2192 42.9457 23.2258 40.1561C24.2977 40.3207 25.3914 40.379 26.504 40.3193C27.5974 40.2585 28.6802 40.0876 29.745 39.8023L29.7465 39.8081ZM17.3992 16.0106C18.2797 10.8492 20.7912 6.00991 24.5193 2.27528C28.6163 5.58849 31.6175 10.1302 33.0301 15.1666C30.91 16.4312 28.9417 18.0504 27.2012 19.9787C26.6176 20.6245 26.0627 21.3065 25.5509 22.0084C24.9708 21.3732 24.3512 20.7549 23.6967 20.1711C21.7644 18.4425 19.6381 17.0483 17.4007 16.0165L17.3992 16.0106ZM26.5179 25.7587C29.067 29.5306 30.3517 33.8546 30.1003 38.0694C28.9057 38.4585 27.6762 38.6938 26.4264 38.7589C17.173 39.2619 9.18295 30.6671 8.60187 19.6039C8.52855 18.2243 8.57484 16.8441 8.73682 15.4956C13.6398 15.6752 18.6733 17.7774 22.6398 21.3327C24.0986 22.6359 25.4218 24.1386 26.5195 25.7645L26.5179 25.7587ZM26.6023 23.2263C27.147 22.4591 27.7423 21.7161 28.3753 21.0194C31.9492 17.0625 36.7401 14.4235 41.5878 13.7144C41.8937 15.0442 42.0834 16.4114 42.1552 17.7851C42.6088 26.4667 38.3537 34.352 31.7016 37.4333C31.8099 32.4725 29.9792 27.4289 26.6023 23.2263ZM31.1687 67.2107C29.4862 68.038 27.8967 69.1416 26.4872 70.7051C32.6995 53.3228 46.5943 43.1056 65.9556 41.5946C60.8648 44.4081 59.4466 47.8689 58.0669 51.2378C56.7982 54.3386 55.484 57.5519 51.2469 60.5633C47.7256 63.0692 43.683 63.8889 39.7848 64.6824C36.8493 65.2807 33.8829 65.8811 31.1745 67.2092L31.1687 67.2107Z" fill="#6F1240"/>
</svg>
