<svg width="71" height="115" viewBox="0 0 71 115" fill="none" xmlns="http://www.w3.org/2000/svg">
<path fill-rule="evenodd" clip-rule="evenodd" d="M69.1356 114.207C69.0126 114.175 68.9034 114.114 68.802 114.024C61.9362 107.566 56.3999 100.386 52.2264 92.5911C50.9876 90.2827 50.261 88.7327 48.425 86.7098C44.1783 82.0456 37.6042 78.7845 29.7733 77.6148C29.7074 77.8607 29.6298 78.1034 29.5331 78.3473C28.5217 80.7869 25.8616 82.0506 23.3794 81.3855C23.1628 81.3275 22.9434 81.2562 22.7288 81.1673C21.447 80.6356 20.4421 79.6322 19.9138 78.3487C19.3797 77.0636 19.383 75.6464 19.9147 74.3646C21.0134 71.7162 24.0632 70.4503 26.7174 71.5505C28.0051 72.0837 29.0041 73.0856 29.5324 74.3691C29.7613 74.9198 29.8914 75.488 29.92 76.0604C37.5003 77.1817 43.9845 80.1929 48.4764 84.5275C47.6049 82.3238 46.8311 80.0835 46.1565 77.8007C45.4084 75.2536 45.2199 74.2243 43.3934 72.0721C40.0402 68.1242 35.4997 67.2025 30.7395 66.2344C26.6927 65.4136 22.5098 64.5626 18.7327 61.869C14.145 58.5942 12.6939 55.0179 11.4105 51.8693C9.73898 47.7571 8.29483 44.2015 0.695384 41.4186C0.33598 41.2846 0.127555 40.9151 0.197108 40.5384C0.266661 40.1617 0.596096 39.8924 0.976733 39.9002C20.8926 40.1794 35.7277 48.9294 43.4611 64.724C42.7324 58.7561 42.632 52.5739 43.1667 46.223C40.7652 45.3035 39.678 40.9776 39.3365 39.2547C31.6429 36.2144 26.6597 27.4376 27.1726 17.7491C27.2601 16.0408 27.5269 14.3428 27.9485 12.6989C28.0489 12.3243 28.4045 12.0744 28.789 12.1147C31.4231 12.4001 33.9989 13.1844 36.4113 14.4144C38.0184 8.9783 41.3611 4.11393 45.883 0.632233C46.1913 0.394845 46.6231 0.42269 46.9039 0.68616C51.0304 4.62796 53.8363 9.82216 54.8599 15.3922C57.3901 14.4262 60.0361 13.9179 62.6855 13.9125C63.0809 13.9118 63.4054 14.1995 63.4608 14.5783C63.709 16.2511 63.789 17.9666 63.6999 19.6808C63.175 29.5543 57.109 37.6043 49.3248 39.7727C48.7966 41.4633 47.2494 45.6919 44.7309 46.3096C44.0094 54.8567 44.4622 63.0722 46.0539 70.8775C46.5647 73.3736 47.2253 75.9663 47.9782 78.4018C50.3668 86.1132 53.9409 93.358 58.6666 100.052C56.5295 93.8132 56.5927 86.7399 59.1233 80.5034C56.9636 79.1969 56.0143 76.4641 57.0103 74.058C58.1106 71.4038 61.153 70.1421 63.813 71.2439C65.0949 71.7756 66.0998 72.779 66.628 74.0625C67.1621 75.3476 67.1588 76.7647 66.6271 78.0466C66.0954 79.3284 65.0921 80.3333 63.8086 80.8616C62.7649 81.2909 61.6388 81.372 60.5687 81.104C57.2693 89.249 58.4275 98.8833 63.3468 105.861C64.5028 107.495 65.9116 108.958 67.3107 110.387C68.1389 111.23 68.9894 112.06 69.8606 112.883C70.176 113.181 70.1942 113.675 69.8963 113.991C69.6942 114.207 69.3916 114.282 69.1223 114.21L69.1356 114.207ZM61.1888 72.467C60.015 72.6796 58.9623 73.4704 58.469 74.6559C57.9494 75.9159 58.1863 77.3033 58.978 78.306C59.9798 79.5784 61.7127 80.0427 63.2243 79.4125C64.1215 79.038 64.8227 78.3411 65.1951 77.4433C65.5674 76.5454 65.5694 75.5545 65.1949 74.6573C64.5366 73.0629 62.8582 72.1614 61.1888 72.467ZM28.0876 74.9608C27.4701 73.4714 25.9592 72.5771 24.3806 72.7314C23.0862 72.8552 21.8949 73.6716 21.3616 74.9593C20.9893 75.8572 20.9873 76.8481 21.3618 77.7453C21.7363 78.6425 22.4331 79.3437 23.331 79.7161C25.1939 80.4913 27.3215 79.5994 28.0877 77.7467C28.4601 76.8488 28.4605 75.8638 28.0876 74.9608ZM41.0751 39.8147C41.7603 42.6901 42.9619 44.7626 44.0635 44.8194C45.1578 44.8804 46.5738 42.9445 47.566 40.1547C46.4988 40.3205 45.4099 40.3801 44.3024 40.3218C43.214 40.2623 42.1363 40.0928 41.0767 39.8089L41.0751 39.8147ZM53.3956 16.01C52.5253 10.8513 50.0309 6.01661 46.3242 2.2877C42.2416 5.60478 39.2484 10.1487 37.8361 15.1852C39.9451 16.4467 41.9027 18.063 43.633 19.9886C44.2131 20.6335 44.7647 21.3146 45.2734 22.0156C45.8516 21.38 46.4691 20.7611 47.1214 20.1767C49.047 18.4464 51.1655 17.0501 53.394 16.0158L53.3956 16.01ZM44.3061 25.7659C41.764 29.5396 40.4798 33.8638 40.725 38.077C41.9138 38.4645 43.1374 38.6983 44.3816 38.7618C53.5926 39.2535 61.5571 30.6518 62.1489 19.5915C62.2235 18.2123 62.1791 16.8325 62.0195 15.4847C57.1384 15.6701 52.125 17.7778 48.1722 21.3367C46.7183 22.6412 45.3993 24.1451 44.3046 25.7718L44.3061 25.7659ZM44.2252 23.2344C43.6839 22.4682 43.0921 21.7261 42.4628 21.0304C38.9098 17.0791 34.1437 14.4468 29.3188 13.7437C29.0127 15.0735 28.8221 16.4405 28.749 17.8138C28.2869 26.4932 32.5075 34.3692 39.1318 37.443C39.03 32.4839 40.8584 27.4397 44.2252 23.2344ZM39.6263 67.2102C41.3002 68.0351 42.8812 69.1364 44.2824 70.6978C38.1192 53.3286 24.2993 43.1314 5.02707 41.6443C10.0916 44.4508 11.4991 47.9087 12.8686 51.2749C14.1278 54.3731 15.4322 57.5838 19.6466 60.5892C23.1491 63.09 27.1724 63.9045 31.0521 64.6931C33.9736 65.2877 36.9259 65.8842 39.6205 67.2086L39.6263 67.2102Z" fill="#6F1240"/>
</svg>
