<svg width="75" height="120" viewBox="0 0 75 120" fill="none" xmlns="http://www.w3.org/2000/svg">
<path fill-rule="evenodd" clip-rule="evenodd" d="M1.48019 117.661C3.93034 115.623 7.0479 114.718 10.0759 113.835C16.5484 111.958 22.667 110.179 23.9212 98.4896C18.7163 97.8355 13.9191 99.0631 10.0176 102.056C5.57422 105.466 2.58209 110.963 1.48019 117.661ZM21.2202 22.9098C16.7858 22.9098 12.7052 21.5568 9.26511 18.9133C4.16773 15.0019 0.879967 8.52778 0.00651382 0.687087C-0.0248409 0.418263 0.127457 0.1584 0.373815 0.050871C0.624653 -0.0566584 0.911314 0.0105475 1.09048 0.212165C3.43313 2.93176 6.82841 3.91745 10.4253 4.96138C16.7813 6.8073 23.9839 8.89965 25.2068 21.8525C27.8585 24.4825 30.219 27.211 32.2795 30.0247C30.7386 23.9717 32.5617 19.5764 34.2011 15.6158C35.7285 11.9329 37.1708 8.45161 35.7151 4.09667C35.6345 3.85024 35.7151 3.58142 35.9122 3.42013C36.1137 3.25883 36.3959 3.23643 36.6154 3.37084C45.8337 8.87725 48.136 17.5334 42.7833 26.5255C42.425 27.1304 42.0532 27.7307 41.6814 28.3266C39.9614 31.109 38.3086 33.7793 37.9413 36.6109C37.6904 38.5509 37.995 39.5635 38.7207 41.2705C39.6031 43.3494 40.3422 45.4641 40.9245 47.5968C41.6859 44.7338 43.4955 42.5026 45.2604 40.3206C47.1551 37.9774 48.9468 35.7686 49.4126 32.8832C49.4529 32.6413 49.6321 32.4441 49.8695 32.3814C50.1069 32.3187 50.3622 32.4083 50.51 32.6009C55.6925 39.2812 55.6477 46.2213 50.3801 51.6426C49.3678 52.6865 48.257 53.614 47.182 54.5101C45.2693 56.1051 43.4508 57.6239 42.7878 59.3758H52.2256C52.3241 58.5872 52.6153 57.8121 53.0946 57.14C53.4708 56.6114 53.9546 56.1544 54.5055 55.8094C55.2804 55.321 56.1808 55.0611 57.1214 55.0611C57.5873 55.0611 58.0441 55.1239 58.4831 55.2493C58.0083 53.5826 58.4249 51.7098 59.7373 50.4015C60.669 49.4696 61.9097 48.9544 63.2266 48.9544C64.5435 48.9544 65.7843 49.4696 66.716 50.4015C67.6476 51.3335 68.1628 52.5745 68.1628 53.8918C68.1628 54.3577 68.1 54.8147 67.9746 55.2538C69.6409 54.7789 71.5132 55.1956 72.8212 56.5083C73.7842 57.4716 74.2635 58.7351 74.2635 59.9985C74.2635 61.262 73.7842 62.5255 72.8212 63.4888C71.5132 64.797 69.6409 65.2182 67.9746 64.7433C68.1 65.1824 68.1628 65.6394 68.1628 66.1053C68.1628 67.4225 67.6476 68.6636 66.716 69.5955C65.7843 70.5275 64.5435 71.0427 63.2266 71.0427C61.9097 71.0427 60.669 70.5275 59.7373 69.5955C58.4249 68.2828 58.0083 66.4145 58.4831 64.7477C58.0441 64.8732 57.5873 64.9359 57.1214 64.9359C56.1808 64.9359 55.2849 64.6761 54.5055 64.1877C53.9546 63.8427 53.4708 63.3857 53.0946 62.857C52.6153 62.1805 52.3241 61.4099 52.2256 60.6213H42.7878C43.4508 62.3776 45.2693 63.892 47.182 65.487C48.257 66.3831 49.3678 67.3105 50.3801 68.3545C55.6433 73.7757 55.6925 80.7159 50.51 87.3961C50.3577 87.5888 50.1069 87.6784 49.8695 87.6157C49.6321 87.553 49.4529 87.3603 49.4126 87.1139C48.9423 84.2285 47.1551 82.0152 45.2604 79.6764C43.4955 77.4945 41.6859 75.2588 40.9245 72.4003C40.3422 74.5374 39.6031 76.6477 38.7207 78.7266C37.995 80.4291 37.6949 81.4462 37.9413 83.3862C38.3041 86.2178 39.9569 88.8881 41.6814 91.6704C42.0532 92.2708 42.4205 92.8667 42.7833 93.4715C48.136 102.464 45.8292 111.12 36.6154 116.626C36.3959 116.761 36.1137 116.738 35.9122 116.577C35.7106 116.416 35.63 116.142 35.7151 115.9C37.1708 111.541 35.7285 108.064 34.2011 104.381C32.5617 100.425 30.7386 96.0254 32.2795 89.9724C30.219 92.7861 27.8585 95.5146 25.2068 98.1446C23.9884 111.097 16.7858 113.19 10.4253 115.036C6.82841 116.08 3.43313 117.065 1.09048 119.785C0.915794 119.991 0.624653 120.058 0.373815 119.946C0.127457 119.839 -0.0248409 119.579 0.00651382 119.31C0.879967 111.469 4.16773 105 9.26511 101.084C12.7052 98.4448 16.7858 97.0872 21.2202 97.0872C22.2281 97.0872 23.2538 97.1589 24.2975 97.2978L24.3333 97.262C28.0108 93.6239 31.1194 89.7797 33.6278 85.7832C29.2515 89.3899 24.2258 89.3541 19.6794 89.3227C16.0825 89.2958 12.6783 89.2734 9.88325 90.9491C9.65929 91.0835 9.37262 91.0611 9.17105 90.8953C8.96949 90.7296 8.89335 90.4518 8.98293 90.2054C10.8956 84.9767 15.0165 80.9444 20.2841 79.1343C22.2908 78.4443 24.3691 78.1083 26.443 78.1083C29.8786 78.1083 33.3053 79.0402 36.378 80.8592C39.1686 75.196 40.808 69.2774 41.2425 63.2379C39.4329 65.8544 36.4542 66.6026 33.35 67.3912C30.7297 68.0543 28.0242 68.7353 25.4845 70.514C25.3143 70.6305 25.1037 70.6574 24.9111 70.5857C24.7185 70.514 24.5752 70.3527 24.5304 70.1511C23.9884 67.8975 24.5035 65.2272 25.8742 63.1841C26.4341 62.3507 27.2896 61.3875 28.5617 60.6213H21.3636C21.2292 61.7056 20.741 62.7092 19.9571 63.4932C18.031 65.4198 14.9045 65.4153 12.9784 63.4932C12.0154 62.53 11.5361 61.2665 11.5361 60.003C11.5361 58.7395 12.0154 57.4761 12.9784 56.5128C14.9045 54.5907 18.031 54.5862 19.9571 56.5128C20.741 57.2969 21.2292 58.3005 21.3636 59.3847H28.5617C27.2896 58.6186 26.4296 57.6553 25.8742 56.8219C24.5035 54.7744 23.9884 52.1041 24.5304 49.8549C24.5797 49.6578 24.723 49.492 24.9111 49.4203C25.1037 49.3486 25.3187 49.3755 25.4845 49.492C28.0242 51.2662 30.7342 51.9517 33.35 52.6148C36.4586 53.3989 39.4329 54.1516 41.2425 56.7682C40.808 50.7286 39.1686 44.81 36.378 39.1468C33.3008 40.9658 29.8741 41.8977 26.443 41.8977C24.3691 41.8977 22.2908 41.5572 20.2841 40.8717C15.012 39.0661 10.8956 35.0293 8.98293 29.8007C8.89335 29.5543 8.96949 29.2765 9.17105 29.1107C9.37262 28.9449 9.65929 28.9225 9.88325 29.0569C12.6828 30.7326 16.0825 30.7057 19.6794 30.6833C24.2258 30.6564 29.2515 30.6206 33.6278 34.2228C31.1194 30.2263 28.0108 26.3866 24.3333 22.7441L24.2975 22.7082C23.2583 22.8471 22.2325 22.9188 21.2202 22.9188V22.9098ZM73.0272 59.9941C73.0272 59.0487 72.6689 58.0988 71.9477 57.3775C71.2534 56.683 70.3173 56.2977 69.3318 56.2977C68.3464 56.2977 67.4371 56.6562 66.716 57.3775C65.9948 58.0988 65.6365 59.0442 65.6365 59.9941C65.6365 60.9439 65.9948 61.8893 66.716 62.6106C67.4371 63.332 68.3822 63.6904 69.3318 63.6904C70.2814 63.6904 71.249 63.3051 71.9477 62.6106C72.6689 61.8893 73.0272 60.9439 73.0272 59.9941ZM64.4002 59.9941C64.4002 59.5371 64.4629 59.0756 64.5883 58.632C64.1449 58.7575 63.6835 58.8247 63.2266 58.8247C62.7697 58.8247 62.3084 58.7619 61.8649 58.6365C61.9904 59.0801 62.0531 59.5415 62.0531 59.9985C62.0531 60.4555 61.9904 60.917 61.8649 61.3606C62.3084 61.2351 62.7697 61.1724 63.2266 61.1724C63.6835 61.1724 64.1449 61.2351 64.5883 61.3651C64.4629 60.9215 64.4002 60.46 64.4002 60.003V59.9941ZM60.8213 59.9941C60.8213 59.0487 60.4629 58.0988 59.7418 57.3775C59.043 56.6786 58.1158 56.2933 57.1259 56.2933C56.4495 56.2933 55.8045 56.4725 55.2401 56.8085C54.7922 57.0773 54.398 57.4402 54.0979 57.8703C53.6545 58.5021 53.4305 59.2458 53.4305 59.9896C53.4305 60.7333 53.6545 61.4771 54.0979 62.1088C54.398 62.5344 54.7922 62.9018 55.2401 63.1707C55.8045 63.5067 56.454 63.6859 57.1259 63.6859C58.1113 63.6859 59.043 63.3006 59.7418 62.6016C60.4629 61.8803 60.8213 60.9349 60.8213 59.9851V59.9941ZM41.3455 59.9941C40.2078 55.6122 37.0454 54.8102 33.0499 53.8022C30.7073 53.2107 28.0824 52.5476 25.5875 51.0243C25.4307 52.7313 25.91 54.6445 26.8999 56.123C28.0869 57.8928 29.9369 59.0218 32.2481 59.3802C32.5483 59.425 32.7722 59.6849 32.7722 59.9896C32.7722 60.2942 32.5483 60.5541 32.2481 60.5989C29.9369 60.9573 28.0869 62.0864 26.8999 63.8562C25.91 65.3347 25.4307 67.2478 25.5875 68.9548C28.078 67.436 30.7073 66.7729 33.0499 66.177C37.0454 65.1689 40.2078 64.3669 41.3455 59.9851V59.9941ZM20.1676 59.9941C20.1676 59.0084 19.7824 58.0764 19.0836 57.3775C18.3893 56.683 17.4532 56.2977 16.4678 56.2977C15.4823 56.2977 14.573 56.6562 13.8519 57.3775C13.1307 58.0988 12.7724 59.0442 12.7724 59.9941C12.7724 60.9439 13.1307 61.8893 13.8519 62.6106C14.573 63.332 15.5182 63.6904 16.4678 63.6904C17.4174 63.6904 18.3849 63.3051 19.0836 62.6106C19.7824 61.9117 20.1676 60.9842 20.1676 59.9941ZM10.7791 89.1301C13.5697 88.0144 16.7365 88.0637 19.6928 88.0861C25.274 88.1264 31.0343 88.1668 35.6121 81.8405C31.0208 79.1791 25.6233 78.6191 20.6917 80.3082C16.2931 81.8181 12.7544 84.9902 10.7791 89.1345V89.1301ZM35.4329 85.2008C34.9626 86.1864 34.5057 87.1676 34.1249 88.1936C31.63 94.9456 33.5158 99.4887 35.3433 103.897C36.7811 107.361 38.1428 110.654 37.3142 114.709C44.8662 109.538 46.4877 102.101 41.7218 94.0988C41.3679 93.5029 41.0006 92.907 40.6333 92.3156C38.8058 89.3586 36.929 86.3298 36.6692 83.0143C36.275 83.7491 35.8629 84.4794 35.4329 85.2052V85.2008ZM41.9995 67.4808C41.8293 68.5337 41.7352 69.3267 41.8337 70.4155C42.1428 73.8385 44.1361 76.3072 46.2324 78.8924C47.8673 80.913 49.5515 82.9919 50.3309 85.5547C52.9423 81.7329 55.4641 75.3439 49.5112 69.2102C48.5436 68.2156 47.4552 67.3061 46.407 66.4324C44.9289 65.2003 43.5045 64.0085 42.5325 62.6688C42.4384 64.2818 42.2637 65.8903 42.004 67.4853L41.9995 67.4808ZM63.2356 69.7972C64.221 69.7972 65.1527 69.4118 65.8515 68.7129C66.5502 68.014 66.9354 67.0865 66.9354 66.0964C66.9354 65.1062 66.5502 64.1787 65.8515 63.4798C64.4091 62.0371 62.062 62.0371 60.6242 63.4798C59.1819 64.9225 59.1819 67.2657 60.6242 68.7084C61.3229 69.4074 62.2501 69.7927 63.2401 69.7927L63.2356 69.7972ZM63.2356 50.191C62.2502 50.191 61.3185 50.5763 60.6197 51.2752C59.1774 52.7179 59.1774 55.0656 60.6197 56.5038C62.062 57.9465 64.4047 57.9465 65.847 56.5038C66.5457 55.8049 66.931 54.8774 66.931 53.8873C66.931 52.8971 66.5457 51.9697 65.847 51.2707C65.1482 50.5718 64.221 50.1865 63.2311 50.1865L63.2356 50.191ZM41.9995 52.5073C42.2593 54.1023 42.434 55.7063 42.528 57.3237C43.4955 55.9841 44.9244 54.7923 46.4026 53.5602C47.4552 52.6821 48.5392 51.777 49.5067 50.7824C55.4596 44.6487 52.9378 38.2597 50.3264 34.4379C49.547 37.0052 47.8628 39.0841 46.2279 41.1002C44.1361 43.6854 42.1383 46.1496 41.8293 49.5771C41.7307 50.6704 41.8293 51.4589 41.995 52.5118L41.9995 52.5073ZM35.4329 34.7874C35.8629 35.5132 36.275 36.2435 36.6692 36.9783C36.929 33.6628 38.8058 30.634 40.6333 27.677C41.0006 27.0856 41.3679 26.4897 41.7218 25.8938C46.4832 17.8918 44.8662 10.4543 37.3142 5.28397C38.1473 9.33425 36.7811 12.6273 35.3433 16.0952C33.5158 20.5039 31.63 25.047 34.1249 31.7989C34.5057 32.825 34.9626 33.8062 35.4329 34.7918V34.7874ZM10.7791 30.8581C12.7544 35.0024 16.2931 38.1745 20.6917 39.6844C25.6233 41.3735 31.0208 40.8135 35.6121 38.1521C31.0343 31.8258 25.274 31.8661 19.6928 31.9065C16.7365 31.9244 13.5697 31.9782 10.7791 30.8625V30.8581ZM1.48466 2.32691C2.58656 9.0251 5.58317 14.5225 10.0221 17.9321C13.9235 20.925 18.7208 22.1527 23.9257 21.4985C22.6715 9.80917 16.5529 8.03045 10.0803 6.15317C7.04789 5.27501 3.93481 4.36997 1.48466 2.32691Z" fill="#6F1240"/>
</svg>
