<svg width="70" height="34" viewBox="0 0 70 34" fill="none" xmlns="http://www.w3.org/2000/svg">
<path fill-rule="evenodd" clip-rule="evenodd" d="M69.9972 10.8177C69.9972 10.683 69.9355 10.5484 69.8205 10.4587C69.6214 10.3044 69.3353 10.3409 69.181 10.54C66.7773 13.6477 63.5995 16.3852 59.9281 18.6178C59.2156 18.4915 58.2368 18.1269 57.0195 17.6697C53.5388 16.3683 48.277 14.4022 41.5063 15.1258C41.2847 15.1482 41.1136 15.3278 41.0996 15.5493C41.0743 15.7681 41.2342 15.97 41.4502 16.0205C42.5497 16.2786 43.7613 16.7919 45.1665 17.3837C48.4705 18.7748 52.4673 20.4605 57.5272 19.9669C53.7912 21.9078 49.6542 23.3466 45.3657 24.1572C43.0517 23.2092 40.7855 20.9878 38.1714 18.4214C34.5925 14.9098 30.5368 10.9327 25.0591 8.99738C24.8656 8.93007 24.6524 8.99737 24.5346 9.16566C24.4196 9.33114 24.4252 9.55833 24.5542 9.7154C25.118 10.4054 25.7406 11.2664 26.3998 12.1836C29.5187 16.5114 34.0624 22.8137 42.2187 24.6396C33.7567 25.6101 24.9637 24.0787 17.7134 19.1198C18.2855 18.4747 18.6109 17.681 18.681 16.7806C20.0189 15.5353 20.5294 14.0516 20.5294 12.4977C20.5294 9.28066 18.3529 5.74384 16.8495 3.30368C16.1932 2.23787 15.5733 1.22815 15.5369 0.855111C15.5228 0.703653 15.4331 0.569024 15.2985 0.4961C15.1638 0.423176 15.0012 0.423176 14.8693 0.4961C12.9284 1.53667 11.7785 4.77619 11.9131 7.24159C9.86841 6.06919 7.47314 5.26142 4.89274 5.08752C4.76092 5.07911 4.6319 5.12678 4.53934 5.22214C4.44678 5.3147 4.40191 5.44653 4.40752 5.57555C4.61226 8.3635 5.47053 11.0561 6.67097 13.3672C3.86339 12.9381 0.921179 14.1918 0.0348694 16.3403C-0.0240308 16.4805 -0.0072022 16.6404 0.0769411 16.7666C0.161084 16.8928 0.304128 16.9685 0.455586 16.9685C1.41201 16.9685 2.9883 17.8436 4.65434 18.772C7.89105 20.5699 11.9019 22.7997 14.5973 20.4465C15.478 20.497 16.2942 20.2614 17.015 19.7509C20.7397 22.3369 24.8712 24.031 29.1597 24.9537C22.1225 25.4474 18.2771 26.9788 15.0797 28.2494C13.7446 28.7795 12.4853 29.2815 11.1334 29.6602C10.9118 29.7219 10.7744 29.9378 10.8052 30.165C10.8389 30.3922 11.038 30.5577 11.268 30.5521C11.8458 30.5381 12.4572 30.5268 13.0883 30.5156C20.5967 30.3726 30.8425 30.179 34.3036 25.6914C39.6607 26.1009 45.1132 25.4278 50.2095 23.8963C46.1398 27.3266 45.3685 29.9603 44.6813 32.3219C44.6 32.6024 44.5186 32.8829 44.4317 33.1549C44.37 33.3484 44.4457 33.5616 44.6168 33.671C44.7879 33.7832 45.0123 33.7664 45.1637 33.6345C45.5844 33.2671 46.0669 32.88 46.5801 32.4649C49.3064 30.2688 53.0115 27.2845 53.0115 23.0381L53.0115 22.9539C59.8972 20.3876 65.9331 16.2393 69.9046 11.1038C69.9691 11.0196 70 10.9243 70 10.8261L69.9972 10.8177ZM16.2857 15.5774L16.2857 15.5914C16.2661 16.1776 16.0053 16.7386 15.5621 17.1368C15.1161 17.5267 14.5271 17.7202 13.9466 17.6697C13.6969 17.6501 13.509 17.4341 13.5315 17.1761C13.5539 16.9265 13.7727 16.7414 14.0251 16.761C14.3561 16.789 14.7067 16.6712 14.9591 16.4525C15.2087 16.2281 15.363 15.8943 15.3742 15.5606C15.3826 15.3081 15.593 15.1118 15.8426 15.1202C16.0894 15.1286 16.2829 15.3306 16.2829 15.5746L16.2857 15.5774ZM45.7275 31.9741C46.4259 29.663 47.4776 27.0377 52.0775 23.5626C51.7858 27.0966 48.6024 29.6574 46.0079 31.7497C45.9126 31.8254 45.82 31.9012 45.7275 31.9769L45.7275 31.9741ZM43.9268 15.8859C49.3821 15.7877 53.7127 17.4061 56.7026 18.5224C57.1653 18.6963 57.5973 18.8562 57.9956 18.9964C52.8881 19.6499 48.8436 17.9446 45.5227 16.545C44.9646 16.3094 44.4345 16.085 43.9296 15.8859L43.9268 15.8859ZM14.1737 29.576C14.5832 29.4189 14.9955 29.2535 15.4163 29.088C19.2812 27.551 23.6455 25.8148 33.0695 25.6998C29.5944 29.0936 20.6977 29.4442 14.1737 29.5788L14.1737 29.576ZM26.2764 10.4615C30.8229 12.4865 34.3681 15.9644 37.5319 19.0693C39.456 20.9598 41.1978 22.6651 42.9423 23.8543C34.7804 22.2499 30.2339 15.9448 27.1374 11.6451C26.8429 11.2356 26.5568 10.8373 26.2764 10.4587L26.2764 10.4615ZM18.6193 15.496C18.5632 15.1539 18.4763 14.8033 18.3585 14.4414C17.5956 12.1135 15.6238 9.66211 12.9032 7.84461C12.5386 5.89529 13.3688 2.85492 14.8385 1.6124C15.0657 2.12287 15.478 2.80163 16.0782 3.77488C18.0331 6.95269 21.2165 12.1219 18.6221 15.496L18.6193 15.496ZM7.25997 14.4134C8.88674 17.1509 10.9707 19.2124 12.8948 20.0201C13.0462 20.0847 13.2005 20.1408 13.3491 20.1912C11.125 21.316 7.94434 19.5489 5.09749 17.967C3.59413 17.1312 2.25906 16.388 1.1708 16.1383C2.25625 14.5621 4.93481 13.7655 7.25717 14.4134L7.25997 14.4134ZM5.36675 6.03554C11.3157 6.66381 16.2577 10.9607 17.4918 14.7247C18.0612 16.4665 17.7835 17.9194 16.7065 18.8281C15.7584 19.6275 14.5973 19.7481 13.2482 19.1815C9.89646 17.7735 6.01465 12.2117 5.36675 6.03554Z" fill="#6F1240"/>
</svg>
