<svg width="70" height="44" viewBox="0 0 70 44" fill="none" xmlns="http://www.w3.org/2000/svg">
<path fill-rule="evenodd" clip-rule="evenodd" d="M1.3643 42.9566C2.55347 41.5274 3.08141 39.7088 3.59628 37.9425C4.69136 34.1668 5.72895 30.5976 12.5477 29.866C12.9293 32.9022 12.2132 35.7006 10.4673 37.9764C8.47842 40.5684 5.27158 42.3138 1.3643 42.9566ZM56.6359 31.4416C56.6359 34.0283 57.4252 36.4087 58.9672 38.4154C61.2489 41.3889 65.0255 43.3067 69.5992 43.8163C69.756 43.8345 69.9076 43.7457 69.9703 43.602C70.033 43.4557 69.9938 43.2884 69.8762 43.1839C68.2898 41.8174 67.7148 39.8368 67.1059 37.7387C66.0291 34.031 64.8085 29.8294 57.2527 29.1161C55.7186 27.5693 54.1269 26.1923 52.4856 24.9903C56.0165 25.8892 58.5804 24.8257 60.8908 23.8694C63.0392 22.9784 65.0699 22.1371 67.6103 22.9863C67.754 23.0333 67.9108 22.9863 68.0049 22.8713C68.099 22.7537 68.1121 22.5891 68.0337 22.4611C64.8216 17.0837 59.7722 15.7407 54.5268 18.8631C54.174 19.0721 53.8237 19.289 53.4761 19.5059C51.8531 20.5092 50.2954 21.4734 48.6437 21.685C47.512 21.8314 46.9213 21.6537 45.9255 21.2304C44.7129 20.7156 43.4792 20.2845 42.2352 19.9448C43.9053 19.5007 45.2068 18.445 46.4796 17.4156C47.8465 16.3103 49.135 15.2652 50.8181 14.9934C50.9593 14.9699 51.0743 14.8654 51.1109 14.7269C51.1474 14.5884 51.0952 14.4395 50.9828 14.3533C47.086 11.3301 43.0376 11.3563 39.8751 14.429C39.2662 15.0195 38.7252 15.6675 38.2025 16.2946C37.272 17.4103 36.386 18.4712 35.3641 18.8579L35.3641 13.3525C35.8241 13.295 36.2763 13.1252 36.6683 12.8456C36.9767 12.6261 37.2433 12.3439 37.4445 12.0225C37.7294 11.5705 37.881 11.0453 37.881 10.4966C37.881 10.2249 37.8444 9.95836 37.7712 9.7023C38.7435 9.97926 39.8359 9.73626 40.5991 8.97069C41.1427 8.4272 41.4433 7.70343 41.4433 6.93524C41.4433 6.16705 41.1427 5.44328 40.5991 4.8998C40.0555 4.35631 39.3315 4.05583 38.5631 4.05583C38.2913 4.05583 38.0247 4.09241 37.7686 4.16557C38.0457 3.19358 37.8026 2.10139 37.0368 1.33842C36.4749 0.776649 35.7379 0.497069 35.0009 0.497069C34.2638 0.497069 33.5268 0.776648 32.9649 1.33842C32.2017 2.10139 31.9561 3.19358 32.2331 4.16557C31.977 4.09241 31.7104 4.05583 31.4386 4.05583C30.6702 4.05583 29.9462 4.35631 29.4026 4.8998C28.859 5.44328 28.5584 6.16705 28.5584 6.93524C28.5584 7.70343 28.859 8.4272 29.4026 8.97069C30.1684 9.73626 31.2582 9.97926 32.2305 9.7023C32.1573 9.95836 32.1207 10.2249 32.1207 10.4966C32.1207 11.0453 32.2723 11.5679 32.5572 12.0225C32.7584 12.3439 33.025 12.6261 33.3334 12.8456C33.728 13.1252 34.1776 13.295 34.6376 13.3525L34.6376 18.8579C33.613 18.4712 32.7297 17.4103 31.7992 16.2946C31.2765 15.6675 30.7355 15.0195 30.1266 14.429C26.9641 11.3589 22.9157 11.3301 19.0189 14.3532C18.9065 14.4421 18.8543 14.5884 18.8909 14.7269C18.9274 14.8654 19.0398 14.9699 19.1836 14.9934C20.8667 15.2678 22.1578 16.3103 23.5221 17.4156C24.7949 18.445 26.0991 19.5007 27.7665 19.9448C26.5198 20.2845 25.2889 20.7156 24.0762 21.2304C23.083 21.6537 22.4897 21.8287 21.3581 21.685C19.7063 21.4734 18.1486 20.5092 16.5256 19.5059C16.1754 19.289 15.8278 19.0721 15.4749 18.8631C10.2295 15.7407 5.1801 17.0863 1.96803 22.4611C1.88963 22.5891 1.90269 22.7537 1.99678 22.8713C2.09087 22.9889 2.2503 23.0359 2.39143 22.9863C4.93443 22.1371 6.96255 22.9784 9.1109 23.8694C11.4187 24.8257 13.9852 25.8892 17.5161 24.9903C15.8748 26.1923 14.2831 27.5693 12.749 29.1161C5.19317 29.8268 3.97263 34.0283 2.89584 37.7387C2.28688 39.8368 1.7119 41.8174 0.125466 43.1839C0.00524218 43.2858 -0.0339574 43.4557 0.0313816 43.602C0.0941071 43.7457 0.245689 43.8345 0.402503 43.8162C4.97624 43.3067 8.75023 41.3889 11.0345 38.4154C12.5739 36.4087 13.3658 34.0283 13.3658 31.4416C13.3658 30.8537 13.324 30.2553 13.2429 29.6465L13.2638 29.6256C15.3861 27.4804 17.6285 25.6671 19.9598 24.2039C17.8559 26.7567 17.8768 29.6883 17.8951 32.3404C17.9108 34.4386 17.9238 36.4244 16.9464 38.0548C16.868 38.1855 16.881 38.3527 16.9777 38.4703C17.0744 38.5878 17.2365 38.6323 17.3802 38.58C20.4302 37.4643 22.7824 35.0604 23.8383 31.9877C24.2408 30.8171 24.4368 29.6047 24.4368 28.3949C24.4368 26.3909 23.8932 24.392 22.8321 22.5995C26.1356 20.9717 29.5882 20.0154 33.1112 19.7619C31.5849 20.8176 31.1485 22.5551 30.6885 24.3659C30.3017 25.8944 29.9044 27.4726 28.8668 28.9541C28.7989 29.0534 28.7832 29.1762 28.825 29.2886C28.8668 29.4009 28.9609 29.4845 29.0785 29.5107C30.3931 29.8268 31.9508 29.5263 33.1426 28.7268C33.6287 28.4002 34.1906 27.9011 34.6376 27.159L34.6376 31.358C34.0051 31.4364 33.4196 31.7212 32.9623 32.1784C31.8384 33.302 31.8411 35.1258 32.9623 36.2493C33.5242 36.8111 34.2612 37.0907 34.9982 37.0907C35.7353 37.0907 36.4723 36.8111 37.0342 36.2493C38.1554 35.1258 38.158 33.302 37.0342 32.1784C36.5768 31.7212 35.9914 31.4364 35.3589 31.358L35.3589 27.159C35.8058 27.9011 36.3677 28.4028 36.8539 28.7268C38.0483 29.5263 39.606 29.8268 40.918 29.5107C41.033 29.4819 41.1297 29.3983 41.1715 29.2886C41.2133 29.1762 41.1976 29.0508 41.1297 28.9541C40.0947 27.4726 39.6948 25.8918 39.308 24.3659C38.8506 22.5525 38.4116 20.8176 36.8852 19.7619C40.4083 20.0154 43.8608 20.9717 47.1644 22.5995C46.1033 24.3946 45.5596 26.3935 45.5596 28.3949C45.5596 29.6047 45.7583 30.8171 46.1582 31.9877C47.2114 35.0631 49.5662 37.4643 52.6163 38.58C52.76 38.6323 52.9221 38.5879 53.0188 38.4703C53.1155 38.3527 53.1285 38.1855 53.0501 38.0548C52.0726 36.4218 52.0883 34.4386 52.1014 32.3404C52.1171 29.6883 52.138 26.7567 50.0367 24.2039C52.368 25.6671 54.6078 27.4804 56.7326 29.6256L56.7535 29.6465C56.6725 30.2527 56.6307 30.8511 56.6307 31.4416L56.6359 31.4416ZM35.0035 1.22084C35.5549 1.22084 36.109 1.42987 36.5298 1.85055C36.9349 2.25555 37.1597 2.80164 37.1597 3.37648C37.1597 3.95132 36.9506 4.48173 36.5298 4.90241C36.109 5.32309 35.5575 5.53212 35.0035 5.53212C34.4494 5.53212 33.8979 5.32309 33.4771 4.90241C33.0564 4.48173 32.8473 3.93041 32.8473 3.37648C32.8473 2.82255 33.072 2.25816 33.4771 1.85055C33.8979 1.42987 34.4494 1.22084 35.0035 1.22084ZM35.0035 6.25328C35.2701 6.25328 35.5392 6.2167 35.798 6.14353C35.7248 6.40221 35.6856 6.67134 35.6856 6.93785C35.6856 7.20437 35.7222 7.4735 35.7954 7.73217C35.5366 7.65901 35.2674 7.62243 35.0009 7.62243C34.7343 7.62243 34.4651 7.65901 34.2063 7.73217C34.2795 7.4735 34.3161 7.20437 34.3161 6.93785C34.3161 6.67134 34.2795 6.40221 34.2037 6.14353C34.4625 6.2167 34.7317 6.25328 34.9982 6.25328L35.0035 6.25328ZM35.0035 8.34098C35.5549 8.34098 36.109 8.55001 36.5298 8.97069C36.9375 9.3783 37.1623 9.91917 37.1623 10.4966C37.1623 10.8912 37.0577 11.2674 36.8617 11.5966C36.7049 11.8579 36.4932 12.0879 36.2423 12.2629C35.8738 12.5216 35.4399 12.6523 35.0061 12.6523C34.5722 12.6523 34.1384 12.5216 33.7699 12.2629C33.5216 12.0879 33.3073 11.8579 33.1504 11.5966C32.9544 11.2674 32.8499 10.8886 32.8499 10.4966C32.8499 9.92178 33.0747 9.3783 33.4824 8.97069C33.9032 8.55001 34.4546 8.34098 35.0087 8.34098L35.0035 8.34098ZM35.0035 19.7018C37.5595 20.3655 38.0274 22.2102 38.6154 24.5409C38.9604 25.9075 39.3472 27.4386 40.2358 28.894C39.2401 28.9855 38.1241 28.7059 37.2616 28.1284C36.2292 27.436 35.5706 26.3569 35.3615 25.0086C35.3354 24.8336 35.1838 24.7029 35.0061 24.7029C34.8284 24.7029 34.6768 24.8336 34.6506 25.0086C34.4415 26.3569 33.7829 27.436 32.7506 28.1284C31.8881 28.7059 30.7721 28.9855 29.7763 28.894C30.6623 27.4412 31.0491 25.9075 31.3967 24.5409C31.9848 22.2128 32.4526 20.3655 35.0087 19.7018L35.0035 19.7018ZM35.0035 32.0556C35.5785 32.0556 36.1221 32.2803 36.5298 32.6879C36.9349 33.0929 37.1597 33.639 37.1597 34.2139C37.1597 34.7887 36.9506 35.3191 36.5298 35.7398C36.109 36.1605 35.5575 36.3695 35.0035 36.3695C34.4494 36.3695 33.8979 36.1605 33.4771 35.7398C33.0564 35.3191 32.8473 34.7678 32.8473 34.2139C32.8473 33.6599 33.072 33.0955 33.4771 32.6879C33.8849 32.2803 34.4259 32.0556 35.0035 32.0556ZM18.0075 37.5322C18.6582 35.9044 18.6295 34.0571 18.6164 32.3326C18.5929 29.0769 18.5694 25.7167 22.2597 23.0464C23.8122 25.7246 24.1389 28.8731 23.1536 31.7499C22.2728 34.3158 20.4224 36.3799 18.0049 37.5322L18.0075 37.5322ZM20.2996 23.1509C19.7246 23.4252 19.1522 23.6917 18.5537 23.9138C14.6151 25.3692 11.9649 24.2692 9.39316 23.2031C7.37288 22.3644 5.45191 21.5701 3.08664 22.0534C6.10269 17.6481 10.4412 16.7022 15.109 19.4824C15.4566 19.6888 15.8042 19.903 16.1492 20.1173C17.8742 21.1834 19.6409 22.2782 21.575 22.4297C21.1464 22.6596 20.7203 22.9 20.2969 23.1509L20.2996 23.1509ZM30.6362 19.3204C30.022 19.4197 29.5594 19.4745 28.9243 19.417C26.9276 19.2368 25.4875 18.074 23.9795 16.8512C22.8007 15.8975 21.588 14.915 20.0931 14.4604C22.3225 12.9371 26.0494 11.466 29.6274 14.9385C30.2076 15.5029 30.7381 16.1379 31.2478 16.7493C31.9665 17.6115 32.6617 18.4424 33.4432 19.0094C32.5023 19.0643 31.564 19.1662 30.6336 19.3177L30.6362 19.3204ZM29.285 6.93263C29.285 6.35779 29.5098 5.81431 29.9175 5.4067C30.3252 4.99909 30.8662 4.77438 31.4438 4.77438C32.0214 4.77438 32.5624 4.99909 32.9701 5.4067C33.8117 6.24805 33.8117 7.61721 32.9701 8.45595C32.1285 9.2973 30.7617 9.2973 29.9201 8.45595C29.5124 8.04833 29.2876 7.50747 29.2876 6.93002L29.285 6.93263ZM40.7219 6.93263C40.7219 7.50747 40.4972 8.05095 40.0895 8.45856C39.2479 9.29991 37.8784 9.29991 37.0394 8.45856C36.1979 7.61721 36.1979 6.25066 37.0394 5.40931C37.4471 5.0017 37.9882 4.77699 38.5658 4.77699C39.1434 4.77699 39.6844 5.0017 40.0921 5.40931C40.4998 5.81692 40.7246 6.35779 40.7246 6.93524L40.7219 6.93263ZM39.3707 19.3204C38.4403 19.1688 37.5046 19.0669 36.5611 19.012C37.3426 18.4477 38.0378 17.6141 38.7565 16.7519C39.2688 16.1379 39.7967 15.5055 40.377 14.9412C43.9549 11.4686 47.6819 12.9397 49.9112 14.463C48.4137 14.9176 47.201 15.9001 46.0249 16.8538C44.5168 18.074 43.0794 19.2394 41.08 19.4197C40.4423 19.4771 39.9823 19.4197 39.3681 19.323L39.3707 19.3204ZM49.7074 23.1509C49.284 22.9 48.858 22.6596 48.4293 22.4297C50.3634 22.2782 52.1301 21.1834 53.8551 20.1173C54.2001 19.903 54.5477 19.6888 54.8953 19.4824C59.5631 16.7049 63.9016 17.6481 66.9177 22.0535C64.555 21.5675 62.6341 22.3644 60.6112 23.2031C58.0394 24.2692 55.3893 25.3692 51.4506 23.9138C50.8521 23.6917 50.2797 23.4252 49.7048 23.1509L49.7074 23.1509ZM51.9995 37.5322C49.5819 36.38 47.7315 34.3158 46.8507 31.7499C45.8654 28.8731 46.1921 25.7246 47.7446 23.0464C51.4349 25.7167 51.4114 29.0769 51.3879 32.3326C51.3774 34.0571 51.3461 35.9044 51.9969 37.5322L51.9995 37.5322ZM68.6426 42.954C64.7354 42.3112 61.5285 40.5632 59.5396 37.9738C57.7937 35.698 57.0776 32.8996 57.4592 29.8634C64.278 30.595 65.3156 34.1642 66.4107 37.9398C66.9229 39.7062 67.4508 41.5247 68.6426 42.954Z" fill="#6F1240"/>
</svg>
