<svg width="70" height="59" viewBox="0 0 70 59" fill="none" xmlns="http://www.w3.org/2000/svg">
<path fill-rule="evenodd" clip-rule="evenodd" d="M0.00407275 58.4006C0.00407275 58.315 0.024467 58.2334 0.0652604 58.1518C3.06766 52.5631 6.7717 47.7127 11.1121 43.6416C12.3971 42.4341 13.2783 41.6916 14.2736 40.1456C16.5662 36.5721 17.5412 31.7299 16.9374 26.4349C16.7661 26.4349 16.5948 26.4267 16.4193 26.4063C14.6571 26.1738 13.3721 24.6645 13.3721 22.9348C13.3721 22.7839 13.3802 22.6289 13.4006 22.4739C13.523 21.5479 14.0003 20.7197 14.7427 20.1527C15.4852 19.5816 16.4071 19.3368 17.3331 19.4592C19.2463 19.7121 20.6007 21.4744 20.3478 23.3917C20.2254 24.3218 19.7481 25.1458 19.0057 25.7129C18.6875 25.9576 18.3407 26.1412 17.9736 26.2595C18.5651 31.3831 17.737 36.1233 15.7014 39.7988C16.9823 38.8483 18.304 37.955 19.6706 37.1187C21.1963 36.1886 21.8326 35.8867 22.9137 34.3243C24.8962 31.4566 24.7045 28.344 24.5046 25.0806C24.3333 22.3066 24.1579 19.4388 25.2511 16.5139C26.581 12.9608 28.6533 11.3944 30.4768 10.0115C32.8591 8.2084 34.9192 6.65009 35.4046 1.22457C35.4291 0.967569 35.6331 0.767681 35.89 0.747284C36.147 0.726887 36.3796 0.894141 36.4408 1.14298C39.7287 14.1398 36.6243 25.309 27.7028 33.0883C31.4558 31.5749 35.4576 30.4327 39.6798 29.6739C39.8592 27.9524 42.4823 26.492 43.5429 25.9699C44.1793 20.4383 49.0174 15.6695 55.4056 14.3152C56.5315 14.0745 57.6819 13.9521 58.8241 13.9399C59.0852 13.9399 59.3096 14.1275 59.3503 14.3845C59.6237 16.1468 59.5625 17.958 59.1831 19.7407C62.9973 19.8386 66.7421 21.1644 69.7935 23.4978C70.0015 23.6569 70.0586 23.9424 69.9362 24.1709C68.0924 27.5404 65.2042 30.2695 61.7612 31.9053C62.83 33.382 63.6214 35.0138 64.0865 36.7352C64.1558 36.9922 64.0253 37.2533 63.7887 37.3553C62.7444 37.8081 61.6429 38.1589 60.513 38.3996C54.0023 39.7784 47.712 37.237 44.9462 32.5539C43.755 32.505 40.7363 32.2357 39.896 30.706C34.2134 31.7258 28.9511 33.4514 24.1538 35.8459C22.6199 36.6129 21.0494 37.494 19.5972 38.4078C14.9997 41.3041 10.9122 44.8898 7.3836 49.1283C11.0672 46.6521 15.6769 45.461 20.1723 46.0198C20.6455 44.3881 22.2569 43.2948 23.9947 43.5233C25.912 43.7762 27.2622 45.5344 27.0093 47.4558C26.8869 48.3818 26.4097 49.2099 25.6672 49.7769C24.9248 50.348 24.0028 50.5928 23.0768 50.4704C22.1508 50.348 21.3227 49.8707 20.7557 49.1283C20.2947 48.5245 20.0459 47.8066 20.0336 47.0641C14.1635 46.338 8.10157 48.7693 4.422 53.1832C3.56126 54.2193 2.85553 55.3901 2.1702 56.5486C1.76635 57.2339 1.37473 57.9315 0.991273 58.6413C0.852575 58.8983 0.534386 58.9962 0.277388 58.8575C0.101976 58.7637 -4.36389e-06 58.5801 -4.35568e-06 58.3925L0.00407275 58.4006ZM25.757 45.9627C25.4143 45.2366 24.7167 44.69 23.8601 44.5757C22.9504 44.4574 22.0896 44.8531 21.5756 45.5425C20.9229 46.4155 20.9229 47.623 21.596 48.496C21.9958 49.0141 22.571 49.3486 23.2196 49.4342C23.8682 49.5199 24.5128 49.3486 25.0308 48.9488C25.9528 48.2431 26.2465 46.9948 25.757 45.9627ZM18.3693 24.8766C19.23 24.2157 19.5482 23.0776 19.1729 22.0782C18.867 21.2582 18.1286 20.6259 17.1985 20.5035C16.5499 20.4179 15.9054 20.5892 15.3873 20.989C14.8692 21.3888 14.5347 21.9639 14.449 22.6126C14.2695 23.9587 15.22 25.1866 16.558 25.362C17.2067 25.4477 17.8471 25.2764 18.3693 24.8766ZM43.4817 27.1977C41.7317 28.1441 40.5935 29.2864 40.7485 30.0125C40.8995 30.7345 42.4048 31.3179 44.3914 31.477C44.0977 30.812 43.8692 30.1145 43.7142 29.3843C43.5633 28.6663 43.4858 27.9361 43.4858 27.1977L43.4817 27.1977ZM61.1045 31.0609C64.3067 29.5964 67.0154 27.1325 68.794 24.073C65.9262 21.9966 62.4506 20.8421 58.9302 20.8013C58.4774 22.3923 57.7676 23.9465 56.8171 25.4069C56.4989 25.8964 56.1521 26.3737 55.785 26.8265C56.299 27.0917 56.8089 27.3854 57.3025 27.7077C58.7629 28.6581 60.0398 29.7922 61.1004 31.0609L61.1045 31.0609ZM53.1783 26.851C50.282 25.8556 47.2469 25.774 44.5505 26.6674C44.5056 27.5078 44.5668 28.344 44.7422 29.164C46.0272 35.2381 53.007 38.9177 60.3008 37.3757C61.2105 37.184 62.0998 36.9147 62.9483 36.5761C61.9774 33.4351 59.7338 30.5428 56.7314 28.5929C55.63 27.8749 54.4225 27.2793 53.1742 26.851L53.1783 26.851ZM54.81 26.3574C55.2139 25.872 55.5933 25.358 55.9359 24.8276C57.8859 21.8293 58.767 18.2721 58.3835 15.0127C57.4657 15.0454 56.5438 15.1596 55.6381 15.3513C49.9148 16.5629 45.5295 20.679 44.6851 25.5211C47.8915 24.591 51.4895 24.9011 54.81 26.3574ZM25.4184 31.0282C25.1736 32.2602 24.733 33.4799 23.9621 34.6629C34.1808 27.6301 38.4029 16.8688 36.0124 4.08011C35.0701 7.86166 33.0671 9.37917 31.1172 10.8559C29.3223 12.2143 27.4621 13.6217 26.2424 16.8852C25.2266 19.5979 25.398 22.3556 25.5612 25.0153C25.6835 27.0182 25.81 29.0416 25.4184 31.0242L25.4184 31.0282Z" fill="#6F1240"/>
</svg>
