<svg width="70" height="34" viewBox="0 0 70 34" fill="none" xmlns="http://www.w3.org/2000/svg">
<path fill-rule="evenodd" clip-rule="evenodd" d="M0.0028028 23.0654C0.00280279 23.2 0.0645092 23.3346 0.179505 23.4244C0.378644 23.5786 0.664731 23.5422 0.818994 23.343C3.22269 20.2354 6.40049 17.4979 10.0719 15.2653C10.7844 15.3915 11.7632 15.7561 12.9805 16.2133C16.4612 17.5147 21.723 19.4809 28.4937 18.7572C28.7153 18.7348 28.8864 18.5553 28.9004 18.3337C28.9257 18.1149 28.7658 17.913 28.5498 17.8625C27.4503 17.6045 26.2387 17.0912 24.8335 16.4994C21.5295 15.1082 17.5327 13.4226 12.4728 13.9162C16.2088 11.9753 20.3458 10.5364 24.6343 9.72586C26.9483 10.6739 29.2145 12.8953 31.8286 15.4616C35.4075 18.9732 39.4632 22.9504 44.9409 24.8857C45.1344 24.953 45.3476 24.8857 45.4654 24.7174C45.5804 24.5519 45.5748 24.3275 45.4458 24.1676C44.882 23.4777 44.2594 22.6166 43.6002 21.6994C40.4813 17.3717 35.9376 11.0693 27.7813 9.24343C36.2433 8.27298 45.0363 9.80439 52.2866 14.7632C51.7145 15.4083 51.3891 16.2021 51.319 17.1024C49.9811 18.3477 49.4706 19.8315 49.4706 21.3853C49.4706 24.6024 51.6471 28.1392 53.1505 30.5794C53.8068 31.6452 54.4267 32.6549 54.4631 33.0279C54.4772 33.1794 54.5669 33.314 54.7015 33.3869C54.8362 33.4599 54.9988 33.4599 55.1307 33.3869C57.0716 32.3464 58.2215 29.1069 58.0869 26.6415C60.1316 27.8139 62.5269 28.6216 65.1073 28.7955C65.2391 28.8039 65.3681 28.7563 65.4607 28.6609C65.5532 28.5683 65.5981 28.4365 65.5925 28.3075C65.3877 25.5196 64.5295 22.827 63.329 20.5158C66.1366 20.945 69.0788 19.6912 69.9651 17.5428C70.024 17.4025 70.0072 17.2427 69.9231 17.1164C69.8389 16.9902 69.6959 16.9145 69.5444 16.9145C68.588 16.9145 67.0117 16.0394 65.3457 15.111C62.109 13.3132 58.0981 11.0834 55.4027 13.4366C54.522 13.3861 53.7058 13.6217 52.985 14.1322C49.2603 11.5462 45.1288 9.85207 40.8403 8.9293C47.8775 8.43566 51.7229 6.90425 54.9203 5.63369C56.2554 5.10359 57.5147 4.60153 58.8666 4.22289C59.0882 4.16118 59.2256 3.94522 59.1948 3.71803C59.1611 3.49084 58.962 3.32536 58.732 3.33097C58.1542 3.34499 57.5428 3.35621 56.9117 3.36743C49.4033 3.51047 39.1575 3.704 35.6964 8.19164C30.3393 7.78215 24.8868 8.45529 19.7905 9.9867C23.8602 6.55646 24.6315 3.92278 25.3187 1.56115C25.4 1.28068 25.4814 1.0002 25.5683 0.728136C25.63 0.534606 25.5543 0.321443 25.3832 0.212057C25.2121 0.0998659 24.9877 0.116695 24.8363 0.248519C24.4156 0.615945 23.9331 1.003 23.4199 1.41811C20.6936 3.61425 16.9885 6.59853 16.9885 10.845L16.9885 10.9291C10.1028 13.4955 4.06692 17.6437 0.0953609 22.7793C0.0308511 22.8634 -4.71193e-06 22.9616 -4.7161e-06 23.057L0.0028028 23.0654ZM53.7143 18.3057L53.7143 18.2916C53.7339 17.7054 53.9947 17.1445 54.4379 16.7462C54.8838 16.3563 55.4729 16.1628 56.0534 16.2133C56.3031 16.2329 56.491 16.4489 56.4685 16.7069C56.4461 16.9566 56.2273 17.1417 55.9749 17.1221C55.6439 17.094 55.2933 17.2118 55.0409 17.4306C54.7913 17.655 54.637 17.9887 54.6258 18.3225C54.6174 18.5749 54.407 18.7713 54.1574 18.7628C53.9106 18.7544 53.7171 18.5525 53.7171 18.3085L53.7143 18.3057ZM24.2725 1.90895C23.5741 4.22008 22.5223 6.84535 17.9225 10.3205C18.2142 6.78645 21.3976 4.22569 23.9921 2.13333C24.0874 2.0576 24.18 1.98187 24.2725 1.90614L24.2725 1.90895ZM26.0732 17.9971C20.6179 18.0953 16.2873 16.477 13.2974 15.3607C12.8347 15.1868 12.4027 15.0269 12.0044 14.8866C17.1119 14.2331 21.1564 15.9384 24.4773 17.338C25.0354 17.5736 25.5655 17.798 26.0704 17.9971L26.0732 17.9971ZM55.8263 4.30703C55.4168 4.4641 55.0045 4.62958 54.5837 4.79506C50.7188 6.33208 46.3545 8.06823 36.9305 8.18323C40.4056 4.78945 49.3023 4.43886 55.8263 4.30423L55.8263 4.30703ZM43.7236 23.4216C39.1771 21.3965 35.6319 17.9186 32.4681 14.8137C30.544 12.9233 28.8022 11.218 27.0577 10.0288C35.2196 11.6331 39.7661 17.9382 42.8626 22.238C43.1571 22.6475 43.4432 23.0457 43.7236 23.4244L43.7236 23.4216ZM51.3807 18.387C51.4368 18.7292 51.5237 19.0798 51.6415 19.4416C52.4044 21.7696 54.3762 24.2209 57.0968 26.0384C57.4614 27.9878 56.6312 31.0281 55.1615 32.2706C54.9343 31.7602 54.522 31.0814 53.9218 30.1082C51.9669 26.9304 48.7835 21.7612 51.3779 18.387L51.3807 18.387ZM62.74 19.4696C61.1133 16.7322 59.0293 14.6707 57.1052 13.8629C56.9538 13.7984 56.7995 13.7423 56.6509 13.6918C58.875 12.5671 62.0557 14.3341 64.9025 15.916C66.4059 16.7518 67.7409 17.4951 68.8292 17.7447C67.7437 19.321 65.0652 20.1176 62.7428 19.4696L62.74 19.4696ZM64.6333 27.8475C58.6843 27.2192 53.7423 22.9223 52.5082 19.1583C51.9388 17.4166 52.2165 15.9637 53.2935 15.0549C54.2416 14.2556 55.4027 14.135 56.7518 14.7015C60.1035 16.1095 63.9853 21.6714 64.6333 27.8475Z" fill="#6F1240"/>
</svg>
