<svg width="200" height="246" viewBox="0 0 200 246" fill="none" xmlns="http://www.w3.org/2000/svg">
<g clip-path="url(#clip0_30_22549)">
<path fill-rule="evenodd" clip-rule="evenodd" d="M90.1494 235.972C86.1273 234.244 83.0374 232.512 81.6116 231.554C81.5094 231.486 81.386 231.46 81.2668 231.486C81.1476 231.511 81.0455 231.579 80.9774 231.682C80.9093 231.784 80.8838 231.903 80.905 232.022C80.9263 232.146 80.9987 232.248 81.1008 232.316C83.0288 233.61 86.438 235.376 89.7876 236.814C89.8472 236.84 89.9068 236.853 89.9706 236.853C90.1536 236.853 90.3196 236.742 90.392 236.576C90.4388 236.461 90.443 236.338 90.3962 236.223C90.3494 236.108 90.2643 236.019 90.1494 235.972ZM84.8292 229.792C85.8294 230.107 86.8338 230.43 87.6595 230.707C87.6765 230.711 87.6893 230.715 87.6978 230.72C87.7489 230.737 87.7957 230.745 87.8468 230.745C88.0426 230.745 88.2171 230.622 88.2809 230.435C88.3192 230.32 88.3107 230.192 88.2596 230.081C88.2043 229.971 88.1107 229.89 87.9958 229.851C87.983 229.851 86.8423 229.46 85.1058 228.915C84.9909 228.877 84.8675 228.89 84.7611 228.945C84.6504 229 84.5696 229.098 84.5313 229.217C84.4547 229.46 84.5909 229.715 84.8335 229.792H84.8292ZM95.8483 238.117C95.3546 237.959 94.8566 237.793 94.3672 237.623C94.2523 237.581 94.1288 237.589 94.0182 237.644C93.9075 237.7 93.8224 237.793 93.7841 237.908C93.699 238.147 93.8267 238.406 94.065 238.491C94.5672 238.666 95.0695 238.832 95.5717 238.994C95.6185 239.006 95.6653 239.015 95.7079 239.015C95.9079 239.015 96.0867 238.887 96.1463 238.696C96.2229 238.457 96.0909 238.198 95.8483 238.121V238.117ZM96.8996 133.471C97.338 133.412 97.6827 133.382 97.9934 133.365C98.1168 133.361 98.2275 133.305 98.3126 133.216C98.3935 133.127 98.4361 133.007 98.4318 132.884C98.4233 132.637 98.2147 132.446 97.9594 132.446C97.5976 132.463 97.2188 132.497 96.8357 132.552C96.5846 132.586 96.4101 132.82 96.4484 133.071C96.4825 133.297 96.674 133.467 96.8996 133.467V133.471ZM96.0909 183.323C96.176 183.438 96.3165 183.506 96.457 183.506C96.5548 183.506 96.6527 183.472 96.7336 183.413C96.9336 183.26 96.9719 182.97 96.823 182.77C96.6825 182.587 96.5336 182.404 96.3761 182.225C96.2101 182.034 95.9207 182.017 95.7292 182.183C95.6355 182.264 95.5802 182.374 95.5759 182.498C95.5674 182.621 95.6057 182.736 95.6866 182.83C95.827 182.987 95.9632 183.157 96.0909 183.328V183.323ZM87.2424 92.6975C86.9871 92.6975 86.787 92.8933 86.7828 93.1444C86.7657 93.885 86.7274 94.7362 86.6764 95.6768C86.6636 95.9322 86.8594 96.145 87.136 96.162C87.3786 96.162 87.5787 95.9705 87.5957 95.7279C87.651 94.7788 87.6851 93.919 87.7021 93.17C87.7021 93.0465 87.6595 92.9316 87.5744 92.8422C87.4893 92.7529 87.3701 92.7018 87.2467 92.6975H87.2424ZM60.0415 81.9423C59.8159 81.8359 59.5392 81.9338 59.4328 82.1636C58.9732 83.1425 58.4412 84.0406 57.8581 84.8364C57.7091 85.0407 57.7517 85.3259 57.956 85.4791C58.0368 85.5387 58.1305 85.5685 58.2284 85.5685C58.3731 85.5685 58.5135 85.5004 58.5986 85.3812C59.2158 84.5385 59.7776 83.5851 60.2628 82.5594C60.3692 82.3296 60.2713 82.0572 60.0415 81.9508V81.9423ZM68.0515 90.4588C68.1239 90.4588 68.1962 90.4418 68.2601 90.4077C69.0687 89.9906 69.7284 89.4714 70.2264 88.8585C70.303 88.7649 70.3413 88.6457 70.3285 88.5223C70.3158 88.3988 70.2562 88.2882 70.1626 88.2116C69.9668 88.0541 69.6774 88.0839 69.5156 88.2797C69.0985 88.7904 68.5367 89.233 67.843 89.5863C67.6174 89.7012 67.528 89.9779 67.6429 90.2034C67.7195 90.3567 67.877 90.4503 68.0515 90.4503V90.4588ZM86.9275 98.6476C86.6508 98.6476 86.4508 98.8221 86.4295 99.0647C86.0805 103.168 85.5442 107.483 84.9143 111.216C84.893 111.335 84.9228 111.45 84.9909 111.548C85.0675 111.654 85.1952 111.727 85.3655 111.752C85.591 111.752 85.7783 111.591 85.8166 111.369C86.4508 107.624 86.9913 103.278 87.3446 99.1413C87.3658 98.8902 87.1786 98.6689 86.9275 98.6476ZM53.104 178.148C53.1848 178.208 53.2827 178.242 53.3806 178.242C53.5253 178.242 53.6615 178.173 53.7466 178.059C53.8956 177.859 53.8573 177.569 53.6573 177.416C52.1549 176.284 50.4907 174.764 48.8478 173.024C48.7627 172.934 48.6521 172.883 48.5286 172.879C48.4009 172.875 48.2903 172.921 48.2009 173.007C48.1115 173.092 48.0605 173.202 48.0562 173.326C48.0562 173.449 48.0988 173.564 48.1796 173.653C49.8565 175.433 51.559 176.986 53.104 178.152V178.148ZM71.8608 172.385C71.8991 172.394 71.9374 172.402 71.9757 172.402C72.1842 172.402 72.3672 172.262 72.4183 172.057C72.5034 171.721 72.5928 171.415 72.6864 171.138C72.7673 170.9 72.6354 170.64 72.397 170.559C72.2821 170.521 72.1587 170.529 72.048 170.581C71.9374 170.636 71.8565 170.73 71.8139 170.844C71.7203 171.13 71.6224 171.457 71.5288 171.828C71.4649 172.07 71.6139 172.321 71.8565 172.385H71.8608ZM81.8073 178.28C81.9095 178.344 82.0244 178.365 82.1351 178.339C85.8762 177.658 90.2089 178.62 93.4436 180.846C93.5202 180.902 93.6096 180.927 93.7032 180.927C93.8522 180.927 93.9969 180.851 94.082 180.727C94.2225 180.519 94.1714 180.233 93.9629 180.093C90.5324 177.731 85.9315 176.714 81.9648 177.437C81.8456 177.458 81.7392 177.527 81.6711 177.629C81.603 177.731 81.5733 177.85 81.5988 177.969C81.6201 178.097 81.6967 178.208 81.8073 178.28ZM71.6054 63.8239C71.5458 63.7175 71.4394 63.6366 71.3202 63.6026C71.2011 63.5728 71.0819 63.5898 70.9797 63.6494C70.8733 63.709 70.7967 63.8069 70.7627 63.9261C70.7286 64.0452 70.7456 64.1687 70.8052 64.2751C70.9712 64.5687 71.15 64.8454 71.333 65.0965C71.4181 65.2157 71.5586 65.2838 71.7033 65.2838C71.8012 65.2838 71.8948 65.254 71.9757 65.1944C72.18 65.0454 72.2225 64.7603 72.0736 64.5517C71.9118 64.3304 71.7544 64.0878 71.6054 63.8239ZM79.0706 173.402C79.3984 173.351 79.6495 173.304 79.8921 173.253C80.1389 173.202 80.3007 172.96 80.2496 172.713C80.1985 172.466 79.9644 172.313 79.7091 172.355C79.475 172.402 79.2324 172.449 78.994 172.492C78.8749 172.513 78.7685 172.577 78.7004 172.679C78.628 172.781 78.6025 172.9 78.6237 173.024C78.6621 173.245 78.8536 173.402 79.0749 173.402H79.0706ZM190.36 236.661C192.403 237.942 192.377 239.334 192.177 240.049C191.599 242.126 188.292 243.735 184.482 243.795H184.163C178.409 243.892 160.942 244.173 158.405 245.161C158.222 245.233 158.009 245.174 157.886 245.025C156.592 243.441 154.923 242.037 154.379 241.594C152.902 241.777 151.829 241.871 151.097 241.884C148.424 241.884 140.214 237.836 135.558 235.231C135.439 235.627 135.201 236.019 134.843 236.389C132.54 238.789 125.377 240.709 122.534 240.462C121.402 240.368 120.325 239.887 119.193 239.381C116.946 238.376 114.626 237.338 111.8 239.551C107.336 243.041 104.31 243.599 98.2999 242.05C95.4185 241.305 91.805 242.369 87.983 243.492C84.6036 244.484 81.1264 245.501 77.6533 245.501C77.4916 245.501 77.3341 245.501 77.1724 245.497C77.0405 245.493 76.9213 245.433 76.8362 245.34C76.751 245.246 76.7127 245.118 76.7255 244.991C77.4576 238.062 72.4907 229.668 67.7195 227.042C64.0337 227.613 59.9563 228.255 55.7768 228.915L54.7894 229.073C38.1607 231.699 20.9616 234.41 17.4801 234.41C17.2758 234.41 17.1269 234.401 17.0162 234.384C11.9982 233.597 4.01372 228.758 2.31552 227.025C0.62158 225.297 -1.02554 215.415 0.800338 212.721C5.57146 205.694 28.7844 191.436 43.417 187.865C42.553 184.885 40.5526 175.054 40.608 172.585C40.144 171.155 40.0759 170.061 40.0376 169.406C39.9397 167.78 40.0291 166.529 40.774 165.72C41.2719 165.184 42.0082 164.907 43.0893 164.848C43.6043 163.456 45.2088 162.681 46.0218 162.366C45.6898 161.821 45.4216 161.209 45.3025 160.915C42.6211 159.825 38.4416 155.373 38.3352 152.905C38.2373 150.56 38.1181 143.452 38.8544 141.652C39.0374 141.209 39.2417 140.622 39.4758 139.945C40.0206 138.391 40.8293 136.076 42.004 133.769C39.6503 127.56 37.0626 120.592 35.7049 115.881C32.3085 110.475 30.1762 105.449 30.1336 102.759C30.1208 101.831 30.24 98.5838 32.4319 95.613C33.5555 94.0935 35.6496 92.157 39.2588 91.5569C39.6801 90.3865 40.493 89.4458 41.6762 88.7478C39.9866 83.5596 43.1063 79.8185 46.1282 76.1965C48.3371 73.5492 50.6184 70.8125 51.044 67.4884C49.8523 66.2286 50.031 64.9773 50.1885 63.875C50.2864 63.1685 50.3843 62.5045 50.1757 61.815C49.7884 60.5297 49.9246 59.2103 50.5588 58.2016C51.0823 57.3631 51.9335 56.7885 53.0274 56.5374C53.0274 56.5076 53.0274 56.4778 53.0274 56.4438C53.0274 56.3374 53.0316 56.2267 53.0529 56.099C53.121 55.6692 53.3381 55.3031 53.6998 55.0137C53.6998 54.6434 53.7296 53.8475 53.8658 53.0431C52.806 53.3325 50.6907 54.1072 49.9842 55.75C49.9119 55.9203 49.7459 56.0267 49.5629 56.0267C49.3415 56.0139 49.1713 55.8777 49.1202 55.6862C48.0392 51.711 48.6563 49.7446 49.2564 47.8421C49.4054 47.3697 49.5586 46.8845 49.6778 46.3823C50.3332 43.6115 52.6103 40.7897 56.0535 41.0791C56.9515 37.3039 59.2711 34.9631 60.5565 34.3544C61.0417 33.716 61.5098 33.0308 62.0802 32.137C62.7271 31.124 63.3272 30.1834 64.1316 29.2641C64.7871 28.5108 65.6808 28.1107 66.7108 28.1064C66.7151 28.1064 66.7236 28.1064 66.7279 28.1064C67.6642 26.3359 70.2094 25.3655 72.3459 25.1825C72.6652 25.1569 72.9929 25.1484 73.3674 25.1569C73.3589 25.0888 73.3461 25.0292 73.3334 24.9569C73.0993 23.7907 72.7758 22.1947 73.6313 20.2751C74.4996 18.3258 76.8447 17.1043 78.9174 16.0318C79.9517 15.4955 81.0157 14.9465 81.6201 14.4059C81.769 14.274 81.9903 14.2527 82.1606 14.3549C82.3351 14.4613 82.4202 14.6656 82.3649 14.8656C82.0627 16.036 82.616 17.7981 83.2629 19.841L83.5779 20.8497C84.2589 23.0587 83.4162 24.7313 82.599 26.3529C82.5224 26.5061 82.4458 26.6636 82.3734 26.8211L82.3606 26.8509L82.6075 26.8211C83.6162 26.6849 84.842 27.0509 85.9656 27.8213C86.7955 27.9702 92.0731 29.2301 94.5502 31.1028C95.7079 30.392 97.0486 29.7919 98.9383 30.1026C102.586 30.7154 108.34 30.1153 109.74 29.5493C109.911 29.4812 110.102 29.5195 110.238 29.6514C110.37 29.7833 110.409 29.9791 110.336 30.1494C109.787 31.4773 108.961 32.6733 108.093 33.9416C107.289 35.112 106.459 36.3165 105.812 37.687C105.212 38.9553 103.986 40.1513 102.356 41.0579C103.156 42.922 103.518 44.8799 103.522 47.3697C106.736 48.0209 108.642 50.864 110.332 53.3708C111.473 55.0648 112.545 56.6608 113.741 57.0992C113.916 57.1631 114.035 57.3248 114.043 57.5163C114.048 57.7036 113.941 57.8738 113.771 57.9504C111.694 58.874 108.647 59.9721 105.927 59.9721C105.169 59.9721 104.412 59.8572 103.667 59.6274C103.871 60.7297 104.144 61.7852 104.497 62.8493C104.833 63.8622 105.28 65.0199 105.757 66.2414C108.536 73.4172 112.737 84.2534 105.216 93.1189C106.923 95.2427 109.421 100.908 112.307 107.454C115.665 115.064 119.466 123.691 123.062 129.194C126.484 134.437 128.825 137.498 130.532 139.732C132.323 142.077 133.507 143.622 134.728 146.014C137.15 150.751 140.955 163.83 144.419 179.335C145.385 179.884 146.386 180.433 147.318 180.914C148.509 181.532 148.692 182.74 148.893 184.017C148.973 184.549 149.059 185.068 149.207 185.592C150.867 187.184 153.127 189.146 154.711 190.376C155.204 190.759 155.634 191.172 155.996 191.606C157.669 193.628 160.686 196.015 162.048 196.994C163.193 197.816 163.308 198.897 163.057 199.569C163.031 199.641 162.993 199.701 162.959 199.756C164.934 201.523 168.896 204.076 170.08 204.825C170.846 205.311 171.505 205.996 171.982 206.8C172.548 207.749 173.055 208.733 173.501 209.597C174.114 210.78 174.693 211.891 175.221 212.576C176.187 213.367 177.047 213.997 177.596 214.38C178.222 214.819 178.485 215.295 178.37 215.798C178.362 215.84 178.345 215.87 178.324 215.9C181.018 218.756 181.72 222.637 181.524 224.425C181.367 225.872 180.575 228.145 180.205 229.158C182.107 230.188 184.189 231.877 186.206 233.512C187.717 234.742 189.147 235.899 190.352 236.653L190.36 236.661ZM177.724 216.598C177.315 216.866 176.826 217.019 176.494 217.075C175.604 217.224 174.668 217.113 173.659 216.717C173.659 216.743 173.65 216.764 173.646 216.789C173.472 217.419 172.803 217.892 171.982 217.964C169.267 218.194 165.398 215.934 164.227 214.427C163.653 213.98 162.589 213.27 161.559 212.584C159.848 211.439 157.715 210.018 156.209 208.784C154.911 208.005 152.102 206.507 150.327 206.149L150.548 206.392C150.625 206.43 150.723 206.477 150.838 206.528C151.672 206.907 153.4 207.69 154.425 209.754C154.919 210.746 155.409 211.886 155.281 212.823C155.204 213.393 154.97 213.768 154.583 213.929C154.451 213.985 154.315 214.01 154.166 214.01C153.6 214.01 152.987 213.61 152.519 213.261C151.459 212.474 150.425 212.099 149.591 211.797C148.786 211.503 148.101 211.256 147.662 210.75C146.743 209.703 145.581 208.771 144.556 207.949C143.398 207.022 142.568 206.358 142.334 205.757C142.176 205.349 142.01 204.902 141.832 204.421C141.134 202.54 140.265 200.199 138.933 197.709C136.507 196.466 135.166 195.687 134.83 195.33C134.737 195.228 125.454 184.843 124.756 181.783C118.257 177.607 112.481 174.654 108.136 172.534C108.557 175.799 108.698 179.642 108.795 182.468C108.915 185.877 109.021 188.822 109.417 190.406C110.272 193.823 113.149 202.629 116.15 206.668C117.789 206.166 119.423 206.89 120.866 207.528C121.989 208.022 123.147 208.532 124.258 208.481C126.203 208.358 127.097 209.235 127.888 210.009C128.323 210.431 128.761 210.861 129.382 211.159C130.608 211.75 131.468 212.852 131.634 214.036C131.715 214.606 131.613 215.172 131.344 215.691C134.456 215.436 137.818 215.525 139.848 215.581C141.091 215.615 142.07 215.636 142.483 215.593C145.279 215.291 151.059 216.679 156.158 217.909L156.2 217.917C157.137 218.143 158.043 218.36 158.886 218.556C159.077 218.615 159.248 218.688 159.401 218.773C159.98 219.096 160.908 219.93 160.61 221.875C160.363 223.501 159.069 224.548 157.779 225.353C159.563 226.038 163.248 226.383 166.819 226.715H166.853C170.692 227.081 174.663 227.451 177.732 228.243C178.226 228.319 178.783 228.489 179.375 228.753C179.732 227.766 180.473 225.621 180.613 224.327C180.788 222.722 180.154 219.22 177.715 216.594L177.724 216.598ZM102.037 169.619C102.884 176.067 102.935 182.519 102.152 184.69C101.249 187.192 98.6063 197.296 99.3213 201.518C102.675 204.583 105.127 207.162 106.604 209.179C109.642 208.643 113.23 207.732 115.256 206.988C112.222 202.731 109.374 193.998 108.532 190.627C108.11 188.95 108.004 185.962 107.885 182.502C107.77 179.306 107.629 175.335 107.157 172.057C105.867 171.436 104.624 170.84 103.446 170.287C102.994 170.074 102.56 169.866 102.13 169.661L102.037 169.619ZM169.594 205.604C168.398 204.847 164.385 202.255 162.35 200.437C162.189 200.531 162.001 200.599 161.793 200.633C161.784 200.71 161.772 200.791 161.742 200.871C161.618 201.203 161.163 201.974 159.597 201.974C159.341 201.974 159.06 201.953 158.771 201.914C158.286 201.842 155.834 201.45 154.383 200.514C153.493 200.131 152.234 199.739 151.016 199.361C150.693 199.258 150.378 199.16 150.067 199.063C150.897 199.748 151.787 200.42 152.761 201.114C153.234 201.45 153.417 202.157 153.191 202.765C152.936 203.455 152.28 203.817 151.399 203.744C148.526 203.48 146.633 201.957 145.751 201.059L145.645 201.008C143.636 200.046 141.844 199.173 140.312 198.407C141.325 200.467 142.074 202.425 142.696 204.106L142.734 204.213C142.896 204.651 143.049 205.059 143.194 205.43C143.338 205.8 144.241 206.524 145.117 207.226L145.143 207.247C146.143 208.047 147.386 209.047 148.352 210.15C148.637 210.478 149.199 210.678 149.905 210.937C150.804 211.265 151.91 211.665 153.068 212.525C153.945 213.176 154.2 213.095 154.23 213.082C154.268 213.065 154.34 212.967 154.379 212.695C154.472 212.001 154.017 210.976 153.608 210.158C152.723 208.379 151.255 207.72 150.467 207.362C150.289 207.281 150.14 207.213 150.037 207.149C149.999 207.128 149.961 207.098 149.927 207.06C148.786 205.809 147.675 204.553 147.675 204.553C147.509 204.361 147.526 204.072 147.714 203.906C147.901 203.74 148.19 203.757 148.36 203.944L148.39 203.978C148.501 204.106 148.914 204.57 149.446 205.162C149.514 205.157 149.582 205.153 149.65 205.153C151.923 205.153 156.234 207.724 156.737 208.026C158.256 209.265 160.367 210.678 162.065 211.81C163.257 212.606 164.27 213.282 164.84 213.733C164.87 213.759 164.896 213.785 164.921 213.819C165.938 215.176 169.616 217.245 171.897 217.045C172.318 217.006 172.689 216.789 172.757 216.538C172.829 216.274 172.518 216.011 172.378 215.913C171.535 215.3 170.595 214.512 169.654 213.64C169.565 213.555 169.513 213.444 169.509 213.321C169.505 213.197 169.548 213.082 169.633 212.993C169.803 212.81 170.092 212.797 170.28 212.967C171.186 213.81 172.101 214.572 172.923 215.172C173.076 215.283 173.212 215.41 173.335 215.564C174.438 216.125 175.417 216.321 176.34 216.164C176.983 216.057 177.447 215.755 177.481 215.598C177.494 215.542 177.426 215.381 177.072 215.134C175.63 214.121 172.918 212.069 170.931 209.665C170.675 209.354 170.369 209.082 170.016 208.847C169.126 208.26 167.939 207.43 166.751 206.562C166.547 206.413 166.504 206.124 166.649 205.919C166.802 205.715 167.083 205.672 167.288 205.817C168.454 206.668 169.633 207.494 170.518 208.077C170.948 208.362 171.322 208.698 171.633 209.077C172.016 209.537 172.446 210.009 172.944 210.507C172.859 210.346 172.774 210.184 172.689 210.014C172.246 209.154 171.739 208.183 171.195 207.264C170.79 206.583 170.233 206.004 169.59 205.596L169.594 205.604ZM111.464 107.794L111.477 107.82C114.848 115.464 118.67 124.125 122.304 129.692C125.76 134.986 128.106 138.047 129.829 140.307C131.587 142.605 132.745 144.124 133.924 146.427C136.26 150.998 139.955 163.647 143.351 178.701C142.432 178.156 141.678 177.68 141.159 177.314C140.402 176.777 139.474 176.616 138.478 176.445C137.512 176.275 136.516 176.101 135.588 175.56C134.268 174.79 132.443 173.564 130.017 171.823C126.867 165.473 122.266 157.118 119.551 153.411C118.082 151.411 116.052 148.1 114.75 144.814C113.277 141.094 106.57 130.918 104.676 128.956C104.029 120.477 103.101 109.816 102.339 107.041C100.951 101.997 95.2525 93.4636 93.699 91.6761C93.6181 91.5824 93.5202 91.4675 93.4096 91.3356C92.9925 90.8376 92.3838 90.1098 91.6858 89.5097C95.3248 89.2288 100.194 88.9862 104.297 93.4338C105.897 95.1661 108.476 101.018 111.464 107.794ZM94.4268 133.569C94.3502 133.331 94.0948 133.203 93.8479 133.276C91.9029 133.918 90.0344 134.85 89.2002 135.595C88.1788 136.502 86.5146 138.459 85.923 139.17C85.4378 138.83 84.9739 138.489 84.51 138.14C82.7735 136.834 80.5816 134.85 77.9896 132.25C79.0196 130.169 83.6375 120.784 84.1312 119.098C84.5525 117.668 84.9654 115.923 85.357 113.919C85.4038 113.672 85.242 113.429 84.9867 113.378C84.7228 113.344 84.5057 113.502 84.4589 113.74C84.0716 115.715 83.6673 117.43 83.2544 118.839C82.8075 120.371 78.3897 129.373 77.3086 131.56C76.2956 130.526 75.2359 129.415 74.1633 128.258C74.6315 126.193 75.0954 123.784 75.504 121.652C76.2105 117.996 76.8745 114.54 77.4235 113.199C78.3471 110.935 85.4336 91.7569 85.8379 90.0545C85.9741 89.4799 86.2295 89.4416 87.2467 89.5225C87.8468 89.5693 88.5278 89.6246 89.2513 89.4246C90.3579 89.1011 91.9327 90.9866 92.686 91.8931L92.7413 91.957C92.8392 92.0761 92.9329 92.1868 93.0095 92.2762C94.3629 93.8297 100.1 102.355 101.458 107.283C102.241 110.131 103.254 122.214 103.786 129.16C104.467 138.025 104.931 145.72 104.948 146.789C104.969 148.163 103.709 150.36 103.216 151.173C100.513 149.062 97.5848 146.793 96.1335 145.797C93.6777 144.116 91.8348 142.967 90.2004 141.95C89.03 141.217 87.8808 140.498 86.6849 139.685C87.3829 138.855 88.9023 137.085 89.8131 136.276C90.5537 135.616 92.337 134.74 94.1416 134.144C94.38 134.063 94.5119 133.803 94.431 133.565L94.4268 133.569ZM105.859 146.776C105.884 148.406 104.569 150.726 103.939 151.743C105.344 152.845 106.846 154.024 108.425 155.263C115.043 160.468 122.526 166.346 128.403 170.657C125.407 164.75 121.347 157.421 118.81 153.96C118.082 152.964 115.571 149.389 113.894 145.154C112.605 141.903 107.302 133.701 104.79 130.513C105.416 138.928 105.85 146.138 105.859 146.78V146.776ZM103.394 50.8257C103.263 52.9921 103.101 55.6862 103.522 58.6357C106.135 59.6529 109.825 58.5974 112.545 57.478C111.468 56.6991 110.549 55.3287 109.574 53.8816C108.025 51.5748 106.267 48.9658 103.518 48.3103C103.497 49.119 103.45 49.9319 103.394 50.8257ZM102.479 50.7704C102.679 47.4378 102.858 44.5521 101.543 41.4664C100.296 42.0368 99.0404 42.356 97.9849 42.373C95.5717 42.4113 92.8648 42.7858 92.171 42.888C91.4943 44.8969 90.243 46.5185 88.7236 47.3527C88.7874 47.8847 88.7874 48.3316 88.7236 48.7615C88.4724 50.4554 87.5574 51.1023 86.4976 51.8557C86.3316 51.9748 86.1273 52.1195 85.9103 52.2898C85.923 52.2898 85.94 52.2898 85.9528 52.2898C89.4428 52.2898 96.2101 49.5957 98.7723 45.663C98.8744 45.5098 99.066 45.4289 99.249 45.463C99.432 45.497 99.5767 45.646 99.6107 45.829C99.9895 47.9443 100.343 51.4471 99.8704 56.1203L99.8619 56.2182C99.8023 56.8141 99.3384 57.3503 98.8446 57.9164C98.3637 58.474 97.8657 59.0443 97.7551 59.6359C97.5125 60.917 98.3722 64.8454 99.6448 66.4542C100.27 67.2458 100.496 68.1439 100.266 68.9185C100.053 69.6335 99.4788 70.1783 98.6489 70.455C98.3765 70.5486 98.1339 70.6295 97.9168 70.7061C97.1422 70.9785 96.6868 71.7403 96.8272 72.5149C96.8485 72.6469 96.9124 72.8512 97.0188 73.1406C97.2614 73.8045 97.1167 74.5621 96.6442 75.0686C96.2782 75.4602 95.8654 75.7368 95.5589 75.9113C95.9292 77.7032 94.8609 78.1288 94.2863 78.3586C93.4734 78.6863 93.1414 79.4312 92.7584 80.2909C92.137 81.6827 91.3666 83.4106 88.3958 83.5383C88.349 83.5383 88.3107 83.5383 88.2511 83.5383C86.0933 83.5383 82.8799 81.572 81.4158 80.5973C81.3306 83.7596 83.2629 87.7051 85.5017 88.8968C86.0124 88.4967 86.7359 88.5521 87.319 88.5989H87.3573C87.8681 88.6414 88.4469 88.6883 89.0002 88.5308C89.4301 88.4116 89.8897 88.4584 90.409 88.6755L91.1879 88.6202C93.1882 88.4627 95.9249 88.2456 98.7084 88.9862C101.394 85.6749 102.547 81.6741 102.343 76.4093C102.335 76.1582 102.53 75.9454 102.782 75.9326C103.075 75.9582 103.25 76.1241 103.258 76.3753C103.463 81.6401 102.279 85.8579 99.6405 89.2713C101.492 89.9098 103.16 90.9738 104.603 92.4294C111.668 83.9852 107.608 73.5066 104.914 66.5649C104.433 65.3221 103.982 64.1559 103.641 63.1302C103.211 61.8363 102.892 60.5084 102.667 59.0698C102.177 55.916 102.347 53.0601 102.488 50.7618L102.479 50.7704ZM64.4168 73.8769C65.4978 73.4641 66.315 72.715 66.8513 71.6467C67.3918 70.5699 67.6472 69.1696 67.5961 67.5906C68.4558 68.1354 69.6603 68.5865 71.2691 68.9568C71.4437 70.5954 72.6141 72.4766 73.9675 74.6473C76.1935 78.2224 78.9685 82.6701 79.0579 88.335C79.0792 89.7012 78.96 90.9823 78.6961 92.157C78.5173 86.1601 73.5377 82.2657 69.4901 79.1034C67.1535 77.2776 64.9488 75.5496 64.4168 73.8769ZM59.0753 58.308C59.1094 58.4271 59.0966 58.5506 59.037 58.657C58.9774 58.7634 58.8795 58.8442 58.7646 58.8783C58.5178 58.9506 58.2581 59.0358 57.9772 59.1379C57.4239 59.338 57.0792 59.7763 57.0281 60.3467C56.9515 61.2234 57.5431 62.1598 58.5348 62.7301C59.8329 63.4749 59.9691 64.7688 60.0755 65.803C60.1904 66.9054 60.3011 67.3735 60.9353 67.531C61.9057 67.7736 63.8422 66.9862 64.9786 65.5732C65.7404 64.6241 66.4299 63.0493 65.3829 60.9383C64.6083 59.372 63.3272 58.5463 61.5779 58.474C61.3268 58.4612 61.1268 58.2484 61.1395 57.9973C61.1481 57.7802 61.3226 57.6142 61.5864 57.5589C61.8376 57.5674 62.0631 57.5972 62.2802 57.6398C60.4969 56.1118 57.1175 55.0052 55.1427 55.3585C54.4361 55.4861 54.0403 55.7841 53.968 56.2437C53.7679 57.4567 53.968 58.4569 54.5511 59.1294C54.9469 59.5848 55.5087 59.8615 56.1812 59.9338C56.3599 59.1422 56.8834 58.5548 57.6623 58.2739C57.9134 58.1845 58.1901 58.0909 58.4965 58.0015C58.5391 57.9888 58.5816 57.9845 58.6242 57.9845C58.8242 57.9845 59.0072 58.1122 59.0668 58.3122L59.0753 58.308ZM54.6447 54.5455C54.7511 54.5115 54.8618 54.4774 54.9852 54.4562C55.2789 54.4008 55.5981 54.3753 55.9386 54.3753C57.6495 54.3753 59.867 55.0265 61.6375 56.0863C61.778 55.1712 61.6248 53.4432 60.9438 52.1621C58.6667 52.8133 56.3301 52.7495 55.879 52.7282C55.6406 52.7154 55.2831 52.7452 54.8618 52.8133C54.7213 53.4262 54.666 54.1029 54.6447 54.5413V54.5455ZM74.3506 33.4138C74.1335 33.2819 74.0654 32.9967 74.1974 32.7839C74.3719 32.4988 74.5804 32.2562 74.8443 32.0221C73.2993 30.4856 71.1159 30.5835 69.7114 31.3454C68.707 31.8859 67.7578 32.9669 68.0643 34.397C68.9666 34.5204 69.7284 35.1078 70.0264 35.9122C70.0562 35.9888 70.0987 36.0697 70.1413 36.1505C70.154 36.1718 70.1668 36.1931 70.1796 36.2186C70.8989 35.9633 72.065 35.8952 73.427 36.0314C73.427 35.776 73.4355 35.5079 73.4568 35.2738C73.4823 35.0269 73.6994 34.8481 73.9505 34.8609C74.2101 34.8865 74.3932 35.112 74.3676 35.3631C74.3463 35.5972 74.3378 35.8611 74.3378 36.1505H74.3591C74.4485 36.1676 74.5336 36.1803 74.6187 36.1973C75.5508 36.3718 77.7981 36.9166 78.8451 38.2148C79.0366 38.1254 79.2451 38.0232 79.4792 37.9041C80.7688 37.2571 82.5181 36.3718 83.863 36.84C84.9058 34.2949 84.1269 32.3072 82.799 31.6518C81.4796 31.0006 80.5262 31.3624 79.6027 31.7114L79.509 31.7454C78.9813 31.9455 78.4833 32.137 77.9343 32.0817C76.9383 32.0051 75.704 32.0732 74.9762 33.2606C74.8443 33.4734 74.5634 33.5415 74.3463 33.4138H74.3506ZM77.7725 38.4148C77.066 37.836 75.8785 37.3635 74.4527 37.0996C72.8141 36.7889 71.333 36.8358 70.6137 37.0401C71.2138 37.9466 72.1161 38.7808 73.1716 39.4192C74.3208 38.402 76.1552 38.4063 77.3895 38.4105C77.5257 38.4105 77.6533 38.4105 77.7725 38.4105V38.4148ZM69.1666 36.2271C68.8432 35.3504 67.9238 35.2695 67.6514 35.2653C66.9705 35.2908 66.4384 35.7377 66.2341 36.4612C65.7021 38.3509 66.5661 44.1095 69.3113 44.999C70.4179 45.3608 71.1627 45.7524 71.8224 46.0971C72.7673 46.5951 73.4611 46.9569 74.7719 46.8334C74.6996 46.7313 74.6145 46.6291 74.5166 46.5142C74.4357 46.4206 74.3974 46.3057 74.4059 46.1822C74.4144 46.0588 74.4698 45.9481 74.5634 45.8673C74.7549 45.7055 75.0443 45.7226 75.2103 45.9098C75.487 46.2291 75.6828 46.5014 75.8147 46.7653C79.2196 47.042 82.5564 44.2712 83.5013 43.4115C84.3312 42.6539 84.8037 41.2494 84.71 39.8363C84.6462 38.9 84.3312 38.1509 83.863 37.8274C82.9395 37.1933 81.0412 38.1509 79.9091 38.7212C79.5473 38.9042 79.177 39.0915 78.8876 39.2064C78.8578 39.2192 78.8323 39.2192 78.8025 39.2235C78.7855 39.2235 78.7642 39.2235 78.7429 39.232C78.4109 39.3213 77.9598 39.3256 77.4022 39.3256C75.3636 39.2916 73.5036 39.4192 73.1206 41.326C72.912 42.3602 73.0865 43.2498 73.6696 44.1223C73.7377 44.2244 73.7632 44.3478 73.7377 44.467C73.7122 44.5862 73.6441 44.6926 73.5419 44.7607C73.444 44.8288 73.3206 44.8543 73.2014 44.8288C73.0823 44.8033 72.9759 44.7352 72.9078 44.633C72.1885 43.5562 71.9672 42.4156 72.2225 41.1472C72.2949 40.794 72.4183 40.4705 72.6141 40.1385C71.3372 39.3469 70.2988 38.3041 69.5965 37.1167C69.5667 37.0826 69.5624 37.0358 69.5582 37.0018L69.4816 36.8528C69.3709 36.6485 69.256 36.4399 69.1751 36.2271H69.1666ZM69.0262 45.8715C66.6981 45.1139 65.4425 41.8027 65.2084 38.7893C64.1103 39.3724 62.693 40.8706 61.9695 42.7475C61.5013 43.969 61.1693 45.7736 62.2589 47.4548C64.3827 50.7235 68.043 50.4128 69.1155 50.2426C69.3709 50.2085 69.605 50.3788 69.639 50.6256C69.6561 50.7448 69.6263 50.8682 69.5539 50.9661C69.4816 51.064 69.3752 51.1279 69.256 51.1491C68.9538 51.196 68.4686 51.2513 67.8813 51.2513C67.2939 51.2513 66.7279 51.1917 66.1448 51.0725C67.0386 53.6262 68.6006 55.2861 70.669 55.882C72.9759 56.5502 75.4529 55.8224 76.8447 54.835C76.568 54.5838 76.2531 54.3115 75.836 53.9625C74.5166 52.8601 73.0312 51.6131 72.4183 49.9404C72.1119 50.1234 71.8522 50.2766 71.6096 50.4043C71.3756 50.5235 71.1032 50.4299 70.9882 50.2171C70.8691 49.9957 70.9499 49.7191 71.1755 49.5957C72.2268 49.0296 73.2483 48.3273 73.9973 47.7783C72.9333 47.723 72.2183 47.3484 71.3968 46.9143C70.7627 46.5823 70.0561 46.2078 69.0262 45.8715ZM65.085 50.7831C64.7871 50.6767 64.4934 50.5533 64.2082 50.4086C63.5953 51.0087 62.7909 51.5024 61.8205 51.8727C62.5739 53.4092 62.7569 55.533 62.4504 56.6013C63.1229 57.0992 63.6336 57.6355 63.9699 58.1931C64.0082 58.2101 64.0422 58.2314 64.0805 58.2484C64.1529 58.2824 64.2295 58.3207 64.3019 58.3633C64.6764 57.0439 65.8596 55.3968 67.0428 54.5455C66.1916 53.5539 65.5319 52.2898 65.0807 50.7789L65.085 50.7831ZM60.599 70.9657C60.416 71.4467 60.3777 72.3617 60.8629 72.898C61.3609 73.447 62.3525 73.5364 63.7358 73.1576C64.7615 72.8767 65.5319 72.2298 66.0298 71.2338C66.9151 69.4718 66.7619 66.9351 66.3363 65.1476C66.166 65.5008 65.949 65.8371 65.6979 66.152C64.4508 67.7055 62.6292 68.4418 61.4247 68.4844C61.263 69.0207 60.9055 70.1698 60.599 70.97V70.9657ZM67.4982 66.3606C67.3705 65.3646 67.1322 64.3857 66.8045 63.5217C66.9066 62.5386 66.7066 61.5299 66.2086 60.5297C65.9405 59.9891 65.5915 59.5125 65.1063 59.0358C65.2212 57.7887 66.5831 55.9458 67.6855 55.218C68.2388 55.7245 68.8517 56.1246 69.5029 56.4182C69.273 57.7589 69.2773 59.1847 69.5114 60.5424C69.5497 60.7638 69.7369 60.9212 69.9838 60.9212C70.137 60.8957 70.2647 60.8233 70.3413 60.7169C70.4094 60.6233 70.4349 60.5041 70.4179 60.385C70.2136 59.1975 70.2009 57.9419 70.3839 56.7502C70.3966 56.7502 70.4094 56.7587 70.4222 56.763C71.0989 56.9588 71.8139 57.0567 72.5545 57.0567C73.078 57.0567 73.6356 56.9971 74.2527 56.8736C74.7932 57.81 74.7847 60.1296 74.7762 62.1853C74.7677 64.6283 74.7549 67.1522 75.3933 68.7525C73.0525 68.4248 68.9921 67.8247 67.5025 66.3606H67.4982ZM75.1635 56.631C75.5721 57.5334 75.6572 58.9166 75.6828 60.1764C76.3723 60.6446 78.4876 60.9383 80.0368 60.7893C79.7601 59.9508 79.7474 58.9038 79.7389 57.8823C79.7346 57.3163 79.7218 56.7247 79.6537 56.1927C78.8621 56.1586 78.1386 55.899 77.5512 55.4393C76.9213 55.9288 76.0999 56.3374 75.1678 56.6268L75.1635 56.631ZM77.8832 54.5455C78.428 55.0903 79.2154 55.3499 80.0836 55.2818C81.4115 55.1882 82.7522 54.4136 83.6715 53.2049C83.9141 52.8857 84.1823 52.592 84.5313 52.26C85.0335 51.7833 85.5357 51.4173 85.9656 51.1108C86.9658 50.4001 87.6212 49.9319 87.8127 48.6295C88 47.3654 87.651 46.1141 86.8509 45.1948C86.6849 45.0033 86.7061 44.7139 86.8977 44.5479C86.9871 44.467 87.102 44.4287 87.2254 44.4372C87.3488 44.4457 87.4637 44.5011 87.5446 44.5947C87.9958 45.1139 88.332 45.7183 88.5405 46.3865C91.1155 44.7692 92.2774 40.8578 91.5964 38.368C90.9665 36.0611 89.3407 33.3415 85.1952 33.3415C85.1654 33.3415 85.1356 33.3415 85.1058 33.3415C85.3357 34.2268 85.4123 35.593 84.6547 37.3465C85.2037 37.8913 85.5442 38.751 85.6166 39.781C85.6974 40.9387 85.4378 42.1261 84.9101 43.0667C85.0377 43.088 85.1697 43.1051 85.2974 43.1434C85.54 43.2157 85.6762 43.4711 85.6081 43.7137C85.5357 43.952 85.2803 44.0925 85.0377 44.0244C84.8249 43.9605 84.5866 43.9137 84.2929 43.8797C84.2802 43.8967 84.2674 43.9137 84.2546 43.935C84.2121 43.9903 84.1695 44.0499 84.1142 44.101C82.9224 45.1863 79.7772 47.7144 76.2956 47.7144C76.0701 47.7144 75.8445 47.6974 75.6445 47.6761C75.2657 47.9826 74.3591 48.6976 73.2227 49.4424C73.6951 50.9704 75.1465 52.1876 76.4276 53.2644L76.4659 53.2985C76.9766 53.7284 77.4618 54.1327 77.8832 54.5498V54.5455ZM98.7978 31.0049C96.7464 30.6601 95.4227 31.5794 93.7501 32.7414C92.8265 33.384 91.822 34.0565 90.626 34.6013C91.1708 35.2057 91.6262 35.9164 91.9838 36.7208C92.8818 36.325 94.1884 36.0782 95.7887 35.7973L95.8483 35.7845C96.7974 35.6185 97.7806 35.444 98.7425 35.2184C98.9851 35.1631 99.2362 35.3163 99.2915 35.5589C99.3511 35.8058 99.1979 36.0526 98.951 36.1122C97.9381 36.3506 96.9251 36.5251 95.9462 36.6953C94.3714 36.972 93.0989 37.2103 92.3115 37.5678C92.3796 37.7679 92.4349 37.9424 92.4775 38.1041C92.7797 39.2022 92.7711 40.5429 92.4604 41.9006C93.699 41.7303 95.9037 41.4664 97.9636 41.4366C100.364 41.3983 103.875 39.615 104.982 37.2784C105.659 35.8441 106.51 34.6098 107.331 33.4181C107.983 32.4732 108.591 31.588 109.072 30.6729C106.804 31.1581 101.905 31.5113 98.7936 30.9921L98.7978 31.0049ZM93.7373 31.6348C91.9497 30.4175 88.9066 29.5024 87.3233 29.0811C88.2639 30.2345 88.7576 31.639 88.7619 33.1627C89.1662 33.367 89.5492 33.6224 89.911 33.9161C91.2517 33.3585 92.2987 32.6307 93.2223 31.9838C93.3968 31.8646 93.567 31.7454 93.7373 31.6305V31.6348ZM82.7309 27.7276C81.7605 27.8596 79.7389 28.1277 78.296 27.9149C75.7934 27.5574 73.9377 28.3065 73.044 30.0302C74.0356 30.2515 74.9209 30.758 75.6232 31.5071C76.5851 31.0602 77.581 31.1368 78.0109 31.1708C78.3556 31.2092 78.7344 31.0644 79.177 30.8942L79.2834 30.8559C80.2836 30.4728 81.5264 30.0004 83.2119 30.8304C83.863 31.1496 84.3993 31.6944 84.7654 32.4094C84.9356 32.4009 85.1016 32.3966 85.2633 32.3966C86.1954 32.3966 87.0509 32.5243 87.8213 32.7754C87.7234 31.2858 87.1233 29.9962 86.0762 29.0385C85.0548 28.1022 83.7396 27.5872 82.7394 27.7319L82.7309 27.7276ZM74.474 20.6539C73.7377 22.3096 74.0144 23.6801 74.2357 24.7781C74.2612 24.9016 74.2782 25.0122 74.2953 25.1229C74.2995 25.1569 74.3038 25.191 74.3123 25.225C75.4402 25.374 76.3935 25.7485 77.0915 26.3146C77.1809 25.4251 77.3512 24.5483 77.6108 23.6375C77.6448 23.5183 77.7214 23.4204 77.8321 23.3608C77.9385 23.3013 78.0619 23.2885 78.1811 23.3225C78.296 23.3523 78.3939 23.4289 78.4535 23.5353C78.5131 23.6417 78.5301 23.7652 78.4961 23.8843C78.1769 25.0122 77.9938 26.0465 77.947 26.9615C77.9683 26.9615 77.9896 26.9615 78.0109 26.9615C78.1513 26.97 78.2875 26.9786 78.4322 26.9998C79.126 27.0977 80.0623 27.0892 81.2881 26.9658C81.4371 26.6381 81.603 26.2976 81.7861 25.9316C82.5522 24.4079 83.28 22.9693 82.7096 21.1136L82.3989 20.1219C81.8669 18.4365 81.403 16.9681 81.3732 15.7211C80.7859 16.0956 80.0921 16.4531 79.3643 16.8319C77.415 17.8449 75.2146 18.9855 74.4783 20.6454L74.474 20.6539ZM72.4268 26.0975C70.3796 26.272 68.5197 27.1275 67.7153 28.2511C68.7878 28.498 69.8391 29.1236 70.7031 30.0259C71.15 29.9323 71.6139 29.8898 72.0821 29.911C72.8397 28.1916 74.3761 27.1573 76.4404 26.9615C75.9552 26.587 75.2912 26.3189 74.5081 26.1784C74.4229 26.1614 73.3078 26.0677 73.1206 26.0677C72.8737 26.0677 72.6481 26.0763 72.4268 26.0975ZM60.9055 35.4227C60.3351 36.1207 60.1394 37.0741 60.3649 38.0317C60.599 39.0277 61.2545 39.8917 62.1738 40.4279C63.0335 39.1937 64.1657 38.202 65.1573 37.8062C65.1573 37.172 65.2254 36.623 65.3404 36.2101C65.5957 35.3036 66.2597 34.6524 67.1322 34.4396C66.8683 32.8776 67.677 31.3879 69.2645 30.5324C69.405 30.4558 69.5497 30.392 69.6901 30.3366C68.758 29.4982 67.6855 29.0215 66.7236 29.0215C65.9575 29.0215 65.2978 29.3152 64.8168 29.8642C64.055 30.7367 63.4719 31.6518 62.8505 32.6264C62.2802 33.5202 61.7907 34.231 61.263 34.929C61.2119 34.9929 61.1693 35.0567 61.1225 35.1205C61.0502 35.2184 60.9821 35.3206 60.897 35.4185L60.9055 35.4227ZM59.4754 36.3676C58.3518 37.6019 57.4367 39.3511 56.9813 41.1643C59.0072 41.3898 60.6969 41.5643 61.4545 41.6367C61.5226 41.4962 61.6035 41.3515 61.6928 41.194C60.565 40.5301 59.7606 39.4575 59.4711 38.236C59.3264 37.6146 59.3264 36.9762 59.4711 36.3633L59.4754 36.3676ZM49.7586 54.3923C51.3973 52.409 54.7468 51.7493 55.9215 51.8131H55.9641C57.5176 51.8514 61.3268 51.7322 63.391 49.9149C62.6249 49.3829 61.9993 48.7402 61.4886 47.9528C61.3141 47.6847 61.1651 47.3952 61.0246 47.0505C60.4969 47.1484 59.8201 47.1697 58.9987 47.1824C58.0666 47.1952 57.0154 47.2122 55.9556 47.3825C55.7087 47.3825 55.5215 47.2207 55.4831 46.9994C55.4448 46.7526 55.6151 46.5142 55.8619 46.4717C56.9217 46.2972 58.0113 46.2801 58.9732 46.2674C59.7052 46.2546 60.3054 46.2418 60.7395 46.1737C60.4884 45.0373 60.599 43.8116 61.0672 42.5305C60.3479 42.4581 58.4667 42.2623 56.1258 41.9985C55.9513 41.9814 55.7811 41.9729 55.6151 41.9729C52.9082 41.9729 51.1164 44.301 50.5716 46.5908C50.4481 47.1186 50.2907 47.6166 50.1374 48.0975C49.6054 49.7957 49.1032 51.3832 49.7501 54.4008L49.7586 54.3923ZM51.1036 63.9942C50.9419 65.122 50.8184 66.0158 51.8569 66.999L52.2187 67.3395C53.4019 68.4546 54.517 69.5016 55.2533 71.153C55.5087 71.7276 56.1258 72.2042 56.9813 72.4979C57.8666 72.8001 58.9349 72.8512 59.6882 72.6256C59.4541 71.8765 59.5648 71.0934 59.7393 70.638C59.7776 70.5358 59.8201 70.4252 59.8585 70.3103C59.2328 70.0081 58.6923 69.6378 58.2028 69.1909C58.1134 69.11 58.0624 68.9951 58.0539 68.8717C58.0496 68.7483 58.0922 68.6333 58.173 68.5397C58.3475 68.3524 58.6369 68.3439 58.82 68.5142C59.2115 68.8759 59.6456 69.1739 60.1521 69.4335C60.2883 69.0249 60.4075 68.6333 60.4969 68.3482C59.3733 67.9439 59.2541 66.816 59.1604 65.9009C59.054 64.9007 58.9647 64.0367 58.0751 63.526C57.0068 62.9088 56.2961 61.9172 56.1599 60.8489C55.9556 60.8318 55.747 60.7935 55.547 60.7425C55.4789 61.8746 55.9173 64.258 57.1686 66.4031C57.2324 66.5095 57.2452 66.633 57.2154 66.7521C57.1856 66.8713 57.109 66.9692 57.0026 67.0288C56.7855 67.1522 56.5004 67.0713 56.3769 66.8628C55.032 64.5475 54.4574 61.781 54.666 60.3764C54.3297 60.1807 54.0659 59.9679 53.853 59.721C53.4998 59.3124 53.0699 58.5974 52.9891 57.4865C52.257 57.7078 51.6909 58.1164 51.3377 58.6782C50.844 59.4656 50.7418 60.5041 51.0568 61.5384C51.3249 62.4194 51.21 63.2153 51.0993 63.9899L50.9759 63.9729C50.9759 63.9729 51.0993 63.9899 51.0993 63.9942H51.1036ZM42.719 89.199C46.175 87.62 51.9548 88.3393 55.5385 89.9481C58.6838 91.3611 62.5654 91.8633 65.6681 91.259C65.9149 91.2121 66.0767 90.9695 66.0298 90.7184C65.983 90.4758 65.7489 90.3141 65.4936 90.3567C62.5611 90.927 58.8923 90.446 55.9173 89.1096C55.6193 88.9734 55.2831 88.8415 54.8703 88.6925C55.5598 88.335 56.2237 87.8711 56.8494 87.3093C57.0366 87.139 57.0494 86.8496 56.8792 86.6623C56.7089 86.4751 56.4195 86.4623 56.2322 86.6283C55.381 87.3986 54.4744 87.9477 53.5296 88.2712C50.4567 87.3944 45.7707 86.8879 42.5062 88.2882C41.0846 83.666 43.8809 80.3122 46.8389 76.7668C48.8776 74.3195 51.1845 71.5531 51.8399 68.2375C52.8486 69.1866 53.785 70.1102 54.4149 71.5148C54.7766 72.3234 55.581 72.9746 56.6834 73.3491C57.79 73.7279 59.0923 73.8088 60.1308 73.4258C60.1436 73.447 60.1606 73.4726 60.1819 73.4981C60.4415 73.7833 60.7863 73.9961 61.2034 74.128C61.2502 75.8815 60.965 77.7925 60.382 79.6695C60.3096 79.9121 60.4415 80.1675 60.6841 80.2441C60.914 80.3207 61.1864 80.1845 61.2587 79.9419C61.8461 78.0479 62.144 76.0944 62.1185 74.2855C62.1568 74.2855 62.1951 74.2897 62.2376 74.2897C62.6037 74.2897 63.0293 74.2344 63.5358 74.1195C64.1486 76.0773 66.4682 77.8862 68.9198 79.8057L69.439 80.2143C70.4222 81.572 71.1883 84.0278 70.5669 86.2282C70.5328 86.3474 70.5499 86.4708 70.6094 86.5772C70.669 86.6836 70.7669 86.7602 70.8818 86.7943C71.1287 86.8666 71.3841 86.7177 71.4522 86.4793C72.0055 84.5343 71.5926 82.7297 71.1883 81.6188C75.4359 85.1429 79.0238 89.2884 77.3724 95.4938C74.8826 99.5371 70.2945 100.21 67.7749 100.248C67.7195 100.248 67.6642 100.248 67.6089 100.248C63.9699 100.248 60.6714 98.3922 57.1813 96.4259C52.9422 94.0382 48.1413 91.3356 41.6379 91.3356C41.5443 91.3356 41.4464 91.3356 41.3528 91.3356C40.9953 91.3398 40.6548 91.3696 40.3313 91.4037C40.8037 90.4418 41.6082 89.697 42.7233 89.1905L42.719 89.199ZM31.0529 102.733C31.0402 101.882 31.1508 98.886 33.1725 96.145C35.0069 93.6594 37.8372 92.3145 41.3613 92.2634C41.4762 92.2634 41.5954 92.2634 41.7103 92.2634C47.8945 92.2634 52.5847 94.9065 56.7259 97.2388C60.3266 99.2647 63.7273 101.18 67.6004 101.18H67.7834C71.5075 101.116 80.1474 99.7457 79.9644 88.3222C79.8708 82.3977 77.0234 77.8308 74.7379 74.1621C73.5845 72.3064 72.4907 70.5529 72.2183 69.1696C73.4185 69.408 74.6017 69.5697 75.4742 69.6931C75.4742 69.6931 76.2318 69.7995 76.2914 69.8038C76.4574 69.8038 76.6106 69.7144 76.6915 69.5697C76.7851 69.4037 76.7638 69.1952 76.6404 69.0504C75.6572 67.8843 75.67 64.8582 75.6785 62.1938C75.6785 61.8576 75.6785 61.5299 75.6785 61.2064C76.6574 61.6022 78.0875 61.7427 79.1345 61.7427C79.7559 61.7427 80.3262 61.6958 80.7774 61.6107C80.9263 61.5809 81.0497 61.483 81.1093 61.3426C81.1689 61.2064 81.1604 61.0447 81.0795 60.917C80.6624 60.2402 80.6497 59.04 80.6369 57.8781C80.6326 57.3716 80.6156 56.7247 80.5475 56.1246C82.0244 55.899 83.4162 55.0435 84.3908 53.7624C84.5525 53.5496 84.7313 53.3453 84.9441 53.124C88.1064 53.6518 95.4397 51.1747 98.8659 47.0633C99.1341 49.0126 99.3469 52.077 98.9468 56.0309L98.9383 56.1246C98.9085 56.431 98.5169 56.8822 98.1296 57.3291C97.5976 57.9419 96.9975 58.6357 96.84 59.4699C96.5591 60.9681 97.4571 65.1859 98.9127 67.0245C99.3511 67.5778 99.5171 68.1737 99.3767 68.6589C99.249 69.0845 98.8915 69.408 98.3467 69.591C98.0658 69.6846 97.8147 69.7697 97.5891 69.8506C96.3974 70.2677 95.6908 71.4594 95.9122 72.6809C95.9462 72.8725 96.0228 73.1193 96.1463 73.4598C96.2739 73.8045 96.1973 74.1876 95.959 74.443C95.4908 74.9452 94.8992 75.2218 94.8311 75.2516C94.6226 75.3453 94.5119 75.5794 94.5715 75.8007C94.9418 77.1073 94.5459 77.2648 93.8905 77.5287C92.7754 77.9798 92.3328 78.9672 91.9029 79.9291C91.2815 81.3251 90.741 82.5296 88.3362 82.6275C88.3022 82.6275 88.2682 82.6275 88.2298 82.6275C85.8762 82.6275 81.7222 79.7206 81.2498 79.3843C81.2072 79.3545 81.1647 79.3503 81.1476 79.3503C81.1306 79.3375 81.0966 79.3077 81.0455 79.2992H81.0285H81.0114C80.9093 79.312 80.8667 79.3248 80.8157 79.346C80.7646 79.3673 80.7135 79.3929 80.6752 79.4312C80.6071 79.4907 80.5858 79.5418 80.5773 79.5844C80.5645 79.6014 80.5348 79.6355 80.5305 79.6865C80.024 83.2191 82.2159 88.1264 84.9824 89.6842C84.9654 89.731 84.9484 89.7821 84.9313 89.8374C84.5696 91.3568 77.5682 110.373 76.5595 112.846C75.9807 114.268 75.304 117.766 74.5889 121.473C74.1633 123.669 73.7803 125.64 73.3887 127.423C68.4048 121.967 63.4123 115.851 59.6627 110.603C59.5903 110.501 59.4839 110.437 59.3605 110.416C59.2413 110.395 59.1179 110.424 59.0242 110.497C58.82 110.646 58.7689 110.931 58.9178 111.135C62.842 116.63 68.0728 123.014 73.2695 128.645C77.5129 133.246 81.3051 136.872 83.9482 138.864C84.493 139.272 85.0505 139.677 85.7102 140.132C87.0339 141.047 88.2469 141.813 89.7025 142.72C91.3198 143.729 93.1499 144.869 95.6015 146.546C97.5806 147.9 102.339 151.641 107.851 155.973C114.72 161.375 123.266 168.095 129.404 172.509C131.889 174.296 133.762 175.552 135.12 176.343C136.188 176.969 137.316 177.165 138.329 177.344C139.244 177.505 140.035 177.641 140.623 178.059C142.134 179.123 144.939 180.702 146.905 181.719C147.684 182.123 147.82 183.017 147.994 184.149C148.007 184.23 148.02 184.315 148.033 184.396C147.977 184.336 147.926 184.281 147.88 184.23C146.377 182.553 144.777 182.306 144.768 182.306C144.645 182.285 144.526 182.31 144.428 182.383C144.33 182.455 144.262 182.566 144.241 182.689C144.219 182.808 144.249 182.932 144.321 183.03C144.394 183.128 144.5 183.196 144.619 183.213C144.632 183.213 145.935 183.438 147.194 184.843C148.45 186.247 151.897 189.342 154.149 191.091C154.591 191.431 154.975 191.802 155.289 192.18C155.724 192.704 156.277 193.287 156.937 193.921C156.605 193.708 156.281 193.5 155.953 193.283C155.741 193.147 155.455 193.206 155.319 193.415C155.251 193.517 155.23 193.64 155.255 193.759C155.281 193.879 155.349 193.981 155.451 194.049C158.03 195.739 159.924 196.871 161.069 197.398C161.227 197.513 161.384 197.633 161.512 197.726C162.236 198.245 162.338 198.85 162.193 199.237C162.104 199.48 161.912 199.65 161.669 199.714C161.546 199.437 161.359 199.216 161.116 199.058C160.733 198.811 159.997 198.428 159.069 197.943L158.277 197.526C158.171 197.471 158.043 197.458 157.928 197.496C157.813 197.535 157.715 197.611 157.66 197.722C157.541 197.943 157.63 198.224 157.852 198.343L158.737 198.803C159.605 199.258 160.29 199.616 160.627 199.833C160.827 199.961 160.971 200.276 160.874 200.539C160.712 200.974 159.954 201.148 158.886 200.991C157.979 200.867 155.966 200.437 154.8 199.692C153.8 199.258 152.514 198.858 151.276 198.471C150.191 198.13 149.067 197.781 148.207 197.424C147.811 197.049 147.437 196.675 147.092 196.313C146.726 195.93 146.318 195.602 145.879 195.338C145.483 195.104 145.105 194.87 144.743 194.649C144.526 194.517 144.245 194.589 144.113 194.802C143.981 195.019 144.049 195.3 144.266 195.432C144.632 195.653 145.015 195.888 145.411 196.126C145.777 196.343 146.122 196.62 146.432 196.947C147.433 197.999 149.122 199.65 152.225 201.85C152.331 201.923 152.421 202.182 152.327 202.433C152.217 202.731 151.914 202.868 151.476 202.816C148.846 202.574 147.135 201.165 146.347 200.348C146.309 200.31 146.266 200.276 146.215 200.254L146.032 200.165C136.954 195.824 135.669 194.875 135.494 194.687C134.124 193.227 125.807 183.579 125.628 181.455C125.616 181.315 125.539 181.187 125.42 181.11C117.006 175.688 109.702 172.228 103.833 169.448C100.215 167.733 97.0911 166.252 94.4991 164.699C91.3113 162.788 87.983 160.353 85.0377 158.199C82.4883 156.335 80.2879 154.726 78.5344 153.696C77.4363 153.054 76.351 152.254 75.2188 151.249C74.0144 150.185 72.7035 149.096 70.9627 147.725C68.2686 145.601 65.5787 143.652 63.0718 141.856L62.4547 141.413C57.8751 138.132 53.5509 135.029 49.8182 131.513C38.3054 120.656 31.1296 107.437 31.0572 102.738L31.0529 102.733ZM54.717 160.076C54.9724 160.949 55.9088 163.396 58.7391 165.482C61.1736 167.274 72.5545 168.384 75.5338 164.473C76.3467 163.409 76.8958 161.323 77.5342 158.914C77.8747 157.625 78.245 156.25 78.6918 154.88L78.5429 154.786C78.3811 154.684 78.2194 154.577 78.0704 154.492C76.9213 153.82 75.7892 152.986 74.6102 151.943C73.5377 150.994 72.3374 149.994 70.8393 148.802C69.8391 150.483 65.1573 157.425 54.717 160.085V160.076ZM57.2494 165.422C54.849 163.298 54.0446 161.085 53.819 160.289C52.1761 160.608 48.4265 161.081 46.541 161.081C46.4857 161.081 46.4304 161.081 46.3835 161.081C46.5751 161.494 46.8347 161.983 47.0943 162.307C49.3203 165.073 54.7043 165.422 57.2494 165.426V165.422ZM78.4237 159.144C77.9172 161.051 77.4363 162.86 76.8021 164.132C78.8663 163.779 84.6249 162.758 88.366 161.732C86.9743 160.749 85.6336 159.77 84.4972 158.94C82.6756 157.608 80.9476 156.348 79.5005 155.386C79.0962 156.659 78.7472 157.94 78.428 159.144H78.4237ZM37.5138 118.6C39.2758 124.027 41.9955 131.156 44.2001 136.936C46.0473 141.779 47.7881 146.346 48.4095 148.474C51.3973 149.487 55.3129 149.202 56.3769 148.708C59.0285 147.474 60.8927 144.695 62.2291 142.379L61.944 142.175C57.3303 138.868 52.972 135.748 49.1883 132.177C44.8641 128.1 40.842 123.418 37.5138 118.6ZM45.809 160.115C46.4899 160.349 52.2357 159.74 54.0573 159.306C64.6424 156.782 69.1879 149.836 70.1115 148.227C67.6131 146.269 65.1105 144.452 62.9782 142.92C61.5864 145.325 59.6286 148.215 56.7642 149.542C56.062 149.87 54.5766 150.083 52.9848 150.083C51.1206 150.083 49.3075 149.794 47.8817 149.274C46.6389 148.815 43.7958 147.342 41.9572 145.044C41.7997 144.844 41.8337 144.559 42.0295 144.401C42.2295 144.244 42.519 144.278 42.6722 144.473C44.1959 146.376 46.3708 147.572 47.3071 148.027C46.5793 145.763 45.0726 141.818 43.3447 137.281L42.4551 134.948C41.5528 136.842 40.8974 138.66 40.3483 140.226L40.3228 140.298C40.0887 140.966 39.8844 141.545 39.7014 141.992C39.1353 143.371 39.097 149.291 39.2503 152.858C39.3439 155.029 43.4511 159.298 45.8047 160.123L45.809 160.115ZM41.4507 166.324C41.7443 166.009 42.2295 165.822 42.9318 165.758C42.9318 165.946 42.9446 166.116 42.9744 166.286C43.1063 166.997 43.6639 168.04 44.63 169.393C44.7747 169.593 45.0769 169.644 45.2684 169.499C45.3663 169.427 45.4344 169.321 45.4557 169.202C45.477 169.082 45.4472 168.959 45.3748 168.861C44.5108 167.652 43.9788 166.678 43.8767 166.116C43.5447 164.337 45.7962 163.392 46.6176 163.107C49.2522 166.022 54.8958 166.341 57.2111 166.341C57.7815 166.341 58.1773 166.324 58.356 166.316C59.8968 167.333 63.5358 168.065 67.0428 168.065C69.5454 168.065 74.0399 167.691 76.1254 165.175C77.232 164.992 85.1186 163.656 89.3279 162.409C90.1494 162.979 90.9878 163.545 91.8178 164.09C90.4856 166.469 87.468 169.606 82.9012 171.393C82.7862 171.44 82.6969 171.525 82.6501 171.636C82.599 171.747 82.599 171.874 82.6415 171.985C82.7309 172.215 82.9991 172.338 83.2374 172.245C87.9915 170.385 91.1708 167.091 92.5924 164.579L92.7711 164.694C93.184 164.958 93.6096 165.235 94.0267 165.486C96.0186 166.678 98.2743 167.81 101.045 169.138C101.926 175.471 102.032 182.293 101.283 184.366C100.675 186.047 98.019 195.475 98.2913 200.582C92.5668 195.466 85.8379 190.355 84.2121 189.503C83.0374 188.886 77.9938 187.077 72.1417 184.983C71.3202 182.528 71.4224 178.088 71.8948 174.76C71.9288 174.509 71.7543 174.275 71.4947 174.241C71.2394 174.224 71.0223 174.398 70.9882 174.632C70.5839 177.48 70.3796 181.753 71.0904 184.609C65.7404 182.693 58.5561 180.119 56.1982 179.012C56.0875 178.957 55.9641 178.952 55.8492 178.991C55.7343 179.033 55.6406 179.118 55.5896 179.229C55.5385 179.34 55.53 179.463 55.5725 179.578C55.6151 179.693 55.7002 179.787 55.8109 179.838C58.2326 180.974 65.0339 183.409 71.6182 185.766L71.6948 185.796C77.3341 187.818 82.6628 189.725 83.7864 190.316C85.357 191.138 92.5158 196.539 98.5808 202.072C101.722 204.94 104.075 207.383 105.569 209.341C104.829 209.452 104.195 209.528 103.684 209.562C101.603 207.864 96.3591 206.519 92.5115 205.536C90.8346 205.106 89.2556 204.702 88.7491 204.451C84.544 202.348 78.9813 197.76 73.6015 193.325C68.5963 189.197 63.872 185.298 60.5863 183.694C56.777 181.834 49.9204 181.651 48.4563 181.634C41.3017 175.169 41.0634 171.185 40.9485 169.265C40.8506 167.665 40.9953 166.814 41.4464 166.329L41.4507 166.324ZM41.7699 175.156C43.068 177.446 45.1407 179.88 47.9455 182.404C48.6776 183.06 49.316 183.613 49.9629 184.136C50.1545 184.29 50.4481 184.26 50.6056 184.072C50.6822 183.979 50.7205 183.86 50.7078 183.736C50.695 183.613 50.6354 183.502 50.5418 183.426C50.1928 183.14 49.8651 182.864 49.5373 182.583C51.9804 182.681 57.1941 183.055 60.1862 184.519C63.3698 186.073 68.06 189.942 73.0227 194.032C78.1726 198.279 83.4928 202.668 87.7446 204.949C86.8849 205.762 86.4465 207.026 86.0677 208.26C85.7783 209.218 85.5017 210.12 85.0548 210.533H84.9994C83.3608 210.533 79.7814 210.286 74.9081 209.916C75.0614 205.485 73.061 201.246 69.8008 199.097C67.6259 197.662 65.2084 196.036 63.3315 194.738C63.2293 194.666 63.1059 194.64 62.9825 194.662C62.8633 194.683 62.7569 194.751 62.693 194.853C62.6249 194.955 62.5952 195.075 62.6207 195.198C62.642 195.317 62.7101 195.424 62.8122 195.492C64.6849 196.786 67.1109 198.42 69.2986 199.858C72.2906 201.829 74.125 205.74 73.9973 209.843C73.1035 209.775 72.197 209.707 71.2564 209.635C69.6093 209.507 67.8855 209.375 66.149 209.243C66.796 206.119 66.6002 204.034 65.5276 202.685C64.4764 201.361 55.1001 193.683 51.7292 192.64C48.5457 191.657 45.0514 189.848 44.43 188.026C43.8852 186.439 42.3657 179.378 41.7656 175.156H41.7699ZM54.7553 228.128C41.4592 230.226 19.2124 233.737 17.1609 233.456C12.4068 232.712 4.56276 227.987 2.97522 226.366C1.53239 224.893 -0.0253521 215.559 1.56644 213.214C6.28649 206.26 29.2824 192.189 43.7618 188.703C44.83 190.827 48.5627 192.619 51.4654 193.513C54.6106 194.483 63.8167 201.987 64.8168 203.246C65.7191 204.383 65.8511 206.268 65.234 209.167C62.0291 208.928 57.8964 208.626 54.1297 208.418C53.8871 208.418 53.6871 208.609 53.67 208.852C53.6615 208.975 53.7041 209.094 53.7892 209.184C53.8701 209.273 53.985 209.328 54.1042 209.333C59.369 209.626 65.5191 210.103 70.9457 210.52L71.2351 210.541C77.4703 211.022 82.8543 211.439 85.0122 211.439H85.0718C85.2208 211.444 85.3697 211.448 85.4974 211.35C86.255 210.805 86.5955 209.694 86.9573 208.511C87.319 207.324 87.7319 205.983 88.6299 205.37C89.3066 205.638 90.5835 205.975 92.3072 206.417C95.942 207.349 101.432 208.754 103.237 210.367C103.382 210.499 103.505 210.507 103.582 210.482C106.57 210.32 113.375 208.762 116.159 207.609C117.529 207.039 118.972 207.673 120.504 208.349L120.542 208.366C121.755 208.903 123.015 209.452 124.313 209.379C125.88 209.307 126.518 209.928 127.254 210.648C127.735 211.116 128.229 211.601 128.987 211.967C129.923 212.423 130.608 213.278 130.732 214.146C130.812 214.712 130.646 215.244 130.255 215.683C128.94 215.155 125.99 214.283 123.666 214.551C123.415 214.58 123.237 214.806 123.262 215.057C123.275 215.185 123.347 215.304 123.454 215.381C123.551 215.453 123.671 215.478 123.773 215.461C124.982 215.33 126.667 215.534 128.369 216.015C126.041 216.325 123.739 216.717 121.568 217.092C118.036 217.704 114.699 218.279 112.894 218.092C109.723 217.738 106.208 219.058 102.807 220.33L102.773 220.343C100.364 221.246 98.0828 222.097 96.0186 222.344L95.9845 222.335C95.3887 222.22 94.7715 222.105 94.1203 221.961C90.8303 221.237 84.9526 220.309 82.616 222.224C82.0244 222.705 81.6882 223.335 81.6073 224.089C77.4448 224.54 66.4214 226.281 54.7596 228.123L54.7553 228.128ZM134.183 235.738C132.094 237.921 125.25 239.747 122.611 239.53C121.632 239.449 120.632 238.998 119.559 238.521C117.189 237.461 114.494 236.257 111.234 238.806C107.05 242.079 104.199 242.603 98.5297 241.143C95.3929 240.343 91.6688 241.437 87.7234 242.594C84.4291 243.56 81.0242 244.561 77.6831 244.565C78.1811 237.483 73.6866 229.941 69.107 226.804C70.0817 226.655 71.0223 226.51 71.9289 226.37C73.9803 226.744 76.5212 227.353 79.4792 228.179C79.7431 228.247 79.9772 228.094 80.041 227.86C80.1091 227.617 79.9687 227.362 79.7218 227.294C77.8406 226.77 76.1041 226.327 74.5506 225.978C78.1896 225.438 80.6326 225.11 82.0159 224.97C82.582 225.11 90.4686 227.055 95.0907 227.515C95.3291 227.515 95.5249 227.336 95.5461 227.102C95.5589 226.979 95.5206 226.859 95.444 226.766C95.3674 226.672 95.2567 226.613 95.1333 226.6C91.0219 226.191 84.1354 224.544 82.5309 224.152C82.5947 223.646 82.8118 223.246 83.1948 222.935C85.3144 221.203 91.4049 222.305 93.9203 222.859C94.6226 223.012 95.2695 223.135 95.9292 223.259C96.2867 223.327 96.6102 223.386 96.9166 223.437C98.1168 224.072 100.147 225.429 102.492 227C106.378 229.6 111.213 232.839 114.771 234.444C114.988 234.546 115.278 234.444 115.38 234.218C115.431 234.108 115.435 233.98 115.392 233.865C115.35 233.75 115.265 233.661 115.15 233.61C113.324 232.784 110.983 231.448 107.821 229.417C117.946 231.32 123.628 231.762 126.207 230.86C127.735 230.324 129.199 229.153 130.625 228.009C132.081 226.847 133.451 225.744 134.822 225.344C135.103 225.259 135.264 225.272 135.358 225.289L135.473 225.314C135.567 225.353 135.618 225.4 135.63 225.412C136.12 225.897 135.992 227.617 135.613 229.094C133.924 229.417 132.715 230.298 132.379 231.46C132.14 232.273 132.37 233.107 132.979 233.639C133.187 233.822 133.8 234.21 134.711 234.733C134.681 235.048 134.503 235.384 134.171 235.729L134.183 235.738ZM151.05 240.951C151.799 240.939 152.846 240.845 154.443 240.649C155.515 240.517 156.656 240.36 157.86 240.194L158.775 240.066C162.01 239.615 165.355 239.147 166.994 239.266C168.42 239.266 169.926 236.67 171.382 234.159C172.663 231.95 173.982 229.673 175.472 228.694C172.889 228.213 169.867 227.911 166.747 227.617C162.333 227.204 158.516 226.842 156.834 225.902C156.579 226.046 156.324 226.187 156.06 226.332C154.609 227.132 153.106 227.953 152.119 229.107C150.05 231.52 151.336 233.601 154.26 236.38C156.371 236.751 159.324 237.164 161.486 237.032C161.755 237.032 161.959 237.215 161.972 237.461C161.98 237.585 161.942 237.7 161.861 237.793C161.78 237.887 161.669 237.938 161.546 237.947C161.252 237.968 160.929 237.976 160.58 237.976C155.745 237.976 147.807 236.074 145.347 235.048C145.236 235.001 145.147 234.912 145.1 234.801C145.053 234.686 145.053 234.563 145.1 234.448C145.198 234.218 145.466 234.108 145.7 234.201C147.037 234.759 149.791 235.504 152.646 236.078C150.582 233.937 148.961 231.384 151.421 228.511C152.51 227.238 154.081 226.374 155.6 225.536C157.588 224.442 159.452 223.416 159.707 221.722C159.869 220.671 159.605 219.926 158.954 219.56C158.052 219.058 156.6 219.36 155.511 220.275C154.57 221.071 151.225 223.855 147.722 226.391C147.518 226.536 147.233 226.489 147.084 226.289C147.011 226.187 146.982 226.068 147.003 225.944C147.024 225.825 147.088 225.719 147.186 225.646C150.672 223.123 153.987 220.36 154.919 219.573C155.281 219.271 155.685 219.015 156.119 218.824L155.945 218.781C151.17 217.632 145.224 216.206 142.585 216.483C142.112 216.538 141.189 216.517 139.827 216.474H139.763C137.329 216.411 133.647 216.317 130.408 216.674C127.433 217.002 124.437 217.521 121.794 217.977L121.717 217.99C117.946 218.641 114.686 219.207 112.788 218.998C109.804 218.683 106.391 219.96 103.088 221.194C101.377 221.837 99.9214 222.369 98.5254 222.752C100.309 223.003 101.986 223.148 103.76 223.199C104.016 223.208 104.212 223.42 104.207 223.672C104.199 223.923 103.999 224.118 103.748 224.118C102.19 224.072 100.756 223.969 99.283 223.786C100.343 224.459 101.603 225.302 103.003 226.238C103.888 226.834 104.829 227.46 105.791 228.094C116.954 230.286 123.347 230.89 125.909 229.996C127.293 229.511 128.693 228.387 130.046 227.302C131.251 226.336 132.434 225.425 133.63 224.859C132.081 224.472 129.821 223.901 127.314 223.242C127.071 223.178 126.922 222.927 126.986 222.68C127.042 222.476 127.229 222.339 127.433 222.339C127.471 222.339 127.505 222.344 127.544 222.352C131.876 223.493 135.362 224.344 135.507 224.378C135.528 224.378 135.558 224.391 135.592 224.399L135.63 224.408C135.724 224.429 135.788 224.446 135.839 224.48C136.013 224.544 136.162 224.638 136.29 224.761C137.465 225.927 136.541 229.247 136.431 229.622C136.379 229.796 136.235 229.924 136.056 229.949C134.571 230.171 133.528 230.835 133.268 231.716C133.128 232.188 133.251 232.652 133.592 232.946C133.805 233.133 134.468 233.546 135.452 234.112C139.486 236.419 148.501 240.943 151.046 240.943L151.05 240.951ZM191.292 239.79C191.582 238.751 190.679 237.93 189.871 237.423C188.628 236.644 187.185 235.474 185.657 234.235C183.635 232.597 181.375 230.758 179.46 229.788C178.741 229.422 178.132 229.205 177.596 229.128C177.575 229.128 177.536 229.128 177.494 229.115C177.017 229.056 176.608 229.111 176.264 229.277C174.872 229.954 173.497 232.32 172.174 234.61C170.471 237.547 168.862 240.305 166.934 240.181C165.249 240.092 161.529 240.611 158.247 241.066C157.341 241.194 156.451 241.313 155.609 241.424C156.396 242.105 157.447 243.084 158.384 244.19C161.491 243.326 174.548 243.024 184.138 242.871H184.457C188.211 242.807 190.875 241.254 191.284 239.79H191.292ZM52.8316 156.259C53.2912 156.412 53.6871 156.514 54.1042 156.591C54.3212 156.591 54.5085 156.437 54.5511 156.225C54.5766 156.105 54.5511 155.982 54.4872 155.88C54.4191 155.778 54.317 155.71 54.1978 155.684C53.8828 155.62 53.5168 155.518 53.1167 155.386C52.8699 155.318 52.6188 155.446 52.5422 155.68C52.4613 155.918 52.5932 156.178 52.8316 156.259ZM49.2351 154.612C49.4054 154.612 49.5586 154.518 49.6395 154.369C49.7586 154.148 49.6735 153.867 49.4522 153.748C46.9156 152.39 44.4683 150.696 43.5064 149.623C43.3404 149.436 43.0467 149.419 42.8595 149.589C42.7658 149.67 42.7147 149.785 42.7062 149.908C42.6977 150.032 42.7403 150.147 42.8212 150.24C43.8469 151.385 46.3963 153.164 49.0181 154.565C49.0862 154.599 49.1585 154.62 49.2351 154.62V154.612ZM88.532 211.937C88.6512 211.971 88.7746 211.954 88.8768 211.891C89.9749 211.269 92.9499 211.09 93.6734 212.359C93.7543 212.503 93.9075 212.589 94.0735 212.589C94.1544 212.589 94.2352 212.567 94.2991 212.529C94.4055 212.469 94.4821 212.372 94.5119 212.252C94.5459 212.133 94.5289 212.01 94.4693 211.903C94.0054 211.086 92.9712 210.588 91.5709 210.507C90.426 210.439 89.1619 210.678 88.4256 211.095C88.3192 211.154 88.2426 211.252 88.2086 211.371C88.1745 211.491 88.1915 211.614 88.2511 211.72C88.3107 211.827 88.4129 211.908 88.532 211.937ZM60.9906 219.59C60.7182 219.713 60.4373 219.833 60.1521 219.943C60.0372 219.986 59.9478 220.071 59.8968 220.186C59.8457 220.296 59.8457 220.424 59.8883 220.535C59.9563 220.714 60.1266 220.828 60.3181 220.828C60.3734 220.828 60.4288 220.82 60.4799 220.799C60.7948 220.679 61.0927 220.556 61.3694 220.424C61.5992 220.318 61.7014 220.045 61.595 219.815C61.4928 219.586 61.2247 219.488 60.9906 219.586V219.59ZM53.5296 186.877C53.6104 186.933 53.7041 186.962 53.7977 186.962C53.9424 186.962 54.0829 186.89 54.168 186.771C54.2404 186.673 54.2702 186.55 54.2489 186.43C54.2276 186.307 54.1637 186.201 54.0616 186.128C53.7552 185.907 53.4572 185.69 53.1678 185.477C52.9635 185.328 52.6784 185.371 52.5251 185.571C52.3762 185.775 52.4187 186.06 52.623 186.213C52.9167 186.43 53.2189 186.652 53.5296 186.873V186.877ZM59.22 192.938C59.3052 192.998 59.3988 193.032 59.4967 193.032C59.6414 193.032 59.7776 192.964 59.8627 192.849C60.0159 192.649 59.9734 192.359 59.7733 192.206C59.2669 191.823 58.9136 191.533 58.7263 191.35C58.5433 191.18 58.2539 191.18 58.0794 191.359C57.9049 191.538 57.9049 191.831 58.0879 192.006C58.3007 192.214 58.671 192.517 59.22 192.934V192.938ZM104.114 190.235C104.369 190.235 104.569 190.04 104.578 189.793C104.59 189.452 104.607 189.133 104.624 188.831C104.641 188.58 104.45 188.363 104.216 188.346C104.105 188.32 103.995 188.346 103.901 188.414C103.79 188.495 103.718 188.631 103.709 188.771C103.688 189.082 103.671 189.414 103.658 189.763C103.65 190.018 103.85 190.227 104.114 190.24V190.235ZM104.131 192.874C103.854 192.883 103.654 193.095 103.663 193.347C103.739 195.59 104.08 201.135 105.569 204.23C105.646 204.387 105.808 204.489 105.982 204.489C106.05 204.489 106.118 204.472 106.182 204.442C106.293 204.391 106.378 204.298 106.416 204.183C106.455 204.068 106.45 203.944 106.395 203.829C105.399 201.765 104.735 197.935 104.578 193.317C104.569 193.083 104.403 192.917 104.127 192.874H104.131ZM160.482 205.281C160.397 205.37 160.354 205.489 160.359 205.613C160.363 205.736 160.414 205.847 160.503 205.928C161.848 207.179 163.21 208.29 164.44 209.145C164.955 209.503 165.423 209.928 165.832 210.418C166.189 210.848 166.726 211.197 167.194 211.499C167.594 211.759 168.007 212.031 168.296 212.325C168.381 212.414 168.501 212.465 168.624 212.465C168.747 212.465 168.858 212.418 168.947 212.333C169.126 212.154 169.13 211.865 168.952 211.686C168.594 211.32 168.139 211.022 167.696 210.733C167.258 210.448 166.807 210.154 166.538 209.835C166.083 209.286 165.551 208.801 164.964 208.396C163.768 207.566 162.444 206.485 161.129 205.264C160.946 205.094 160.656 205.102 160.482 205.285V205.281ZM123.752 144.848C123.824 144.848 123.896 144.831 123.96 144.797C124.918 144.303 125.76 143.788 126.331 143.346C126.531 143.192 126.565 142.903 126.412 142.703C126.335 142.605 126.229 142.545 126.105 142.528C125.982 142.511 125.863 142.545 125.769 142.622C125.237 143.035 124.445 143.52 123.539 143.984C123.428 144.039 123.347 144.137 123.313 144.252C123.275 144.367 123.288 144.495 123.343 144.601C123.42 144.754 123.577 144.852 123.752 144.852V144.848ZM57.3133 220.926C57.2111 220.867 57.092 220.85 56.9813 220.88C50.9333 222.259 42.8254 222.344 39.5226 221.875C39.2715 221.85 39.046 222.024 39.0119 222.267C38.9779 222.518 39.1524 222.752 39.4035 222.786C40.5994 222.957 42.353 223.046 44.3406 223.046C46.5282 223.046 52.1591 222.922 57.1899 221.769C57.4367 221.714 57.5899 221.467 57.5346 221.22C57.5048 221.097 57.4282 220.986 57.3175 220.922L57.3133 220.926ZM142.645 228.698C141.444 229.409 140.44 229.903 139.661 230.166C139.546 230.205 139.452 230.286 139.397 230.396C139.342 230.507 139.333 230.63 139.372 230.75C139.435 230.937 139.61 231.06 139.806 231.06C139.857 231.06 139.904 231.052 139.95 231.035C140.789 230.754 141.853 230.23 143.108 229.49C143.325 229.362 143.398 229.081 143.27 228.86C143.142 228.643 142.862 228.57 142.64 228.698H142.645ZM119.849 146.265C120.202 146.265 120.7 146.155 121.343 145.938C121.457 145.899 121.551 145.814 121.606 145.703C121.662 145.593 121.666 145.469 121.628 145.354C121.589 145.24 121.504 145.146 121.394 145.091C121.283 145.035 121.16 145.027 121.045 145.069C120.266 145.337 119.934 145.354 119.836 145.35C119.725 145.333 119.61 145.367 119.517 145.444C119.415 145.529 119.351 145.652 119.342 145.784C119.338 145.912 119.385 146.031 119.474 146.121C119.568 146.21 119.695 146.261 119.849 146.265ZM123.194 221.199C122.47 220.999 121.747 220.794 121.036 220.59C120.917 220.556 120.794 220.569 120.687 220.628C120.581 220.688 120.5 220.786 120.466 220.905C120.432 221.024 120.445 221.148 120.504 221.254C120.564 221.36 120.662 221.441 120.781 221.471C121.492 221.675 122.219 221.88 122.947 222.084C122.99 222.093 123.028 222.101 123.066 222.101C123.271 222.101 123.454 221.965 123.509 221.765C123.577 221.522 123.432 221.267 123.19 221.199H123.194ZM50.3928 209.171C50.6652 209.15 50.861 208.962 50.8695 208.733C50.8738 208.609 50.8312 208.494 50.7503 208.405C50.6695 208.315 50.5545 208.26 50.4311 208.256C46.0473 208.077 43.2638 208.115 41.9188 208.366C38.9566 208.928 36.7434 210.146 34.5983 211.329C33.6875 211.831 32.8235 212.308 31.9297 212.716C31.819 212.767 31.7339 212.857 31.6914 212.972C31.6488 213.087 31.6531 213.21 31.7041 213.321C31.7807 213.482 31.9425 213.589 32.1212 213.589C32.1851 213.589 32.2489 213.576 32.3128 213.546C33.2448 213.121 34.1599 212.618 35.0409 212.129C37.1179 210.984 39.2673 209.801 42.0891 209.265C43.3489 209.026 46.1409 208.992 50.3928 209.167V209.171ZM24.4304 219.65C24.3282 219.581 24.2091 219.56 24.0856 219.586C23.9665 219.611 23.8601 219.684 23.792 219.786C23.6558 219.999 23.7154 220.284 23.9282 220.42C26.1201 221.829 27.6906 225.208 27.7076 225.242C27.7842 225.404 27.946 225.51 28.1247 225.51C28.1886 225.51 28.2524 225.497 28.3162 225.468C28.4269 225.417 28.512 225.327 28.5546 225.212C28.5971 225.097 28.5929 224.974 28.5418 224.863C28.4737 224.714 26.8692 221.22 24.4261 219.65H24.4304ZM29.2313 213.636C28.9717 213.691 28.7078 213.733 28.4439 213.768C28.1928 213.802 28.0183 214.031 28.0524 214.283C28.0822 214.508 28.2779 214.678 28.5205 214.678C28.8355 214.64 29.1207 214.593 29.4143 214.529C29.5335 214.504 29.6356 214.436 29.7037 214.334C29.7718 214.231 29.7931 214.108 29.7718 213.989C29.7208 213.746 29.4909 213.597 29.2356 213.631L29.2313 213.636ZM159.282 203.438C159.197 203.349 159.082 203.297 158.958 203.293C158.822 203.293 158.72 203.336 158.635 203.421C158.452 203.595 158.443 203.885 158.618 204.068C158.822 204.281 159.048 204.515 159.286 204.753C159.371 204.838 159.486 204.889 159.609 204.889C159.733 204.889 159.848 204.842 159.933 204.753C160.018 204.668 160.069 204.549 160.065 204.43C160.065 204.306 160.018 204.191 159.929 204.106C159.695 203.872 159.478 203.646 159.277 203.438H159.282ZM80.1602 151.245C80.2283 151.279 80.2964 151.296 80.3688 151.296C80.5433 151.296 80.6965 151.198 80.7774 151.045C80.8327 150.934 80.8455 150.811 80.8071 150.696C80.7688 150.581 80.688 150.483 80.5816 150.428C79.2707 149.755 76.5255 147.742 75.3678 146.24C75.2912 146.142 75.1805 146.078 75.0571 146.065C74.9337 146.048 74.8145 146.082 74.7209 146.159C74.623 146.235 74.5634 146.342 74.5464 146.465C74.5293 146.589 74.5634 146.708 74.64 146.802C75.9849 148.547 78.9515 150.624 80.1602 151.245ZM147.241 188.656C147.322 188.72 147.424 188.758 147.526 188.758C147.667 188.758 147.799 188.695 147.884 188.584C148.041 188.388 148.007 188.099 147.811 187.941C147.586 187.763 147.382 187.58 147.194 187.401C147.016 187.226 146.726 187.235 146.547 187.414C146.373 187.597 146.377 187.886 146.56 188.06C146.777 188.269 147.007 188.469 147.237 188.652L147.241 188.656ZM141.951 193.972C142.032 194.028 142.121 194.053 142.215 194.053C142.364 194.053 142.504 193.981 142.589 193.857C142.662 193.759 142.687 193.636 142.666 193.517C142.645 193.398 142.576 193.291 142.474 193.219C142.181 193.015 141.985 192.866 141.849 192.755C141.755 192.674 141.64 192.636 141.517 192.649C141.393 192.657 141.283 192.717 141.202 192.81C141.121 192.904 141.083 193.023 141.091 193.142C141.1 193.266 141.159 193.376 141.253 193.457C141.414 193.593 141.649 193.768 141.947 193.976L141.951 193.972ZM148.944 189.852C149.356 190.116 149.786 190.38 150.229 190.652L150.263 190.674C150.897 191.061 151.553 191.465 152.212 191.904L153.796 192.968C153.872 193.019 153.962 193.044 154.051 193.044C154.204 193.044 154.345 192.968 154.43 192.84C154.498 192.738 154.523 192.615 154.498 192.495C154.472 192.376 154.404 192.27 154.302 192.202L152.715 191.133C152.012 190.669 151.289 190.227 150.71 189.869L150.663 189.84C150.242 189.58 149.833 189.329 149.442 189.078C149.339 189.01 149.216 188.988 149.097 189.014C148.978 189.039 148.871 189.112 148.807 189.218C148.739 189.32 148.718 189.444 148.748 189.563C148.773 189.682 148.846 189.784 148.948 189.848L148.944 189.852ZM149.633 193.521C150.212 193.751 150.782 194.074 151.374 194.509C152.532 195.355 154.021 196.279 155.924 197.33C155.992 197.369 156.068 197.386 156.145 197.386C156.311 197.386 156.464 197.296 156.545 197.147C156.605 197.041 156.617 196.917 156.583 196.798C156.549 196.679 156.473 196.581 156.362 196.526C154.494 195.496 153.038 194.594 151.914 193.768C151.25 193.283 150.616 192.925 149.969 192.67C148.037 191.9 146.96 191.287 145.658 190.423C145.449 190.286 145.164 190.342 145.024 190.555C144.883 190.763 144.943 191.048 145.151 191.189C146.509 192.087 147.628 192.725 149.629 193.521H149.633ZM101.977 35.078C102.05 35.078 102.118 35.061 102.186 35.0269C102.462 34.8865 102.718 34.7375 102.952 34.5843C103.165 34.4438 103.224 34.1587 103.084 33.9459C103.016 33.8437 102.914 33.7756 102.794 33.7501C102.671 33.7245 102.552 33.7501 102.45 33.8182C102.241 33.9544 102.015 34.0863 101.769 34.2097C101.543 34.3246 101.454 34.6013 101.569 34.8269C101.649 34.9801 101.803 35.078 101.977 35.078ZM78.8834 21.2839C78.9387 21.3051 78.994 21.3136 79.0494 21.3136C79.2366 21.3136 79.4069 21.1987 79.475 21.0242C79.5984 20.705 79.7303 20.3858 79.8665 20.0666C79.9644 19.8325 79.8538 19.5644 79.6197 19.4665C79.3813 19.3728 79.1175 19.4793 79.0238 19.7133C78.8876 20.0368 78.7557 20.3645 78.628 20.688C78.5344 20.9221 78.6535 21.1902 78.8876 21.2839H78.8834ZM53.155 47.6293C53.0359 47.6251 52.9167 47.6634 52.8273 47.7442C52.4528 48.0677 52.1463 48.455 51.9165 48.8977C51.8612 49.0083 51.8484 49.1317 51.8867 49.2467C51.925 49.3616 52.0059 49.4595 52.1123 49.5148C52.1761 49.5488 52.2485 49.5659 52.3251 49.5659C52.4953 49.5659 52.6528 49.4722 52.7337 49.319C52.9082 48.9828 53.1423 48.6806 53.4274 48.4337C53.5211 48.3529 53.5764 48.2422 53.5849 48.123C53.5934 47.9996 53.5551 47.8804 53.4743 47.7868C53.3934 47.6932 53.2785 47.6378 53.155 47.6293ZM92.8265 74.3578C92.5839 74.3323 91.971 74.0897 91.6348 73.9322C91.4049 73.8301 91.1325 73.9322 91.0261 74.1578C90.9197 74.3876 91.0219 74.66 91.2602 74.7707C91.5624 74.9069 92.3115 75.2304 92.7839 75.2729C93.0223 75.2729 93.218 75.0942 93.2393 74.8601C93.2521 74.7366 93.2138 74.6175 93.1372 74.5238C93.0606 74.4302 92.9499 74.3706 92.8265 74.3578ZM56.7685 108.015C56.8536 108.143 56.9983 108.22 57.1516 108.22C57.2409 108.22 57.3303 108.194 57.4027 108.143C57.5048 108.075 57.5729 107.973 57.5984 107.854C57.624 107.734 57.5984 107.611 57.5303 107.509C57.2069 107.024 56.9004 106.547 56.6068 106.079C56.5429 105.977 56.4408 105.904 56.3216 105.875C56.2024 105.849 56.079 105.87 55.9769 105.934C55.8747 105.998 55.8024 106.1 55.7726 106.219C55.747 106.338 55.7683 106.462 55.8321 106.564C56.1216 107.024 56.428 107.5 56.7685 108.011V108.015ZM164.879 205.162C164.959 205.225 165.062 205.26 165.164 205.26C165.304 205.26 165.436 205.196 165.525 205.085C165.602 204.987 165.636 204.868 165.619 204.745C165.606 204.621 165.543 204.515 165.449 204.438C165.257 204.289 165.1 204.157 164.976 204.055C164.883 203.974 164.764 203.936 164.64 203.949C164.517 203.957 164.406 204.017 164.33 204.11C164.168 204.302 164.189 204.591 164.385 204.757C164.517 204.868 164.683 205.004 164.883 205.162H164.879ZM85.9443 56.1756C86.0081 56.1756 86.072 56.1629 86.1273 56.1373C86.3274 56.0522 86.5444 55.9671 86.7742 55.882C86.8892 55.8437 86.9828 55.7585 87.0339 55.6479C87.0892 55.5372 87.0935 55.4138 87.0551 55.2946C87.0126 55.1755 86.9232 55.0776 86.8083 55.0265C86.6976 54.9754 86.5742 54.9712 86.4721 55.0137C86.2209 55.0988 85.9784 55.1925 85.757 55.2946C85.6464 55.3414 85.557 55.4351 85.5144 55.5457C85.4719 55.6606 85.4719 55.7841 85.5229 55.8947C85.5953 56.0607 85.7613 56.1714 85.9443 56.1714V56.1756ZM86.7274 60.219C86.7147 60.3424 86.7487 60.4616 86.8253 60.5552C87.4169 61.3043 88.6597 62.0576 90.0898 62.0576C90.9282 62.0576 91.7241 61.7852 92.3881 61.2702C92.486 61.1936 92.5456 61.0872 92.5626 60.9638C92.5796 60.8404 92.5456 60.7212 92.4732 60.6276C92.4009 60.5297 92.2902 60.4658 92.1668 60.4531C92.0433 60.436 91.9242 60.4701 91.8263 60.5467C90.2941 61.7256 88.3192 60.9638 87.5403 59.9849C87.4637 59.887 87.3573 59.8232 87.2339 59.8104C87.1105 59.7976 86.9913 59.8317 86.8934 59.9083C86.7955 59.9849 86.7359 60.0913 86.7232 60.2147L86.7274 60.219ZM102.428 72.6767C102.586 72.6597 102.709 72.5958 102.79 72.4937C102.862 72.4 102.896 72.2851 102.884 72.1617C102.816 71.5658 102.752 71.0083 102.709 70.506C102.688 70.2677 102.479 70.0889 102.211 70.0889C101.96 70.1102 101.773 70.3358 101.794 70.5869C101.841 71.1104 101.909 71.6978 101.973 72.2681C101.998 72.4979 102.194 72.6724 102.428 72.6724V72.6767ZM94.729 69.2164C94.7928 69.4037 94.9673 69.5314 95.1631 69.5314C95.2099 69.5314 95.2567 69.5229 95.3078 69.5101C95.5376 69.4335 96.0441 69.293 96.3463 69.293C96.6017 69.293 96.8017 69.0973 96.8102 68.8462C96.8187 68.595 96.6187 68.3822 96.3633 68.3737C95.8781 68.3652 95.1546 68.5908 95.0184 68.6333C94.78 68.7142 94.6481 68.9738 94.7247 69.2122L94.729 69.2164ZM89.2939 55.2989C90.5452 55.1414 93.5841 54.9712 94.7332 56.7843C94.8183 56.9162 94.9631 56.9971 95.1205 56.9971C95.2099 56.9971 95.295 56.9715 95.3674 56.9247C95.5802 56.7885 95.644 56.5034 95.5078 56.2906C94.4949 54.6988 92.1923 54.005 89.1832 54.3838C88.9321 54.4136 88.7533 54.6434 88.7874 54.8988C88.8172 55.1414 89.0513 55.3202 89.2981 55.2946L89.2939 55.2989Z" fill="#6F1240"/>
<path fill-rule="evenodd" clip-rule="evenodd" d="M155.651 77.1456C155.741 77.2562 155.868 77.3201 156.009 77.3201C156.111 77.3201 156.209 77.286 156.294 77.2222C156.494 77.0647 156.528 76.7753 156.371 76.5795C155.711 75.7453 155.021 74.9281 154.315 74.145C154.145 73.962 153.855 73.945 153.668 74.111C153.481 74.2812 153.464 74.5706 153.634 74.7579C154.319 75.5197 155 76.3242 155.651 77.1456ZM138.678 134.786C138.337 135.067 137.993 135.344 137.644 135.616C137.444 135.774 137.409 136.059 137.563 136.259C137.652 136.37 137.784 136.438 137.924 136.438C138.027 136.438 138.125 136.404 138.205 136.34C138.546 136.076 138.899 135.791 139.261 135.493C139.457 135.331 139.482 135.042 139.321 134.846C139.163 134.654 138.874 134.625 138.674 134.786H138.678ZM158.077 78.8651C158.005 78.7629 157.899 78.6991 157.779 78.6778C157.656 78.6565 157.537 78.6863 157.439 78.7544C157.337 78.8268 157.273 78.9289 157.252 79.0523C157.23 79.1715 157.26 79.2949 157.328 79.3928C163.108 87.6284 166.164 97.3239 166.164 107.419C166.164 122.737 159.184 136.88 147.011 146.214C146.913 146.291 146.85 146.397 146.837 146.516C146.82 146.64 146.854 146.759 146.926 146.853C147.011 146.967 147.148 147.036 147.292 147.036C147.394 147.036 147.488 147.002 147.573 146.942C159.971 137.434 167.083 123.027 167.083 107.419C167.083 97.1281 163.972 87.2539 158.082 78.8651H158.077ZM155.673 100.695C155.673 112.995 150.812 124.491 141.985 133.058C141.9 133.144 141.785 133.19 141.666 133.19C141.546 133.19 141.423 133.139 141.338 133.05C141.163 132.867 141.168 132.577 141.346 132.403C149.995 124.01 154.757 112.748 154.757 100.699C154.757 82.4402 143.287 65.8285 126.212 59.3677C125.986 59.2826 125.867 59.0442 125.931 58.8144C125.999 58.5761 126.224 58.4399 126.458 58.4867C135.179 60.1083 143.338 64.0707 150.05 69.9357C150.144 70.0166 150.199 70.1272 150.208 70.2507C150.216 70.3741 150.174 70.4933 150.093 70.5826C149.927 70.7699 149.637 70.7912 149.446 70.6252C144.155 65.9988 137.844 62.53 131.123 60.5467C146.079 68.2332 155.673 83.8447 155.673 100.695ZM144.126 148.415C144.007 148.389 143.887 148.415 143.789 148.483C143.449 148.7 143.108 148.917 142.764 149.13C142.657 149.193 142.585 149.296 142.555 149.415C142.525 149.534 142.547 149.657 142.61 149.759C142.691 149.896 142.845 149.981 143.002 149.981C143.087 149.981 143.168 149.955 143.24 149.913C143.589 149.7 143.938 149.479 144.283 149.257C144.385 149.189 144.458 149.087 144.483 148.968C144.509 148.849 144.483 148.725 144.419 148.623C144.351 148.517 144.245 148.444 144.121 148.419L144.126 148.415Z" fill="#6F1240"/>
<path fill-rule="evenodd" clip-rule="evenodd" d="M13.6962 194.513C13.6962 194.261 13.4919 194.053 13.2365 194.053C12.9811 194.053 12.7769 194.257 12.7769 194.513V196.083C12.7769 196.334 12.9811 196.543 13.2365 196.543C13.4919 196.543 13.6962 196.338 13.6962 196.083V194.513ZM17.4799 189.712C19.5313 186.332 21.0806 185.617 22.5745 184.924C23.3831 184.549 24.2173 184.162 25.0899 183.383C26.4986 182.114 26.8902 181.025 27.2647 179.969C27.5797 179.084 27.8819 178.246 28.831 177.305C28.9544 177.182 28.997 176.994 28.9417 176.828C28.8863 176.662 28.7374 176.543 28.5629 176.522C25.3239 176.118 20.5656 178.497 17.5863 186.422C17.6714 183.596 17.8714 180.876 18.1907 178.322C18.2077 178.271 18.2162 178.212 18.2205 178.101L18.246 177.892C18.395 177.148 19.1057 176.377 20.008 175.403C21.1487 174.168 22.5702 172.628 23.63 170.329C24.5706 168.286 24.6047 166.814 24.6387 165.103C24.6685 163.588 24.7068 161.868 25.3665 159.276C25.4176 159.08 25.3282 158.872 25.1579 158.77C24.9834 158.663 24.7621 158.684 24.6089 158.825C21.0465 162.128 18.6248 168.401 17.4118 177.45C17.3309 177.709 17.3011 177.952 17.3096 178.233C16.7095 183.055 16.6244 187.375 16.6287 189.533C16.6329 189.584 16.6499 189.635 16.6712 189.678C16.7053 189.746 16.7521 189.805 16.8117 189.848C16.8457 189.873 16.8755 189.89 16.9096 189.903C16.9649 189.929 17.0245 189.937 17.0883 189.937C17.1564 189.937 17.2117 189.92 17.2543 189.903C17.3352 189.873 17.3948 189.818 17.4756 189.712H17.4799ZM27.5201 177.407C26.92 178.199 26.6561 178.939 26.4007 179.663C26.0475 180.655 25.7155 181.587 24.477 182.702C23.7109 183.391 22.9746 183.732 22.1914 184.094C21.0848 184.604 19.8463 185.179 18.4162 186.83C21.4509 178.637 25.856 177.522 27.5244 177.411L27.5201 177.407ZM24.1152 160.698C23.779 162.511 23.7492 163.864 23.7236 165.081C23.6896 166.754 23.6598 168.073 22.8001 169.942C21.7999 172.108 20.4336 173.589 19.3356 174.777C19.0461 175.092 18.8035 175.356 18.5865 175.607C19.6846 168.933 21.5913 163.8 24.1152 160.698ZM155.306 23.4032C155.391 23.4798 155.498 23.5224 155.613 23.5224C155.745 23.5224 155.868 23.467 155.953 23.3692C156.034 23.2798 156.077 23.1606 156.072 23.0372C156.064 22.9137 156.013 22.8031 155.923 22.7222C155.477 22.3179 155.017 21.9093 154.549 21.505C154.353 21.3432 154.063 21.3645 153.902 21.5518C153.736 21.7433 153.757 22.0327 153.949 22.1987C154.404 22.5945 154.855 22.9946 155.306 23.3989V23.4032ZM47.1451 18.7215C47.243 18.7215 47.3409 18.6917 47.4218 18.6278C48.3071 17.9554 49.2349 17.2871 50.1755 16.6317C50.3841 16.487 50.4351 16.2018 50.2904 15.9933C50.1457 15.7847 49.8606 15.7337 49.652 15.8784C48.7284 16.521 47.7921 17.1978 46.8685 17.8958C46.6685 18.049 46.6301 18.3384 46.7791 18.5384C46.8642 18.6534 47.0004 18.7215 47.1451 18.7215ZM13.2365 190.512C13.4876 190.512 13.6962 190.308 13.6962 190.052V108.036C13.6962 107.785 13.4919 107.577 13.2365 107.577C12.9811 107.577 12.7769 107.781 12.7769 108.036V190.052C12.7769 190.303 12.9811 190.512 13.2365 190.512ZM13.2365 104.027C13.4876 104.027 13.6962 103.823 13.6962 103.568V99.1028C13.6962 98.8474 13.4919 98.6432 13.2365 98.6432C12.9811 98.6432 12.7769 98.8474 12.7769 99.1028V103.568C12.7769 103.819 12.9811 104.027 13.2365 104.027ZM66.7106 241.236H17.765C17.5139 241.236 17.3054 241.441 17.3054 241.696C17.3054 241.951 17.5097 242.156 17.765 242.156H66.7106C66.9617 242.156 67.1702 241.951 67.1702 241.696C67.1702 241.441 66.966 241.236 66.7106 241.236ZM13.2365 92.7484C13.4876 92.7484 13.6962 92.5441 13.6962 92.2887V86.3174C13.6962 61.5084 24.5153 38.0188 43.3827 21.8753C43.5742 21.7135 43.5955 21.4198 43.4338 21.2283C43.3529 21.1347 43.238 21.0794 43.1188 21.0708C42.9954 21.0623 42.8805 21.1006 42.7911 21.1815C23.7151 37.4995 12.7769 61.2402 12.7769 86.3216V92.293C12.7769 92.5441 12.9811 92.7527 13.2365 92.7527V92.7484ZM14.7474 241.236H14.092C13.8409 241.236 13.6323 241.441 13.6323 241.696C13.6323 241.951 13.8366 242.156 14.092 242.156H14.7474C14.9986 242.156 15.2071 241.951 15.2071 241.696C15.2071 241.441 15.0028 241.236 14.7474 241.236ZM183.72 125.942C183.469 125.942 183.261 126.146 183.261 126.402V130.083C183.261 130.334 183.465 130.543 183.72 130.543C183.976 130.543 184.18 130.339 184.18 130.083V126.402C184.18 126.151 183.976 125.942 183.72 125.942ZM183.72 135.14C183.469 135.14 183.261 135.344 183.261 135.599V199.624C183.261 199.875 183.465 200.084 183.72 200.084C183.976 200.084 184.18 199.88 184.18 199.624V135.599C184.18 135.348 183.976 135.14 183.72 135.14ZM183.405 74.8131C182.971 70.8336 182.371 66.4583 181.711 62.4873C181.316 60.1081 180.192 57.6651 178.362 55.2348C176.17 49.6082 173.365 44.1902 170.028 39.1381C169.892 38.9296 169.607 38.87 169.394 39.0062C169.181 39.1466 169.122 39.4318 169.262 39.6446C171.973 43.7518 174.37 48.208 176.383 52.9025C174.599 51.0042 172.407 49.1273 169.862 47.3184C169.675 47.1822 169.403 47.212 169.245 47.395C169.092 47.5738 169.105 47.8462 169.266 48.0164C171.348 50.1232 171.867 52.2428 172.582 55.188C173.003 56.9245 173.484 58.8866 174.378 61.2998C175.102 63.2534 176.51 64.9558 178 66.7562C180.013 69.1822 182.094 71.6933 182.49 74.9493C182.997 79.5799 183.252 83.4062 183.252 86.3259V118.528C183.252 118.779 183.456 118.987 183.712 118.987C183.967 118.987 184.171 118.783 184.171 118.528V86.3259C184.171 83.4402 183.92 79.6565 183.431 75.0855C183.422 74.9961 183.414 74.9067 183.401 74.8173L183.405 74.8131ZM178.715 66.1646C177.272 64.4281 175.914 62.7852 175.246 60.9806C174.37 58.6057 173.897 56.6649 173.48 54.9539C173.008 53.0131 172.624 51.4384 171.846 49.9572C177.102 54.1836 180.12 58.4482 180.813 62.6405C181.235 65.1772 181.639 67.9266 181.988 70.6378C181.086 69.0205 179.885 67.5734 178.719 66.1688L178.715 66.1646ZM183.72 204.949C183.469 204.949 183.261 205.153 183.261 205.408V207.485C183.261 207.736 183.465 207.945 183.72 207.945C183.976 207.945 184.18 207.741 184.18 207.485V205.408C184.18 205.157 183.976 204.949 183.72 204.949ZM199.936 210.448C199.838 210.277 199.638 210.188 199.451 210.226C194.867 211.141 190.917 215.214 188.279 221.722C188.457 217.355 188.994 212.256 189.76 207.621C190.819 204.272 192.147 203.382 193.441 202.518C194.607 201.735 195.816 200.927 196.74 198.526C197.727 195.96 197.578 194.185 197.404 192.129C197.263 190.478 197.102 188.601 197.527 185.907C197.557 185.707 197.455 185.511 197.272 185.421C197.089 185.336 196.867 185.379 196.735 185.532C192.445 190.32 190.092 200.084 188.874 207.43C187.717 214.406 187.308 220.841 187.308 224.544C187.312 224.672 187.368 224.774 187.512 224.91C187.581 224.957 187.657 224.982 187.764 224.986C194.79 224.986 196.348 220.109 197.727 215.798C198.332 213.908 198.902 212.124 199.894 210.984C200.021 210.835 200.043 210.622 199.945 210.452L199.936 210.448ZM196.416 187.392C196.242 189.363 196.374 190.869 196.484 192.21C196.655 194.232 196.791 195.828 195.88 198.198C195.059 200.331 194.02 201.024 192.913 201.765C192.071 202.331 191.203 202.914 190.394 204.076C191.892 196.581 193.965 190.835 196.412 187.392H196.416ZM196.846 215.525C195.548 219.581 194.212 223.769 188.398 224.05C190.658 217.351 194.216 212.895 198.446 211.448C197.778 212.61 197.327 214.027 196.846 215.521V215.525ZM165.734 33.4221C165.61 33.4094 165.491 33.4434 165.398 33.5158C165.198 33.6733 165.163 33.9627 165.321 34.1585C165.661 34.5926 165.998 35.031 166.33 35.4736C166.419 35.5885 166.551 35.6566 166.696 35.6566C166.794 35.6566 166.887 35.6268 166.972 35.563C167.07 35.4906 167.134 35.38 167.151 35.2608C167.168 35.1374 167.138 35.0182 167.062 34.9203C166.725 34.4734 166.389 34.0308 166.045 33.5924C165.968 33.4945 165.857 33.4349 165.734 33.4179V33.4221ZM174.135 32.656C174.084 32.656 174.038 32.656 173.991 32.656C165.683 32.656 158.724 30.6088 150.722 25.8164C150.688 25.8079 150.642 25.7781 150.603 25.7398C149.05 24.8077 147.381 23.7267 145.526 22.4541C144.462 21.722 143.108 20.5686 141.397 19.1088C135.945 14.4568 126.82 6.6766 115.367 3.22062C113.239 2.795 111.008 2.44174 108.727 2.16935C112.213 3.27595 115.426 4.97414 118.295 7.22138C118.316 7.22989 118.355 7.25969 118.389 7.28948C120.334 8.8302 122.087 10.5922 123.59 12.516C128.122 18.3256 130.34 25.5398 129.106 30.4599C129.054 30.6557 128.884 30.7919 128.667 30.8089C128.471 30.8089 128.301 30.694 128.233 30.5195C127.233 28.0211 125.939 26.8975 124.692 25.8122C123.317 24.6205 122.028 23.4968 121.585 20.8155C121.291 19.0322 121.266 17.5936 121.244 16.3253C121.193 13.3374 121.159 11.3669 117.788 7.98323C112.37 3.71007 105.871 1.53944 98.4741 1.53944C83.0499 1.53944 67.9534 5.71897 54.8104 13.6311C54.5934 13.7588 54.3125 13.6907 54.1805 13.4736C54.1167 13.3672 54.0997 13.2438 54.1295 13.1246C54.1592 13.0055 54.2316 12.9033 54.338 12.8437C67.6299 4.84646 82.8882 0.620117 98.4784 0.620117C117.567 0.620117 135.63 6.76172 150.718 18.3767C150.816 18.4533 150.876 18.5597 150.893 18.6832C150.91 18.8066 150.876 18.9258 150.799 19.0236C150.65 19.2194 150.352 19.2577 150.156 19.1045C141.763 12.6437 132.425 7.88534 122.381 4.94861C130.885 8.92809 137.78 14.8101 141.997 18.4065C143.691 19.8536 145.032 20.9942 146.049 21.6922C147.909 22.9733 149.578 24.0501 151.14 24.9865C154.813 26.2378 158.4 26.1144 162.75 24.5694C166.321 23.3096 168.113 25.1823 170.824 28.0211C171.931 29.1788 173.182 30.4897 174.791 31.8346C174.94 31.9623 174.991 32.1581 174.927 32.3411C174.829 32.6135 174.557 32.656 174.297 32.656C174.242 32.656 174.186 32.656 174.135 32.656ZM122.866 13.0778C122.394 12.4692 121.883 11.8691 121.351 11.2902C122.104 12.9714 122.13 14.4738 122.16 16.3082C122.181 17.5638 122.206 18.9683 122.487 20.6665C122.875 23.0287 123.994 23.9948 125.288 25.1184C126.318 26.0122 127.48 27.0209 128.459 28.8383C128.952 24.2374 126.786 18.1086 122.862 13.0821L122.866 13.0778ZM153.987 26.6123C160.414 30.0385 166.402 31.6261 173.259 31.7325C172.041 30.6386 171.041 29.5916 170.156 28.6638C167.598 25.9909 166.057 24.3779 163.052 25.4419C159.711 26.6251 156.809 27.0039 153.987 26.6166V26.6123ZM129.816 12.4394C129.621 12.2819 129.331 12.3117 129.174 12.5075C129.016 12.7033 129.046 12.9927 129.242 13.1544C131.183 14.7207 132.859 16.2316 134.353 17.7553C136.954 22.2285 136.758 24.5098 136.571 26.7187C136.456 28.0807 136.337 29.4852 136.822 31.3452C137.494 33.9244 138.839 35.414 140.269 36.9973C141.691 38.5678 143.3 40.3511 144.572 43.5858C144.64 43.7603 144.811 43.8752 145.015 43.8752C145.287 43.8284 145.458 43.6496 145.458 43.4156C145.458 30.3662 140.925 21.3901 129.816 12.4394ZM144.496 41.2066C144.138 32.8348 141.691 26.3229 136.63 20.2707C137.792 23.1521 137.639 24.9993 137.486 26.7911C137.371 28.136 137.265 29.4044 137.707 31.1111C138.324 33.4775 139.542 34.8224 140.95 36.3802C142.087 37.6357 143.359 39.0488 144.496 41.2066ZM71.0731 241.241H69.9921C69.741 241.241 69.5324 241.445 69.5324 241.7C69.5324 241.956 69.7367 242.16 69.9921 242.16H71.0731C71.3242 242.16 71.5328 241.956 71.5328 241.7C71.5328 241.445 71.3285 241.241 71.0731 241.241ZM177.123 174.13C176.489 165.596 175.038 150.445 172.446 144.861C172.356 144.669 172.148 144.558 171.961 144.601C171.76 144.631 171.603 144.792 171.577 144.997C171.131 148.448 170.301 150.853 169.569 152.981C168.428 156.28 167.602 158.663 169.037 162.604C170.224 165.869 172.071 168.035 173.552 169.776C174.953 171.423 176.063 172.721 176.225 174.343C176.787 181.983 177.149 190.197 177.247 197.598C176.4 194.415 175.446 191.512 174.412 188.975C174.404 188.903 174.374 188.839 174.344 188.797C169.709 177.467 163.959 173.998 158.945 172.1C158.762 172.036 158.558 172.091 158.435 172.236C158.307 172.385 158.29 172.598 158.392 172.764C159.771 175.088 160.426 176.994 161.005 178.68C161.665 180.599 162.231 182.246 163.64 183.783C164.785 185.034 166.113 185.268 167.513 185.515C169.437 185.856 171.429 186.209 173.523 189.209C174.953 192.721 176.221 196.892 177.285 201.603C177.332 201.812 177.515 201.961 177.745 201.961C178.008 201.935 178.192 201.744 178.192 201.501C178.192 193.359 177.813 183.472 177.149 174.377C177.14 174.292 177.136 174.207 177.123 174.13ZM174.25 169.18L174.157 169.257L174.25 169.176C172.739 167.405 171.028 165.396 169.901 162.289C168.577 158.655 169.356 156.403 170.441 153.271C171.058 151.483 171.752 149.474 172.233 146.806C173.727 151.228 175.055 159.902 176 171.38C175.506 170.648 174.897 169.933 174.255 169.18H174.25ZM167.675 184.613C166.376 184.383 165.253 184.183 164.317 183.161C163.035 181.765 162.525 180.272 161.873 178.373C161.38 176.943 160.826 175.334 159.826 173.44C163.576 175.054 168.287 178.063 172.335 186.515C170.692 185.141 169.096 184.86 167.675 184.609V184.613Z" fill="#6F1240"/>
<path fill-rule="evenodd" clip-rule="evenodd" d="M138.176 98.0898C136.988 97.6472 136.005 97.311 135.213 97.0428L135.145 97.0173C132.83 96.2256 131.276 94.6722 130.485 92.3568C130.212 91.5567 129.872 90.565 129.412 89.3265C129.348 89.1562 129.182 89.0498 128.982 89.0498C128.782 89.0498 128.616 89.1605 128.553 89.3265C128.118 90.5011 127.786 91.4715 127.518 92.2547L127.484 92.3611C126.693 94.6764 125.131 96.2327 122.798 97.0301C121.998 97.3024 121.002 97.6429 119.789 98.0941C119.61 98.1579 119.491 98.3324 119.491 98.524C119.491 98.7155 119.61 98.89 119.789 98.9538C120.968 99.3922 121.943 99.7242 122.726 99.9923L122.82 100.022C125.135 100.814 126.69 102.367 127.484 104.683C127.757 105.483 128.097 106.474 128.557 107.713C128.625 107.892 128.795 108.011 128.987 108.011C129.178 108.011 129.353 107.892 129.417 107.713C129.876 106.474 130.217 105.478 130.489 104.683C131.281 102.367 132.834 100.814 135.15 100.022L135.243 99.9923C136.026 99.7242 137.001 99.3879 138.18 98.9538C138.359 98.89 138.478 98.7155 138.478 98.524C138.478 98.3324 138.359 98.1579 138.18 98.0941L138.176 98.0898ZM136.673 98.5197C135.979 98.7666 135.375 98.9708 134.847 99.1539C131.055 100.452 130.91 100.597 129.617 104.389C129.438 104.917 129.229 105.521 128.982 106.215C128.736 105.521 128.527 104.917 128.348 104.389C127.054 100.601 126.905 100.452 123.113 99.1539C122.585 98.9751 121.981 98.7666 121.287 98.5197C121.981 98.2728 122.585 98.0643 123.113 97.8855C126.905 96.5874 127.05 96.4427 128.348 92.6505C128.527 92.1227 128.736 91.5184 128.982 90.8246C129.229 91.5184 129.438 92.1227 129.617 92.6505C130.91 96.4384 131.059 96.5874 134.847 97.8855C135.375 98.0643 135.979 98.2728 136.673 98.5197Z" fill="#6F1240"/>
<path fill-rule="evenodd" clip-rule="evenodd" d="M35.245 64.7559C34.6151 64.5218 34.1044 64.3473 33.7341 64.2196C32.6531 63.8479 31.9281 63.1215 31.5592 62.0404C31.423 61.6361 31.2528 61.1424 31.0272 60.5338C30.9591 60.355 30.7889 60.2358 30.5973 60.2358C30.4058 60.2358 30.2356 60.355 30.1675 60.5338C29.9462 61.1339 29.7802 61.6106 29.6312 62.049C29.2623 63.1272 28.5374 63.8521 27.4563 64.2238C27.052 64.3643 26.554 64.5303 25.9454 64.7601C25.7666 64.8282 25.6475 64.9985 25.6475 65.19C25.6475 65.3815 25.7666 65.556 25.9454 65.6198C26.5668 65.8497 27.0818 66.0242 27.4563 66.1561C28.5374 66.525 29.2623 67.2485 29.6312 68.3267C29.7802 68.7651 29.9419 69.2418 30.1675 69.8377C30.2356 70.0164 30.4058 70.1356 30.5973 70.1356C30.7889 70.1356 30.9591 70.0164 31.0272 69.8377C31.2528 69.2291 31.423 68.7353 31.5635 68.3225C31.9324 67.2443 32.6559 66.5207 33.7341 66.1519C34.1087 66.0242 34.6236 65.8454 35.245 65.6156C35.4238 65.5518 35.543 65.3772 35.543 65.1857C35.543 64.9942 35.4238 64.824 35.245 64.7559ZM33.7171 65.1857L33.4362 65.2836C31.4699 65.9561 31.3677 66.0582 30.691 68.0288C30.6612 68.1182 30.6271 68.2118 30.5931 68.3097C30.5633 68.2246 30.5378 68.1437 30.508 68.0629L30.4952 68.0246C29.8227 66.054 29.7206 65.9518 27.75 65.2794L27.5244 65.2027C27.5244 65.2027 27.4861 65.19 27.4648 65.1815C27.5627 65.1474 27.6564 65.1176 27.7457 65.0836C29.7163 64.4111 29.8185 64.309 30.4995 62.3128C30.5292 62.232 30.5548 62.1468 30.5888 62.0575L30.6867 62.3384C31.3592 64.309 31.4613 64.4111 33.4319 65.0836C33.5213 65.1134 33.6149 65.1474 33.7128 65.1815L33.7171 65.1857Z" fill="#6F1240"/>
</g>
<defs>
<clipPath id="clip0_30_22549">
<rect width="200" height="244.877" fill="white" transform="translate(0 0.620117)"/>
</clipPath>
</defs>
</svg>
