<svg width="100" height="100" viewBox="0 0 100 100" fill="none" xmlns="http://www.w3.org/2000/svg">
<g clip-path="url(#clip0_674_3511)">
<path d="M30.8198 77.5599V66.7H34.3598V67.92H32.2598V71.4599H33.6198V72.7H32.2598V77.5599H30.8198Z" fill="white"/>
<path d="M41.68 66.7H43.12V75.84C43.12 77.08 42.44 77.6799 41.08 77.6799C39.72 77.6799 39.04 77.08 39.04 75.84V66.7H40.48V75.84C40.48 76.26 40.7 76.4799 41.08 76.4799C41.48 76.4799 41.68 76.26 41.68 75.84V66.7Z" fill="white"/>
<path d="M48.2397 77.5599V66.7H51.6997V67.92H49.6797V71.42H51.0197V72.64H49.6797V76.34H51.7797V77.5599H48.2397Z" fill="white"/>
<path d="M60.5196 77.6199L60.0596 77.0999C59.7596 77.4999 59.1596 77.6599 58.5196 77.6599C57.4196 77.6599 56.5796 77.1799 56.5796 75.8199V68.4199C56.5796 67.2399 57.2596 66.5599 58.6396 66.5599C60.0196 66.5599 60.6196 67.2399 60.6196 68.4199V70.3399H59.3196V68.4199C59.3196 68.0199 59.1196 67.7999 58.6396 67.7999C58.1996 67.7999 58.0196 68.0199 58.0196 68.4199V75.8199C58.0196 76.2599 58.2596 76.4599 58.6196 76.4599C59.0596 76.4599 59.2796 76.2599 59.3196 75.8999V73.5599H58.5596V72.3999H60.6996V77.6199H60.5196Z" fill="white"/>
<path d="M65.6597 68.42C65.6597 67.22 66.3197 66.58 67.6997 66.58C69.0797 66.58 69.7597 67.22 69.7597 68.42V75.82C69.7597 77.02 69.0997 77.66 67.6997 77.66C66.3197 77.66 65.6597 77.02 65.6597 75.82V68.42ZM68.3197 68.42C68.3197 68.02 68.1197 67.8 67.6997 67.8C67.3197 67.8 67.0997 68.02 67.0997 68.42V75.82C67.0997 76.24 67.3197 76.46 67.6997 76.46C68.1197 76.46 68.3197 76.24 68.3197 75.82V68.42Z" fill="white"/>
<path d="M28.7198 30.76C29.2598 30.86 29.5398 31.32 29.7398 32.46C30.1198 34.72 30.6798 35.58 31.7598 35.58C31.7798 35.58 31.7998 35.58 31.8398 35.58C31.8598 35.58 31.8798 35.58 31.8798 35.58C32.5598 35.58 32.9798 35.22 33.4998 34.2L34.1398 32.94L34.6998 33.72C35.0398 34.2 35.3198 34.9 35.3198 35.24C35.3198 35.6 35.5198 35.94 35.7398 36.02C36.0598 36.12 36.0398 36.68 35.6598 38.16C35.1998 39.96 35.1998 40.18 35.7998 40.5C36.1598 40.7 36.4398 41.24 36.4598 41.68C36.4598 42.16 36.4998 42.32 36.6398 42.2C36.6998 42.3 36.7798 42.2 36.9598 41.94C37.1598 41.62 37.3198 40.74 37.3198 39.98C37.3198 39.08 37.4798 38.62 37.7998 38.58C38.3998 38.64 38.7198 39.44 38.7198 40.88C38.7198 41.66 39.1798 42.52 40.3398 43.76C41.3998 44.92 42.1998 45.84 42.8198 46.6C44.0998 48.44 44.0398 49.46 42.9598 50.44C42.6598 50.72 42.3198 50.98 41.9998 51.24C40.8198 51.74 38.5998 52.26 35.6998 51.22C35.0398 50.98 34.0198 50.02 33.4598 51.58C33.2398 53.34 33.0998 52.3 33.0598 52.62C33.0198 53.04 31.9798 52.96 32.0798 53.32C32.3998 54.44 32.4398 54.46 33.6398 53.72C35.2598 52.72 36.0598 52.8 37.2798 54.02C38.5398 55.26 39.0998 55.2 38.4198 53.88C37.8598 52.78 38.3398 52.36 39.0998 53.28C39.5198 53.78 39.6798 53.76 40.1398 53.12C40.5798 52.5 41.2798 52.3 42.6998 52.36L42.8598 52.4C44.4598 52.82 44.6998 52.82 45.1398 52.22C45.3998 51.86 45.6198 51.34 45.6198 51.06C45.6198 50.76 45.7598 50.6 45.9998 50.58C46.4598 50.62 47.1798 51.04 47.9398 51.8C49.4798 53.34 49.9998 55.16 49.9998 58.94C49.9998 61.78 49.9798 61.88 48.9798 62.26C48.0398 62.62 47.9998 62.7 48.5798 63.12C49.1598 63.54 49.1598 63.64 48.6398 64.18C48.2398 64.58 48.1998 64.84 48.4798 65.02C48.5198 65.04 48.5798 65.06 48.6598 65.04C48.9198 65.1 49.5798 64.68 50.1998 64.04L51.1998 62.96L50.9998 63.86C50.8398 64.58 50.8798 64.84 51.1598 64.78C51.2198 64.8 51.2798 64.78 51.3598 64.76C51.6398 64.66 51.8398 64.02 51.8398 63.32C51.8398 61.56 52.2198 61.1 53.7598 61.1C54.6598 61.1 55.0398 60.94 54.9198 60.64C54.8198 60.36 54.0998 60.18 53.1398 60.18C51.2598 60.18 50.7398 59.46 52.1798 58.82C53.2798 58.32 53.3998 57.82 52.5998 57.86C52.4198 57.86 52.1998 57.88 51.8998 57.94C51.6198 58 51.4198 58.04 51.2598 58.04C50.9398 58.02 50.8798 57.82 50.8798 57.3C50.8798 56.82 51.2198 55.86 51.6398 55.18L52.3998 53.94L51.4198 52.78L50.4398 51.62L53.1998 50.12C54.8998 49.2 55.5598 48.86 56.2598 48.84C56.6398 48.84 57.0398 48.94 57.6398 49.1C58.3998 49.3 58.9798 49.38 59.3198 49.36C59.9998 49.38 60.0598 49.1 59.3398 48.58C58.5998 48.04 58.8398 47.22 59.7198 47.22C60.0198 47.22 60.2598 46.88 60.2598 46.48C60.2598 46.08 60.4398 45.66 60.6398 45.52C61.4598 45.02 60.9998 44.2 59.8998 44.2C58.7798 44.2 58.3998 43.72 59.1598 43.26C59.2198 43.22 59.3198 43.2 59.4598 43.2C59.8998 43.2 60.6198 43.32 61.3398 43.5C63.4198 44.04 64.0998 44.98 63.8198 46.92C63.7198 47.64 63.9798 48 64.4398 47.96C64.8398 48 65.4598 47.68 66.1198 47.02C67.2198 45.92 67.3198 44.3 66.3998 42.58C66.0398 41.92 65.7198 40.58 65.6798 39.62C65.6398 38.66 65.2598 37.1 64.8398 36.14C64.3198 34.98 64.2198 34.48 64.4998 34.42C65.3998 34.48 66.1598 35.44 66.9198 37.5C67.3598 38.68 67.8998 39.76 68.1198 39.9C68.2398 39.98 68.3398 40 68.4398 39.98C68.9598 40.06 69.2598 39.04 69.0398 37.66C68.8998 36.82 68.8598 36.48 68.9998 36.42C69.1198 36.44 69.2798 36.54 69.5198 36.66C70.2198 37.04 70.3398 37.32 70.1398 38.3C70.0198 38.96 69.5798 39.94 69.1598 40.5C68.4198 41.5 68.4198 41.52 69.1398 41.9C69.4198 42.04 69.6998 42.12 69.9598 42.1C71.2398 42.16 72.2998 40.5 72.2998 38.14C72.2998 37.88 72.2998 37.64 72.2598 37.42C72.4998 36.04 72.9798 34.24 69.6198 31.62L66.1198 28.96L64.5598 28.66L63.8998 28H61.3198C61.2798 28 61.2398 28 61.1998 28H61.1798C55.9998 28 52.9998 31.06 52.9998 36.32C52.9998 37.96 52.8998 38.16 52.0598 38.38C51.7998 38.44 51.5598 38.48 51.2798 38.48C50.2998 38.46 49.0598 38.02 46.4598 36.92C43.9998 35.86 43.0398 35.14 44.0798 35.14C44.2798 35.14 44.4598 34.98 44.4598 34.78C44.4598 34.58 43.9198 34.38 43.2398 34.32C42.4198 34.24 41.9798 33.98 41.8998 33.52C41.8398 33.18 41.8598 33.02 42.0998 33C42.2398 33 42.4198 33.04 42.6798 33.1C42.9998 33.18 43.2198 33.22 43.3598 33.2C43.6398 33.22 43.6998 33.12 43.5598 32.92C43.4198 32.68 42.9198 32.48 42.4798 32.48C41.5198 32.48 39.1998 31.16 39.1998 30.6C39.1998 30.4 38.8398 30.22 38.3998 30.22C37.4998 30.22 35.0598 28.82 35.0598 28.3C35.0598 28.12 35.6998 27.66 36.4598 27.3C37.6198 26.76 37.8998 26.38 38.0998 25.22C38.2598 24.22 38.1198 23.72 37.7198 23.8C37.5198 23.76 37.2398 23.92 36.8798 24.28C36.7598 24.4 36.6798 24.46 36.5998 24.48C36.4798 24.44 36.3998 24.24 36.3198 23.9C36.1798 23.38 36.0398 23.12 35.8598 23.1C35.8398 23.1 35.7998 23.1 35.7798 23.12C35.7598 23.12 35.7598 23.12 35.7398 23.1C35.5598 23.08 35.3398 23.32 35.0398 23.8C34.7798 24.24 34.1598 24.54 33.6198 24.54C32.4198 24.54 30.5998 25.46 30.3198 26.22C30.1998 26.56 29.6398 26.8 29.0198 26.8C27.4598 26.8 27.2798 27.22 28.4598 28.16L29.4998 29L28.3998 29.42C27.2398 29.98 27.3998 30.52 28.7198 30.76ZM60.3198 30.32H61.4398L59.9398 31.02C59.1198 31.4 57.9398 32.24 57.3198 32.9C56.6598 33.6 56.2398 33.96 55.9598 34.02C55.7998 33.98 55.7198 33.74 55.7198 33.32C55.7198 31.82 58.0198 30.32 60.3198 30.32ZM59.7398 40.46C60.5798 40.48 62.3598 41.62 62.3598 42.16C62.3598 42.22 62.3598 42.26 62.3398 42.28C62.1198 42.24 61.5998 42.06 60.3398 41.62C58.3398 40.94 58.1198 40.48 59.7398 40.46ZM61.8398 35.22C61.8598 35.22 61.8998 35.22 61.9198 35.22C62.1798 35.24 62.4198 35.28 62.6198 35.36C62.9198 35.48 63.0598 35.74 62.9398 35.96C62.8198 36.16 62.3998 36.24 61.9198 36.24C61.2198 36.22 60.4398 36.04 60.4398 35.74C60.4198 35.46 61.1398 35.24 61.8398 35.22ZM63.1198 37.84C63.7598 37.86 63.8798 38.08 63.8798 39.1C63.8798 39.78 63.7998 40.44 63.6798 40.54C63.5998 40.62 63.4598 40.66 63.2998 40.66C62.6598 40.62 61.6398 40.22 61.1798 39.72C60.6198 39.1 60.6398 39 61.4398 38.44C61.8998 38.1 62.6398 37.84 63.1198 37.84Z" fill="white"/>
<path d="M95.66 64.94C95.76 64.9 95.86 64.86 96 64.8C96 63.08 96.92 61.18 97.22 59.48C97.56 57.62 97.76 55.76 97.9 53.88C98.2 50 97.84 46.46 97.34 42.62C97.08 40.56 96.66 38.6 96.22 36.78C96.02 36 94.76 31.4 94.06 31.18C93.76 30.58 93.46 29 92.84 28.78C92.8 28.56 92.76 28.32 92.72 28.06C92.62 28.02 92.52 27.98 92.4 27.94C92.36 27.72 92.34 27.52 92.3 27.3C92.2 27.26 92.1 27.24 92 27.2C91.94 26.66 91.26 25.3 90.82 25.14C90.8 24.92 90.78 24.7 90.74 24.48C90.16 24.32 90.2 23.72 89.64 23.62C89.4 23.12 88.92 22.12 88.42 22C88.4 21.92 88.38 21.82 88.34 21.68C86.74 21.26 87.56 19 86.02 18.8C86 18.7 85.96 18.6 85.92 18.48C85.82 18.46 85.7 18.44 85.58 18.4C85.56 18.3 85.54 18.18 85.52 18.08C84.94 17.96 85 17.34 84.4 17.2C84.38 17.1 84.36 17 84.32 16.88C84.2 16.86 84.1 16.84 84 16.82C83.9 16.36 83.24 15.74 82.8 15.62C82.66 15.02 80.76 13.6 80.26 13.08C79.62 12.46 77.74 11.56 77.54 10.9C77.06 10.78 76.46 10.54 76.3 10.08C76.1 10.06 75.9 10.04 75.66 9.99997C75.62 9.89997 75.58 9.79997 75.54 9.69997C75.32 9.65997 75.08 9.61997 74.86 9.55997C74.82 9.45997 74.8 9.35997 74.76 9.25997C74.54 9.23997 74.32 9.21997 74.08 9.19997C73.68 8.23997 71.52 8.29997 71.16 7.27997C70.92 7.23997 70.7 7.21997 70.44 7.17997C70.4 7.07997 70.38 6.97997 70.34 6.89997C69.86 6.81997 68.9 6.53997 68.7 6.13997C68.08 6.05997 66.56 5.87997 66.34 5.29997C66.12 5.27997 65.9 5.25997 65.64 5.23997C65.6 5.13997 65.56 5.01997 65.52 4.89997C65.18 4.85997 64.84 4.83997 64.48 4.79997C64.44 4.69997 64.4 4.59997 64.36 4.51997C60.82 2.71997 56.02 2.73997 52.1 2.73997C50.42 2.73997 48.76 2.79997 47.08 2.87997C44.9 2.97997 42.68 2.93997 40.54 3.33997C39.64 3.51997 35.42 4.13997 35.16 4.77997C34.94 4.83997 34.72 4.87997 34.5 4.93997C34.46 5.03997 34.42 5.13997 34.36 5.25997C33.76 5.25997 32.16 5.39997 31.98 5.99997C29.08 6.19997 26.68 10.04 24.08 10.04C23.68 11.2 20.7 12 20.4 13.2C20.02 13.36 19.32 13.56 19.22 14C17.72 14.32 16.56 16.72 15.36 17.6C14.8 16.62 15.7 14.66 16.78 14.42C16.8 14.3 16.82 14.18 16.86 14.06C16.98 14.04 17.08 14.02 17.18 14C17.2 13.88 17.22 13.78 17.26 13.68C17.38 13.66 17.48 13.64 17.6 13.62C17.62 13.52 17.66 13.42 17.7 13.3C18.1 13.22 20.14 10.94 20.4 11.24C20.68 10.44 22.12 9.99997 22.78 9.51997C23.56 8.93997 24.24 8.13997 25.16 7.99997C25.42 7.31997 26.28 7.55997 26.5 6.87997C26.86 6.85997 27.18 6.83997 27.56 6.79997C27.62 6.71997 27.68 6.61997 27.74 6.49997C27.94 6.45997 28.16 6.43997 28.38 6.39997C28.4 6.29997 28.44 6.19997 28.46 6.09997C29.12 5.85997 30.7 5.93997 30.9 5.27997C31.24 5.25997 31.6 5.23997 31.96 5.21997C32 5.09997 32.04 4.99997 32.08 4.85997C32.42 4.83997 32.78 4.81997 33.16 4.77997C33.18 4.69997 33.22 4.59997 33.26 4.45997C33.6 4.43997 33.96 4.41997 34.34 4.37997C34.78 3.43997 36.28 3.23997 37.18 3.17997C38 1.61997 40.42 3.75997 40.42 2.03997C41.8 1.97997 49.16 -0.0200315 49.72 1.15997C51.86 1.17997 54.02 0.939968 56.16 1.09997C57.14 1.17997 60.9 1.51997 61.32 2.39997H62.38C62.42 2.53997 62.46 2.65997 62.5 2.79997C62.84 2.83997 63.18 2.85997 63.54 2.89997C63.58 2.99997 63.64 3.09997 63.7 3.19997C64.8 3.27997 64.92 3.57997 65.98 3.65997C66.02 3.77997 66.08 3.87997 66.14 4.01997C67.26 4.07997 72.58 5.51997 72.88 6.41997C73.12 6.43997 73.34 6.43997 73.6 6.45997C73.78 7.11997 74.54 7.59997 75.18 7.67997C75.2 7.77997 75.24 7.85997 75.28 8.03997C76.7 8.03997 76.4 8.71997 77.62 8.87997C77.66 8.97997 77.7 9.07997 77.74 9.17997C77.94 9.19997 78.14 9.23997 78.4 9.25997C78.7 10.36 81.64 11.72 82.6 12.44C83.86 13.4 84.92 14.7 86.18 15.76C87.48 16.86 88.04 17.54 88.86 19.14C89.34 20.08 89.86 21.8 90.84 22.06C90.98 22.86 91.28 23.16 92.02 23.26C92.06 23.48 92.1 23.68 92.14 23.92C92.76 24.18 92.6 25.06 93.2 25.3C93.48 25.88 93.42 27.08 94.02 27.28C94.12 27.7 94.42 28.38 94.82 28.46C94.98 28.88 95.18 29.54 95.62 29.68C96.1 30.8 95.76 33.36 96.84 33.66C97.52 35.04 97.88 42.14 98.86 42.48C99.12 43.98 99.28 45.1 99.4 46.66C99.48 47.74 99.7 48.86 99.62 49.96C99.58 50.42 98.18 50.98 99.26 51.3V55.2C99.16 55.24 99.06 55.28 98.92 55.34V55.96C99.02 56 99.12 56.04 99.24 56.1V56.76C99.14 56.8 99.02 56.84 98.88 56.92V58.74C98.74 58.8 98.64 58.84 98.52 58.9C98.48 59.12 98.44 59.34 98.4 59.58C98.3 59.62 98.2 59.64 98.08 59.68C98.08 60.76 97.82 64.78 96.92 65.32C96.88 66.02 96.78 67.5 96.06 67.7C96.06 68.44 95.7 70.28 94.9 70.48C94.86 71.18 94.48 72.64 93.7 72.88C93.68 73.1 93.66 73.34 93.64 73.58C93.54 73.62 93.42 73.66 93.32 73.7C93.3 73.94 93.26 74.16 93.24 74.42H92.52C92.5 74.32 92.46 74.2 92.42 74.02C91.84 74.12 91.6 74.38 91.7 74.82C91.94 74.86 92.16 74.9 92.42 74.96C92.44 75.3 92.46 75.64 92.48 75.98C92.34 76.02 92.24 76.04 92.1 76.06C91.72 76.9 90.62 79 89.72 79.3C89.62 80.14 89.3 80.38 88.46 80.46C88.46 81.14 87.58 82.7 86.9 82.84C86.88 82.94 86.86 83.04 86.82 83.16C86.44 83.26 85.76 83.98 85.64 84.36C85.54 84.38 85.42 84.4 85.3 84.44C85.28 84.56 85.26 84.66 85.22 84.78C85 84.8 84.78 84.84 84.52 84.86C83.88 85.3 83.88 86.74 82.9 86.74C82.88 86.5 82.86 86.28 82.84 86.04C82.6 86 82.38 85.96 82.12 85.94V85.32C83.34 85.14 82.94 84.44 84.4 84.38C84.44 83.58 85.08 82.18 86.02 82C86.38 81.16 87.2 80.56 87.3 79.72C87.38 79.7 87.48 79.66 87.6 79.62C87.62 79.52 87.66 79.42 87.68 79.28C88.6 79.06 89.06 77.04 90.02 76.8C90.02 76.46 91.9 73.6 92 73.58C92.36 71.5 94.28 70.02 94.5 68.1C94.6 68.06 94.7 68.04 94.82 68C94.82 67 95.54 65.62 95.66 64.94C95.76 64.9 95.6 65.2 95.66 64.94ZM98.8 48.24C98.34 48.12 98.26 48.16 98.54 48.38C98.62 48.4 98.84 48.22 98.8 48.24C98.68 48.32 98.66 48.06 98.8 48.24Z" fill="white"/>
<path d="M22.76 88.54C22.76 88.58 22.8 88.66 22.82 88.78C23.76 89.2 24.22 89.96 25.14 90.06C25.18 90.16 25.2 90.26 25.26 90.38C25.36 90.4 25.46 90.44 25.56 90.46C25.6 90.58 25.62 90.68 25.66 90.8C25.78 90.82 25.88 90.86 25.98 90.88C26 91 26.04 91.1 26.08 91.22C26.88 91.22 29.4 91.46 29.66 92.38C31 93.38 42.48 98.7 43 96.46C43.36 97.28 44.9 97.2 45.56 97.2C45.62 97.36 45.66 97.48 45.72 97.64C47.44 97.36 47.72 98.04 49.62 98.06C51.74 98.06 53.92 97.94 56.02 97.64C57.64 97.42 59.3 97.1 60.9 96.82C61.68 96.68 63.04 95.98 64.04 96.06L64.08 96.8C64.3 96.96 64.62 96.8 64.84 97.1C63.96 97.26 60.64 97.72 60.38 98.4C59.42 98.44 55.94 98.48 55.56 99.22H46.96C46.9 99.12 46.82 99.02 46.74 98.88C43.32 98.8 39.72 97.82 36.56 97.62C36.5 97.5 36.46 97.42 36.42 97.3C35.24 97.18 30.42 95.94 30.04 94.88C29.3 94.54 28.58 94.76 28.04 94.5C27.64 94.3 27.64 94.24 27.22 93.94C26.7 93.56 24.94 92.54 24.82 92.08C24.12 92.1 23.74 91.86 23.66 91.36C23.28 91.16 22.56 90.94 22.42 90.52C22.2 90.48 21.98 90.44 21.72 90.4C21.46 89.64 19.1 88.38 18.36 87.92C17.3 87.24 15.54 85.06 14.5 84.82C14.42 84.38 13.76 83.72 13.32 83.62C13.16 82.94 10.96 80.44 10.4 79.76C9.84003 79.1 8.92003 77.4 8.10003 77.2C8.12003 76.5 7.88003 76.1 7.36003 75.98C7.32003 75.76 7.28003 75.54 7.24003 75.3C7.14003 75.26 7.04003 75.22 6.92003 75.18C6.82003 74.52 6.38003 73 5.74003 72.76C5.64003 72 4.88003 69.86 4.16003 69.54C4.04003 68.66 3.38003 65.94 2.54003 65.56C2.50003 64.78 2.40003 62.66 1.70003 62.38C1.70003 60.26 1.14003 57.84 0.880026 55.52C0.560026 52.8 0.880026 50.72 0.880026 48.16C0.760026 48.1 0.640026 48.06 0.540026 48C0.540026 46.34 0.400026 39.6 2.06003 38.8C2.08003 38.44 2.10003 38.08 2.12003 37.72C2.22003 37.68 2.32003 37.64 2.44003 37.6C2.88003 35.1 3.10003 33.22 4.08003 31.02C4.58003 29.88 5.70003 25.96 6.88003 25.6C6.90003 25.38 6.90003 25.16 6.92003 24.92C7.02003 24.88 7.12003 24.84 7.24003 24.8C7.32003 24.28 7.48003 23.38 8.06003 23.22C8.08003 23.12 8.10003 23.02 8.14003 22.88H9.26003C9.28003 22.6 9.30003 22.36 9.32003 22.1C9.44003 22.06 9.56003 22.04 9.66003 22C9.68003 21.9 9.72003 21.78 9.74003 21.7C10.2 21.44 10.44 22.04 10.86 22C10.9 21.86 10.92 21.74 10.96 21.6C11.3 21.64 11.62 21.66 11.96 21.72C12 21.72 12.02 21.86 12.06 21.96C10.74 22.3 10.26 24.26 9.32003 24.48C9.26003 25.16 8.20003 26.74 7.72003 26.94C7.70003 27.62 7.64003 29.84 6.92003 30.08C6.90003 30.3 6.88003 30.52 6.86003 30.74C5.96003 31.12 4.54003 34.24 4.48003 35.2C4.38003 35.24 4.28003 35.3 4.14003 35.36C4.02003 37.98 2.92003 40.68 2.62003 43.32C2.18003 46.4 1.80003 49.48 2.00003 52.58C2.16003 54.98 2.76003 57.42 3.26003 59.6C3.48003 60.56 3.38003 62.9 4.44003 63.28C4.44003 63.9 4.94003 67.82 5.96003 67.66C6.00003 68.06 6.02003 68.42 6.06003 68.8C6.16003 68.84 6.26003 68.86 6.38003 68.92C6.40003 69.26 6.44003 69.6 6.46003 69.96C6.56003 70 6.66003 70.04 6.78003 70.08C6.80003 70.3 6.80003 70.52 6.82003 70.78C6.92003 70.82 7.04003 70.86 7.16003 70.92C7.20003 71.14 7.22003 71.36 7.26003 71.6C7.74003 71.74 8.38003 73.14 8.48003 73.58C8.56003 73.62 8.66003 73.66 8.76003 73.68C9.00003 74.28 9.36003 75.9 9.96003 76.1C9.98003 76.32 10.02 76.54 10.06 76.78C10.14 76.8 10.24 76.84 10.38 76.88C10.4 76.96 10.44 77.08 10.46 77.2C11.18 77.36 12.1 79.32 12.78 80C13.48 80.72 14.34 81.24 15.02 81.98C15.38 82.38 16.76 83.6 16.84 84C16.94 84.02 17.06 84.06 17.18 84.08C17.2 84.18 17.22 84.26 17.24 84.38C17.36 84.4 17.46 84.44 17.58 84.46C17.8 85.3 19.06 85.24 19.24 86.02C19.36 86.04 19.46 86.06 19.56 86.08C19.58 86.18 19.62 86.28 19.64 86.4C20.28 86.46 21.48 87.36 21.66 87.98C21.94 88.16 22.74 88.54 22.76 88.54C22.78 88.58 22.52 88.44 22.76 88.54ZM6.44003 28.1C6.58003 28 6.72003 27.9 6.86003 27.78C6.76003 27.6 6.60003 27.56 6.42003 27.64C6.44003 27.82 6.44003 27.96 6.44003 28.1ZM6.46003 28.12H6.08003V29.2C6.20003 29.2 6.30003 29.18 6.44003 29.18M8.48003 23.7C8.42003 23.74 8.48003 23.9 8.48003 24.04V23.7ZM8.48003 24.02H9.24003C9.20003 23.76 9.18003 23.54 9.14003 23.24M7.58003 26.04C7.72003 25.32 7.16003 25.86 7.16003 25.86C7.20003 26.18 7.64003 26.02 7.58003 26.04C7.70003 25.42 7.38003 26.08 7.58003 26.04Z" fill="white"/>
<path d="M38.5001 94.4399C38.4401 94.2799 38.4001 94.1999 38.3601 94.0799C37.6001 93.9999 34.5401 93.2799 34.3601 92.8799C33.4401 92.7999 30.2001 91.7599 29.9601 90.8799C29.7401 90.8599 29.5401 90.8399 29.3001 90.7999C29.2601 90.6999 29.2201 90.5999 29.1801 90.4799C28.8401 90.4399 28.5001 90.3999 28.1401 90.3599C28.0801 90.2599 28.0201 90.1599 27.9401 90.0199H26.1201C26.0801 89.8999 26.0601 89.8199 26.0201 89.6999C25.5601 89.5799 24.9201 88.9599 24.7801 88.4999C23.6801 88.3999 23.5201 87.3599 22.4801 87.2399C22.2201 86.5599 21.3601 86.7999 21.2201 86.0999C21.1001 86.0799 21.0001 86.0599 20.8601 86.0199C20.7201 85.4199 19.1001 84.4399 18.5201 84.3999C18.3001 83.8199 17.4401 82.5599 16.9001 82.3599C16.7401 81.4599 16.1401 81.4199 15.9801 80.5399C13.2001 80.0199 12.7801 74.6999 10.1001 74.4399C10.0801 74.1799 10.0401 73.9399 10.0201 73.6999C9.92013 73.6599 9.82013 73.6199 9.72013 73.5799C9.68013 73.3599 9.66013 73.1399 9.62013 72.9199C9.52013 72.8799 9.40013 72.8399 9.26013 72.7999C9.24013 72.2999 9.02013 71.3599 8.50013 71.2199C8.48013 70.9999 8.46013 70.7599 8.42013 70.5199C8.32013 70.4799 8.20013 70.4399 8.08013 70.3999C8.06013 70.1799 8.04013 69.9599 8.02013 69.6999C7.92013 69.6599 7.82013 69.6199 7.70013 69.5799C7.68013 69.2399 7.66013 68.8999 7.62013 68.5399C7.52013 68.4999 7.42013 68.4599 7.32013 68.4199C7.24013 67.7999 6.62013 65.8199 6.10013 65.6399C6.02013 64.5599 5.66013 63.6799 5.66013 62.5399C5.52013 62.4799 5.42013 62.4399 5.30013 62.3999C5.14013 60.3399 4.18013 58.7199 3.70013 56.8999C3.24013 55.1599 3.36013 53.1599 3.40013 51.3799C3.44013 49.8399 3.56013 48.3199 3.64013 46.7799C3.72013 45.2799 3.74013 39.0199 5.24013 38.4399C5.58013 37.2599 6.78013 31.1799 7.62013 30.8599C7.84013 30.3399 7.90013 29.4599 8.44013 29.2599C8.50013 28.6799 8.66013 28.1999 9.22013 28.0199C9.24013 27.7999 9.26013 27.5999 9.26013 27.3599C9.38013 27.3199 9.48013 27.2999 9.62013 27.2599C9.64013 27.0399 9.68013 26.7999 9.70013 26.5599C9.80013 26.5199 9.90013 26.4999 10.0001 26.4599C10.0201 26.3399 10.0401 26.2399 10.0801 26.1199C10.1801 26.0799 10.2801 26.0599 10.3801 26.0399C10.4201 25.8199 10.4401 25.5999 10.4801 25.3399C10.6001 25.3199 10.7001 25.2799 10.7801 25.2599C10.9801 24.8799 11.1601 24.5199 11.3801 24.0999C12.0401 23.9399 15.9601 18.2799 16.2801 18.5399C17.1001 19.1799 13.2801 22.8799 13.2201 23.2199C13.1201 23.2399 13.0201 23.2599 12.9001 23.2999C12.5801 24.4199 11.0001 25.1799 10.8401 26.4399C10.7201 26.4599 10.6201 26.4999 10.5401 26.5199C10.3401 26.8799 10.1201 27.5999 9.70013 27.7399C9.68013 27.9599 9.64013 28.1799 9.62013 28.4399C9.50013 28.4799 9.40013 28.4999 9.26013 28.5399C9.24013 28.7599 9.22013 28.9599 9.20013 29.1999C9.10013 29.2399 9.00013 29.2799 8.86013 29.3399C8.76013 30.8999 7.66013 31.9199 7.66013 33.5999C6.20013 34.3799 7.22013 38.9599 5.66013 39.7799C5.62013 40.4599 5.46013 41.9399 4.86013 42.1799C4.72013 44.9799 4.24013 47.7999 4.26013 50.6999C4.28013 52.8199 4.66013 54.8399 5.06013 56.9399C5.30013 58.1999 5.44013 63.6799 6.82013 64.1799V65.2399C7.70013 65.7199 7.10013 67.0399 8.02013 67.3599C8.06013 67.8799 8.24013 69.1799 8.80013 69.3599C8.82013 69.5799 8.84013 69.8199 8.86013 70.0799C10.2001 70.6799 11.1601 74.5999 12.3801 74.9599C12.5001 75.4199 12.7401 76.0399 13.2201 76.1399C13.2201 76.5599 13.6201 77.2199 14.0001 77.3399C14.1401 78.6599 15.9001 79.5599 16.7401 80.5199C17.2401 81.0999 17.6001 81.9599 18.1001 82.4599C18.5001 82.8799 19.1201 82.6199 19.2801 83.2599C19.3601 83.2799 19.4601 83.2999 19.6001 83.3399C19.7601 83.9599 22.3001 85.8999 22.9401 86.4199C24.0001 87.2599 25.0201 88.4799 26.3801 88.5599C26.4201 88.6799 26.4601 88.7599 26.5201 88.8999H27.9801C28.0401 89.0399 28.0801 89.1399 28.1201 89.2399C28.3401 89.2799 28.5601 89.3199 28.8001 89.3399C28.8201 89.4399 28.8601 89.5399 28.9001 89.6599C29.3601 89.7399 29.9601 89.9999 30.1001 90.4399C31.2801 90.6399 30.5601 90.8999 31.4201 91.2399C32.2801 91.5799 33.4201 91.6799 34.3201 91.9799C35.1201 92.2399 39.0801 93.0199 39.3401 93.6199C39.5601 93.6599 39.7601 93.6999 39.9801 93.7399C40.0201 93.8599 40.0601 93.9599 40.1201 94.1199C43.0201 94.1199 45.8401 95.0999 48.7601 95.1599C50.0001 95.1799 56.5401 95.4799 56.9001 94.5399C57.1201 94.5199 57.3401 94.4799 57.5801 94.4599C57.6201 94.3599 57.6601 94.2599 57.6801 94.1599C58.7201 93.8799 64.0601 93.3799 64.4801 92.5199C64.7001 92.4999 64.9201 92.4799 65.1601 92.4599C65.7401 91.4199 68.5001 91.6399 68.9201 90.5599C69.6401 90.5599 70.2001 90.1399 70.9001 90.1199C70.8201 90.9999 70.5801 91.2399 69.7001 91.3199C69.6601 91.4199 69.6401 91.5199 69.5801 91.6399C68.5801 91.7999 67.8001 92.4599 66.9201 92.5199C66.8801 92.6199 66.8201 92.7199 66.7601 92.8399C66.4201 92.8799 66.0801 92.9199 65.7201 92.9599C65.6801 93.0599 65.6401 93.1599 65.6001 93.2799C64.9001 93.3199 62.6601 93.8599 62.3801 94.4999C61.5401 94.4999 59.0201 94.6999 58.6801 95.6999C57.9801 94.1799 49.2601 96.4799 47.7401 96.4399C44.3001 96.2999 41.3401 94.4399 38.5001 94.4399C38.8201 94.4399 38.4401 94.2799 38.5001 94.4399Z" fill="white"/>
<path d="M67.3602 7.61993C67.6202 7.63993 67.9402 7.67993 68.3002 7.69993C68.3402 7.79993 68.3802 7.89993 68.4402 8.03993C68.8002 8.05993 69.1402 8.07993 69.5002 8.09993C69.7402 8.67993 72.3202 9.17993 73.0402 9.63993C73.7002 10.0599 75.8202 11.2999 76.0602 12.0199C77.6002 12.2399 78.1202 13.9199 79.5402 14.0999C79.5602 14.2199 79.6002 14.3399 79.6202 14.4599C79.7402 14.4799 79.8402 14.4999 79.9402 14.5199C79.9802 14.6399 80.0002 14.7399 80.0402 14.8599C80.4802 14.8399 81.1202 15.2799 81.2202 15.6399C82.3002 15.9199 82.8402 17.8399 83.9602 18.1199C83.9802 18.2199 84.0002 18.3199 84.0402 18.4399C85.2002 18.7199 86.0202 21.8999 87.1602 22.0999C87.9202 23.3599 89.4602 25.0199 89.6402 26.4199C89.7402 26.4399 89.8402 26.4799 89.9602 26.4999C90.1202 27.0399 90.6802 28.3999 91.1602 28.5199C91.1802 28.7399 91.2002 28.9599 91.2202 29.1999C91.3202 29.2399 91.4202 29.2999 91.5202 29.3399C91.5602 29.5799 91.6002 29.7999 91.6402 30.0399C91.7402 30.0799 91.8402 30.0999 91.9602 30.1399C91.9802 30.4999 92.0002 30.8399 92.0202 31.1999C92.1202 31.2399 92.2202 31.2599 92.3402 31.2999C92.3602 31.3999 92.3802 31.5199 92.4202 31.6399C92.5202 31.6799 92.6202 31.6999 92.7202 31.7399C92.9802 32.5199 93.0802 34.6399 93.9402 34.9399C93.9602 35.2999 93.9802 35.6399 94.0202 36.0199C94.1202 36.0599 94.2402 36.0999 94.3802 36.1599V37.5799C94.5202 37.6399 94.6202 37.6999 94.7402 37.7399C95.8802 44.0999 96.6402 50.6999 95.3802 57.1199C95.0002 59.0799 94.7802 60.8599 94.3402 62.6599C93.9202 64.3799 92.9402 66.4199 92.7402 67.9999C92.6202 68.0399 92.5202 68.0799 92.4202 68.1199C92.3602 69.1399 90.5602 73.0799 89.6402 73.3399C89.6202 73.5599 89.6202 73.7599 89.6002 74.0199C88.9602 74.2199 88.6202 75.1399 88.2802 75.5599C87.5002 76.5199 87.3602 76.9399 86.0802 76.8799C86.0802 76.0199 88.3402 74.8999 88.4602 73.7799C88.5602 73.7399 88.6602 73.7199 88.7802 73.6799C88.8402 73.0599 89.3802 71.4199 89.9602 71.2799C90.0402 70.8199 90.3202 70.1799 90.7602 70.0599C90.7802 69.8399 90.8002 69.6199 90.8202 69.3599C90.9202 69.3199 91.0202 69.2799 91.1402 69.2399C91.1802 69.0399 91.2002 68.8599 91.2402 68.6199C91.3402 68.5799 91.4402 68.5399 91.5602 68.4799C91.5802 68.2399 91.6202 68.0199 91.6402 67.7599C91.7202 67.7199 91.8202 67.6999 91.9602 67.6399C91.9802 67.4399 92.0002 67.2199 92.0202 66.9599C92.1202 66.9199 92.2202 66.8799 92.3402 66.8399C92.5002 66.1999 92.5002 64.7599 93.1802 64.4799C93.2402 63.7999 94.0602 57.9599 94.5402 57.6999C95.8602 57.0199 95.2802 49.0599 95.2802 47.8399C95.2802 45.5799 94.7602 43.7999 94.3602 41.7399C94.1602 40.6799 93.6802 39.2199 93.9402 38.3599C94.1002 37.8399 92.4202 32.3799 91.6802 32.0399C91.4202 30.8199 90.5002 29.9999 90.3602 28.9799C90.2602 28.9399 90.1602 28.8999 90.0602 28.8599C90.0202 28.6399 90.0002 28.4199 89.9602 28.2199C89.4402 28.0199 88.8402 26.7399 88.7602 26.1999C88.0202 25.9599 88.0402 24.6999 87.2802 24.4399C87.2002 23.8399 86.4402 23.0799 86.0202 22.5799C85.4202 21.8999 84.9802 20.9199 84.3802 20.1399C83.9002 19.5199 82.4402 17.4799 81.6602 17.2799C81.4802 16.4399 78.9002 14.6599 78.0802 14.4399C78.0602 14.3799 78.0202 14.2599 77.9802 14.1399C76.1802 13.2399 73.5402 10.4999 71.6802 10.4999C71.6402 10.3599 71.6002 10.2599 71.5602 10.1399C71.3402 10.1199 71.1402 10.0999 70.9002 10.0799C70.8602 9.97993 70.8202 9.85993 70.7802 9.75993C70.5402 9.71993 70.3202 9.67993 70.0802 9.63993C70.0402 9.53993 70.0202 9.43993 69.9802 9.33993C69.7402 9.31993 69.5202 9.29993 69.2802 9.25993C69.2402 9.15993 69.2002 9.05993 69.1602 8.93993C68.9402 8.91993 68.7202 8.89993 68.4602 8.87993C68.4202 8.79993 68.3802 8.69993 68.3402 8.57993C68.1402 8.53993 67.9202 8.51993 67.6602 8.47993C67.6202 8.37993 67.5802 8.27993 67.5402 8.15993C67.3002 8.13993 67.0802 8.11993 66.8402 8.09993C66.8002 7.99993 66.7802 7.89993 66.7402 7.75993C66.3802 7.73993 66.0202 7.71993 65.6402 7.69993C65.6002 7.59993 65.5602 7.49993 65.5002 7.35993C65.1802 7.31993 64.8402 7.27993 64.4602 7.23993C64.4402 7.15993 64.4002 7.07993 64.3602 6.91993C63.5802 6.91993 61.4402 7.31993 61.1602 6.53993C60.3002 6.47993 58.0802 4.69993 57.5602 5.67993C56.4802 5.67993 55.4002 4.93993 54.3002 4.81993C53.2402 4.69993 52.1602 4.97993 51.1202 4.87993C50.0602 4.75993 46.8002 5.19993 46.2002 4.55993C45.9802 4.93993 45.6602 5.03993 45.2202 4.87993V3.73993C48.1802 3.69993 51.5202 3.07993 54.4402 3.61993C55.4202 3.79993 59.4002 4.11993 59.7202 4.83993C60.3002 4.89993 61.5002 5.01993 61.6802 5.67993C61.9002 5.69993 62.1002 5.71993 62.3402 5.75993C62.3802 5.85993 62.4202 5.93993 62.4802 6.03993C64.0602 6.37993 66.5402 6.49993 67.3602 7.61993C67.6202 7.63993 67.2402 7.45993 67.3602 7.61993Z" fill="white"/>
<path d="M20.2799 15.2C19.5199 15.4 19.2599 15.66 19.1799 16.38C18.9399 16.42 18.7199 16.48 18.4599 16.52C18.3999 17.06 17.6199 18.18 16.9999 18.08C16.7599 18.04 16.8399 17.86 16.8599 17.7C17.7199 17 18.2999 15.94 18.8999 15.3C19.4999 14.68 21.4799 13.7 21.6799 12.88C22.1199 12.76 22.7599 12.54 22.8799 12.1C23.3399 11.94 24.7199 11.42 24.8799 10.88C25.0999 10.86 25.3199 10.82 25.5399 10.8C25.5799 10.7 25.6199 10.6 25.6799 10.46C26.4599 10.26 28.1599 9.65995 28.4599 8.85995C28.6999 8.83995 28.9199 8.83995 29.1799 8.81995C29.2199 8.71995 29.2599 8.61995 29.2999 8.49995C29.4999 8.45995 29.7199 8.39995 29.9599 8.35995C29.9999 8.27995 30.0199 8.17995 30.0799 8.05995C30.2999 8.03995 30.5399 8.01995 30.7799 7.99995C30.8199 7.87995 30.8399 7.77995 30.8799 7.65995C31.0999 7.63995 31.3199 7.61995 31.5399 7.59995C31.5799 7.49995 31.6399 7.39995 31.6999 7.27995C32.3199 7.21995 33.8999 7.03995 34.0799 6.45995C34.6399 6.41995 35.8599 6.19995 36.0799 5.65995C36.2999 5.63995 36.5199 5.63995 36.7799 5.61995C36.8199 5.53995 36.8799 5.43995 36.9599 5.27995C37.3999 5.25995 37.8799 5.23995 38.3599 5.21995C38.3999 5.09995 38.4399 4.97995 38.4999 4.85995C38.8599 4.83995 39.1999 4.79995 39.5399 4.77995C39.5999 4.67995 39.6399 4.57995 39.6999 4.49995C40.4999 4.35995 43.8199 3.61995 44.0799 4.39995C44.3199 4.43995 44.5599 4.45995 44.8199 4.49995C44.9399 4.75995 44.7799 4.91995 44.6799 5.07995C44.4599 5.01995 44.2599 4.93995 44.0599 4.89995C43.0599 4.71995 41.7799 6.47995 40.7199 5.77995C39.7999 5.95995 35.8999 6.67995 35.5599 7.61995C35.2199 7.63995 34.8599 7.67995 34.4999 7.69995C34.4599 7.79995 34.4199 7.89995 34.3799 8.03995C32.8999 8.03995 31.5399 9.17995 30.0999 9.25995C30.0599 9.35995 30.0199 9.45995 29.9599 9.57995C29.7599 9.61995 29.5599 9.65995 29.3199 9.69995C29.2799 9.77995 29.2399 9.89995 29.1999 10.02C28.8399 10.04 28.4999 10.06 28.1399 10.08C28.0999 10.18 28.0799 10.28 28.0199 10.42C27.7999 10.44 28.2799 10.4 28.0199 10.42C27.8199 11.1 26.7999 11.22 26.1199 11.3C25.8399 12.14 24.3199 11.72 23.9599 12.8C22.7399 12.88 20.8999 14.32 20.2799 15.2C20.3999 15.04 19.8399 15.32 20.2799 15.2Z" fill="white"/>
<path d="M12.7799 20.48C12.7399 20.88 12.5199 21.16 12.1199 21.3C12.0599 21.14 12.0199 20.98 11.9599 20.82C11.3999 20.64 10.9199 20.74 10.5399 21.12C10.4999 20.92 10.4799 20.74 10.4399 20.52C11.8599 20.66 12.2399 18 13.9399 18.08C13.9599 18.22 13.9799 18.32 13.9999 18.44C13.7599 18.44 13.5199 18.44 13.2599 18.44V18.82C13.4999 18.8 13.7199 18.8 13.9399 18.78C13.9599 18.64 13.9599 18.54 13.9599 18.42C14.0799 18.4 14.1999 18.4 14.3599 18.38C14.3799 18.16 14.4199 17.94 14.4399 17.68C14.6799 17.66 14.9199 17.62 15.1999 17.6C15.1399 18.2 14.6399 19.1 14.0399 19.28C14.0199 19.38 13.9799 19.5 13.9599 19.62C13.3399 19.72 13.4399 20.38 12.7799 20.48C12.9399 20.1 13.0799 19.7 13.1999 19.28H12.4199C12.2799 19.76 12.5999 20.44 12.7799 20.48C12.8999 20.86 12.5199 20.42 12.7799 20.48Z" fill="white"/>
<path d="M74.1 88.76C73.96 87.82 75.06 87.96 75.24 87.28C75.46 87.26 75.7 87.22 75.94 87.2C76.34 85.72 78.02 86.34 78.02 84.48H78.36C78.38 84.84 78.42 85.18 78.44 85.54C78.68 85.48 78.92 85.4 79.16 85.28V85.98C78.7 86.06 76.5 87.46 76.32 87.98C75.42 88.06 75.04 89.04 74.1 88.76C74.34 88.84 74.02 88.26 74.1 88.76C74.34 88.84 74 88.1 74.1 88.76Z" fill="white"/>
<path d="M71.34 93.6399C71.54 93.6199 71.78 93.6199 71.98 93.5999C72.56 92.7399 72.7 91.9599 73.84 91.4199C74.2 91.7399 74.82 91.8199 75.12 92.2199C74.54 93.1999 72.58 93.1599 72.32 94.0399C71.92 94.0399 71.26 94.4999 70.88 94.3599C70.6 94.2599 71.4 93.5599 71.34 93.6399C71.52 93.6399 71.16 93.7999 71.34 93.6399ZM72.6 93.1599C72.66 93.0999 72.68 93.0599 72.72 93.0199C72.66 92.9799 72.62 92.9399 72.56 92.9199C72.58 92.9999 72.6 93.0799 72.6 93.1599C72.66 93.0999 72.54 93.0999 72.6 93.1599Z" fill="white"/>
<path d="M80.0402 88.86C79.9802 89.08 79.9402 89.28 79.8802 89.5C79.6402 89.36 79.4402 89.24 79.2202 89.12V88.06C79.3402 88.02 79.4402 88 79.5602 87.96C79.5802 87.74 79.6202 87.52 79.6602 87.28C79.7602 87.28 79.8402 87.26 79.9602 87.26C80.0002 87.5 80.0202 87.72 80.0602 87.96H80.7402C80.7602 87.72 80.3802 86.98 80.4802 86.84C81.1402 86.94 81.7602 86.82 82.3402 86.5C82.3602 86.72 82.3802 86.94 82.4002 87.16C81.5602 87.5 80.5602 88.62 80.0402 88.86C80.3002 88.74 79.9802 89.1 80.0402 88.86Z" fill="white"/>
<path d="M66.1 94.92C66.56 94.88 67.04 94.82 67.54 94.78C67.58 94.7 67.62 94.58 67.68 94.48C67.88 94.46 68.1 94.42 68.32 94.4C68.36 94.3 68.42 94.2 68.46 94.08C69.02 94.04 70.34 93.14 70.42 94.02C70.16 94.04 69.94 94.06 69.68 94.06C69.64 94.16 69.6 94.26 69.54 94.42H68.88C68.82 94.54 68.8 94.64 68.74 94.76C68.54 94.8 68.3 94.82 68.06 94.86C68.04 94.98 68 95.08 67.96 95.26C67.66 95.24 66 95.38 66.1 94.92Z" fill="white"/>
<path d="M73.9599 89.12C73.7199 89.18 73.5599 89.34 73.5599 89.62C73.1599 89.6 72.7999 89.64 72.4399 89.48C72.6799 89.32 72.8799 89.2 72.8199 88.9C73.5199 88.78 73.8999 89 73.9599 89.12C73.7999 88.82 73.7199 89.18 73.9599 89.12Z" fill="white"/>
<path d="M85.62 77.62C85.86 77.66 86.06 77.7 86.32 77.76C86.06 78.24 85.54 78.92 84.84 78.82C84.74 78.42 85.62 77.64 85.62 77.62C85.86 77.66 85.58 77.88 85.62 77.62Z" fill="white"/>
<path d="M75.2201 90.5199C75.6201 90.2999 76.0201 90.0399 76.4801 90.0599C76.5201 90.7999 76.1801 91.0599 75.4401 90.8599C75.2001 90.8599 75.1601 90.7199 75.2201 90.5199Z" fill="white"/>
<path d="M77.9998 88.46H78.3798V89.14C78.1998 89.34 77.9998 89.5 77.7598 89.64C77.0598 89.64 78.0198 88.54 77.9998 88.46Z" fill="white"/>
<path d="M80.0598 82.9C80.7598 82.82 80.3599 83.9 80.0199 83.54C79.8799 83.38 80.0998 82.72 80.0598 82.9C80.5798 82.86 80.0398 83.04 80.0598 82.9Z" fill="white"/>
<path d="M69.6602 94.8V94.46H70.3402C70.3602 94.56 70.3602 94.64 70.3802 94.78C69.7002 94.62 69.4602 94.62 69.6602 94.8C69.6602 94.7 69.4602 94.62 69.6602 94.8Z" fill="white"/>
<path d="M75.7001 91.24C75.9401 91.44 75.9801 91.64 75.9401 91.86C75.9401 91.9 75.8201 91.98 75.7801 91.98C75.7201 91.96 75.6201 91.88 75.6201 91.82C75.6201 91.66 75.6601 91.48 75.7001 91.24Z" fill="white"/>
<path d="M69.6398 94.7999C69.6598 94.9999 69.5798 95.1399 69.3798 95.2199C69.1398 95.1799 69.2198 95.0199 69.2398 94.8599C69.3798 94.8399 69.5198 94.8199 69.6398 94.7999Z" fill="white"/>
<path d="M79.8 84.92C79.18 84.56 80 84.36 79.96 84.62C79.94 84.7 79.88 84.78 79.8 84.92C79.88 84.78 79.7 84.8 79.8 84.92C79.88 84.78 79.52 84.76 79.8 84.92Z" fill="white"/>
<path d="M14.0601 16.9C14.4801 16.84 14.4201 17.26 14.2201 17.26C14.1001 17.22 14.0601 16.84 14.0601 16.9C14.4801 16.82 14.0201 17.08 14.0601 16.9Z" fill="white"/>
<path d="M81.6602 86.26C81.5402 86.32 81.4602 86.4 81.4002 86.4C81.3402 86.4 81.3002 86.3 81.2402 86.24C81.3002 86.2 81.3602 86.1 81.4202 86.1C81.5002 86.1 81.7002 86.28 81.6602 86.26C81.5602 86.18 81.5402 86.32 81.6602 86.26Z" fill="white"/>
<path d="M77.8002 90.5C77.5602 90.32 77.5802 90.16 77.8202 90C78.1802 90.24 77.7802 90.52 77.8002 90.5C77.9002 90.36 77.5602 90.32 77.8002 90.5Z" fill="white"/>
<path d="M6.45992 28.1199C6.43992 27.9799 6.43992 27.8399 6.41992 27.6599L6.45992 28.1199Z" fill="white"/>
<path d="M72.6002 93.16C72.4802 92.9 72.5202 92.84 72.7202 93.02C72.7002 93.06 72.6602 93.1 72.6002 93.16C72.6602 93.1 72.5402 93.1 72.6002 93.16C72.6602 93.1 72.4602 93.1 72.6002 93.16Z" fill="white"/>
</g>
<defs>
<clipPath id="clip0_674_3511">
<rect width="100" height="100" fill="white"/>
</clipPath>
</defs>
</svg>
